<?xml version="1.0" encoding="UTF-8"?>
<svg xmlns="http://www.w3.org/2000/svg" xmlns:xlink="http://www.w3.org/1999/xlink" width="600" height="450" viewBox="0 0 600 450">
<defs>
<g>
<g id="glyph-0-0-817ae8d2">
<path d="M 4.5625 -3.96875 L 7.046875 0 L 4.96875 0 L 3.4375 -2.9375 L 1.9375 0 L -0.046875 0 L 2.421875 -3.90625 L 0.203125 -7.40625 L 2.25 -7.40625 L 3.515625 -4.890625 L 4.765625 -7.40625 L 6.703125 -7.40625 Z M 4.5625 -3.96875 "/>
</g>
<g id="glyph-1-0-817ae8d2">
<path d="M 3.84375 -9.46875 C 4.8125 -9.46875 5.539062 -9.054688 6.03125 -8.234375 C 6.53125 -7.421875 6.78125 -6.222656 6.78125 -4.640625 C 6.78125 -3.078125 6.53125 -1.882812 6.03125 -1.0625 C 5.53125 -0.25 4.800781 0.15625 3.84375 0.15625 C 2.882812 0.15625 2.15625 -0.25 1.65625 -1.0625 C 1.164062 -1.882812 0.921875 -3.082031 0.921875 -4.65625 C 0.921875 -6.238281 1.164062 -7.4375 1.65625 -8.25 C 2.15625 -9.0625 2.882812 -9.46875 3.84375 -9.46875 Z M 3.84375 -8.796875 C 2.457031 -8.796875 1.765625 -7.414062 1.765625 -4.65625 C 1.765625 -1.894531 2.457031 -0.515625 3.84375 -0.515625 C 4.53125 -0.515625 5.046875 -0.847656 5.390625 -1.515625 C 5.742188 -2.191406 5.921875 -3.234375 5.921875 -4.640625 C 5.921875 -6.054688 5.742188 -7.101562 5.390625 -7.78125 C 5.046875 -8.457031 4.53125 -8.796875 3.84375 -8.796875 Z M 3.84375 -8.796875 "/>
</g>
<g id="glyph-1-1-817ae8d2">
<path d="M 1.4375 -1.171875 C 1.632812 -1.171875 1.796875 -1.109375 1.921875 -0.984375 C 2.046875 -0.859375 2.109375 -0.703125 2.109375 -0.515625 C 2.109375 -0.316406 2.046875 -0.15625 1.921875 -0.03125 C 1.796875 0.09375 1.632812 0.15625 1.4375 0.15625 C 1.25 0.15625 1.085938 0.09375 0.953125 -0.03125 C 0.828125 -0.164062 0.765625 -0.328125 0.765625 -0.515625 C 0.765625 -0.703125 0.828125 -0.859375 0.953125 -0.984375 C 1.085938 -1.109375 1.25 -1.171875 1.4375 -1.171875 Z M 1.4375 -1.171875 "/>
</g>
<g id="glyph-2-0-817ae8d2">
<path d="M 3.84375 -9.46875 C 4.8125 -9.46875 5.539062 -9.054688 6.03125 -8.234375 C 6.53125 -7.421875 6.78125 -6.222656 6.78125 -4.640625 C 6.78125 -3.078125 6.53125 -1.882812 6.03125 -1.0625 C 5.53125 -0.25 4.800781 0.15625 3.84375 0.15625 C 2.882812 0.15625 2.15625 -0.25 1.65625 -1.0625 C 1.164062 -1.882812 0.921875 -3.082031 0.921875 -4.65625 C 0.921875 -6.238281 1.164062 -7.4375 1.65625 -8.25 C 2.15625 -9.0625 2.882812 -9.46875 3.84375 -9.46875 Z M 3.84375 -8.796875 C 2.457031 -8.796875 1.765625 -7.414062 1.765625 -4.65625 C 1.765625 -1.894531 2.457031 -0.515625 3.84375 -0.515625 C 4.53125 -0.515625 5.046875 -0.847656 5.390625 -1.515625 C 5.742188 -2.191406 5.921875 -3.234375 5.921875 -4.640625 C 5.921875 -6.054688 5.742188 -7.101562 5.390625 -7.78125 C 5.046875 -8.457031 4.53125 -8.796875 3.84375 -8.796875 Z M 3.84375 -8.796875 "/>
</g>
<g id="glyph-2-1-817ae8d2">
<path d="M 5.671875 -8.640625 L 1.890625 -8.640625 L 1.890625 -5.453125 C 2.398438 -5.742188 2.929688 -5.890625 3.484375 -5.890625 C 4.285156 -5.890625 4.921875 -5.628906 5.390625 -5.109375 C 5.867188 -4.597656 6.109375 -3.894531 6.109375 -3 C 6.109375 -2.394531 5.984375 -1.847656 5.734375 -1.359375 C 5.484375 -0.878906 5.128906 -0.503906 4.671875 -0.234375 C 4.222656 0.0234375 3.703125 0.15625 3.109375 0.15625 C 2.066406 0.15625 1.1875 -0.21875 0.46875 -0.96875 L 0.984375 -1.453125 C 1.273438 -1.140625 1.585938 -0.90625 1.921875 -0.75 C 2.265625 -0.601562 2.660156 -0.53125 3.109375 -0.53125 C 3.773438 -0.53125 4.296875 -0.75 4.671875 -1.1875 C 5.054688 -1.632812 5.25 -2.242188 5.25 -3.015625 C 5.25 -3.753906 5.070312 -4.304688 4.71875 -4.671875 C 4.375 -5.046875 3.898438 -5.234375 3.296875 -5.234375 C 3.003906 -5.234375 2.742188 -5.195312 2.515625 -5.125 C 2.285156 -5.0625 2.03125 -4.945312 1.75 -4.78125 L 1.109375 -4.78125 L 1.109375 -9.3125 L 5.796875 -9.3125 Z M 5.671875 -8.640625 "/>
</g>
<g id="glyph-2-2-817ae8d2">
<path d="M 4.09375 -9.3125 L 4.09375 0 L 3.28125 0 L 3.28125 -8.40625 L 0.984375 -6.984375 L 0.609375 -7.59375 L 3.390625 -9.3125 Z M 4.09375 -9.3125 "/>
</g>
<g id="glyph-2-3-817ae8d2">
<path d="M 1.4375 -1.171875 C 1.632812 -1.171875 1.796875 -1.109375 1.921875 -0.984375 C 2.046875 -0.859375 2.109375 -0.703125 2.109375 -0.515625 C 2.109375 -0.316406 2.046875 -0.15625 1.921875 -0.03125 C 1.796875 0.09375 1.632812 0.15625 1.4375 0.15625 C 1.25 0.15625 1.085938 0.09375 0.953125 -0.03125 C 0.828125 -0.164062 0.765625 -0.328125 0.765625 -0.515625 C 0.765625 -0.703125 0.828125 -0.859375 0.953125 -0.984375 C 1.085938 -1.109375 1.25 -1.171875 1.4375 -1.171875 Z M 1.4375 -1.171875 "/>
</g>
<g id="glyph-3-0-817ae8d2">
<path d="M 1.4375 -1.171875 C 1.632812 -1.171875 1.796875 -1.109375 1.921875 -0.984375 C 2.046875 -0.859375 2.109375 -0.703125 2.109375 -0.515625 C 2.109375 -0.316406 2.046875 -0.15625 1.921875 -0.03125 C 1.796875 0.09375 1.632812 0.15625 1.4375 0.15625 C 1.25 0.15625 1.085938 0.09375 0.953125 -0.03125 C 0.828125 -0.164062 0.765625 -0.328125 0.765625 -0.515625 C 0.765625 -0.703125 0.828125 -0.859375 0.953125 -0.984375 C 1.085938 -1.109375 1.25 -1.171875 1.4375 -1.171875 Z M 1.4375 -1.171875 "/>
</g>
<g id="glyph-4-0-817ae8d2">
<path d="M 0.03125 -4.65625 C 0.945312 -4.363281 1.65625 -3.910156 2.15625 -3.296875 C 2.664062 -2.691406 2.960938 -1.863281 3.046875 -0.8125 L 1.75 -0.625 C 1.675781 -1.113281 1.570312 -1.503906 1.4375 -1.796875 C 1.300781 -2.085938 1.117188 -2.320312 0.890625 -2.5 C 0.671875 -2.675781 0.375 -2.84375 0 -3 L 0 -2.375 L -7.40625 -0.03125 L -7.40625 -1.9375 L -1.1875 -3.546875 L -7.40625 -5.21875 L -7.40625 -7.0625 Z M 0.03125 -4.65625 "/>
</g>
<g id="glyph-5-0-817ae8d2">
<path d="M 3.84375 -9.46875 C 4.8125 -9.46875 5.539062 -9.054688 6.03125 -8.234375 C 6.53125 -7.421875 6.78125 -6.222656 6.78125 -4.640625 C 6.78125 -3.078125 6.53125 -1.882812 6.03125 -1.0625 C 5.53125 -0.25 4.800781 0.15625 3.84375 0.15625 C 2.882812 0.15625 2.15625 -0.25 1.65625 -1.0625 C 1.164062 -1.882812 0.921875 -3.082031 0.921875 -4.65625 C 0.921875 -6.238281 1.164062 -7.4375 1.65625 -8.25 C 2.15625 -9.0625 2.882812 -9.46875 3.84375 -9.46875 Z M 3.84375 -8.796875 C 2.457031 -8.796875 1.765625 -7.414062 1.765625 -4.65625 C 1.765625 -1.894531 2.457031 -0.515625 3.84375 -0.515625 C 4.53125 -0.515625 5.046875 -0.847656 5.390625 -1.515625 C 5.742188 -2.191406 5.921875 -3.234375 5.921875 -4.640625 C 5.921875 -6.054688 5.742188 -7.101562 5.390625 -7.78125 C 5.046875 -8.457031 4.53125 -8.796875 3.84375 -8.796875 Z M 3.84375 -8.796875 "/>
</g>
<g id="glyph-6-0-817ae8d2">
<path d="M 1.4375 -1.171875 C 1.632812 -1.171875 1.796875 -1.109375 1.921875 -0.984375 C 2.046875 -0.859375 2.109375 -0.703125 2.109375 -0.515625 C 2.109375 -0.316406 2.046875 -0.15625 1.921875 -0.03125 C 1.796875 0.09375 1.632812 0.15625 1.4375 0.15625 C 1.25 0.15625 1.085938 0.09375 0.953125 -0.03125 C 0.828125 -0.164062 0.765625 -0.328125 0.765625 -0.515625 C 0.765625 -0.703125 0.828125 -0.859375 0.953125 -0.984375 C 1.085938 -1.109375 1.25 -1.171875 1.4375 -1.171875 Z M 1.4375 -1.171875 "/>
</g>
<g id="glyph-7-0-817ae8d2">
<path d="M 3.84375 -9.46875 C 4.8125 -9.46875 5.539062 -9.054688 6.03125 -8.234375 C 6.53125 -7.421875 6.78125 -6.222656 6.78125 -4.640625 C 6.78125 -3.078125 6.53125 -1.882812 6.03125 -1.0625 C 5.53125 -0.25 4.800781 0.15625 3.84375 0.15625 C 2.882812 0.15625 2.15625 -0.25 1.65625 -1.0625 C 1.164062 -1.882812 0.921875 -3.082031 0.921875 -4.65625 C 0.921875 -6.238281 1.164062 -7.4375 1.65625 -8.25 C 2.15625 -9.0625 2.882812 -9.46875 3.84375 -9.46875 Z M 3.84375 -8.796875 C 2.457031 -8.796875 1.765625 -7.414062 1.765625 -4.65625 C 1.765625 -1.894531 2.457031 -0.515625 3.84375 -0.515625 C 4.53125 -0.515625 5.046875 -0.847656 5.390625 -1.515625 C 5.742188 -2.191406 5.921875 -3.234375 5.921875 -4.640625 C 5.921875 -6.054688 5.742188 -7.101562 5.390625 -7.78125 C 5.046875 -8.457031 4.53125 -8.796875 3.84375 -8.796875 Z M 3.84375 -8.796875 "/>
</g>
<g id="glyph-8-0-817ae8d2">
<path d="M 3.84375 -9.46875 C 4.8125 -9.46875 5.539062 -9.054688 6.03125 -8.234375 C 6.53125 -7.421875 6.78125 -6.222656 6.78125 -4.640625 C 6.78125 -3.078125 6.53125 -1.882812 6.03125 -1.0625 C 5.53125 -0.25 4.800781 0.15625 3.84375 0.15625 C 2.882812 0.15625 2.15625 -0.25 1.65625 -1.0625 C 1.164062 -1.882812 0.921875 -3.082031 0.921875 -4.65625 C 0.921875 -6.238281 1.164062 -7.4375 1.65625 -8.25 C 2.15625 -9.0625 2.882812 -9.46875 3.84375 -9.46875 Z M 3.84375 -8.796875 C 2.457031 -8.796875 1.765625 -7.414062 1.765625 -4.65625 C 1.765625 -1.894531 2.457031 -0.515625 3.84375 -0.515625 C 4.53125 -0.515625 5.046875 -0.847656 5.390625 -1.515625 C 5.742188 -2.191406 5.921875 -3.234375 5.921875 -4.640625 C 5.921875 -6.054688 5.742188 -7.101562 5.390625 -7.78125 C 5.046875 -8.457031 4.53125 -8.796875 3.84375 -8.796875 Z M 3.84375 -8.796875 "/>
</g>
<g id="glyph-9-0-817ae8d2">
<path d="M 1.4375 -1.171875 C 1.632812 -1.171875 1.796875 -1.109375 1.921875 -0.984375 C 2.046875 -0.859375 2.109375 -0.703125 2.109375 -0.515625 C 2.109375 -0.316406 2.046875 -0.15625 1.921875 -0.03125 C 1.796875 0.09375 1.632812 0.15625 1.4375 0.15625 C 1.25 0.15625 1.085938 0.09375 0.953125 -0.03125 C 0.828125 -0.164062 0.765625 -0.328125 0.765625 -0.515625 C 0.765625 -0.703125 0.828125 -0.859375 0.953125 -0.984375 C 1.085938 -1.109375 1.25 -1.171875 1.4375 -1.171875 Z M 1.4375 -1.171875 "/>
</g>
<g id="glyph-10-0-817ae8d2">
<path d="M 5.671875 -8.640625 L 1.890625 -8.640625 L 1.890625 -5.453125 C 2.398438 -5.742188 2.929688 -5.890625 3.484375 -5.890625 C 4.285156 -5.890625 4.921875 -5.628906 5.390625 -5.109375 C 5.867188 -4.597656 6.109375 -3.894531 6.109375 -3 C 6.109375 -2.394531 5.984375 -1.847656 5.734375 -1.359375 C 5.484375 -0.878906 5.128906 -0.503906 4.671875 -0.234375 C 4.222656 0.0234375 3.703125 0.15625 3.109375 0.15625 C 2.066406 0.15625 1.1875 -0.21875 0.46875 -0.96875 L 0.984375 -1.453125 C 1.273438 -1.140625 1.585938 -0.90625 1.921875 -0.75 C 2.265625 -0.601562 2.660156 -0.53125 3.109375 -0.53125 C 3.773438 -0.53125 4.296875 -0.75 4.671875 -1.1875 C 5.054688 -1.632812 5.25 -2.242188 5.25 -3.015625 C 5.25 -3.753906 5.070312 -4.304688 4.71875 -4.671875 C 4.375 -5.046875 3.898438 -5.234375 3.296875 -5.234375 C 3.003906 -5.234375 2.742188 -5.195312 2.515625 -5.125 C 2.285156 -5.0625 2.03125 -4.945312 1.75 -4.78125 L 1.109375 -4.78125 L 1.109375 -9.3125 L 5.796875 -9.3125 Z M 5.671875 -8.640625 "/>
</g>
<g id="glyph-11-0-817ae8d2">
<path d="M 4.09375 -9.3125 L 4.09375 0 L 3.28125 0 L 3.28125 -8.40625 L 0.984375 -6.984375 L 0.609375 -7.59375 L 3.390625 -9.3125 Z M 4.09375 -9.3125 "/>
</g>
<g id="glyph-11-1-817ae8d2">
<path d="M 1.4375 -1.171875 C 1.632812 -1.171875 1.796875 -1.109375 1.921875 -0.984375 C 2.046875 -0.859375 2.109375 -0.703125 2.109375 -0.515625 C 2.109375 -0.316406 2.046875 -0.15625 1.921875 -0.03125 C 1.796875 0.09375 1.632812 0.15625 1.4375 0.15625 C 1.25 0.15625 1.085938 0.09375 0.953125 -0.03125 C 0.828125 -0.164062 0.765625 -0.328125 0.765625 -0.515625 C 0.765625 -0.703125 0.828125 -0.859375 0.953125 -0.984375 C 1.085938 -1.109375 1.25 -1.171875 1.4375 -1.171875 Z M 1.4375 -1.171875 "/>
</g>
<g id="glyph-12-0-817ae8d2">
<path d="M 3.84375 -9.46875 C 4.8125 -9.46875 5.539062 -9.054688 6.03125 -8.234375 C 6.53125 -7.421875 6.78125 -6.222656 6.78125 -4.640625 C 6.78125 -3.078125 6.53125 -1.882812 6.03125 -1.0625 C 5.53125 -0.25 4.800781 0.15625 3.84375 0.15625 C 2.882812 0.15625 2.15625 -0.25 1.65625 -1.0625 C 1.164062 -1.882812 0.921875 -3.082031 0.921875 -4.65625 C 0.921875 -6.238281 1.164062 -7.4375 1.65625 -8.25 C 2.15625 -9.0625 2.882812 -9.46875 3.84375 -9.46875 Z M 3.84375 -8.796875 C 2.457031 -8.796875 1.765625 -7.414062 1.765625 -4.65625 C 1.765625 -1.894531 2.457031 -0.515625 3.84375 -0.515625 C 4.53125 -0.515625 5.046875 -0.847656 5.390625 -1.515625 C 5.742188 -2.191406 5.921875 -3.234375 5.921875 -4.640625 C 5.921875 -6.054688 5.742188 -7.101562 5.390625 -7.78125 C 5.046875 -8.457031 4.53125 -8.796875 3.84375 -8.796875 Z M 3.84375 -8.796875 "/>
</g>
</g>
</defs>
<rect x="-60" y="-45" width="720" height="540" fill="rgb(100%, 100%, 100%)" fill-opacity="1"/>
<path fill-rule="nonzero" fill="rgb(100%, 100%, 100%)" fill-opacity="1" d="M 65 390 L 584 390 L 584 16 L 65 16 Z M 65 390 "/>
<g fill="rgb(0%, 0%, 0%)" fill-opacity="1">
<use xlink:href="#glyph-0-0-817ae8d2" x="321.000031" y="430.890015"/>
</g>
<g fill="rgb(0%, 0%, 0%)" fill-opacity="1">
<use xlink:href="#glyph-1-0-817ae8d2" x="64.501244" y="411.089996"/>
</g>
<g fill="rgb(0%, 0%, 0%)" fill-opacity="1">
<use xlink:href="#glyph-1-1-817ae8d2" x="72.201241" y="411.089996"/>
</g>
<g fill="rgb(0%, 0%, 0%)" fill-opacity="1">
<use xlink:href="#glyph-2-0-817ae8d2" x="75.099243" y="411.089996"/>
</g>
<g fill="rgb(0%, 0%, 0%)" fill-opacity="1">
<use xlink:href="#glyph-2-0-817ae8d2" x="308.445892" y="411.089996"/>
</g>
<g fill="rgb(0%, 0%, 0%)" fill-opacity="1">
<use xlink:href="#glyph-3-0-817ae8d2" x="316.145905" y="411.089996"/>
</g>
<g fill="rgb(0%, 0%, 0%)" fill-opacity="1">
<use xlink:href="#glyph-2-1-817ae8d2" x="319.043884" y="411.089996"/>
</g>
<g fill="rgb(0%, 0%, 0%)" fill-opacity="1">
<use xlink:href="#glyph-2-2-817ae8d2" x="552.467529" y="411.089996"/>
</g>
<g fill="rgb(0%, 0%, 0%)" fill-opacity="1">
<use xlink:href="#glyph-2-3-817ae8d2" x="558.249512" y="411.089996"/>
</g>
<g fill="rgb(0%, 0%, 0%)" fill-opacity="1">
<use xlink:href="#glyph-2-0-817ae8d2" x="561.147522" y="411.089996"/>
</g>
<g fill="rgb(0%, 0%, 0%)" fill-opacity="1">
<use xlink:href="#glyph-4-0-817ae8d2" x="27.991999" y="206.542007"/>
</g>
<g fill="rgb(0%, 0%, 0%)" fill-opacity="1">
<use xlink:href="#glyph-5-0-817ae8d2" x="36.702007" y="379.70755"/>
</g>
<g fill="rgb(0%, 0%, 0%)" fill-opacity="1">
<use xlink:href="#glyph-6-0-817ae8d2" x="44.402004" y="379.70755"/>
</g>
<g fill="rgb(0%, 0%, 0%)" fill-opacity="1">
<use xlink:href="#glyph-7-0-817ae8d2" x="47.300003" y="379.70755"/>
</g>
<g fill="rgb(0%, 0%, 0%)" fill-opacity="1">
<use xlink:href="#glyph-8-0-817ae8d2" x="37.584007" y="208.157379"/>
</g>
<g fill="rgb(0%, 0%, 0%)" fill-opacity="1">
<use xlink:href="#glyph-9-0-817ae8d2" x="45.284004" y="208.157379"/>
</g>
<g fill="rgb(0%, 0%, 0%)" fill-opacity="1">
<use xlink:href="#glyph-10-0-817ae8d2" x="48.182003" y="208.157379"/>
</g>
<g fill="rgb(0%, 0%, 0%)" fill-opacity="1">
<use xlink:href="#glyph-11-0-817ae8d2" x="38.620003" y="36.607204"/>
</g>
<g fill="rgb(0%, 0%, 0%)" fill-opacity="1">
<use xlink:href="#glyph-11-1-817ae8d2" x="44.402004" y="36.607204"/>
</g>
<g fill="rgb(0%, 0%, 0%)" fill-opacity="1">
<use xlink:href="#glyph-12-0-817ae8d2" x="47.300003" y="36.607204"/>
</g>
<path fill-rule="nonzero" fill="rgb(25.098041%, 25.098041%, 25.098041%)" fill-opacity="1" d="M 470.652344 38.996094 C 470.652344 34.765625 464.304688 34.765625 464.304688 38.996094 C 464.304688 43.226562 470.652344 43.226562 470.652344 38.996094 Z M 470.652344 38.996094 "/>
<path fill-rule="nonzero" fill="rgb(25.098041%, 25.098041%, 25.098041%)" fill-opacity="1" d="M 190.683594 283.296875 C 190.683594 279.066406 184.339844 279.066406 184.339844 283.296875 C 184.339844 287.523438 190.683594 287.523438 190.683594 283.296875 Z M 190.683594 283.296875 "/>
<path fill-rule="nonzero" fill="rgb(25.098041%, 25.098041%, 25.098041%)" fill-opacity="1" d="M 138.554688 207.976562 C 138.554688 203.75 132.210938 203.75 132.210938 207.976562 C 132.210938 212.207031 138.554688 212.207031 138.554688 207.976562 Z M 138.554688 207.976562 "/>
<path fill-rule="nonzero" fill="rgb(25.098041%, 25.098041%, 25.098041%)" fill-opacity="1" d="M 237.316406 368.960938 C 237.316406 364.730469 230.972656 364.730469 230.972656 368.960938 C 230.972656 373.191406 237.316406 373.191406 237.316406 368.960938 Z M 237.316406 368.960938 "/>
<path fill-rule="nonzero" fill="rgb(25.098041%, 25.098041%, 25.098041%)" fill-opacity="1" d="M 478.964844 220.714844 C 478.964844 216.484375 472.621094 216.484375 472.621094 220.714844 C 472.621094 224.945312 478.964844 224.945312 478.964844 220.714844 Z M 478.964844 220.714844 "/>
<path fill-rule="nonzero" fill="rgb(25.098041%, 25.098041%, 25.098041%)" fill-opacity="1" d="M 164.46875 110.09375 C 164.46875 105.863281 158.125 105.863281 158.125 110.09375 C 158.125 114.324219 164.46875 114.324219 164.46875 110.09375 Z M 164.46875 110.09375 "/>
<path fill-rule="nonzero" fill="rgb(25.098041%, 25.098041%, 25.098041%)" fill-opacity="1" d="M 503.582031 242.746094 C 503.582031 238.515625 497.234375 238.515625 497.234375 242.746094 C 497.234375 246.976562 503.582031 246.976562 503.582031 242.746094 Z M 503.582031 242.746094 "/>
<path fill-rule="nonzero" fill="rgb(25.098041%, 25.098041%, 25.098041%)" fill-opacity="1" d="M 360.203125 41.277344 C 360.203125 37.046875 353.859375 37.046875 353.859375 41.277344 C 353.859375 45.507812 360.203125 45.507812 360.203125 41.277344 Z M 360.203125 41.277344 "/>
<path fill-rule="nonzero" fill="rgb(25.098041%, 25.098041%, 25.098041%)" fill-opacity="1" d="M 307.734375 321.199219 C 307.734375 316.96875 301.390625 316.96875 301.390625 321.199219 C 301.390625 325.429688 307.734375 325.429688 307.734375 321.199219 Z M 307.734375 321.199219 "/>
<path fill-rule="nonzero" fill="rgb(25.098041%, 25.098041%, 25.098041%)" fill-opacity="1" d="M 541.015625 92.851562 C 541.015625 88.621094 534.667969 88.621094 534.667969 92.851562 C 534.667969 97.078125 541.015625 97.078125 541.015625 92.851562 Z M 541.015625 92.851562 "/>
<path fill-rule="nonzero" fill="rgb(25.098041%, 25.098041%, 25.098041%)" fill-opacity="1" d="M 347.621094 106.144531 C 347.621094 101.914062 341.277344 101.914062 341.277344 106.144531 C 341.277344 110.375 347.621094 110.375 347.621094 106.144531 Z M 347.621094 106.144531 "/>
<path fill-rule="nonzero" fill="rgb(25.098041%, 25.098041%, 25.098041%)" fill-opacity="1" d="M 120.917969 240.53125 C 120.917969 236.304688 114.574219 236.304688 114.574219 240.53125 C 114.574219 244.761719 120.917969 244.761719 120.917969 240.53125 Z M 120.917969 240.53125 "/>
<path fill-rule="nonzero" fill="rgb(25.098041%, 25.098041%, 25.098041%)" fill-opacity="1" d="M 520.265625 187.746094 C 520.265625 183.515625 513.921875 183.515625 513.921875 187.746094 C 513.921875 191.972656 520.265625 191.972656 520.265625 187.746094 Z M 520.265625 187.746094 "/>
<path fill-rule="nonzero" fill="rgb(25.098041%, 25.098041%, 25.098041%)" fill-opacity="1" d="M 487.445312 213.414062 C 487.445312 209.1875 481.101562 209.1875 481.101562 213.414062 C 481.101562 217.644531 487.445312 217.644531 487.445312 213.414062 Z M 487.445312 213.414062 "/>
<path fill-rule="nonzero" fill="rgb(25.098041%, 25.098041%, 25.098041%)" fill-opacity="1" d="M 445.042969 330.964844 C 445.042969 326.738281 438.699219 326.738281 438.699219 330.964844 C 438.699219 335.195312 445.042969 335.195312 445.042969 330.964844 Z M 445.042969 330.964844 "/>
<path fill-rule="nonzero" fill="rgb(25.098041%, 25.098041%, 25.098041%)" fill-opacity="1" d="M 329.359375 344.46875 C 329.359375 340.238281 323.015625 340.238281 323.015625 344.46875 C 323.015625 348.699219 329.359375 348.699219 329.359375 344.46875 Z M 329.359375 344.46875 "/>
<path fill-rule="nonzero" fill="rgb(25.098041%, 25.098041%, 25.098041%)" fill-opacity="1" d="M 114.695312 94.269531 C 114.695312 90.039062 108.351562 90.039062 108.351562 94.269531 C 108.351562 98.5 114.695312 98.5 114.695312 94.269531 Z M 114.695312 94.269531 "/>
<path fill-rule="nonzero" fill="rgb(25.098041%, 25.098041%, 25.098041%)" fill-opacity="1" d="M 193.230469 324.933594 C 193.230469 320.703125 186.886719 320.703125 186.886719 324.933594 C 186.886719 329.164062 193.230469 329.164062 193.230469 324.933594 Z M 193.230469 324.933594 "/>
<path fill-rule="nonzero" fill="rgb(25.098041%, 25.098041%, 25.098041%)" fill-opacity="1" d="M 331.773438 42.148438 C 331.773438 37.917969 325.425781 37.917969 325.425781 42.148438 C 325.425781 46.378906 331.773438 46.378906 331.773438 42.148438 Z M 331.773438 42.148438 "/>
<path fill-rule="nonzero" fill="rgb(25.098041%, 25.098041%, 25.098041%)" fill-opacity="1" d="M 225.882812 298.308594 C 225.882812 294.078125 219.535156 294.078125 219.535156 298.308594 C 219.535156 302.539062 225.882812 302.539062 225.882812 298.308594 Z M 225.882812 298.308594 "/>
<path fill-rule="nonzero" fill="rgb(25.098041%, 25.098041%, 25.098041%)" fill-opacity="1" d="M 442.757812 169.753906 C 442.757812 165.523438 436.414062 165.523438 436.414062 169.753906 C 436.414062 173.984375 442.757812 173.984375 442.757812 169.753906 Z M 442.757812 169.753906 "/>
<path fill-rule="nonzero" fill="rgb(25.098041%, 25.098041%, 25.098041%)" fill-opacity="1" d="M 359.125 329.265625 C 359.125 325.035156 352.777344 325.035156 352.777344 329.265625 C 352.777344 333.496094 359.125 333.496094 359.125 329.265625 Z M 359.125 329.265625 "/>
<path fill-rule="nonzero" fill="rgb(25.098041%, 25.098041%, 25.098041%)" fill-opacity="1" d="M 399.957031 369.03125 C 399.957031 364.804688 393.613281 364.804688 393.613281 369.03125 C 393.613281 373.261719 399.957031 373.261719 399.957031 369.03125 Z M 399.957031 369.03125 "/>
<path fill-rule="nonzero" fill="rgb(25.098041%, 25.098041%, 25.098041%)" fill-opacity="1" d="M 215.554688 33.195312 C 215.554688 28.964844 209.210938 28.964844 209.210938 33.195312 C 209.210938 37.421875 215.554688 37.421875 215.554688 33.195312 Z M 215.554688 33.195312 "/>
<path fill-rule="nonzero" fill="rgb(25.098041%, 25.098041%, 25.098041%)" fill-opacity="1" d="M 494.449219 240.746094 C 494.449219 236.515625 488.105469 236.515625 488.105469 240.746094 C 488.105469 244.972656 494.449219 244.972656 494.449219 240.746094 Z M 494.449219 240.746094 "/>
<path fill-rule="nonzero" fill="rgb(25.098041%, 25.098041%, 25.098041%)" fill-opacity="1" d="M 99.003906 278.582031 C 99.003906 274.351562 92.660156 274.351562 92.660156 278.582031 C 92.660156 282.8125 99.003906 282.8125 99.003906 278.582031 Z M 99.003906 278.582031 "/>
<path fill-rule="nonzero" fill="rgb(25.098041%, 25.098041%, 25.098041%)" fill-opacity="1" d="M 435.152344 257.601562 C 435.152344 253.371094 428.804688 253.371094 428.804688 257.601562 C 428.804688 261.828125 435.152344 261.828125 435.152344 257.601562 Z M 435.152344 257.601562 "/>
<path fill-rule="nonzero" fill="rgb(25.098041%, 25.098041%, 25.098041%)" fill-opacity="1" d="M 533.898438 171.0625 C 533.898438 166.832031 527.550781 166.832031 527.550781 171.0625 C 527.550781 175.292969 533.898438 175.292969 533.898438 171.0625 Z M 533.898438 171.0625 "/>
<path fill-rule="nonzero" fill="rgb(25.098041%, 25.098041%, 25.098041%)" fill-opacity="1" d="M 530.78125 347.0625 C 530.78125 342.835938 524.4375 342.835938 524.4375 347.0625 C 524.4375 351.292969 530.78125 351.292969 530.78125 347.0625 Z M 530.78125 347.0625 "/>
<path fill-rule="nonzero" fill="rgb(25.098041%, 25.098041%, 25.098041%)" fill-opacity="1" d="M 187.675781 164.066406 C 187.675781 159.835938 181.332031 159.835938 181.332031 164.066406 C 181.332031 168.292969 187.675781 168.292969 187.675781 164.066406 Z M 187.675781 164.066406 "/>
<path fill-rule="nonzero" fill="rgb(25.098041%, 25.098041%, 25.098041%)" fill-opacity="1" d="M 300.710938 33 C 300.710938 28.769531 294.367188 28.769531 294.367188 33 C 294.367188 37.230469 300.710938 37.230469 300.710938 33 Z M 300.710938 33 "/>
<path fill-rule="nonzero" fill="rgb(25.098041%, 25.098041%, 25.098041%)" fill-opacity="1" d="M 498.605469 295.835938 C 498.605469 291.605469 492.261719 291.605469 492.261719 295.835938 C 492.261719 300.066406 498.605469 300.066406 498.605469 295.835938 Z M 498.605469 295.835938 "/>
<path fill-rule="nonzero" fill="rgb(25.098041%, 25.098041%, 25.098041%)" fill-opacity="1" d="M 519.859375 69.578125 C 519.859375 65.347656 513.511719 65.347656 513.511719 69.578125 C 513.511719 73.808594 519.859375 73.808594 519.859375 69.578125 Z M 519.859375 69.578125 "/>
<path fill-rule="nonzero" fill="rgb(25.098041%, 25.098041%, 25.098041%)" fill-opacity="1" d="M 231.476562 327.457031 C 231.476562 323.226562 225.128906 323.226562 225.128906 327.457031 C 225.128906 331.6875 231.476562 331.6875 231.476562 327.457031 Z M 231.476562 327.457031 "/>
<path fill-rule="nonzero" fill="rgb(25.098041%, 25.098041%, 25.098041%)" fill-opacity="1" d="M 225.714844 178.6875 C 225.714844 174.457031 219.367188 174.457031 219.367188 178.6875 C 219.367188 182.917969 225.714844 182.917969 225.714844 178.6875 Z M 225.714844 178.6875 "/>
<path fill-rule="nonzero" fill="rgb(25.098041%, 25.098041%, 25.098041%)" fill-opacity="1" d="M 266.566406 60.824219 C 266.566406 56.59375 260.222656 56.59375 260.222656 60.824219 C 260.222656 65.050781 266.566406 65.050781 266.566406 60.824219 Z M 266.566406 60.824219 "/>
<path fill-rule="nonzero" fill="rgb(25.098041%, 25.098041%, 25.098041%)" fill-opacity="1" d="M 543.96875 276.53125 C 543.96875 272.300781 537.621094 272.300781 537.621094 276.53125 C 537.621094 280.761719 543.96875 280.761719 543.96875 276.53125 Z M 543.96875 276.53125 "/>
<path fill-rule="nonzero" fill="rgb(25.098041%, 25.098041%, 25.098041%)" fill-opacity="1" d="M 397.277344 53.859375 C 397.277344 49.632812 390.933594 49.632812 390.933594 53.859375 C 390.933594 58.089844 397.277344 58.089844 397.277344 53.859375 Z M 397.277344 53.859375 "/>
<path fill-rule="nonzero" fill="rgb(25.098041%, 25.098041%, 25.098041%)" fill-opacity="1" d="M 130.15625 51.335938 C 130.15625 47.105469 123.8125 47.105469 123.8125 51.335938 C 123.8125 55.5625 130.15625 55.5625 130.15625 51.335938 Z M 130.15625 51.335938 "/>
<path fill-rule="nonzero" fill="rgb(25.098041%, 25.098041%, 25.098041%)" fill-opacity="1" d="M 162.777344 287.726562 C 162.777344 283.5 156.433594 283.5 156.433594 287.726562 C 156.433594 291.957031 162.777344 291.957031 162.777344 287.726562 Z M 162.777344 287.726562 "/>
<path fill-rule="nonzero" fill="rgb(25.098041%, 25.098041%, 25.098041%)" fill-opacity="1" d="M 175.113281 182.480469 C 175.113281 178.25 168.769531 178.25 168.769531 182.480469 C 168.769531 186.710938 175.113281 186.710938 175.113281 182.480469 Z M 175.113281 182.480469 "/>
<path fill-rule="nonzero" fill="rgb(25.098041%, 25.098041%, 25.098041%)" fill-opacity="1" d="M 190.265625 188.429688 C 190.265625 184.199219 183.921875 184.199219 183.921875 188.429688 C 183.921875 192.660156 190.265625 192.660156 190.265625 188.429688 Z M 190.265625 188.429688 "/>
<path fill-rule="nonzero" fill="rgb(25.098041%, 25.098041%, 25.098041%)" fill-opacity="1" d="M 453.453125 42.601562 C 453.453125 38.371094 447.109375 38.371094 447.109375 42.601562 C 447.109375 46.832031 453.453125 46.832031 453.453125 42.601562 Z M 453.453125 42.601562 "/>
<path fill-rule="nonzero" fill="rgb(25.098041%, 25.098041%, 25.098041%)" fill-opacity="1" d="M 104.667969 180.335938 C 104.667969 176.105469 98.320312 176.105469 98.320312 180.335938 C 98.320312 184.566406 104.667969 184.566406 104.667969 180.335938 Z M 104.667969 180.335938 "/>
<path fill-rule="nonzero" fill="rgb(25.098041%, 25.098041%, 25.098041%)" fill-opacity="1" d="M 511.253906 240.308594 C 511.253906 236.078125 504.910156 236.078125 504.910156 240.308594 C 504.910156 244.535156 511.253906 244.535156 511.253906 240.308594 Z M 511.253906 240.308594 "/>
<path fill-rule="nonzero" fill="rgb(25.098041%, 25.098041%, 25.098041%)" fill-opacity="1" d="M 96.074219 234.558594 C 96.074219 230.328125 89.730469 230.328125 89.730469 234.558594 C 89.730469 238.785156 96.074219 238.785156 96.074219 234.558594 Z M 96.074219 234.558594 "/>
<path fill-rule="nonzero" fill="rgb(25.098041%, 25.098041%, 25.098041%)" fill-opacity="1" d="M 452.660156 86.78125 C 452.660156 82.550781 446.316406 82.550781 446.316406 86.78125 C 446.316406 91.011719 452.660156 91.011719 452.660156 86.78125 Z M 452.660156 86.78125 "/>
<path fill-rule="nonzero" fill="rgb(25.098041%, 25.098041%, 25.098041%)" fill-opacity="1" d="M 511.097656 181.820312 C 511.097656 177.589844 504.753906 177.589844 504.753906 181.820312 C 504.753906 186.050781 511.097656 186.050781 511.097656 181.820312 Z M 511.097656 181.820312 "/>
<path fill-rule="nonzero" fill="rgb(25.098041%, 25.098041%, 25.098041%)" fill-opacity="1" d="M 128.347656 336.957031 C 128.347656 332.726562 122.003906 332.726562 122.003906 336.957031 C 122.003906 341.1875 128.347656 341.1875 128.347656 336.957031 Z M 128.347656 336.957031 "/>
<path fill-rule="nonzero" fill="rgb(25.098041%, 25.098041%, 25.098041%)" fill-opacity="1" d="M 135.789062 85.148438 C 135.789062 80.921875 129.445312 80.921875 129.445312 85.148438 C 129.445312 89.378906 135.789062 89.378906 135.789062 85.148438 Z M 135.789062 85.148438 "/>
<path fill-rule="nonzero" fill="rgb(25.098041%, 25.098041%, 25.098041%)" fill-opacity="1" d="M 395.289062 317.039062 C 395.289062 312.808594 388.941406 312.808594 388.941406 317.039062 C 388.941406 321.269531 395.289062 321.269531 395.289062 317.039062 Z M 395.289062 317.039062 "/>
<path fill-rule="nonzero" fill="rgb(25.098041%, 25.098041%, 25.098041%)" fill-opacity="1" d="M 383.765625 89.1875 C 383.765625 84.957031 377.421875 84.957031 377.421875 89.1875 C 377.421875 93.417969 383.765625 93.417969 383.765625 89.1875 Z M 383.765625 89.1875 "/>
<path fill-rule="nonzero" fill="rgb(25.098041%, 25.098041%, 25.098041%)" fill-opacity="1" d="M 536.828125 286.230469 C 536.828125 282 530.484375 282 530.484375 286.230469 C 530.484375 290.457031 536.828125 290.457031 536.828125 286.230469 Z M 536.828125 286.230469 "/>
<path fill-rule="nonzero" fill="rgb(25.098041%, 25.098041%, 25.098041%)" fill-opacity="1" d="M 462.074219 199.246094 C 462.074219 195.015625 455.730469 195.015625 455.730469 199.246094 C 455.730469 203.476562 462.074219 203.476562 462.074219 199.246094 Z M 462.074219 199.246094 "/>
<path fill-rule="nonzero" fill="rgb(25.098041%, 25.098041%, 25.098041%)" fill-opacity="1" d="M 245.335938 155.542969 C 245.335938 151.316406 238.988281 151.316406 238.988281 155.542969 C 238.988281 159.773438 245.335938 159.773438 245.335938 155.542969 Z M 245.335938 155.542969 "/>
<path fill-rule="nonzero" fill="rgb(25.098041%, 25.098041%, 25.098041%)" fill-opacity="1" d="M 543.019531 229.921875 C 543.019531 225.691406 536.675781 225.691406 536.675781 229.921875 C 536.675781 234.152344 543.019531 234.152344 543.019531 229.921875 Z M 543.019531 229.921875 "/>
<path fill-rule="nonzero" fill="rgb(25.098041%, 25.098041%, 25.098041%)" fill-opacity="1" d="M 95.054688 295.570312 C 95.054688 291.339844 88.710938 291.339844 88.710938 295.570312 C 88.710938 299.800781 95.054688 299.800781 95.054688 295.570312 Z M 95.054688 295.570312 "/>
<path fill-rule="nonzero" fill="rgb(25.098041%, 25.098041%, 25.098041%)" fill-opacity="1" d="M 299.359375 150.398438 C 299.359375 146.167969 293.015625 146.167969 293.015625 150.398438 C 293.015625 154.628906 299.359375 154.628906 299.359375 150.398438 Z M 299.359375 150.398438 "/>
<path fill-rule="nonzero" fill="rgb(25.098041%, 25.098041%, 25.098041%)" fill-opacity="1" d="M 479.34375 39.183594 C 479.34375 34.953125 472.996094 34.953125 472.996094 39.183594 C 472.996094 43.414062 479.34375 43.414062 479.34375 39.183594 Z M 479.34375 39.183594 "/>
<path fill-rule="nonzero" fill="rgb(25.098041%, 25.098041%, 25.098041%)" fill-opacity="1" d="M 95.332031 304.851562 C 95.332031 300.625 88.988281 300.625 88.988281 304.851562 C 88.988281 309.082031 95.332031 309.082031 95.332031 304.851562 Z M 95.332031 304.851562 "/>
<path fill-rule="nonzero" fill="rgb(25.098041%, 25.098041%, 25.098041%)" fill-opacity="1" d="M 159.457031 130.039062 C 159.457031 125.808594 153.113281 125.808594 153.113281 130.039062 C 153.113281 134.269531 159.457031 134.269531 159.457031 130.039062 Z M 159.457031 130.039062 "/>
<path fill-rule="nonzero" fill="rgb(25.098041%, 25.098041%, 25.098041%)" fill-opacity="1" d="M 528.546875 373 C 528.546875 368.769531 522.203125 368.769531 522.203125 373 C 522.203125 377.230469 528.546875 377.230469 528.546875 373 Z M 528.546875 373 "/>
<path fill-rule="nonzero" fill="rgb(25.098041%, 25.098041%, 25.098041%)" fill-opacity="1" d="M 284.332031 209.429688 C 284.332031 205.199219 277.988281 205.199219 277.988281 209.429688 C 277.988281 213.660156 284.332031 213.660156 284.332031 209.429688 Z M 284.332031 209.429688 "/>
<path fill-rule="nonzero" fill="rgb(25.098041%, 25.098041%, 25.098041%)" fill-opacity="1" d="M 550.453125 137.320312 C 550.453125 133.089844 544.109375 133.089844 544.109375 137.320312 C 544.109375 141.550781 550.453125 141.550781 550.453125 137.320312 Z M 550.453125 137.320312 "/>
<path fill-rule="nonzero" fill="rgb(25.098041%, 25.098041%, 25.098041%)" fill-opacity="1" d="M 274.355469 57.390625 C 274.355469 53.160156 268.011719 53.160156 268.011719 57.390625 C 268.011719 61.621094 274.355469 61.621094 274.355469 57.390625 Z M 274.355469 57.390625 "/>
<path fill-rule="nonzero" fill="rgb(25.098041%, 25.098041%, 25.098041%)" fill-opacity="1" d="M 530.601562 105.539062 C 530.601562 101.308594 524.253906 101.308594 524.253906 105.539062 C 524.253906 109.769531 530.601562 109.769531 530.601562 105.539062 Z M 530.601562 105.539062 "/>
<path fill-rule="nonzero" fill="rgb(25.098041%, 25.098041%, 25.098041%)" fill-opacity="1" d="M 416.152344 336.277344 C 416.152344 332.046875 409.808594 332.046875 409.808594 336.277344 C 409.808594 340.507812 416.152344 340.507812 416.152344 336.277344 Z M 416.152344 336.277344 "/>
<path fill-rule="nonzero" fill="rgb(25.098041%, 25.098041%, 25.098041%)" fill-opacity="1" d="M 521.953125 288.945312 C 521.953125 284.714844 515.605469 284.714844 515.605469 288.945312 C 515.605469 293.175781 521.953125 293.175781 521.953125 288.945312 Z M 521.953125 288.945312 "/>
<path fill-rule="nonzero" fill="rgb(25.098041%, 25.098041%, 25.098041%)" fill-opacity="1" d="M 438.0625 42.820312 C 438.0625 38.589844 431.714844 38.589844 431.714844 42.820312 C 431.714844 47.050781 438.0625 47.050781 438.0625 42.820312 Z M 438.0625 42.820312 "/>
<path fill-rule="nonzero" fill="rgb(25.098041%, 25.098041%, 25.098041%)" fill-opacity="1" d="M 448.285156 218.832031 C 448.285156 214.601562 441.9375 214.601562 441.9375 218.832031 C 441.9375 223.0625 448.285156 223.0625 448.285156 218.832031 Z M 448.285156 218.832031 "/>
<path fill-rule="nonzero" fill="rgb(25.098041%, 25.098041%, 25.098041%)" fill-opacity="1" d="M 528.058594 371.449219 C 528.058594 367.21875 521.714844 367.21875 521.714844 371.449219 C 521.714844 375.679688 528.058594 375.679688 528.058594 371.449219 Z M 528.058594 371.449219 "/>
<path fill-rule="nonzero" fill="rgb(25.098041%, 25.098041%, 25.098041%)" fill-opacity="1" d="M 362.03125 184.613281 C 362.03125 180.382812 355.6875 180.382812 355.6875 184.613281 C 355.6875 188.84375 362.03125 188.84375 362.03125 184.613281 Z M 362.03125 184.613281 "/>
<path fill-rule="nonzero" fill="rgb(25.098041%, 25.098041%, 25.098041%)" fill-opacity="1" d="M 463.429688 230.554688 C 463.429688 226.328125 457.085938 226.328125 457.085938 230.554688 C 457.085938 234.785156 463.429688 234.785156 463.429688 230.554688 Z M 463.429688 230.554688 "/>
<path fill-rule="nonzero" fill="rgb(25.098041%, 25.098041%, 25.098041%)" fill-opacity="1" d="M 250.675781 298.417969 C 250.675781 294.1875 244.328125 294.1875 244.328125 298.417969 C 244.328125 302.648438 250.675781 302.648438 250.675781 298.417969 Z M 250.675781 298.417969 "/>
<path fill-rule="nonzero" fill="rgb(25.098041%, 25.098041%, 25.098041%)" fill-opacity="1" d="M 112.0625 260.636719 C 112.0625 256.40625 105.71875 256.40625 105.71875 260.636719 C 105.71875 264.867188 112.0625 264.867188 112.0625 260.636719 Z M 112.0625 260.636719 "/>
<path fill-rule="nonzero" fill="rgb(25.098041%, 25.098041%, 25.098041%)" fill-opacity="1" d="M 94.945312 113.648438 C 94.945312 109.417969 88.601562 109.417969 88.601562 113.648438 C 88.601562 117.878906 94.945312 117.878906 94.945312 113.648438 Z M 94.945312 113.648438 "/>
<path fill-rule="nonzero" fill="rgb(25.098041%, 25.098041%, 25.098041%)" fill-opacity="1" d="M 132.917969 178.03125 C 132.917969 173.804688 126.574219 173.804688 126.574219 178.03125 C 126.574219 182.261719 132.917969 182.261719 132.917969 178.03125 Z M 132.917969 178.03125 "/>
<path fill-rule="nonzero" fill="rgb(25.098041%, 25.098041%, 25.098041%)" fill-opacity="1" d="M 311.160156 199.398438 C 311.160156 195.167969 304.816406 195.167969 304.816406 199.398438 C 304.816406 203.628906 311.160156 203.628906 311.160156 199.398438 Z M 311.160156 199.398438 "/>
<path fill-rule="nonzero" fill="rgb(25.098041%, 25.098041%, 25.098041%)" fill-opacity="1" d="M 391.683594 112.253906 C 391.683594 108.023438 385.335938 108.023438 385.335938 112.253906 C 385.335938 116.484375 391.683594 116.484375 391.683594 112.253906 Z M 391.683594 112.253906 "/>
<path fill-rule="nonzero" fill="rgb(25.098041%, 25.098041%, 25.098041%)" fill-opacity="1" d="M 504.050781 303.628906 C 504.050781 299.402344 497.703125 299.402344 497.703125 303.628906 C 497.703125 307.859375 504.050781 307.859375 504.050781 303.628906 Z M 504.050781 303.628906 "/>
<path fill-rule="nonzero" fill="rgb(25.098041%, 25.098041%, 25.098041%)" fill-opacity="1" d="M 452.035156 72.800781 C 452.035156 68.570312 445.691406 68.570312 445.691406 72.800781 C 445.691406 77.027344 452.035156 77.027344 452.035156 72.800781 Z M 452.035156 72.800781 "/>
<path fill-rule="nonzero" fill="rgb(25.098041%, 25.098041%, 25.098041%)" fill-opacity="1" d="M 234.691406 68.855469 C 234.691406 64.625 228.34375 64.625 228.34375 68.855469 C 228.34375 73.082031 234.691406 73.082031 234.691406 68.855469 Z M 234.691406 68.855469 "/>
<path fill-rule="nonzero" fill="rgb(25.098041%, 25.098041%, 25.098041%)" fill-opacity="1" d="M 209.054688 367.59375 C 209.054688 363.363281 202.710938 363.363281 202.710938 367.59375 C 202.710938 371.824219 209.054688 371.824219 209.054688 367.59375 Z M 209.054688 367.59375 "/>
<path fill-rule="nonzero" fill="rgb(25.098041%, 25.098041%, 25.098041%)" fill-opacity="1" d="M 91.761719 190.59375 C 91.761719 186.363281 85.417969 186.363281 85.417969 190.59375 C 85.417969 194.824219 91.761719 194.824219 91.761719 190.59375 Z M 91.761719 190.59375 "/>
<path fill-rule="nonzero" fill="rgb(25.098041%, 25.098041%, 25.098041%)" fill-opacity="1" d="M 324.605469 234.800781 C 324.605469 230.570312 318.257812 230.570312 318.257812 234.800781 C 318.257812 239.03125 324.605469 239.03125 324.605469 234.800781 Z M 324.605469 234.800781 "/>
<path fill-rule="nonzero" fill="rgb(25.098041%, 25.098041%, 25.098041%)" fill-opacity="1" d="M 539.992188 99.570312 C 539.992188 95.34375 533.648438 95.34375 533.648438 99.570312 C 533.648438 103.800781 539.992188 103.800781 539.992188 99.570312 Z M 539.992188 99.570312 "/>
<path fill-rule="nonzero" fill="rgb(25.098041%, 25.098041%, 25.098041%)" fill-opacity="1" d="M 378.578125 108.675781 C 378.578125 104.445312 372.234375 104.445312 372.234375 108.675781 C 372.234375 112.90625 378.578125 112.90625 378.578125 108.675781 Z M 378.578125 108.675781 "/>
<path fill-rule="nonzero" fill="rgb(25.098041%, 25.098041%, 25.098041%)" fill-opacity="1" d="M 496.433594 77.53125 C 496.433594 73.300781 490.089844 73.300781 490.089844 77.53125 C 490.089844 81.761719 496.433594 81.761719 496.433594 77.53125 Z M 496.433594 77.53125 "/>
<path fill-rule="nonzero" fill="rgb(25.098041%, 25.098041%, 25.098041%)" fill-opacity="1" d="M 562.488281 115.191406 C 562.488281 110.960938 556.140625 110.960938 556.140625 115.191406 C 556.140625 119.421875 562.488281 119.421875 562.488281 115.191406 Z M 562.488281 115.191406 "/>
<path fill-rule="nonzero" fill="rgb(25.098041%, 25.098041%, 25.098041%)" fill-opacity="1" d="M 214.574219 150.28125 C 214.574219 146.054688 208.230469 146.054688 208.230469 150.28125 C 208.230469 154.511719 214.574219 154.511719 214.574219 150.28125 Z M 214.574219 150.28125 "/>
<path fill-rule="nonzero" fill="rgb(25.098041%, 25.098041%, 25.098041%)" fill-opacity="1" d="M 149.800781 318.539062 C 149.800781 314.308594 143.453125 314.308594 143.453125 318.539062 C 143.453125 322.769531 149.800781 322.769531 149.800781 318.539062 Z M 149.800781 318.539062 "/>
<path fill-rule="nonzero" fill="rgb(25.098041%, 25.098041%, 25.098041%)" fill-opacity="1" d="M 172.757812 195.9375 C 172.757812 191.707031 166.414062 191.707031 166.414062 195.9375 C 166.414062 200.167969 172.757812 200.167969 172.757812 195.9375 Z M 172.757812 195.9375 "/>
<path fill-rule="nonzero" fill="rgb(25.098041%, 25.098041%, 25.098041%)" fill-opacity="1" d="M 188.875 310.339844 C 188.875 306.109375 182.53125 306.109375 182.53125 310.339844 C 182.53125 314.570312 188.875 314.570312 188.875 310.339844 Z M 188.875 310.339844 "/>
<path fill-rule="nonzero" fill="rgb(25.098041%, 25.098041%, 25.098041%)" fill-opacity="1" d="M 301.265625 46.5625 C 301.265625 42.332031 294.921875 42.332031 294.921875 46.5625 C 294.921875 50.792969 301.265625 50.792969 301.265625 46.5625 Z M 301.265625 46.5625 "/>
<path fill-rule="nonzero" fill="rgb(25.098041%, 25.098041%, 25.098041%)" fill-opacity="1" d="M 509.742188 306.910156 C 509.742188 302.679688 503.398438 302.679688 503.398438 306.910156 C 503.398438 311.140625 509.742188 311.140625 509.742188 306.910156 Z M 509.742188 306.910156 "/>
<path fill-rule="nonzero" fill="rgb(25.098041%, 25.098041%, 25.098041%)" fill-opacity="1" d="M 267.925781 339.992188 C 267.925781 335.761719 261.578125 335.761719 261.578125 339.992188 C 261.578125 344.222656 267.925781 344.222656 267.925781 339.992188 Z M 267.925781 339.992188 "/>
<path fill-rule="nonzero" fill="rgb(25.098041%, 25.098041%, 25.098041%)" fill-opacity="1" d="M 563.582031 322.929688 C 563.582031 318.699219 557.238281 318.699219 557.238281 322.929688 C 557.238281 327.160156 563.582031 327.160156 563.582031 322.929688 Z M 563.582031 322.929688 "/>
<path fill-rule="nonzero" fill="rgb(25.098041%, 25.098041%, 25.098041%)" fill-opacity="1" d="M 540.371094 159.707031 C 540.371094 155.476562 534.027344 155.476562 534.027344 159.707031 C 534.027344 163.9375 540.371094 163.9375 540.371094 159.707031 Z M 540.371094 159.707031 "/>
<path fill-rule="nonzero" fill="rgb(25.098041%, 25.098041%, 25.098041%)" fill-opacity="1" d="M 254.796875 36.15625 C 254.796875 31.925781 248.453125 31.925781 248.453125 36.15625 C 248.453125 40.386719 254.796875 40.386719 254.796875 36.15625 Z M 254.796875 36.15625 "/>
<path fill-rule="nonzero" fill="rgb(25.098041%, 25.098041%, 25.098041%)" fill-opacity="1" d="M 121.699219 134.289062 C 121.699219 130.058594 115.355469 130.058594 115.355469 134.289062 C 115.355469 138.519531 121.699219 138.519531 121.699219 134.289062 Z M 121.699219 134.289062 "/>
<path fill="none" stroke-width="1" stroke-linecap="butt" stroke-linejoin="miter" stroke="rgb(66.274512%, 66.274512%, 66.274512%)" stroke-opacity="1" stroke-miterlimit="1.154701" d="M 73.648438 390.5 L 73.648438 395.5 "/>
<path fill="none" stroke-width="1" stroke-linecap="butt" stroke-linejoin="miter" stroke="rgb(66.274512%, 66.274512%, 66.274512%)" stroke-opacity="1" stroke-miterlimit="1.154701" d="M 317.152344 390.5 L 317.152344 395.5 "/>
<path fill="none" stroke-width="1" stroke-linecap="butt" stroke-linejoin="miter" stroke="rgb(66.274512%, 66.274512%, 66.274512%)" stroke-opacity="1" stroke-miterlimit="1.154701" d="M 560.65625 390.5 L 560.65625 395.5 "/>
<path fill="none" stroke-width="1" stroke-linecap="butt" stroke-linejoin="miter" stroke="rgb(66.274512%, 66.274512%, 66.274512%)" stroke-opacity="1" stroke-miterlimit="1.154701" d="M 64.5 375.015625 L 59.5 375.015625 "/>
<path fill="none" stroke-width="1" stroke-linecap="butt" stroke-linejoin="miter" stroke="rgb(66.274512%, 66.274512%, 66.274512%)" stroke-opacity="1" stroke-miterlimit="1.154701" d="M 64.5 203.46875 L 59.5 203.46875 "/>
<path fill="none" stroke-width="1" stroke-linecap="butt" stroke-linejoin="miter" stroke="rgb(66.274512%, 66.274512%, 66.274512%)" stroke-opacity="1" stroke-miterlimit="1.154701" d="M 64.5 31.917969 L 59.5 31.917969 "/>
<path fill="none" stroke-width="1" stroke-linecap="butt" stroke-linejoin="miter" stroke="rgb(66.274512%, 66.274512%, 66.274512%)" stroke-opacity="1" stroke-miterlimit="1.154701" d="M 64.5 390 L 584.5 390 "/>
<path fill="none" stroke-width="1" stroke-linecap="butt" stroke-linejoin="miter" stroke="rgb(66.274512%, 66.274512%, 66.274512%)" stroke-opacity="1" stroke-miterlimit="1.154701" d="M 65 390.5 L 65 15.5 "/>
</svg>
