<?xml version="1.0" encoding="UTF-8"?>
<svg xmlns="http://www.w3.org/2000/svg" xmlns:xlink="http://www.w3.org/1999/xlink" width="600" height="450" viewBox="0 0 600 450">
<defs>
<g>
<g id="glyph-0-0-339fcc0c">
<path d="M 3.84375 -9.46875 C 4.8125 -9.46875 5.539062 -9.054688 6.03125 -8.234375 C 6.53125 -7.421875 6.78125 -6.222656 6.78125 -4.640625 C 6.78125 -3.078125 6.53125 -1.882812 6.03125 -1.0625 C 5.53125 -0.25 4.800781 0.15625 3.84375 0.15625 C 2.882812 0.15625 2.15625 -0.25 1.65625 -1.0625 C 1.164062 -1.882812 0.921875 -3.082031 0.921875 -4.65625 C 0.921875 -6.238281 1.164062 -7.4375 1.65625 -8.25 C 2.15625 -9.0625 2.882812 -9.46875 3.84375 -9.46875 Z M 3.84375 -8.796875 C 2.457031 -8.796875 1.765625 -7.414062 1.765625 -4.65625 C 1.765625 -1.894531 2.457031 -0.515625 3.84375 -0.515625 C 4.53125 -0.515625 5.046875 -0.847656 5.390625 -1.515625 C 5.742188 -2.191406 5.921875 -3.234375 5.921875 -4.640625 C 5.921875 -6.054688 5.742188 -7.101562 5.390625 -7.78125 C 5.046875 -8.457031 4.53125 -8.796875 3.84375 -8.796875 Z M 3.84375 -8.796875 "/>
</g>
<g id="glyph-0-1-339fcc0c">
<path d="M 4.09375 -9.3125 L 4.09375 0 L 3.28125 0 L 3.28125 -8.40625 L 0.984375 -6.984375 L 0.609375 -7.59375 L 3.390625 -9.3125 Z M 4.09375 -9.3125 "/>
</g>
<g id="glyph-1-0-339fcc0c">
<path d="M 1.4375 -1.171875 C 1.632812 -1.171875 1.796875 -1.109375 1.921875 -0.984375 C 2.046875 -0.859375 2.109375 -0.703125 2.109375 -0.515625 C 2.109375 -0.316406 2.046875 -0.15625 1.921875 -0.03125 C 1.796875 0.09375 1.632812 0.15625 1.4375 0.15625 C 1.25 0.15625 1.085938 0.09375 0.953125 -0.03125 C 0.828125 -0.164062 0.765625 -0.328125 0.765625 -0.515625 C 0.765625 -0.703125 0.828125 -0.859375 0.953125 -0.984375 C 1.085938 -1.109375 1.25 -1.171875 1.4375 -1.171875 Z M 1.4375 -1.171875 "/>
</g>
<g id="glyph-1-1-339fcc0c">
<path d="M 4.09375 -9.3125 L 4.09375 0 L 3.28125 0 L 3.28125 -8.40625 L 0.984375 -6.984375 L 0.609375 -7.59375 L 3.390625 -9.3125 Z M 4.09375 -9.3125 "/>
</g>
<g id="glyph-2-0-339fcc0c">
<path d="M 3.84375 -9.46875 C 4.8125 -9.46875 5.539062 -9.054688 6.03125 -8.234375 C 6.53125 -7.421875 6.78125 -6.222656 6.78125 -4.640625 C 6.78125 -3.078125 6.53125 -1.882812 6.03125 -1.0625 C 5.53125 -0.25 4.800781 0.15625 3.84375 0.15625 C 2.882812 0.15625 2.15625 -0.25 1.65625 -1.0625 C 1.164062 -1.882812 0.921875 -3.082031 0.921875 -4.65625 C 0.921875 -6.238281 1.164062 -7.4375 1.65625 -8.25 C 2.15625 -9.0625 2.882812 -9.46875 3.84375 -9.46875 Z M 3.84375 -8.796875 C 2.457031 -8.796875 1.765625 -7.414062 1.765625 -4.65625 C 1.765625 -1.894531 2.457031 -0.515625 3.84375 -0.515625 C 4.53125 -0.515625 5.046875 -0.847656 5.390625 -1.515625 C 5.742188 -2.191406 5.921875 -3.234375 5.921875 -4.640625 C 5.921875 -6.054688 5.742188 -7.101562 5.390625 -7.78125 C 5.046875 -8.457031 4.53125 -8.796875 3.84375 -8.796875 Z M 3.84375 -8.796875 "/>
</g>
<g id="glyph-3-0-339fcc0c">
<path d="M 3.84375 -9.46875 C 4.8125 -9.46875 5.539062 -9.054688 6.03125 -8.234375 C 6.53125 -7.421875 6.78125 -6.222656 6.78125 -4.640625 C 6.78125 -3.078125 6.53125 -1.882812 6.03125 -1.0625 C 5.53125 -0.25 4.800781 0.15625 3.84375 0.15625 C 2.882812 0.15625 2.15625 -0.25 1.65625 -1.0625 C 1.164062 -1.882812 0.921875 -3.082031 0.921875 -4.65625 C 0.921875 -6.238281 1.164062 -7.4375 1.65625 -8.25 C 2.15625 -9.0625 2.882812 -9.46875 3.84375 -9.46875 Z M 3.84375 -8.796875 C 2.457031 -8.796875 1.765625 -7.414062 1.765625 -4.65625 C 1.765625 -1.894531 2.457031 -0.515625 3.84375 -0.515625 C 4.53125 -0.515625 5.046875 -0.847656 5.390625 -1.515625 C 5.742188 -2.191406 5.921875 -3.234375 5.921875 -4.640625 C 5.921875 -6.054688 5.742188 -7.101562 5.390625 -7.78125 C 5.046875 -8.457031 4.53125 -8.796875 3.84375 -8.796875 Z M 3.84375 -8.796875 "/>
</g>
<g id="glyph-4-0-339fcc0c">
<path d="M 1.4375 -1.171875 C 1.632812 -1.171875 1.796875 -1.109375 1.921875 -0.984375 C 2.046875 -0.859375 2.109375 -0.703125 2.109375 -0.515625 C 2.109375 -0.316406 2.046875 -0.15625 1.921875 -0.03125 C 1.796875 0.09375 1.632812 0.15625 1.4375 0.15625 C 1.25 0.15625 1.085938 0.09375 0.953125 -0.03125 C 0.828125 -0.164062 0.765625 -0.328125 0.765625 -0.515625 C 0.765625 -0.703125 0.828125 -0.859375 0.953125 -0.984375 C 1.085938 -1.109375 1.25 -1.171875 1.4375 -1.171875 Z M 1.4375 -1.171875 "/>
</g>
<g id="glyph-5-0-339fcc0c">
<path d="M 5.671875 -8.640625 L 1.890625 -8.640625 L 1.890625 -5.453125 C 2.398438 -5.742188 2.929688 -5.890625 3.484375 -5.890625 C 4.285156 -5.890625 4.921875 -5.628906 5.390625 -5.109375 C 5.867188 -4.597656 6.109375 -3.894531 6.109375 -3 C 6.109375 -2.394531 5.984375 -1.847656 5.734375 -1.359375 C 5.484375 -0.878906 5.128906 -0.503906 4.671875 -0.234375 C 4.222656 0.0234375 3.703125 0.15625 3.109375 0.15625 C 2.066406 0.15625 1.1875 -0.21875 0.46875 -0.96875 L 0.984375 -1.453125 C 1.273438 -1.140625 1.585938 -0.90625 1.921875 -0.75 C 2.265625 -0.601562 2.660156 -0.53125 3.109375 -0.53125 C 3.773438 -0.53125 4.296875 -0.75 4.671875 -1.1875 C 5.054688 -1.632812 5.25 -2.242188 5.25 -3.015625 C 5.25 -3.753906 5.070312 -4.304688 4.71875 -4.671875 C 4.375 -5.046875 3.898438 -5.234375 3.296875 -5.234375 C 3.003906 -5.234375 2.742188 -5.195312 2.515625 -5.125 C 2.285156 -5.0625 2.03125 -4.945312 1.75 -4.78125 L 1.109375 -4.78125 L 1.109375 -9.3125 L 5.796875 -9.3125 Z M 5.671875 -8.640625 "/>
</g>
<g id="glyph-6-0-339fcc0c">
<path d="M 4.09375 -9.3125 L 4.09375 0 L 3.28125 0 L 3.28125 -8.40625 L 0.984375 -6.984375 L 0.609375 -7.59375 L 3.390625 -9.3125 Z M 4.09375 -9.3125 "/>
</g>
<g id="glyph-6-1-339fcc0c">
<path d="M 1.4375 -1.171875 C 1.632812 -1.171875 1.796875 -1.109375 1.921875 -0.984375 C 2.046875 -0.859375 2.109375 -0.703125 2.109375 -0.515625 C 2.109375 -0.316406 2.046875 -0.15625 1.921875 -0.03125 C 1.796875 0.09375 1.632812 0.15625 1.4375 0.15625 C 1.25 0.15625 1.085938 0.09375 0.953125 -0.03125 C 0.828125 -0.164062 0.765625 -0.328125 0.765625 -0.515625 C 0.765625 -0.703125 0.828125 -0.859375 0.953125 -0.984375 C 1.085938 -1.109375 1.25 -1.171875 1.4375 -1.171875 Z M 1.4375 -1.171875 "/>
</g>
<g id="glyph-7-0-339fcc0c">
<path d="M 3.84375 -9.46875 C 4.8125 -9.46875 5.539062 -9.054688 6.03125 -8.234375 C 6.53125 -7.421875 6.78125 -6.222656 6.78125 -4.640625 C 6.78125 -3.078125 6.53125 -1.882812 6.03125 -1.0625 C 5.53125 -0.25 4.800781 0.15625 3.84375 0.15625 C 2.882812 0.15625 2.15625 -0.25 1.65625 -1.0625 C 1.164062 -1.882812 0.921875 -3.082031 0.921875 -4.65625 C 0.921875 -6.238281 1.164062 -7.4375 1.65625 -8.25 C 2.15625 -9.0625 2.882812 -9.46875 3.84375 -9.46875 Z M 3.84375 -8.796875 C 2.457031 -8.796875 1.765625 -7.414062 1.765625 -4.65625 C 1.765625 -1.894531 2.457031 -0.515625 3.84375 -0.515625 C 4.53125 -0.515625 5.046875 -0.847656 5.390625 -1.515625 C 5.742188 -2.191406 5.921875 -3.234375 5.921875 -4.640625 C 5.921875 -6.054688 5.742188 -7.101562 5.390625 -7.78125 C 5.046875 -8.457031 4.53125 -8.796875 3.84375 -8.796875 Z M 3.84375 -8.796875 "/>
</g>
<g id="glyph-8-0-339fcc0c">
<path d="M 3.84375 -9.46875 C 4.8125 -9.46875 5.539062 -9.054688 6.03125 -8.234375 C 6.53125 -7.421875 6.78125 -6.222656 6.78125 -4.640625 C 6.78125 -3.078125 6.53125 -1.882812 6.03125 -1.0625 C 5.53125 -0.25 4.800781 0.15625 3.84375 0.15625 C 2.882812 0.15625 2.15625 -0.25 1.65625 -1.0625 C 1.164062 -1.882812 0.921875 -3.082031 0.921875 -4.65625 C 0.921875 -6.238281 1.164062 -7.4375 1.65625 -8.25 C 2.15625 -9.0625 2.882812 -9.46875 3.84375 -9.46875 Z M 3.84375 -8.796875 C 2.457031 -8.796875 1.765625 -7.414062 1.765625 -4.65625 C 1.765625 -1.894531 2.457031 -0.515625 3.84375 -0.515625 C 4.53125 -0.515625 5.046875 -0.847656 5.390625 -1.515625 C 5.742188 -2.191406 5.921875 -3.234375 5.921875 -4.640625 C 5.921875 -6.054688 5.742188 -7.101562 5.390625 -7.78125 C 5.046875 -8.457031 4.53125 -8.796875 3.84375 -8.796875 Z M 3.84375 -8.796875 "/>
</g>
<g id="glyph-9-0-339fcc0c">
<path d="M 1.4375 -1.171875 C 1.632812 -1.171875 1.796875 -1.109375 1.921875 -0.984375 C 2.046875 -0.859375 2.109375 -0.703125 2.109375 -0.515625 C 2.109375 -0.316406 2.046875 -0.15625 1.921875 -0.03125 C 1.796875 0.09375 1.632812 0.15625 1.4375 0.15625 C 1.25 0.15625 1.085938 0.09375 0.953125 -0.03125 C 0.828125 -0.164062 0.765625 -0.328125 0.765625 -0.515625 C 0.765625 -0.703125 0.828125 -0.859375 0.953125 -0.984375 C 1.085938 -1.109375 1.25 -1.171875 1.4375 -1.171875 Z M 1.4375 -1.171875 "/>
</g>
<g id="glyph-9-1-339fcc0c">
<path d="M 4.09375 -9.3125 L 4.09375 0 L 3.28125 0 L 3.28125 -8.40625 L 0.984375 -6.984375 L 0.609375 -7.59375 L 3.390625 -9.3125 Z M 4.09375 -9.3125 "/>
</g>
<g id="glyph-10-0-339fcc0c">
<path d="M 5.671875 -8.640625 L 1.890625 -8.640625 L 1.890625 -5.453125 C 2.398438 -5.742188 2.929688 -5.890625 3.484375 -5.890625 C 4.285156 -5.890625 4.921875 -5.628906 5.390625 -5.109375 C 5.867188 -4.597656 6.109375 -3.894531 6.109375 -3 C 6.109375 -2.394531 5.984375 -1.847656 5.734375 -1.359375 C 5.484375 -0.878906 5.128906 -0.503906 4.671875 -0.234375 C 4.222656 0.0234375 3.703125 0.15625 3.109375 0.15625 C 2.066406 0.15625 1.1875 -0.21875 0.46875 -0.96875 L 0.984375 -1.453125 C 1.273438 -1.140625 1.585938 -0.90625 1.921875 -0.75 C 2.265625 -0.601562 2.660156 -0.53125 3.109375 -0.53125 C 3.773438 -0.53125 4.296875 -0.75 4.671875 -1.1875 C 5.054688 -1.632812 5.25 -2.242188 5.25 -3.015625 C 5.25 -3.753906 5.070312 -4.304688 4.71875 -4.671875 C 4.375 -5.046875 3.898438 -5.234375 3.296875 -5.234375 C 3.003906 -5.234375 2.742188 -5.195312 2.515625 -5.125 C 2.285156 -5.0625 2.03125 -4.945312 1.75 -4.78125 L 1.109375 -4.78125 L 1.109375 -9.3125 L 5.796875 -9.3125 Z M 5.671875 -8.640625 "/>
</g>
<g id="glyph-10-1-339fcc0c">
<path d="M 3.84375 -9.46875 C 4.8125 -9.46875 5.539062 -9.054688 6.03125 -8.234375 C 6.53125 -7.421875 6.78125 -6.222656 6.78125 -4.640625 C 6.78125 -3.078125 6.53125 -1.882812 6.03125 -1.0625 C 5.53125 -0.25 4.800781 0.15625 3.84375 0.15625 C 2.882812 0.15625 2.15625 -0.25 1.65625 -1.0625 C 1.164062 -1.882812 0.921875 -3.082031 0.921875 -4.65625 C 0.921875 -6.238281 1.164062 -7.4375 1.65625 -8.25 C 2.15625 -9.0625 2.882812 -9.46875 3.84375 -9.46875 Z M 3.84375 -8.796875 C 2.457031 -8.796875 1.765625 -7.414062 1.765625 -4.65625 C 1.765625 -1.894531 2.457031 -0.515625 3.84375 -0.515625 C 4.53125 -0.515625 5.046875 -0.847656 5.390625 -1.515625 C 5.742188 -2.191406 5.921875 -3.234375 5.921875 -4.640625 C 5.921875 -6.054688 5.742188 -7.101562 5.390625 -7.78125 C 5.046875 -8.457031 4.53125 -8.796875 3.84375 -8.796875 Z M 3.84375 -8.796875 "/>
</g>
<g id="glyph-11-0-339fcc0c">
<path d="M 1.4375 -1.171875 C 1.632812 -1.171875 1.796875 -1.109375 1.921875 -0.984375 C 2.046875 -0.859375 2.109375 -0.703125 2.109375 -0.515625 C 2.109375 -0.316406 2.046875 -0.15625 1.921875 -0.03125 C 1.796875 0.09375 1.632812 0.15625 1.4375 0.15625 C 1.25 0.15625 1.085938 0.09375 0.953125 -0.03125 C 0.828125 -0.164062 0.765625 -0.328125 0.765625 -0.515625 C 0.765625 -0.703125 0.828125 -0.859375 0.953125 -0.984375 C 1.085938 -1.109375 1.25 -1.171875 1.4375 -1.171875 Z M 1.4375 -1.171875 "/>
</g>
<g id="glyph-12-0-339fcc0c">
<path d="M 3.84375 -9.46875 C 4.8125 -9.46875 5.539062 -9.054688 6.03125 -8.234375 C 6.53125 -7.421875 6.78125 -6.222656 6.78125 -4.640625 C 6.78125 -3.078125 6.53125 -1.882812 6.03125 -1.0625 C 5.53125 -0.25 4.800781 0.15625 3.84375 0.15625 C 2.882812 0.15625 2.15625 -0.25 1.65625 -1.0625 C 1.164062 -1.882812 0.921875 -3.082031 0.921875 -4.65625 C 0.921875 -6.238281 1.164062 -7.4375 1.65625 -8.25 C 2.15625 -9.0625 2.882812 -9.46875 3.84375 -9.46875 Z M 3.84375 -8.796875 C 2.457031 -8.796875 1.765625 -7.414062 1.765625 -4.65625 C 1.765625 -1.894531 2.457031 -0.515625 3.84375 -0.515625 C 4.53125 -0.515625 5.046875 -0.847656 5.390625 -1.515625 C 5.742188 -2.191406 5.921875 -3.234375 5.921875 -4.640625 C 5.921875 -6.054688 5.742188 -7.101562 5.390625 -7.78125 C 5.046875 -8.457031 4.53125 -8.796875 3.84375 -8.796875 Z M 3.84375 -8.796875 "/>
</g>
<g id="glyph-12-1-339fcc0c">
<path d="M 1.4375 -1.171875 C 1.632812 -1.171875 1.796875 -1.109375 1.921875 -0.984375 C 2.046875 -0.859375 2.109375 -0.703125 2.109375 -0.515625 C 2.109375 -0.316406 2.046875 -0.15625 1.921875 -0.03125 C 1.796875 0.09375 1.632812 0.15625 1.4375 0.15625 C 1.25 0.15625 1.085938 0.09375 0.953125 -0.03125 C 0.828125 -0.164062 0.765625 -0.328125 0.765625 -0.515625 C 0.765625 -0.703125 0.828125 -0.859375 0.953125 -0.984375 C 1.085938 -1.109375 1.25 -1.171875 1.4375 -1.171875 Z M 1.4375 -1.171875 "/>
</g>
<g id="glyph-12-2-339fcc0c">
<path d="M 5.671875 -8.640625 L 1.890625 -8.640625 L 1.890625 -5.453125 C 2.398438 -5.742188 2.929688 -5.890625 3.484375 -5.890625 C 4.285156 -5.890625 4.921875 -5.628906 5.390625 -5.109375 C 5.867188 -4.597656 6.109375 -3.894531 6.109375 -3 C 6.109375 -2.394531 5.984375 -1.847656 5.734375 -1.359375 C 5.484375 -0.878906 5.128906 -0.503906 4.671875 -0.234375 C 4.222656 0.0234375 3.703125 0.15625 3.109375 0.15625 C 2.066406 0.15625 1.1875 -0.21875 0.46875 -0.96875 L 0.984375 -1.453125 C 1.273438 -1.140625 1.585938 -0.90625 1.921875 -0.75 C 2.265625 -0.601562 2.660156 -0.53125 3.109375 -0.53125 C 3.773438 -0.53125 4.296875 -0.75 4.671875 -1.1875 C 5.054688 -1.632812 5.25 -2.242188 5.25 -3.015625 C 5.25 -3.753906 5.070312 -4.304688 4.71875 -4.671875 C 4.375 -5.046875 3.898438 -5.234375 3.296875 -5.234375 C 3.003906 -5.234375 2.742188 -5.195312 2.515625 -5.125 C 2.285156 -5.0625 2.03125 -4.945312 1.75 -4.78125 L 1.109375 -4.78125 L 1.109375 -9.3125 L 5.796875 -9.3125 Z M 5.671875 -8.640625 "/>
</g>
<g id="glyph-12-3-339fcc0c">
<path d="M 4.09375 -9.3125 L 4.09375 0 L 3.28125 0 L 3.28125 -8.40625 L 0.984375 -6.984375 L 0.609375 -7.59375 L 3.390625 -9.3125 Z M 4.09375 -9.3125 "/>
</g>
<g id="glyph-13-0-339fcc0c">
<path d="M 3.84375 -9.46875 C 4.8125 -9.46875 5.539062 -9.054688 6.03125 -8.234375 C 6.53125 -7.421875 6.78125 -6.222656 6.78125 -4.640625 C 6.78125 -3.078125 6.53125 -1.882812 6.03125 -1.0625 C 5.53125 -0.25 4.800781 0.15625 3.84375 0.15625 C 2.882812 0.15625 2.15625 -0.25 1.65625 -1.0625 C 1.164062 -1.882812 0.921875 -3.082031 0.921875 -4.65625 C 0.921875 -6.238281 1.164062 -7.4375 1.65625 -8.25 C 2.15625 -9.0625 2.882812 -9.46875 3.84375 -9.46875 Z M 3.84375 -8.796875 C 2.457031 -8.796875 1.765625 -7.414062 1.765625 -4.65625 C 1.765625 -1.894531 2.457031 -0.515625 3.84375 -0.515625 C 4.53125 -0.515625 5.046875 -0.847656 5.390625 -1.515625 C 5.742188 -2.191406 5.921875 -3.234375 5.921875 -4.640625 C 5.921875 -6.054688 5.742188 -7.101562 5.390625 -7.78125 C 5.046875 -8.457031 4.53125 -8.796875 3.84375 -8.796875 Z M 3.84375 -8.796875 "/>
</g>
<g id="glyph-14-0-339fcc0c">
<path d="M 1.4375 -1.171875 C 1.632812 -1.171875 1.796875 -1.109375 1.921875 -0.984375 C 2.046875 -0.859375 2.109375 -0.703125 2.109375 -0.515625 C 2.109375 -0.316406 2.046875 -0.15625 1.921875 -0.03125 C 1.796875 0.09375 1.632812 0.15625 1.4375 0.15625 C 1.25 0.15625 1.085938 0.09375 0.953125 -0.03125 C 0.828125 -0.164062 0.765625 -0.328125 0.765625 -0.515625 C 0.765625 -0.703125 0.828125 -0.859375 0.953125 -0.984375 C 1.085938 -1.109375 1.25 -1.171875 1.4375 -1.171875 Z M 1.4375 -1.171875 "/>
</g>
<g id="glyph-15-0-339fcc0c">
<path d="M 3.84375 -9.46875 C 4.8125 -9.46875 5.539062 -9.054688 6.03125 -8.234375 C 6.53125 -7.421875 6.78125 -6.222656 6.78125 -4.640625 C 6.78125 -3.078125 6.53125 -1.882812 6.03125 -1.0625 C 5.53125 -0.25 4.800781 0.15625 3.84375 0.15625 C 2.882812 0.15625 2.15625 -0.25 1.65625 -1.0625 C 1.164062 -1.882812 0.921875 -3.082031 0.921875 -4.65625 C 0.921875 -6.238281 1.164062 -7.4375 1.65625 -8.25 C 2.15625 -9.0625 2.882812 -9.46875 3.84375 -9.46875 Z M 3.84375 -8.796875 C 2.457031 -8.796875 1.765625 -7.414062 1.765625 -4.65625 C 1.765625 -1.894531 2.457031 -0.515625 3.84375 -0.515625 C 4.53125 -0.515625 5.046875 -0.847656 5.390625 -1.515625 C 5.742188 -2.191406 5.921875 -3.234375 5.921875 -4.640625 C 5.921875 -6.054688 5.742188 -7.101562 5.390625 -7.78125 C 5.046875 -8.457031 4.53125 -8.796875 3.84375 -8.796875 Z M 3.84375 -8.796875 "/>
</g>
<g id="glyph-16-0-339fcc0c">
<path d="M 3.84375 -9.46875 C 4.8125 -9.46875 5.539062 -9.054688 6.03125 -8.234375 C 6.53125 -7.421875 6.78125 -6.222656 6.78125 -4.640625 C 6.78125 -3.078125 6.53125 -1.882812 6.03125 -1.0625 C 5.53125 -0.25 4.800781 0.15625 3.84375 0.15625 C 2.882812 0.15625 2.15625 -0.25 1.65625 -1.0625 C 1.164062 -1.882812 0.921875 -3.082031 0.921875 -4.65625 C 0.921875 -6.238281 1.164062 -7.4375 1.65625 -8.25 C 2.15625 -9.0625 2.882812 -9.46875 3.84375 -9.46875 Z M 3.84375 -8.796875 C 2.457031 -8.796875 1.765625 -7.414062 1.765625 -4.65625 C 1.765625 -1.894531 2.457031 -0.515625 3.84375 -0.515625 C 4.53125 -0.515625 5.046875 -0.847656 5.390625 -1.515625 C 5.742188 -2.191406 5.921875 -3.234375 5.921875 -4.640625 C 5.921875 -6.054688 5.742188 -7.101562 5.390625 -7.78125 C 5.046875 -8.457031 4.53125 -8.796875 3.84375 -8.796875 Z M 3.84375 -8.796875 "/>
</g>
<g id="glyph-17-0-339fcc0c">
<path d="M 1.4375 -1.171875 C 1.632812 -1.171875 1.796875 -1.109375 1.921875 -0.984375 C 2.046875 -0.859375 2.109375 -0.703125 2.109375 -0.515625 C 2.109375 -0.316406 2.046875 -0.15625 1.921875 -0.03125 C 1.796875 0.09375 1.632812 0.15625 1.4375 0.15625 C 1.25 0.15625 1.085938 0.09375 0.953125 -0.03125 C 0.828125 -0.164062 0.765625 -0.328125 0.765625 -0.515625 C 0.765625 -0.703125 0.828125 -0.859375 0.953125 -0.984375 C 1.085938 -1.109375 1.25 -1.171875 1.4375 -1.171875 Z M 1.4375 -1.171875 "/>
</g>
<g id="glyph-18-0-339fcc0c">
<path d="M 5.671875 -8.640625 L 1.890625 -8.640625 L 1.890625 -5.453125 C 2.398438 -5.742188 2.929688 -5.890625 3.484375 -5.890625 C 4.285156 -5.890625 4.921875 -5.628906 5.390625 -5.109375 C 5.867188 -4.597656 6.109375 -3.894531 6.109375 -3 C 6.109375 -2.394531 5.984375 -1.847656 5.734375 -1.359375 C 5.484375 -0.878906 5.128906 -0.503906 4.671875 -0.234375 C 4.222656 0.0234375 3.703125 0.15625 3.109375 0.15625 C 2.066406 0.15625 1.1875 -0.21875 0.46875 -0.96875 L 0.984375 -1.453125 C 1.273438 -1.140625 1.585938 -0.90625 1.921875 -0.75 C 2.265625 -0.601562 2.660156 -0.53125 3.109375 -0.53125 C 3.773438 -0.53125 4.296875 -0.75 4.671875 -1.1875 C 5.054688 -1.632812 5.25 -2.242188 5.25 -3.015625 C 5.25 -3.753906 5.070312 -4.304688 4.71875 -4.671875 C 4.375 -5.046875 3.898438 -5.234375 3.296875 -5.234375 C 3.003906 -5.234375 2.742188 -5.195312 2.515625 -5.125 C 2.285156 -5.0625 2.03125 -4.945312 1.75 -4.78125 L 1.109375 -4.78125 L 1.109375 -9.3125 L 5.796875 -9.3125 Z M 5.671875 -8.640625 "/>
</g>
<g id="glyph-19-0-339fcc0c">
<path d="M 4.09375 -9.3125 L 4.09375 0 L 3.28125 0 L 3.28125 -8.40625 L 0.984375 -6.984375 L 0.609375 -7.59375 L 3.390625 -9.3125 Z M 4.09375 -9.3125 "/>
</g>
<g id="glyph-19-1-339fcc0c">
<path d="M 3.84375 -9.46875 C 4.8125 -9.46875 5.539062 -9.054688 6.03125 -8.234375 C 6.53125 -7.421875 6.78125 -6.222656 6.78125 -4.640625 C 6.78125 -3.078125 6.53125 -1.882812 6.03125 -1.0625 C 5.53125 -0.25 4.800781 0.15625 3.84375 0.15625 C 2.882812 0.15625 2.15625 -0.25 1.65625 -1.0625 C 1.164062 -1.882812 0.921875 -3.082031 0.921875 -4.65625 C 0.921875 -6.238281 1.164062 -7.4375 1.65625 -8.25 C 2.15625 -9.0625 2.882812 -9.46875 3.84375 -9.46875 Z M 3.84375 -8.796875 C 2.457031 -8.796875 1.765625 -7.414062 1.765625 -4.65625 C 1.765625 -1.894531 2.457031 -0.515625 3.84375 -0.515625 C 4.53125 -0.515625 5.046875 -0.847656 5.390625 -1.515625 C 5.742188 -2.191406 5.921875 -3.234375 5.921875 -4.640625 C 5.921875 -6.054688 5.742188 -7.101562 5.390625 -7.78125 C 5.046875 -8.457031 4.53125 -8.796875 3.84375 -8.796875 Z M 3.84375 -8.796875 "/>
</g>
<g id="glyph-19-2-339fcc0c">
<path d="M 5.671875 -8.640625 L 1.890625 -8.640625 L 1.890625 -5.453125 C 2.398438 -5.742188 2.929688 -5.890625 3.484375 -5.890625 C 4.285156 -5.890625 4.921875 -5.628906 5.390625 -5.109375 C 5.867188 -4.597656 6.109375 -3.894531 6.109375 -3 C 6.109375 -2.394531 5.984375 -1.847656 5.734375 -1.359375 C 5.484375 -0.878906 5.128906 -0.503906 4.671875 -0.234375 C 4.222656 0.0234375 3.703125 0.15625 3.109375 0.15625 C 2.066406 0.15625 1.1875 -0.21875 0.46875 -0.96875 L 0.984375 -1.453125 C 1.273438 -1.140625 1.585938 -0.90625 1.921875 -0.75 C 2.265625 -0.601562 2.660156 -0.53125 3.109375 -0.53125 C 3.773438 -0.53125 4.296875 -0.75 4.671875 -1.1875 C 5.054688 -1.632812 5.25 -2.242188 5.25 -3.015625 C 5.25 -3.753906 5.070312 -4.304688 4.71875 -4.671875 C 4.375 -5.046875 3.898438 -5.234375 3.296875 -5.234375 C 3.003906 -5.234375 2.742188 -5.195312 2.515625 -5.125 C 2.285156 -5.0625 2.03125 -4.945312 1.75 -4.78125 L 1.109375 -4.78125 L 1.109375 -9.3125 L 5.796875 -9.3125 Z M 5.671875 -8.640625 "/>
</g>
<g id="glyph-20-0-339fcc0c">
<path d="M 3.84375 -9.46875 C 4.8125 -9.46875 5.539062 -9.054688 6.03125 -8.234375 C 6.53125 -7.421875 6.78125 -6.222656 6.78125 -4.640625 C 6.78125 -3.078125 6.53125 -1.882812 6.03125 -1.0625 C 5.53125 -0.25 4.800781 0.15625 3.84375 0.15625 C 2.882812 0.15625 2.15625 -0.25 1.65625 -1.0625 C 1.164062 -1.882812 0.921875 -3.082031 0.921875 -4.65625 C 0.921875 -6.238281 1.164062 -7.4375 1.65625 -8.25 C 2.15625 -9.0625 2.882812 -9.46875 3.84375 -9.46875 Z M 3.84375 -8.796875 C 2.457031 -8.796875 1.765625 -7.414062 1.765625 -4.65625 C 1.765625 -1.894531 2.457031 -0.515625 3.84375 -0.515625 C 4.53125 -0.515625 5.046875 -0.847656 5.390625 -1.515625 C 5.742188 -2.191406 5.921875 -3.234375 5.921875 -4.640625 C 5.921875 -6.054688 5.742188 -7.101562 5.390625 -7.78125 C 5.046875 -8.457031 4.53125 -8.796875 3.84375 -8.796875 Z M 3.84375 -8.796875 "/>
</g>
<g id="glyph-21-0-339fcc0c">
<path d="M 0.03125 -4.65625 C 0.945312 -4.363281 1.65625 -3.910156 2.15625 -3.296875 C 2.664062 -2.691406 2.960938 -1.863281 3.046875 -0.8125 L 1.75 -0.625 C 1.675781 -1.113281 1.570312 -1.503906 1.4375 -1.796875 C 1.300781 -2.085938 1.117188 -2.320312 0.890625 -2.5 C 0.671875 -2.675781 0.375 -2.84375 0 -3 L 0 -2.375 L -7.40625 -0.03125 L -7.40625 -1.9375 L -1.1875 -3.546875 L -7.40625 -5.21875 L -7.40625 -7.0625 Z M 0.03125 -4.65625 "/>
</g>
<g id="glyph-22-0-339fcc0c">
<path d="M 10.375 7.3125 L 0 7.3125 L 0 5.71875 L 0.9375 5.59375 C 0.582031 5.363281 0.300781 5.066406 0.09375 4.703125 C -0.101562 4.347656 -0.203125 3.941406 -0.203125 3.484375 C -0.203125 2.578125 0.144531 1.878906 0.84375 1.390625 C 1.539062 0.910156 2.492188 0.671875 3.703125 0.671875 C 4.453125 0.671875 5.125 0.789062 5.71875 1.03125 C 6.3125 1.28125 6.773438 1.628906 7.109375 2.078125 C 7.441406 2.535156 7.609375 3.0625 7.609375 3.65625 C 7.609375 4.363281 7.34375 4.984375 6.8125 5.515625 L 10.5625 5.515625 Z M 1.140625 3.984375 C 1.140625 4.304688 1.21875 4.585938 1.375 4.828125 C 1.53125 5.066406 1.769531 5.296875 2.09375 5.515625 L 5.484375 5.515625 C 5.742188 5.296875 5.9375 5.078125 6.0625 4.859375 C 6.195312 4.640625 6.265625 4.390625 6.265625 4.109375 C 6.265625 3.628906 6.050781 3.25 5.625 2.96875 C 5.207031 2.695312 4.566406 2.5625 3.703125 2.5625 C 2.796875 2.5625 2.140625 2.679688 1.734375 2.921875 C 1.335938 3.171875 1.140625 3.523438 1.140625 3.984375 Z M 1.140625 3.984375 "/>
</g>
<g id="glyph-23-0-339fcc0c">
<path d="M 3.875 7.15625 C 3.78125 7.15625 3.539062 7.140625 3.15625 7.109375 L 3.15625 2.46875 C 2.4375 2.519531 1.921875 2.703125 1.609375 3.015625 C 1.296875 3.335938 1.140625 3.757812 1.140625 4.28125 C 1.140625 4.613281 1.191406 4.921875 1.296875 5.203125 C 1.410156 5.492188 1.582031 5.800781 1.8125 6.125 L 0.78125 6.875 C 0.125 6.050781 -0.203125 5.132812 -0.203125 4.125 C -0.203125 3 0.140625 2.128906 0.828125 1.515625 C 1.515625 0.910156 2.457031 0.609375 3.65625 0.609375 C 4.40625 0.609375 5.082031 0.738281 5.6875 1 C 6.289062 1.257812 6.757812 1.632812 7.09375 2.125 C 7.4375 2.625 7.609375 3.210938 7.609375 3.890625 C 7.609375 4.929688 7.28125 5.734375 6.625 6.296875 C 5.96875 6.867188 5.050781 7.15625 3.875 7.15625 Z M 4.390625 5.375 C 5.691406 5.375 6.34375 4.894531 6.34375 3.9375 C 6.34375 3.5 6.179688 3.15625 5.859375 2.90625 C 5.535156 2.65625 5.019531 2.507812 4.3125 2.46875 L 4.3125 5.375 Z M 4.390625 5.375 "/>
</g>
<g id="glyph-23-1-339fcc0c">
<path d="M 9.21875 4.078125 C 9.21875 3.722656 9.132812 3.46875 8.96875 3.3125 C 8.800781 3.15625 8.539062 3.078125 8.1875 3.078125 L 7.40625 3.078125 L 7.40625 4.859375 L 6.125 4.65625 L 6.125 3.078125 L 0 3.078125 L 0 1.28125 L 6.125 1.28125 L 6.125 0.078125 L 7.40625 0.078125 L 7.40625 1.28125 L 8.21875 1.28125 C 8.914062 1.28125 9.476562 1.503906 9.90625 1.953125 C 10.34375 2.410156 10.5625 3.054688 10.5625 3.890625 C 10.5625 4.546875 10.421875 5.1875 10.140625 5.8125 L 8.9375 5.296875 C 9.125 4.890625 9.21875 4.484375 9.21875 4.078125 Z M 9.21875 4.078125 "/>
</g>
<g id="glyph-24-0-339fcc0c">
<path d="M 4.5625 -3.96875 L 7.046875 0 L 4.96875 0 L 3.4375 -2.9375 L 1.9375 0 L -0.046875 0 L 2.421875 -3.90625 L 0.203125 -7.40625 L 2.25 -7.40625 L 3.515625 -4.890625 L 4.765625 -7.40625 L 6.703125 -7.40625 Z M 4.5625 -3.96875 "/>
</g>
<g id="glyph-25-0-339fcc0c">
<path d="M 6.546875 -1.953125 C 6.546875 -1.671875 6.585938 -1.460938 6.671875 -1.328125 C 6.765625 -1.191406 6.910156 -1.085938 7.109375 -1.015625 L 6.734375 0.1875 C 6.316406 0.144531 5.972656 0.0390625 5.703125 -0.125 C 5.441406 -0.289062 5.238281 -0.546875 5.09375 -0.890625 C 4.84375 -0.523438 4.523438 -0.25 4.140625 -0.0625 C 3.765625 0.113281 3.347656 0.203125 2.890625 0.203125 C 2.148438 0.203125 1.5625 -0.00390625 1.125 -0.421875 C 0.695312 -0.835938 0.484375 -1.390625 0.484375 -2.078125 C 0.484375 -2.878906 0.773438 -3.488281 1.359375 -3.90625 C 1.941406 -4.332031 2.773438 -4.546875 3.859375 -4.546875 L 4.78125 -4.546875 L 4.78125 -4.96875 C 4.78125 -5.445312 4.671875 -5.78125 4.453125 -5.96875 C 4.234375 -6.164062 3.882812 -6.265625 3.40625 -6.265625 C 2.863281 -6.265625 2.207031 -6.128906 1.4375 -5.859375 L 1.015625 -7.078125 C 1.941406 -7.429688 2.835938 -7.609375 3.703125 -7.609375 C 5.597656 -7.609375 6.546875 -6.757812 6.546875 -5.0625 Z M 3.359375 -1.09375 C 3.960938 -1.09375 4.4375 -1.394531 4.78125 -2 L 4.78125 -3.5 L 4.046875 -3.5 C 2.890625 -3.5 2.3125 -3.070312 2.3125 -2.21875 C 2.3125 -1.863281 2.398438 -1.585938 2.578125 -1.390625 C 2.753906 -1.191406 3.015625 -1.09375 3.359375 -1.09375 Z M 3.359375 -1.09375 "/>
</g>
<g id="glyph-25-1-339fcc0c">
<path d="M 4.90625 -7.609375 C 5.769531 -7.609375 6.441406 -7.265625 6.921875 -6.578125 C 7.410156 -5.898438 7.65625 -4.941406 7.65625 -3.703125 C 7.65625 -2.941406 7.535156 -2.265625 7.296875 -1.671875 C 7.054688 -1.078125 6.71875 -0.613281 6.28125 -0.28125 C 5.84375 0.0390625 5.328125 0.203125 4.734375 0.203125 C 4.328125 0.203125 3.957031 0.117188 3.625 -0.046875 C 3.300781 -0.210938 3.015625 -0.445312 2.765625 -0.75 L 2.65625 0 L 1.078125 0 L 1.078125 -10.375 L 2.875 -10.5625 L 2.875 -6.5625 C 3.113281 -6.894531 3.40625 -7.148438 3.75 -7.328125 C 4.101562 -7.515625 4.488281 -7.609375 4.90625 -7.609375 Z M 4.234375 -1.140625 C 4.722656 -1.140625 5.101562 -1.34375 5.375 -1.75 C 5.644531 -2.164062 5.78125 -2.816406 5.78125 -3.703125 C 5.78125 -4.640625 5.65625 -5.300781 5.40625 -5.6875 C 5.15625 -6.070312 4.800781 -6.265625 4.34375 -6.265625 C 3.769531 -6.265625 3.28125 -5.929688 2.875 -5.265625 L 2.875 -1.984375 C 3.03125 -1.710938 3.226562 -1.503906 3.46875 -1.359375 C 3.707031 -1.210938 3.960938 -1.140625 4.234375 -1.140625 Z M 4.234375 -1.140625 "/>
</g>
<g id="glyph-25-2-339fcc0c">
<path d="M 4.0625 -7.609375 C 4.539062 -7.609375 4.972656 -7.539062 5.359375 -7.40625 C 5.753906 -7.269531 6.125 -7.050781 6.46875 -6.75 L 5.671875 -5.671875 C 5.421875 -5.859375 5.175781 -5.992188 4.9375 -6.078125 C 4.707031 -6.160156 4.453125 -6.203125 4.171875 -6.203125 C 3.054688 -6.203125 2.5 -5.359375 2.5 -3.671875 C 2.5 -2.804688 2.644531 -2.1875 2.9375 -1.8125 C 3.226562 -1.4375 3.640625 -1.25 4.171875 -1.25 C 4.429688 -1.25 4.671875 -1.289062 4.890625 -1.375 C 5.109375 -1.457031 5.367188 -1.59375 5.671875 -1.78125 L 6.46875 -0.640625 C 5.769531 -0.078125 4.972656 0.203125 4.078125 0.203125 C 3.367188 0.203125 2.75 0.046875 2.21875 -0.265625 C 1.695312 -0.578125 1.296875 -1.019531 1.015625 -1.59375 C 0.742188 -2.175781 0.609375 -2.859375 0.609375 -3.640625 C 0.609375 -4.421875 0.742188 -5.113281 1.015625 -5.71875 C 1.296875 -6.320312 1.695312 -6.785156 2.21875 -7.109375 C 2.75 -7.441406 3.363281 -7.609375 4.0625 -7.609375 Z M 4.0625 -7.609375 "/>
</g>
</g>
</defs>
<rect x="-60" y="-45" width="720" height="540" fill="rgb(100%, 100%, 100%)" fill-opacity="1"/>
<path fill-rule="nonzero" fill="rgb(100%, 100%, 100%)" fill-opacity="1" d="M 65 143 L 219 143 L 219 37 L 65 37 Z M 65 143 "/>
<path fill-rule="nonzero" fill="rgb(100%, 100%, 100%)" fill-opacity="1" d="M 65 267 L 219 267 L 219 161 L 65 161 Z M 65 267 "/>
<path fill-rule="nonzero" fill="rgb(100%, 100%, 100%)" fill-opacity="1" d="M 65 390 L 219 390 L 219 285 L 65 285 Z M 65 390 "/>
<path fill-rule="nonzero" fill="rgb(100%, 100%, 100%)" fill-opacity="1" d="M 237 143 L 391 143 L 391 37 L 237 37 Z M 237 143 "/>
<path fill-rule="nonzero" fill="rgb(100%, 100%, 100%)" fill-opacity="1" d="M 237 267 L 391 267 L 391 161 L 237 161 Z M 237 267 "/>
<path fill-rule="nonzero" fill="rgb(100%, 100%, 100%)" fill-opacity="1" d="M 237 390 L 391 390 L 391 285 L 237 285 Z M 237 390 "/>
<path fill-rule="nonzero" fill="rgb(100%, 100%, 100%)" fill-opacity="1" d="M 409 143 L 563 143 L 563 37 L 409 37 Z M 409 143 "/>
<path fill-rule="nonzero" fill="rgb(100%, 100%, 100%)" fill-opacity="1" d="M 409 267 L 563 267 L 563 161 L 409 161 Z M 409 267 "/>
<path fill-rule="nonzero" fill="rgb(100%, 100%, 100%)" fill-opacity="1" d="M 409 390 L 563 390 L 563 285 L 409 285 Z M 409 390 "/>
<g fill="rgb(0%, 0%, 0%)" fill-opacity="1">
<use xlink:href="#glyph-0-0-339fcc0c" x="36.702007" y="143.638977"/>
</g>
<g fill="rgb(0%, 0%, 0%)" fill-opacity="1">
<use xlink:href="#glyph-1-0-339fcc0c" x="44.402004" y="143.638977"/>
</g>
<g fill="rgb(0%, 0%, 0%)" fill-opacity="1">
<use xlink:href="#glyph-2-0-339fcc0c" x="47.300003" y="143.638977"/>
</g>
<g fill="rgb(0%, 0%, 0%)" fill-opacity="1">
<use xlink:href="#glyph-3-0-339fcc0c" x="37.584007" y="95.027122"/>
</g>
<g fill="rgb(0%, 0%, 0%)" fill-opacity="1">
<use xlink:href="#glyph-4-0-339fcc0c" x="45.284004" y="95.027122"/>
</g>
<g fill="rgb(0%, 0%, 0%)" fill-opacity="1">
<use xlink:href="#glyph-5-0-339fcc0c" x="48.182003" y="95.027122"/>
</g>
<g fill="rgb(0%, 0%, 0%)" fill-opacity="1">
<use xlink:href="#glyph-6-0-339fcc0c" x="38.620003" y="46.415306"/>
</g>
<g fill="rgb(0%, 0%, 0%)" fill-opacity="1">
<use xlink:href="#glyph-6-1-339fcc0c" x="44.402004" y="46.415306"/>
</g>
<g fill="rgb(0%, 0%, 0%)" fill-opacity="1">
<use xlink:href="#glyph-7-0-339fcc0c" x="47.300003" y="46.415306"/>
</g>
<path fill-rule="nonzero" fill="rgb(25.098041%, 25.098041%, 25.098041%)" fill-opacity="1" d="M 141.773438 60.835938 C 141.773438 56.605469 135.429688 56.605469 135.429688 60.835938 C 135.429688 65.066406 141.773438 65.066406 141.773438 60.835938 Z M 141.773438 60.835938 "/>
<path fill-rule="nonzero" fill="rgb(25.098041%, 25.098041%, 25.098041%)" fill-opacity="1" d="M 79.734375 117.976562 C 79.734375 113.746094 73.390625 113.746094 73.390625 117.976562 C 73.390625 122.203125 79.734375 122.203125 79.734375 117.976562 Z M 79.734375 117.976562 "/>
<path fill-rule="nonzero" fill="rgb(25.098041%, 25.098041%, 25.098041%)" fill-opacity="1" d="M 170.238281 74.914062 C 170.238281 70.683594 163.894531 70.683594 163.894531 74.914062 C 163.894531 79.144531 170.238281 79.144531 170.238281 74.914062 Z M 170.238281 74.914062 "/>
<path fill-rule="nonzero" fill="rgb(25.098041%, 25.098041%, 25.098041%)" fill-opacity="1" d="M 122.777344 96.289062 C 122.777344 92.058594 116.433594 92.058594 116.433594 96.289062 C 116.433594 100.519531 122.777344 100.519531 122.777344 96.289062 Z M 122.777344 96.289062 "/>
<path fill-rule="nonzero" fill="rgb(25.098041%, 25.098041%, 25.098041%)" fill-opacity="1" d="M 154.535156 70.394531 C 154.535156 66.164062 148.1875 66.164062 148.1875 70.394531 C 148.1875 74.625 154.535156 74.625 154.535156 70.394531 Z M 154.535156 70.394531 "/>
<path fill-rule="nonzero" fill="rgb(25.098041%, 25.098041%, 25.098041%)" fill-opacity="1" d="M 76.550781 44.347656 C 76.550781 40.117188 70.203125 40.117188 70.203125 44.347656 C 70.203125 48.578125 76.550781 48.578125 76.550781 44.347656 Z M 76.550781 44.347656 "/>
<g fill="rgb(0%, 0%, 0%)" fill-opacity="1">
<use xlink:href="#glyph-0-0-339fcc0c" x="36.702007" y="267.638977"/>
</g>
<g fill="rgb(0%, 0%, 0%)" fill-opacity="1">
<use xlink:href="#glyph-1-0-339fcc0c" x="44.402004" y="267.638977"/>
</g>
<g fill="rgb(0%, 0%, 0%)" fill-opacity="1">
<use xlink:href="#glyph-2-0-339fcc0c" x="47.300003" y="267.638977"/>
</g>
<g fill="rgb(0%, 0%, 0%)" fill-opacity="1">
<use xlink:href="#glyph-8-0-339fcc0c" x="37.584007" y="219.027145"/>
</g>
<g fill="rgb(0%, 0%, 0%)" fill-opacity="1">
<use xlink:href="#glyph-9-0-339fcc0c" x="45.284004" y="219.027145"/>
</g>
<g fill="rgb(0%, 0%, 0%)" fill-opacity="1">
<use xlink:href="#glyph-10-0-339fcc0c" x="48.182003" y="219.027145"/>
</g>
<g fill="rgb(0%, 0%, 0%)" fill-opacity="1">
<use xlink:href="#glyph-9-1-339fcc0c" x="38.620003" y="170.415298"/>
</g>
<g fill="rgb(0%, 0%, 0%)" fill-opacity="1">
<use xlink:href="#glyph-9-0-339fcc0c" x="44.402004" y="170.415298"/>
</g>
<g fill="rgb(0%, 0%, 0%)" fill-opacity="1">
<use xlink:href="#glyph-10-1-339fcc0c" x="47.300003" y="170.415298"/>
</g>
<path fill-rule="nonzero" fill="rgb(25.098041%, 25.098041%, 25.098041%)" fill-opacity="1" d="M 205.378906 217.207031 C 205.378906 212.976562 199.035156 212.976562 199.035156 217.207031 C 199.035156 221.4375 205.378906 221.4375 205.378906 217.207031 Z M 205.378906 217.207031 "/>
<path fill-rule="nonzero" fill="rgb(25.098041%, 25.098041%, 25.098041%)" fill-opacity="1" d="M 196.890625 240.015625 C 196.890625 235.785156 190.542969 235.785156 190.542969 240.015625 C 190.542969 244.246094 196.890625 244.246094 196.890625 240.015625 Z M 196.890625 240.015625 "/>
<path fill-rule="nonzero" fill="rgb(25.098041%, 25.098041%, 25.098041%)" fill-opacity="1" d="M 172.457031 246.414062 C 172.457031 242.183594 166.113281 242.183594 166.113281 246.414062 C 166.113281 250.640625 172.457031 250.640625 172.457031 246.414062 Z M 172.457031 246.414062 "/>
<path fill-rule="nonzero" fill="rgb(25.098041%, 25.098041%, 25.098041%)" fill-opacity="1" d="M 164.230469 195.359375 C 164.230469 191.132812 157.886719 191.132812 157.886719 195.359375 C 157.886719 199.589844 164.230469 199.589844 164.230469 195.359375 Z M 164.230469 195.359375 "/>
<path fill-rule="nonzero" fill="rgb(25.098041%, 25.098041%, 25.098041%)" fill-opacity="1" d="M 196.105469 205.394531 C 196.105469 201.164062 189.757812 201.164062 189.757812 205.394531 C 189.757812 209.625 196.105469 209.625 196.105469 205.394531 Z M 196.105469 205.394531 "/>
<path fill-rule="nonzero" fill="rgb(25.098041%, 25.098041%, 25.098041%)" fill-opacity="1" d="M 157.105469 177.496094 C 157.105469 173.269531 150.761719 173.269531 150.761719 177.496094 C 150.761719 181.726562 157.105469 181.726562 157.105469 177.496094 Z M 157.105469 177.496094 "/>
<path fill-rule="nonzero" fill="rgb(25.098041%, 25.098041%, 25.098041%)" fill-opacity="1" d="M 168.128906 171.957031 C 168.128906 167.730469 161.785156 167.730469 161.785156 171.957031 C 161.785156 176.1875 168.128906 176.1875 168.128906 171.957031 Z M 168.128906 171.957031 "/>
<path fill-rule="nonzero" fill="rgb(25.098041%, 25.098041%, 25.098041%)" fill-opacity="1" d="M 132.585938 176.515625 C 132.585938 172.285156 126.242188 172.285156 126.242188 176.515625 C 126.242188 180.746094 132.585938 180.746094 132.585938 176.515625 Z M 132.585938 176.515625 "/>
<path fill-rule="nonzero" fill="rgb(25.098041%, 25.098041%, 25.098041%)" fill-opacity="1" d="M 199.949219 237.492188 C 199.949219 233.261719 193.605469 233.261719 193.605469 237.492188 C 193.605469 241.722656 199.949219 241.722656 199.949219 237.492188 Z M 199.949219 237.492188 "/>
<path fill-rule="nonzero" fill="rgb(25.098041%, 25.098041%, 25.098041%)" fill-opacity="1" d="M 126.53125 218.777344 C 126.53125 214.550781 120.1875 214.550781 120.1875 218.777344 C 120.1875 223.007812 126.53125 223.007812 126.53125 218.777344 Z M 126.53125 218.777344 "/>
<path fill-rule="nonzero" fill="rgb(25.098041%, 25.098041%, 25.098041%)" fill-opacity="1" d="M 115.109375 165.820312 C 115.109375 161.589844 108.765625 161.589844 108.765625 165.820312 C 108.765625 170.050781 115.109375 170.050781 115.109375 165.820312 Z M 115.109375 165.820312 "/>
<path fill-rule="nonzero" fill="rgb(25.098041%, 25.098041%, 25.098041%)" fill-opacity="1" d="M 145.851562 182.023438 C 145.851562 177.792969 139.507812 177.792969 139.507812 182.023438 C 139.507812 186.253906 145.851562 186.253906 145.851562 182.023438 Z M 145.851562 182.023438 "/>
<path fill-rule="nonzero" fill="rgb(25.098041%, 25.098041%, 25.098041%)" fill-opacity="1" d="M 182.230469 235.742188 C 182.230469 231.515625 175.886719 231.515625 175.886719 235.742188 C 175.886719 239.972656 182.230469 239.972656 182.230469 235.742188 Z M 182.230469 235.742188 "/>
<path fill-rule="nonzero" fill="rgb(25.098041%, 25.098041%, 25.098041%)" fill-opacity="1" d="M 214.664062 252.304688 C 214.664062 248.074219 208.320312 248.074219 208.320312 252.304688 C 208.320312 256.535156 214.664062 256.535156 214.664062 252.304688 Z M 214.664062 252.304688 "/>
<path fill-rule="nonzero" fill="rgb(25.098041%, 25.098041%, 25.098041%)" fill-opacity="1" d="M 133.75 242.523438 C 133.75 238.292969 127.402344 238.292969 127.402344 242.523438 C 127.402344 246.75 133.75 246.75 133.75 242.523438 Z M 133.75 242.523438 "/>
<path fill-rule="nonzero" fill="rgb(25.098041%, 25.098041%, 25.098041%)" fill-opacity="1" d="M 132.085938 202.578125 C 132.085938 198.347656 125.742188 198.347656 125.742188 202.578125 C 125.742188 206.804688 132.085938 206.804688 132.085938 202.578125 Z M 132.085938 202.578125 "/>
<path fill-rule="nonzero" fill="rgb(25.098041%, 25.098041%, 25.098041%)" fill-opacity="1" d="M 188.160156 231.222656 C 188.160156 226.992188 181.816406 226.992188 181.816406 231.222656 C 181.816406 235.453125 188.160156 235.453125 188.160156 231.222656 Z M 188.160156 231.222656 "/>
<path fill-rule="nonzero" fill="rgb(25.098041%, 25.098041%, 25.098041%)" fill-opacity="1" d="M 81.261719 182.710938 C 81.261719 178.480469 74.917969 178.480469 74.917969 182.710938 C 74.917969 186.941406 81.261719 186.941406 81.261719 182.710938 Z M 81.261719 182.710938 "/>
<path fill-rule="nonzero" fill="rgb(25.098041%, 25.098041%, 25.098041%)" fill-opacity="1" d="M 76.941406 189.410156 C 76.941406 185.179688 70.597656 185.179688 70.597656 189.410156 C 70.597656 193.636719 76.941406 193.636719 76.941406 189.410156 Z M 76.941406 189.410156 "/>
<path fill="none" stroke-width="1.5" stroke-linecap="butt" stroke-linejoin="miter" stroke="rgb(25.098041%, 25.098041%, 25.098041%)" stroke-opacity="1" stroke-miterlimit="2" d="M 72 214.335938 L 212 214.335938 "/>
<g fill="rgb(0%, 0%, 0%)" fill-opacity="1">
<use xlink:href="#glyph-0-0-339fcc0c" x="62.851006" y="411.089996"/>
</g>
<g fill="rgb(0%, 0%, 0%)" fill-opacity="1">
<use xlink:href="#glyph-11-0-339fcc0c" x="70.551003" y="411.089996"/>
</g>
<g fill="rgb(0%, 0%, 0%)" fill-opacity="1">
<use xlink:href="#glyph-12-0-339fcc0c" x="73.449005" y="411.089996"/>
</g>
<g fill="rgb(0%, 0%, 0%)" fill-opacity="1">
<use xlink:href="#glyph-12-0-339fcc0c" x="133.292007" y="411.089996"/>
</g>
<g fill="rgb(0%, 0%, 0%)" fill-opacity="1">
<use xlink:href="#glyph-12-1-339fcc0c" x="140.992004" y="411.089996"/>
</g>
<g fill="rgb(0%, 0%, 0%)" fill-opacity="1">
<use xlink:href="#glyph-12-2-339fcc0c" x="143.889999" y="411.089996"/>
</g>
<g fill="rgb(0%, 0%, 0%)" fill-opacity="1">
<use xlink:href="#glyph-0-1-339fcc0c" x="203.810013" y="411.089996"/>
</g>
<g fill="rgb(0%, 0%, 0%)" fill-opacity="1">
<use xlink:href="#glyph-12-1-339fcc0c" x="209.591995" y="411.089996"/>
</g>
<g fill="rgb(0%, 0%, 0%)" fill-opacity="1">
<use xlink:href="#glyph-12-0-339fcc0c" x="212.490005" y="411.089996"/>
</g>
<g fill="rgb(0%, 0%, 0%)" fill-opacity="1">
<use xlink:href="#glyph-13-0-339fcc0c" x="36.702007" y="390.677216"/>
</g>
<g fill="rgb(0%, 0%, 0%)" fill-opacity="1">
<use xlink:href="#glyph-14-0-339fcc0c" x="44.402004" y="390.677216"/>
</g>
<g fill="rgb(0%, 0%, 0%)" fill-opacity="1">
<use xlink:href="#glyph-15-0-339fcc0c" x="47.300003" y="390.677216"/>
</g>
<g fill="rgb(0%, 0%, 0%)" fill-opacity="1">
<use xlink:href="#glyph-16-0-339fcc0c" x="37.584007" y="342.523926"/>
</g>
<g fill="rgb(0%, 0%, 0%)" fill-opacity="1">
<use xlink:href="#glyph-17-0-339fcc0c" x="45.284004" y="342.523926"/>
</g>
<g fill="rgb(0%, 0%, 0%)" fill-opacity="1">
<use xlink:href="#glyph-18-0-339fcc0c" x="48.182003" y="342.523926"/>
</g>
<g fill="rgb(0%, 0%, 0%)" fill-opacity="1">
<use xlink:href="#glyph-1-1-339fcc0c" x="38.620003" y="294.370728"/>
</g>
<g fill="rgb(0%, 0%, 0%)" fill-opacity="1">
<use xlink:href="#glyph-1-0-339fcc0c" x="44.402004" y="294.370728"/>
</g>
<g fill="rgb(0%, 0%, 0%)" fill-opacity="1">
<use xlink:href="#glyph-2-0-339fcc0c" x="47.300003" y="294.370728"/>
</g>
<path fill-rule="nonzero" fill="rgb(25.098041%, 25.098041%, 25.098041%)" fill-opacity="1" d="M 123.328125 376.851562 C 123.328125 372.621094 116.984375 372.621094 116.984375 376.851562 C 116.984375 381.078125 123.328125 381.078125 123.328125 376.851562 Z M 123.328125 376.851562 "/>
<path fill-rule="nonzero" fill="rgb(25.098041%, 25.098041%, 25.098041%)" fill-opacity="1" d="M 109.011719 380.003906 C 109.011719 375.773438 102.664062 375.773438 102.664062 380.003906 C 102.664062 384.230469 109.011719 384.230469 109.011719 380.003906 Z M 109.011719 380.003906 "/>
<path fill-rule="nonzero" fill="rgb(25.098041%, 25.098041%, 25.098041%)" fill-opacity="1" d="M 119.949219 324.472656 C 119.949219 320.246094 113.601562 320.246094 113.601562 324.472656 C 113.601562 328.703125 119.949219 328.703125 119.949219 324.472656 Z M 119.949219 324.472656 "/>
<path fill-rule="nonzero" fill="rgb(25.098041%, 25.098041%, 25.098041%)" fill-opacity="1" d="M 102.8125 341.675781 C 102.8125 337.445312 96.46875 337.445312 96.46875 341.675781 C 96.46875 345.90625 102.8125 345.90625 102.8125 341.675781 Z M 102.8125 341.675781 "/>
<path fill-rule="nonzero" fill="rgb(25.098041%, 25.098041%, 25.098041%)" fill-opacity="1" d="M 77.789062 300.441406 C 77.789062 296.210938 71.445312 296.210938 71.445312 300.441406 C 71.445312 304.671875 77.789062 304.671875 77.789062 300.441406 Z M 77.789062 300.441406 "/>
<path fill-rule="nonzero" fill="rgb(25.098041%, 25.098041%, 25.098041%)" fill-opacity="1" d="M 147.769531 290.238281 C 147.769531 286.007812 141.425781 286.007812 141.425781 290.238281 C 141.425781 294.46875 147.769531 294.46875 147.769531 290.238281 Z M 147.769531 290.238281 "/>
<path fill-rule="nonzero" fill="rgb(25.098041%, 25.098041%, 25.098041%)" fill-opacity="1" d="M 151.339844 298.292969 C 151.339844 294.0625 144.992188 294.0625 144.992188 298.292969 C 144.992188 302.523438 151.339844 302.523438 151.339844 298.292969 Z M 151.339844 298.292969 "/>
<path fill-rule="nonzero" fill="rgb(25.098041%, 25.098041%, 25.098041%)" fill-opacity="1" d="M 163.207031 324.351562 C 163.207031 320.121094 156.863281 320.121094 156.863281 324.351562 C 156.863281 328.582031 163.207031 328.582031 163.207031 324.351562 Z M 163.207031 324.351562 "/>
<path fill-rule="nonzero" fill="rgb(25.098041%, 25.098041%, 25.098041%)" fill-opacity="1" d="M 159.671875 329.390625 C 159.671875 325.164062 153.324219 325.164062 153.324219 329.390625 C 153.324219 333.621094 159.671875 333.621094 159.671875 329.390625 Z M 159.671875 329.390625 "/>
<path fill-rule="nonzero" fill="rgb(25.098041%, 25.098041%, 25.098041%)" fill-opacity="1" d="M 106.523438 289.773438 C 106.523438 285.542969 100.175781 285.542969 100.175781 289.773438 C 100.175781 294.003906 106.523438 294.003906 106.523438 289.773438 Z M 106.523438 289.773438 "/>
<path fill-rule="nonzero" fill="rgb(25.098041%, 25.098041%, 25.098041%)" fill-opacity="1" d="M 94.945312 385.226562 C 94.945312 380.996094 88.601562 380.996094 88.601562 385.226562 C 88.601562 389.457031 94.945312 389.457031 94.945312 385.226562 Z M 94.945312 385.226562 "/>
<path fill-rule="nonzero" fill="rgb(25.098041%, 25.098041%, 25.098041%)" fill-opacity="1" d="M 134.371094 292.867188 C 134.371094 288.636719 128.023438 288.636719 128.023438 292.867188 C 128.023438 297.097656 134.371094 297.097656 134.371094 292.867188 Z M 134.371094 292.867188 "/>
<path fill-rule="nonzero" fill="rgb(25.098041%, 25.098041%, 25.098041%)" fill-opacity="1" d="M 351.257812 66.460938 C 351.257812 62.230469 344.914062 62.230469 344.914062 66.460938 C 344.914062 70.691406 351.257812 70.691406 351.257812 66.460938 Z M 351.257812 66.460938 "/>
<path fill-rule="nonzero" fill="rgb(25.098041%, 25.098041%, 25.098041%)" fill-opacity="1" d="M 345.289062 97.683594 C 345.289062 93.453125 338.941406 93.453125 338.941406 97.683594 C 338.941406 101.914062 345.289062 101.914062 345.289062 97.683594 Z M 345.289062 97.683594 "/>
<path fill-rule="nonzero" fill="rgb(25.098041%, 25.098041%, 25.098041%)" fill-opacity="1" d="M 303.636719 83.210938 C 303.636719 78.984375 297.292969 78.984375 297.292969 83.210938 C 297.292969 87.441406 303.636719 87.441406 303.636719 83.210938 Z M 303.636719 83.210938 "/>
<path fill-rule="nonzero" fill="rgb(25.098041%, 25.098041%, 25.098041%)" fill-opacity="1" d="M 337.308594 57.929688 C 337.308594 53.703125 330.960938 53.703125 330.960938 57.929688 C 330.960938 62.160156 337.308594 62.160156 337.308594 57.929688 Z M 337.308594 57.929688 "/>
<path fill-rule="nonzero" fill="rgb(25.098041%, 25.098041%, 25.098041%)" fill-opacity="1" d="M 333.855469 98.699219 C 333.855469 94.472656 327.511719 94.472656 327.511719 98.699219 C 327.511719 102.929688 333.855469 102.929688 333.855469 98.699219 Z M 333.855469 98.699219 "/>
<path fill-rule="nonzero" fill="rgb(25.098041%, 25.098041%, 25.098041%)" fill-opacity="1" d="M 348.761719 56.539062 C 348.761719 52.308594 342.414062 52.308594 342.414062 56.539062 C 342.414062 60.769531 348.761719 60.769531 348.761719 56.539062 Z M 348.761719 56.539062 "/>
<path fill-rule="nonzero" fill="rgb(25.098041%, 25.098041%, 25.098041%)" fill-opacity="1" d="M 293.292969 97.253906 C 293.292969 93.023438 286.945312 93.023438 286.945312 97.253906 C 286.945312 101.484375 293.292969 101.484375 293.292969 97.253906 Z M 293.292969 97.253906 "/>
<path fill-rule="nonzero" fill="rgb(25.098041%, 25.098041%, 25.098041%)" fill-opacity="1" d="M 288.9375 50.207031 C 288.9375 45.976562 282.589844 45.976562 282.589844 50.207031 C 282.589844 54.433594 288.9375 54.433594 288.9375 50.207031 Z M 288.9375 50.207031 "/>
<path fill-rule="nonzero" fill="rgb(25.098041%, 25.098041%, 25.098041%)" fill-opacity="1" d="M 252.9375 125.4375 C 252.9375 121.207031 246.589844 121.207031 246.589844 125.4375 C 246.589844 129.664062 252.9375 129.664062 252.9375 125.4375 Z M 252.9375 125.4375 "/>
<path fill-rule="nonzero" fill="rgb(25.098041%, 25.098041%, 25.098041%)" fill-opacity="1" d="M 333.835938 76.832031 C 333.835938 72.605469 327.492188 72.605469 327.492188 76.832031 C 327.492188 81.0625 333.835938 81.0625 333.835938 76.832031 Z M 333.835938 76.832031 "/>
<path fill-rule="nonzero" fill="rgb(25.098041%, 25.098041%, 25.098041%)" fill-opacity="1" d="M 344.972656 43.226562 C 344.972656 38.996094 338.628906 38.996094 338.628906 43.226562 C 338.628906 47.453125 344.972656 47.453125 344.972656 43.226562 Z M 344.972656 43.226562 "/>
<path fill-rule="nonzero" fill="rgb(25.098041%, 25.098041%, 25.098041%)" fill-opacity="1" d="M 324.777344 73.277344 C 324.777344 69.046875 318.429688 69.046875 318.429688 73.277344 C 318.429688 77.507812 324.777344 77.507812 324.777344 73.277344 Z M 324.777344 73.277344 "/>
<path fill-rule="nonzero" fill="rgb(25.098041%, 25.098041%, 25.098041%)" fill-opacity="1" d="M 330.203125 71.632812 C 330.203125 67.402344 323.855469 67.402344 323.855469 71.632812 C 323.855469 75.863281 330.203125 75.863281 330.203125 71.632812 Z M 330.203125 71.632812 "/>
<path fill-rule="nonzero" fill="rgb(25.098041%, 25.098041%, 25.098041%)" fill-opacity="1" d="M 336.511719 67.28125 C 336.511719 63.050781 330.167969 63.050781 330.167969 67.28125 C 330.167969 71.511719 336.511719 71.511719 336.511719 67.28125 Z M 336.511719 67.28125 "/>
<path fill-rule="nonzero" fill="rgb(25.098041%, 25.098041%, 25.098041%)" fill-opacity="1" d="M 323.59375 232.128906 C 323.59375 227.898438 317.25 227.898438 317.25 232.128906 C 317.25 236.359375 323.59375 236.359375 323.59375 232.128906 Z M 323.59375 232.128906 "/>
<path fill-rule="nonzero" fill="rgb(25.098041%, 25.098041%, 25.098041%)" fill-opacity="1" d="M 247.503906 208.113281 C 247.503906 203.886719 241.160156 203.886719 241.160156 208.113281 C 241.160156 212.34375 247.503906 212.34375 247.503906 208.113281 Z M 247.503906 208.113281 "/>
<path fill-rule="nonzero" fill="rgb(25.098041%, 25.098041%, 25.098041%)" fill-opacity="1" d="M 334.089844 186.097656 C 334.089844 181.867188 327.746094 181.867188 327.746094 186.097656 C 327.746094 190.328125 334.089844 190.328125 334.089844 186.097656 Z M 334.089844 186.097656 "/>
<path fill-rule="nonzero" fill="rgb(25.098041%, 25.098041%, 25.098041%)" fill-opacity="1" d="M 284.996094 257.933594 C 284.996094 253.703125 278.652344 253.703125 278.652344 257.933594 C 278.652344 262.164062 284.996094 262.164062 284.996094 257.933594 Z M 284.996094 257.933594 "/>
<path fill-rule="nonzero" fill="rgb(25.098041%, 25.098041%, 25.098041%)" fill-opacity="1" d="M 376.929688 194.175781 C 376.929688 189.945312 370.585938 189.945312 370.585938 194.175781 C 370.585938 198.402344 376.929688 198.402344 376.929688 194.175781 Z M 376.929688 194.175781 "/>
<path fill-rule="nonzero" fill="rgb(25.098041%, 25.098041%, 25.098041%)" fill-opacity="1" d="M 262.773438 246.429688 C 262.773438 242.199219 256.429688 242.199219 256.429688 246.429688 C 256.429688 250.660156 262.773438 250.660156 262.773438 246.429688 Z M 262.773438 246.429688 "/>
<path fill-rule="nonzero" fill="rgb(25.098041%, 25.098041%, 25.098041%)" fill-opacity="1" d="M 317.621094 224.289062 C 317.621094 220.058594 311.277344 220.058594 311.277344 224.289062 C 311.277344 228.519531 317.621094 228.519531 317.621094 224.289062 Z M 317.621094 224.289062 "/>
<path fill-rule="nonzero" fill="rgb(25.098041%, 25.098041%, 25.098041%)" fill-opacity="1" d="M 248.945312 218.578125 C 248.945312 214.347656 242.597656 214.347656 242.597656 218.578125 C 242.597656 222.804688 248.945312 222.804688 248.945312 218.578125 Z M 248.945312 218.578125 "/>
<path fill-rule="nonzero" fill="rgb(25.098041%, 25.098041%, 25.098041%)" fill-opacity="1" d="M 253.207031 238.53125 C 253.207031 234.300781 246.859375 234.300781 246.859375 238.53125 C 246.859375 242.761719 253.207031 242.761719 253.207031 238.53125 Z M 253.207031 238.53125 "/>
<path fill-rule="nonzero" fill="rgb(25.098041%, 25.098041%, 25.098041%)" fill-opacity="1" d="M 289.652344 230.335938 C 289.652344 226.105469 283.304688 226.105469 283.304688 230.335938 C 283.304688 234.5625 289.652344 234.5625 289.652344 230.335938 Z M 289.652344 230.335938 "/>
<path fill-rule="nonzero" fill="rgb(25.098041%, 25.098041%, 25.098041%)" fill-opacity="1" d="M 301.414062 205.4375 C 301.414062 201.210938 295.070312 201.210938 295.070312 205.4375 C 295.070312 209.667969 301.414062 209.667969 301.414062 205.4375 Z M 301.414062 205.4375 "/>
<path fill-rule="nonzero" fill="rgb(25.098041%, 25.098041%, 25.098041%)" fill-opacity="1" d="M 296.425781 234.625 C 296.425781 230.394531 290.078125 230.394531 290.078125 234.625 C 290.078125 238.855469 296.425781 238.855469 296.425781 234.625 Z M 296.425781 234.625 "/>
<path fill-rule="nonzero" fill="rgb(25.098041%, 25.098041%, 25.098041%)" fill-opacity="1" d="M 335 261.285156 C 335 257.054688 328.65625 257.054688 328.65625 261.285156 C 328.65625 265.515625 335 265.515625 335 261.285156 Z M 335 261.285156 "/>
<g fill="rgb(0%, 0%, 0%)" fill-opacity="1">
<use xlink:href="#glyph-0-0-339fcc0c" x="234.850998" y="411.089996"/>
</g>
<g fill="rgb(0%, 0%, 0%)" fill-opacity="1">
<use xlink:href="#glyph-12-1-339fcc0c" x="242.550995" y="411.089996"/>
</g>
<g fill="rgb(0%, 0%, 0%)" fill-opacity="1">
<use xlink:href="#glyph-12-0-339fcc0c" x="245.449005" y="411.089996"/>
</g>
<g fill="rgb(0%, 0%, 0%)" fill-opacity="1">
<use xlink:href="#glyph-12-0-339fcc0c" x="305.291992" y="411.089996"/>
</g>
<g fill="rgb(0%, 0%, 0%)" fill-opacity="1">
<use xlink:href="#glyph-12-1-339fcc0c" x="312.992004" y="411.089996"/>
</g>
<g fill="rgb(0%, 0%, 0%)" fill-opacity="1">
<use xlink:href="#glyph-12-2-339fcc0c" x="315.890015" y="411.089996"/>
</g>
<g fill="rgb(0%, 0%, 0%)" fill-opacity="1">
<use xlink:href="#glyph-19-0-339fcc0c" x="375.809998" y="411.089996"/>
</g>
<g fill="rgb(0%, 0%, 0%)" fill-opacity="1">
<use xlink:href="#glyph-12-1-339fcc0c" x="381.59201" y="411.089996"/>
</g>
<g fill="rgb(0%, 0%, 0%)" fill-opacity="1">
<use xlink:href="#glyph-20-0-339fcc0c" x="384.490021" y="411.089996"/>
</g>
<path fill-rule="nonzero" fill="rgb(25.098041%, 25.098041%, 25.098041%)" fill-opacity="1" d="M 357.574219 305.691406 C 357.574219 301.460938 351.230469 301.460938 351.230469 305.691406 C 351.230469 309.921875 357.574219 309.921875 357.574219 305.691406 Z M 357.574219 305.691406 "/>
<path fill-rule="nonzero" fill="rgb(25.098041%, 25.098041%, 25.098041%)" fill-opacity="1" d="M 358.027344 333.171875 C 358.027344 328.941406 351.683594 328.941406 351.683594 333.171875 C 351.683594 337.402344 358.027344 337.402344 358.027344 333.171875 Z M 358.027344 333.171875 "/>
<path fill-rule="nonzero" fill="rgb(25.098041%, 25.098041%, 25.098041%)" fill-opacity="1" d="M 284.417969 353.472656 C 284.417969 349.246094 278.074219 349.246094 278.074219 353.472656 C 278.074219 357.703125 284.417969 357.703125 284.417969 353.472656 Z M 284.417969 353.472656 "/>
<path fill-rule="nonzero" fill="rgb(25.098041%, 25.098041%, 25.098041%)" fill-opacity="1" d="M 386.351562 324.382812 C 386.351562 320.152344 380.007812 320.152344 380.007812 324.382812 C 380.007812 328.613281 386.351562 328.613281 386.351562 324.382812 Z M 386.351562 324.382812 "/>
<path fill-rule="nonzero" fill="rgb(25.098041%, 25.098041%, 25.098041%)" fill-opacity="1" d="M 260.800781 301.234375 C 260.800781 297.003906 254.453125 297.003906 254.453125 301.234375 C 254.453125 305.464844 260.800781 305.464844 260.800781 301.234375 Z M 260.800781 301.234375 "/>
<path fill-rule="nonzero" fill="rgb(25.098041%, 25.098041%, 25.098041%)" fill-opacity="1" d="M 271.335938 367.457031 C 271.335938 363.226562 264.988281 363.226562 264.988281 367.457031 C 264.988281 371.6875 271.335938 371.6875 271.335938 367.457031 Z M 271.335938 367.457031 "/>
<path fill-rule="nonzero" fill="rgb(25.098041%, 25.098041%, 25.098041%)" fill-opacity="1" d="M 343.5 369.832031 C 343.5 365.601562 337.15625 365.601562 337.15625 369.832031 C 337.15625 374.0625 343.5 374.0625 343.5 369.832031 Z M 343.5 369.832031 "/>
<path fill-rule="nonzero" fill="rgb(25.098041%, 25.098041%, 25.098041%)" fill-opacity="1" d="M 450.441406 113.417969 C 450.441406 109.1875 444.09375 109.1875 444.09375 113.417969 C 444.09375 117.648438 450.441406 117.648438 450.441406 113.417969 Z M 450.441406 113.417969 "/>
<path fill-rule="nonzero" fill="rgb(25.098041%, 25.098041%, 25.098041%)" fill-opacity="1" d="M 488.542969 116.359375 C 488.542969 112.128906 482.199219 112.128906 482.199219 116.359375 C 482.199219 120.589844 488.542969 120.589844 488.542969 116.359375 Z M 488.542969 116.359375 "/>
<path fill-rule="nonzero" fill="rgb(25.098041%, 25.098041%, 25.098041%)" fill-opacity="1" d="M 455.605469 119.070312 C 455.605469 114.839844 449.257812 114.839844 449.257812 119.070312 C 449.257812 123.300781 455.605469 123.300781 455.605469 119.070312 Z M 455.605469 119.070312 "/>
<path fill-rule="nonzero" fill="rgb(25.098041%, 25.098041%, 25.098041%)" fill-opacity="1" d="M 430.183594 89.121094 C 430.183594 84.890625 423.839844 84.890625 423.839844 89.121094 C 423.839844 93.351562 430.183594 93.351562 430.183594 89.121094 Z M 430.183594 89.121094 "/>
<path fill-rule="nonzero" fill="rgb(25.098041%, 25.098041%, 25.098041%)" fill-opacity="1" d="M 535.667969 51.285156 C 535.667969 47.054688 529.320312 47.054688 529.320312 51.285156 C 529.320312 55.515625 535.667969 55.515625 535.667969 51.285156 Z M 535.667969 51.285156 "/>
<path fill-rule="nonzero" fill="rgb(25.098041%, 25.098041%, 25.098041%)" fill-opacity="1" d="M 542.828125 195.277344 C 542.828125 191.046875 536.484375 191.046875 536.484375 195.277344 C 536.484375 199.507812 542.828125 199.507812 542.828125 195.277344 Z M 542.828125 195.277344 "/>
<path fill-rule="nonzero" fill="rgb(25.098041%, 25.098041%, 25.098041%)" fill-opacity="1" d="M 518.953125 180.515625 C 518.953125 176.285156 512.605469 176.285156 512.605469 180.515625 C 512.605469 184.746094 518.953125 184.746094 518.953125 180.515625 Z M 518.953125 180.515625 "/>
<path fill-rule="nonzero" fill="rgb(25.098041%, 25.098041%, 25.098041%)" fill-opacity="1" d="M 473.476562 188.570312 C 473.476562 184.339844 467.132812 184.339844 467.132812 188.570312 C 467.132812 192.800781 473.476562 192.800781 473.476562 188.570312 Z M 473.476562 188.570312 "/>
<path fill-rule="nonzero" fill="rgb(25.098041%, 25.098041%, 25.098041%)" fill-opacity="1" d="M 542.195312 260.460938 C 542.195312 256.230469 535.851562 256.230469 535.851562 260.460938 C 535.851562 264.691406 542.195312 264.691406 542.195312 260.460938 Z M 542.195312 260.460938 "/>
<path fill-rule="nonzero" fill="rgb(25.098041%, 25.098041%, 25.098041%)" fill-opacity="1" d="M 515.550781 182.300781 C 515.550781 178.074219 509.207031 178.074219 509.207031 182.300781 C 509.207031 186.53125 515.550781 186.53125 515.550781 182.300781 Z M 515.550781 182.300781 "/>
<path fill-rule="nonzero" fill="rgb(25.098041%, 25.098041%, 25.098041%)" fill-opacity="1" d="M 492.292969 256.804688 C 492.292969 252.574219 485.949219 252.574219 485.949219 256.804688 C 485.949219 261.035156 492.292969 261.035156 492.292969 256.804688 Z M 492.292969 256.804688 "/>
<path fill-rule="nonzero" fill="rgb(25.098041%, 25.098041%, 25.098041%)" fill-opacity="1" d="M 530.371094 258.253906 C 530.371094 254.023438 524.027344 254.023438 524.027344 258.253906 C 524.027344 262.484375 530.371094 262.484375 530.371094 258.253906 Z M 530.371094 258.253906 "/>
<path fill-rule="nonzero" fill="rgb(25.098041%, 25.098041%, 25.098041%)" fill-opacity="1" d="M 442.476562 182.734375 C 442.476562 178.503906 436.128906 178.503906 436.128906 182.734375 C 436.128906 186.964844 442.476562 186.964844 442.476562 182.734375 Z M 442.476562 182.734375 "/>
<path fill-rule="nonzero" fill="rgb(25.098041%, 25.098041%, 25.098041%)" fill-opacity="1" d="M 460.339844 237.203125 C 460.339844 232.972656 453.996094 232.972656 453.996094 237.203125 C 453.996094 241.433594 460.339844 241.433594 460.339844 237.203125 Z M 460.339844 237.203125 "/>
<path fill-rule="nonzero" fill="rgb(25.098041%, 25.098041%, 25.098041%)" fill-opacity="1" d="M 534.851562 253.246094 C 534.851562 249.019531 528.503906 249.019531 528.503906 253.246094 C 528.503906 257.476562 534.851562 257.476562 534.851562 253.246094 Z M 534.851562 253.246094 "/>
<path fill-rule="nonzero" fill="rgb(25.098041%, 25.098041%, 25.098041%)" fill-opacity="1" d="M 432.605469 166.542969 C 432.605469 162.3125 426.257812 162.3125 426.257812 166.542969 C 426.257812 170.773438 432.605469 170.773438 432.605469 166.542969 Z M 432.605469 166.542969 "/>
<g fill="rgb(0%, 0%, 0%)" fill-opacity="1">
<use xlink:href="#glyph-19-1-339fcc0c" x="406.850983" y="411.089996"/>
</g>
<g fill="rgb(0%, 0%, 0%)" fill-opacity="1">
<use xlink:href="#glyph-12-1-339fcc0c" x="414.550995" y="411.089996"/>
</g>
<g fill="rgb(0%, 0%, 0%)" fill-opacity="1">
<use xlink:href="#glyph-20-0-339fcc0c" x="417.449005" y="411.089996"/>
</g>
<g fill="rgb(0%, 0%, 0%)" fill-opacity="1">
<use xlink:href="#glyph-20-0-339fcc0c" x="477.292023" y="411.089996"/>
</g>
<g fill="rgb(0%, 0%, 0%)" fill-opacity="1">
<use xlink:href="#glyph-12-1-339fcc0c" x="484.992004" y="411.089996"/>
</g>
<g fill="rgb(0%, 0%, 0%)" fill-opacity="1">
<use xlink:href="#glyph-19-2-339fcc0c" x="487.889984" y="411.089996"/>
</g>
<g fill="rgb(0%, 0%, 0%)" fill-opacity="1">
<use xlink:href="#glyph-12-3-339fcc0c" x="547.809998" y="411.089996"/>
</g>
<g fill="rgb(0%, 0%, 0%)" fill-opacity="1">
<use xlink:href="#glyph-12-1-339fcc0c" x="553.59198" y="411.089996"/>
</g>
<g fill="rgb(0%, 0%, 0%)" fill-opacity="1">
<use xlink:href="#glyph-12-0-339fcc0c" x="556.48999" y="411.089996"/>
</g>
<path fill-rule="nonzero" fill="rgb(25.098041%, 25.098041%, 25.098041%)" fill-opacity="1" d="M 508.265625 301.636719 C 508.265625 297.40625 501.917969 297.40625 501.917969 301.636719 C 501.917969 305.867188 508.265625 305.867188 508.265625 301.636719 Z M 508.265625 301.636719 "/>
<path fill-rule="nonzero" fill="rgb(25.098041%, 25.098041%, 25.098041%)" fill-opacity="1" d="M 552.167969 299.289062 C 552.167969 295.058594 545.824219 295.058594 545.824219 299.289062 C 545.824219 303.519531 552.167969 303.519531 552.167969 299.289062 Z M 552.167969 299.289062 "/>
<path fill-rule="nonzero" fill="rgb(25.098041%, 25.098041%, 25.098041%)" fill-opacity="1" d="M 477.289062 346.597656 C 477.289062 342.367188 470.945312 342.367188 470.945312 346.597656 C 470.945312 350.824219 477.289062 350.824219 477.289062 346.597656 Z M 477.289062 346.597656 "/>
<path fill-rule="nonzero" fill="rgb(25.098041%, 25.098041%, 25.098041%)" fill-opacity="1" d="M 490.824219 321.597656 C 490.824219 317.367188 484.480469 317.367188 484.480469 321.597656 C 484.480469 325.828125 490.824219 325.828125 490.824219 321.597656 Z M 490.824219 321.597656 "/>
<path fill-rule="nonzero" fill="rgb(25.098041%, 25.098041%, 25.098041%)" fill-opacity="1" d="M 526.160156 325.628906 C 526.160156 321.398438 519.816406 321.398438 519.816406 325.628906 C 519.816406 329.859375 526.160156 329.859375 526.160156 325.628906 Z M 526.160156 325.628906 "/>
<path fill-rule="nonzero" fill="rgb(25.098041%, 25.098041%, 25.098041%)" fill-opacity="1" d="M 542.414062 379.546875 C 542.414062 375.320312 536.070312 375.320312 536.070312 379.546875 C 536.070312 383.777344 542.414062 383.777344 542.414062 379.546875 Z M 542.414062 379.546875 "/>
<path fill-rule="nonzero" fill="rgb(25.098041%, 25.098041%, 25.098041%)" fill-opacity="1" d="M 501.121094 363.035156 C 501.121094 358.804688 494.773438 358.804688 494.773438 363.035156 C 494.773438 367.265625 501.121094 367.265625 501.121094 363.035156 Z M 501.121094 363.035156 "/>
<path fill-rule="nonzero" fill="rgb(25.098041%, 25.098041%, 25.098041%)" fill-opacity="1" d="M 515.757812 341.234375 C 515.757812 337.003906 509.414062 337.003906 509.414062 341.234375 C 509.414062 345.464844 515.757812 345.464844 515.757812 341.234375 Z M 515.757812 341.234375 "/>
<path fill-rule="nonzero" fill="rgb(25.098041%, 25.098041%, 25.098041%)" fill-opacity="1" d="M 500.40625 345.492188 C 500.40625 341.261719 494.0625 341.261719 494.0625 345.492188 C 494.0625 349.722656 500.40625 349.722656 500.40625 345.492188 Z M 500.40625 345.492188 "/>
<path fill-rule="nonzero" fill="rgb(25.098041%, 25.098041%, 25.098041%)" fill-opacity="1" d="M 470.941406 314.058594 C 470.941406 309.828125 464.59375 309.828125 464.59375 314.058594 C 464.59375 318.285156 470.941406 318.285156 470.941406 314.058594 Z M 470.941406 314.058594 "/>
<path fill-rule="nonzero" fill="rgb(25.098041%, 25.098041%, 25.098041%)" fill-opacity="1" d="M 505.640625 372.707031 C 505.640625 368.476562 499.292969 368.476562 499.292969 372.707031 C 499.292969 376.9375 505.640625 376.9375 505.640625 372.707031 Z M 505.640625 372.707031 "/>
<path fill-rule="nonzero" fill="rgb(25.098041%, 25.098041%, 25.098041%)" fill-opacity="1" d="M 489.332031 293.734375 C 489.332031 289.503906 482.988281 289.503906 482.988281 293.734375 C 482.988281 297.964844 489.332031 297.964844 489.332031 293.734375 Z M 489.332031 293.734375 "/>
<path fill-rule="nonzero" fill="rgb(25.098041%, 25.098041%, 25.098041%)" fill-opacity="1" d="M 519.140625 378.730469 C 519.140625 374.5 512.796875 374.5 512.796875 378.730469 C 512.796875 382.960938 519.140625 382.960938 519.140625 378.730469 Z M 519.140625 378.730469 "/>
<g fill="rgb(0%, 0%, 0%)" fill-opacity="1">
<use xlink:href="#glyph-21-0-339fcc0c" x="29.090006" y="217.141983"/>
</g>
<g fill="rgb(0%, 0%, 0%)" fill-opacity="1">
<use xlink:href="#glyph-22-0-339fcc0c" x="570.909973" y="85.540337"/>
</g>
<g fill="rgb(0%, 0%, 0%)" fill-opacity="1">
<use xlink:href="#glyph-23-0-339fcc0c" x="570.909973" y="209.756989"/>
</g>
<g fill="rgb(0%, 0%, 0%)" fill-opacity="1">
<use xlink:href="#glyph-23-1-339fcc0c" x="570.909973" y="335.037689"/>
</g>
<g fill="rgb(0%, 0%, 0%)" fill-opacity="1">
<use xlink:href="#glyph-24-0-339fcc0c" x="310.648987" y="430.290009"/>
</g>
<g fill="rgb(0%, 0%, 0%)" fill-opacity="1">
<use xlink:href="#glyph-25-0-339fcc0c" x="138.292999" y="29.089993"/>
</g>
<g fill="rgb(0%, 0%, 0%)" fill-opacity="1">
<use xlink:href="#glyph-25-1-339fcc0c" x="309.97699" y="29.089993"/>
</g>
<g fill="rgb(0%, 0%, 0%)" fill-opacity="1">
<use xlink:href="#glyph-25-2-339fcc0c" x="482.836975" y="29.089993"/>
</g>
<path fill="none" stroke-width="1" stroke-linecap="butt" stroke-linejoin="miter" stroke="rgb(66.274512%, 66.274512%, 66.274512%)" stroke-opacity="1" stroke-miterlimit="1.154701" d="M 64.5 138.949219 L 59.5 138.949219 "/>
<path fill="none" stroke-width="1" stroke-linecap="butt" stroke-linejoin="miter" stroke="rgb(66.274512%, 66.274512%, 66.274512%)" stroke-opacity="1" stroke-miterlimit="1.154701" d="M 64.5 90.335938 L 59.5 90.335938 "/>
<path fill="none" stroke-width="1" stroke-linecap="butt" stroke-linejoin="miter" stroke="rgb(66.274512%, 66.274512%, 66.274512%)" stroke-opacity="1" stroke-miterlimit="1.154701" d="M 64.5 41.726562 L 59.5 41.726562 "/>
<path fill="none" stroke-width="1" stroke-linecap="butt" stroke-linejoin="miter" stroke="rgb(66.274512%, 66.274512%, 66.274512%)" stroke-opacity="1" stroke-miterlimit="1.154701" d="M 64.5 262.949219 L 59.5 262.949219 "/>
<path fill="none" stroke-width="1" stroke-linecap="butt" stroke-linejoin="miter" stroke="rgb(66.274512%, 66.274512%, 66.274512%)" stroke-opacity="1" stroke-miterlimit="1.154701" d="M 64.5 214.335938 L 59.5 214.335938 "/>
<path fill="none" stroke-width="1" stroke-linecap="butt" stroke-linejoin="miter" stroke="rgb(66.274512%, 66.274512%, 66.274512%)" stroke-opacity="1" stroke-miterlimit="1.154701" d="M 64.5 165.726562 L 59.5 165.726562 "/>
<path fill="none" stroke-width="1" stroke-linecap="butt" stroke-linejoin="miter" stroke="rgb(66.274512%, 66.274512%, 66.274512%)" stroke-opacity="1" stroke-miterlimit="1.154701" d="M 72 390.5 L 72 395.5 "/>
<path fill="none" stroke-width="1" stroke-linecap="butt" stroke-linejoin="miter" stroke="rgb(66.274512%, 66.274512%, 66.274512%)" stroke-opacity="1" stroke-miterlimit="1.154701" d="M 142 390.5 L 142 395.5 "/>
<path fill="none" stroke-width="1" stroke-linecap="butt" stroke-linejoin="miter" stroke="rgb(66.274512%, 66.274512%, 66.274512%)" stroke-opacity="1" stroke-miterlimit="1.154701" d="M 212 390.5 L 212 395.5 "/>
<path fill="none" stroke-width="1" stroke-linecap="butt" stroke-linejoin="miter" stroke="rgb(66.274512%, 66.274512%, 66.274512%)" stroke-opacity="1" stroke-miterlimit="1.154701" d="M 64.5 385.988281 L 59.5 385.988281 "/>
<path fill="none" stroke-width="1" stroke-linecap="butt" stroke-linejoin="miter" stroke="rgb(66.274512%, 66.274512%, 66.274512%)" stroke-opacity="1" stroke-miterlimit="1.154701" d="M 64.5 337.832031 L 59.5 337.832031 "/>
<path fill="none" stroke-width="1" stroke-linecap="butt" stroke-linejoin="miter" stroke="rgb(66.274512%, 66.274512%, 66.274512%)" stroke-opacity="1" stroke-miterlimit="1.154701" d="M 64.5 289.679688 L 59.5 289.679688 "/>
<path fill="none" stroke-width="1" stroke-linecap="butt" stroke-linejoin="miter" stroke="rgb(66.274512%, 66.274512%, 66.274512%)" stroke-opacity="1" stroke-miterlimit="1.154701" d="M 244 390.5 L 244 395.5 "/>
<path fill="none" stroke-width="1" stroke-linecap="butt" stroke-linejoin="miter" stroke="rgb(66.274512%, 66.274512%, 66.274512%)" stroke-opacity="1" stroke-miterlimit="1.154701" d="M 314 390.5 L 314 395.5 "/>
<path fill="none" stroke-width="1" stroke-linecap="butt" stroke-linejoin="miter" stroke="rgb(66.274512%, 66.274512%, 66.274512%)" stroke-opacity="1" stroke-miterlimit="1.154701" d="M 384 390.5 L 384 395.5 "/>
<path fill="none" stroke-width="1" stroke-linecap="butt" stroke-linejoin="miter" stroke="rgb(66.274512%, 66.274512%, 66.274512%)" stroke-opacity="1" stroke-miterlimit="1.154701" d="M 416 390.5 L 416 395.5 "/>
<path fill="none" stroke-width="1" stroke-linecap="butt" stroke-linejoin="miter" stroke="rgb(66.274512%, 66.274512%, 66.274512%)" stroke-opacity="1" stroke-miterlimit="1.154701" d="M 486 390.5 L 486 395.5 "/>
<path fill="none" stroke-width="1" stroke-linecap="butt" stroke-linejoin="miter" stroke="rgb(66.274512%, 66.274512%, 66.274512%)" stroke-opacity="1" stroke-miterlimit="1.154701" d="M 556 390.5 L 556 395.5 "/>
<path fill="none" stroke-width="1" stroke-linecap="butt" stroke-linejoin="miter" stroke="rgb(66.274512%, 66.274512%, 66.274512%)" stroke-opacity="1" stroke-miterlimit="1.154701" d="M 64.5 143 L 219.5 143 "/>
<path fill="none" stroke-width="1" stroke-linecap="butt" stroke-linejoin="miter" stroke="rgb(66.274512%, 66.274512%, 66.274512%)" stroke-opacity="1" stroke-miterlimit="1.154701" d="M 65 143.5 L 65 36.5 "/>
<path fill="none" stroke-width="1" stroke-linecap="butt" stroke-linejoin="miter" stroke="rgb(66.274512%, 66.274512%, 66.274512%)" stroke-opacity="1" stroke-miterlimit="1.154701" d="M 64.5 267 L 219.5 267 "/>
<path fill="none" stroke-width="1" stroke-linecap="butt" stroke-linejoin="miter" stroke="rgb(66.274512%, 66.274512%, 66.274512%)" stroke-opacity="1" stroke-miterlimit="1.154701" d="M 65 267.5 L 65 160.5 "/>
<path fill="none" stroke-width="1" stroke-linecap="butt" stroke-linejoin="miter" stroke="rgb(66.274512%, 66.274512%, 66.274512%)" stroke-opacity="1" stroke-miterlimit="1.154701" d="M 64.5 390 L 219.5 390 "/>
<path fill="none" stroke-width="1" stroke-linecap="butt" stroke-linejoin="miter" stroke="rgb(66.274512%, 66.274512%, 66.274512%)" stroke-opacity="1" stroke-miterlimit="1.154701" d="M 65 390.5 L 65 284.5 "/>
<path fill="none" stroke-width="1" stroke-linecap="butt" stroke-linejoin="miter" stroke="rgb(66.274512%, 66.274512%, 66.274512%)" stroke-opacity="1" stroke-miterlimit="1.154701" d="M 236.5 143 L 391.5 143 "/>
<path fill="none" stroke-width="1" stroke-linecap="butt" stroke-linejoin="miter" stroke="rgb(66.274512%, 66.274512%, 66.274512%)" stroke-opacity="1" stroke-miterlimit="1.154701" d="M 237 143.5 L 237 36.5 "/>
<path fill="none" stroke-width="1" stroke-linecap="butt" stroke-linejoin="miter" stroke="rgb(66.274512%, 66.274512%, 66.274512%)" stroke-opacity="1" stroke-miterlimit="1.154701" d="M 236.5 267 L 391.5 267 "/>
<path fill="none" stroke-width="1" stroke-linecap="butt" stroke-linejoin="miter" stroke="rgb(66.274512%, 66.274512%, 66.274512%)" stroke-opacity="1" stroke-miterlimit="1.154701" d="M 237 267.5 L 237 160.5 "/>
<path fill="none" stroke-width="1" stroke-linecap="butt" stroke-linejoin="miter" stroke="rgb(66.274512%, 66.274512%, 66.274512%)" stroke-opacity="1" stroke-miterlimit="1.154701" d="M 236.5 390 L 391.5 390 "/>
<path fill="none" stroke-width="1" stroke-linecap="butt" stroke-linejoin="miter" stroke="rgb(66.274512%, 66.274512%, 66.274512%)" stroke-opacity="1" stroke-miterlimit="1.154701" d="M 237 390.5 L 237 284.5 "/>
<path fill="none" stroke-width="1" stroke-linecap="butt" stroke-linejoin="miter" stroke="rgb(66.274512%, 66.274512%, 66.274512%)" stroke-opacity="1" stroke-miterlimit="1.154701" d="M 408.5 143 L 563.5 143 "/>
<path fill="none" stroke-width="1" stroke-linecap="butt" stroke-linejoin="miter" stroke="rgb(66.274512%, 66.274512%, 66.274512%)" stroke-opacity="1" stroke-miterlimit="1.154701" d="M 409 143.5 L 409 36.5 "/>
<path fill="none" stroke-width="1" stroke-linecap="butt" stroke-linejoin="miter" stroke="rgb(66.274512%, 66.274512%, 66.274512%)" stroke-opacity="1" stroke-miterlimit="1.154701" d="M 408.5 267 L 563.5 267 "/>
<path fill="none" stroke-width="1" stroke-linecap="butt" stroke-linejoin="miter" stroke="rgb(66.274512%, 66.274512%, 66.274512%)" stroke-opacity="1" stroke-miterlimit="1.154701" d="M 409 267.5 L 409 160.5 "/>
<path fill="none" stroke-width="1" stroke-linecap="butt" stroke-linejoin="miter" stroke="rgb(66.274512%, 66.274512%, 66.274512%)" stroke-opacity="1" stroke-miterlimit="1.154701" d="M 408.5 390 L 563.5 390 "/>
<path fill="none" stroke-width="1" stroke-linecap="butt" stroke-linejoin="miter" stroke="rgb(66.274512%, 66.274512%, 66.274512%)" stroke-opacity="1" stroke-miterlimit="1.154701" d="M 409 390.5 L 409 284.5 "/>
</svg>
