<?xml version="1.0" encoding="UTF-8"?>
<svg xmlns="http://www.w3.org/2000/svg" xmlns:xlink="http://www.w3.org/1999/xlink" width="600" height="450" viewBox="0 0 600 450">
<defs>
<g>
<g id="glyph-0-0-8b659028">
<path d="M 3.84375 -9.46875 C 4.8125 -9.46875 5.539062 -9.054688 6.03125 -8.234375 C 6.53125 -7.421875 6.78125 -6.222656 6.78125 -4.640625 C 6.78125 -3.078125 6.53125 -1.882812 6.03125 -1.0625 C 5.53125 -0.25 4.800781 0.15625 3.84375 0.15625 C 2.882812 0.15625 2.15625 -0.25 1.65625 -1.0625 C 1.164062 -1.882812 0.921875 -3.082031 0.921875 -4.65625 C 0.921875 -6.238281 1.164062 -7.4375 1.65625 -8.25 C 2.15625 -9.0625 2.882812 -9.46875 3.84375 -9.46875 Z M 3.84375 -8.796875 C 2.457031 -8.796875 1.765625 -7.414062 1.765625 -4.65625 C 1.765625 -1.894531 2.457031 -0.515625 3.84375 -0.515625 C 4.53125 -0.515625 5.046875 -0.847656 5.390625 -1.515625 C 5.742188 -2.191406 5.921875 -3.234375 5.921875 -4.640625 C 5.921875 -6.054688 5.742188 -7.101562 5.390625 -7.78125 C 5.046875 -8.457031 4.53125 -8.796875 3.84375 -8.796875 Z M 3.84375 -8.796875 "/>
</g>
<g id="glyph-0-1-8b659028">
<path d="M 1.4375 -1.171875 C 1.632812 -1.171875 1.796875 -1.109375 1.921875 -0.984375 C 2.046875 -0.859375 2.109375 -0.703125 2.109375 -0.515625 C 2.109375 -0.316406 2.046875 -0.15625 1.921875 -0.03125 C 1.796875 0.09375 1.632812 0.15625 1.4375 0.15625 C 1.25 0.15625 1.085938 0.09375 0.953125 -0.03125 C 0.828125 -0.164062 0.765625 -0.328125 0.765625 -0.515625 C 0.765625 -0.703125 0.828125 -0.859375 0.953125 -0.984375 C 1.085938 -1.109375 1.25 -1.171875 1.4375 -1.171875 Z M 1.4375 -1.171875 "/>
</g>
<g id="glyph-1-0-8b659028">
<path d="M 1.4375 -1.171875 C 1.632812 -1.171875 1.796875 -1.109375 1.921875 -0.984375 C 2.046875 -0.859375 2.109375 -0.703125 2.109375 -0.515625 C 2.109375 -0.316406 2.046875 -0.15625 1.921875 -0.03125 C 1.796875 0.09375 1.632812 0.15625 1.4375 0.15625 C 1.25 0.15625 1.085938 0.09375 0.953125 -0.03125 C 0.828125 -0.164062 0.765625 -0.328125 0.765625 -0.515625 C 0.765625 -0.703125 0.828125 -0.859375 0.953125 -0.984375 C 1.085938 -1.109375 1.25 -1.171875 1.4375 -1.171875 Z M 1.4375 -1.171875 "/>
</g>
<g id="glyph-2-0-8b659028">
<path d="M 3.84375 -9.46875 C 4.8125 -9.46875 5.539062 -9.054688 6.03125 -8.234375 C 6.53125 -7.421875 6.78125 -6.222656 6.78125 -4.640625 C 6.78125 -3.078125 6.53125 -1.882812 6.03125 -1.0625 C 5.53125 -0.25 4.800781 0.15625 3.84375 0.15625 C 2.882812 0.15625 2.15625 -0.25 1.65625 -1.0625 C 1.164062 -1.882812 0.921875 -3.082031 0.921875 -4.65625 C 0.921875 -6.238281 1.164062 -7.4375 1.65625 -8.25 C 2.15625 -9.0625 2.882812 -9.46875 3.84375 -9.46875 Z M 3.84375 -8.796875 C 2.457031 -8.796875 1.765625 -7.414062 1.765625 -4.65625 C 1.765625 -1.894531 2.457031 -0.515625 3.84375 -0.515625 C 4.53125 -0.515625 5.046875 -0.847656 5.390625 -1.515625 C 5.742188 -2.191406 5.921875 -3.234375 5.921875 -4.640625 C 5.921875 -6.054688 5.742188 -7.101562 5.390625 -7.78125 C 5.046875 -8.457031 4.53125 -8.796875 3.84375 -8.796875 Z M 3.84375 -8.796875 "/>
</g>
<g id="glyph-2-1-8b659028">
<path d="M 5.671875 -8.640625 L 1.890625 -8.640625 L 1.890625 -5.453125 C 2.398438 -5.742188 2.929688 -5.890625 3.484375 -5.890625 C 4.285156 -5.890625 4.921875 -5.628906 5.390625 -5.109375 C 5.867188 -4.597656 6.109375 -3.894531 6.109375 -3 C 6.109375 -2.394531 5.984375 -1.847656 5.734375 -1.359375 C 5.484375 -0.878906 5.128906 -0.503906 4.671875 -0.234375 C 4.222656 0.0234375 3.703125 0.15625 3.109375 0.15625 C 2.066406 0.15625 1.1875 -0.21875 0.46875 -0.96875 L 0.984375 -1.453125 C 1.273438 -1.140625 1.585938 -0.90625 1.921875 -0.75 C 2.265625 -0.601562 2.660156 -0.53125 3.109375 -0.53125 C 3.773438 -0.53125 4.296875 -0.75 4.671875 -1.1875 C 5.054688 -1.632812 5.25 -2.242188 5.25 -3.015625 C 5.25 -3.753906 5.070312 -4.304688 4.71875 -4.671875 C 4.375 -5.046875 3.898438 -5.234375 3.296875 -5.234375 C 3.003906 -5.234375 2.742188 -5.195312 2.515625 -5.125 C 2.285156 -5.0625 2.03125 -4.945312 1.75 -4.78125 L 1.109375 -4.78125 L 1.109375 -9.3125 L 5.796875 -9.3125 Z M 5.671875 -8.640625 "/>
</g>
<g id="glyph-3-0-8b659028">
<path d="M 3.84375 -9.46875 C 4.8125 -9.46875 5.539062 -9.054688 6.03125 -8.234375 C 6.53125 -7.421875 6.78125 -6.222656 6.78125 -4.640625 C 6.78125 -3.078125 6.53125 -1.882812 6.03125 -1.0625 C 5.53125 -0.25 4.800781 0.15625 3.84375 0.15625 C 2.882812 0.15625 2.15625 -0.25 1.65625 -1.0625 C 1.164062 -1.882812 0.921875 -3.082031 0.921875 -4.65625 C 0.921875 -6.238281 1.164062 -7.4375 1.65625 -8.25 C 2.15625 -9.0625 2.882812 -9.46875 3.84375 -9.46875 Z M 3.84375 -8.796875 C 2.457031 -8.796875 1.765625 -7.414062 1.765625 -4.65625 C 1.765625 -1.894531 2.457031 -0.515625 3.84375 -0.515625 C 4.53125 -0.515625 5.046875 -0.847656 5.390625 -1.515625 C 5.742188 -2.191406 5.921875 -3.234375 5.921875 -4.640625 C 5.921875 -6.054688 5.742188 -7.101562 5.390625 -7.78125 C 5.046875 -8.457031 4.53125 -8.796875 3.84375 -8.796875 Z M 3.84375 -8.796875 "/>
</g>
<g id="glyph-4-0-8b659028">
<path d="M 1.4375 -1.171875 C 1.632812 -1.171875 1.796875 -1.109375 1.921875 -0.984375 C 2.046875 -0.859375 2.109375 -0.703125 2.109375 -0.515625 C 2.109375 -0.316406 2.046875 -0.15625 1.921875 -0.03125 C 1.796875 0.09375 1.632812 0.15625 1.4375 0.15625 C 1.25 0.15625 1.085938 0.09375 0.953125 -0.03125 C 0.828125 -0.164062 0.765625 -0.328125 0.765625 -0.515625 C 0.765625 -0.703125 0.828125 -0.859375 0.953125 -0.984375 C 1.085938 -1.109375 1.25 -1.171875 1.4375 -1.171875 Z M 1.4375 -1.171875 "/>
</g>
<g id="glyph-5-0-8b659028">
<path d="M 5.671875 -8.640625 L 1.890625 -8.640625 L 1.890625 -5.453125 C 2.398438 -5.742188 2.929688 -5.890625 3.484375 -5.890625 C 4.285156 -5.890625 4.921875 -5.628906 5.390625 -5.109375 C 5.867188 -4.597656 6.109375 -3.894531 6.109375 -3 C 6.109375 -2.394531 5.984375 -1.847656 5.734375 -1.359375 C 5.484375 -0.878906 5.128906 -0.503906 4.671875 -0.234375 C 4.222656 0.0234375 3.703125 0.15625 3.109375 0.15625 C 2.066406 0.15625 1.1875 -0.21875 0.46875 -0.96875 L 0.984375 -1.453125 C 1.273438 -1.140625 1.585938 -0.90625 1.921875 -0.75 C 2.265625 -0.601562 2.660156 -0.53125 3.109375 -0.53125 C 3.773438 -0.53125 4.296875 -0.75 4.671875 -1.1875 C 5.054688 -1.632812 5.25 -2.242188 5.25 -3.015625 C 5.25 -3.753906 5.070312 -4.304688 4.71875 -4.671875 C 4.375 -5.046875 3.898438 -5.234375 3.296875 -5.234375 C 3.003906 -5.234375 2.742188 -5.195312 2.515625 -5.125 C 2.285156 -5.0625 2.03125 -4.945312 1.75 -4.78125 L 1.109375 -4.78125 L 1.109375 -9.3125 L 5.796875 -9.3125 Z M 5.671875 -8.640625 "/>
</g>
<g id="glyph-6-0-8b659028">
<path d="M 4.09375 -9.3125 L 4.09375 0 L 3.28125 0 L 3.28125 -8.40625 L 0.984375 -6.984375 L 0.609375 -7.59375 L 3.390625 -9.3125 Z M 4.09375 -9.3125 "/>
</g>
<g id="glyph-6-1-8b659028">
<path d="M 1.4375 -1.171875 C 1.632812 -1.171875 1.796875 -1.109375 1.921875 -0.984375 C 2.046875 -0.859375 2.109375 -0.703125 2.109375 -0.515625 C 2.109375 -0.316406 2.046875 -0.15625 1.921875 -0.03125 C 1.796875 0.09375 1.632812 0.15625 1.4375 0.15625 C 1.25 0.15625 1.085938 0.09375 0.953125 -0.03125 C 0.828125 -0.164062 0.765625 -0.328125 0.765625 -0.515625 C 0.765625 -0.703125 0.828125 -0.859375 0.953125 -0.984375 C 1.085938 -1.109375 1.25 -1.171875 1.4375 -1.171875 Z M 1.4375 -1.171875 "/>
</g>
<g id="glyph-7-0-8b659028">
<path d="M 3.84375 -9.46875 C 4.8125 -9.46875 5.539062 -9.054688 6.03125 -8.234375 C 6.53125 -7.421875 6.78125 -6.222656 6.78125 -4.640625 C 6.78125 -3.078125 6.53125 -1.882812 6.03125 -1.0625 C 5.53125 -0.25 4.800781 0.15625 3.84375 0.15625 C 2.882812 0.15625 2.15625 -0.25 1.65625 -1.0625 C 1.164062 -1.882812 0.921875 -3.082031 0.921875 -4.65625 C 0.921875 -6.238281 1.164062 -7.4375 1.65625 -8.25 C 2.15625 -9.0625 2.882812 -9.46875 3.84375 -9.46875 Z M 3.84375 -8.796875 C 2.457031 -8.796875 1.765625 -7.414062 1.765625 -4.65625 C 1.765625 -1.894531 2.457031 -0.515625 3.84375 -0.515625 C 4.53125 -0.515625 5.046875 -0.847656 5.390625 -1.515625 C 5.742188 -2.191406 5.921875 -3.234375 5.921875 -4.640625 C 5.921875 -6.054688 5.742188 -7.101562 5.390625 -7.78125 C 5.046875 -8.457031 4.53125 -8.796875 3.84375 -8.796875 Z M 3.84375 -8.796875 "/>
</g>
<g id="glyph-8-0-8b659028">
<path d="M 1.4375 -1.171875 C 1.632812 -1.171875 1.796875 -1.109375 1.921875 -0.984375 C 2.046875 -0.859375 2.109375 -0.703125 2.109375 -0.515625 C 2.109375 -0.316406 2.046875 -0.15625 1.921875 -0.03125 C 1.796875 0.09375 1.632812 0.15625 1.4375 0.15625 C 1.25 0.15625 1.085938 0.09375 0.953125 -0.03125 C 0.828125 -0.164062 0.765625 -0.328125 0.765625 -0.515625 C 0.765625 -0.703125 0.828125 -0.859375 0.953125 -0.984375 C 1.085938 -1.109375 1.25 -1.171875 1.4375 -1.171875 Z M 1.4375 -1.171875 "/>
</g>
<g id="glyph-8-1-8b659028">
<path d="M 3.84375 -9.46875 C 4.8125 -9.46875 5.539062 -9.054688 6.03125 -8.234375 C 6.53125 -7.421875 6.78125 -6.222656 6.78125 -4.640625 C 6.78125 -3.078125 6.53125 -1.882812 6.03125 -1.0625 C 5.53125 -0.25 4.800781 0.15625 3.84375 0.15625 C 2.882812 0.15625 2.15625 -0.25 1.65625 -1.0625 C 1.164062 -1.882812 0.921875 -3.082031 0.921875 -4.65625 C 0.921875 -6.238281 1.164062 -7.4375 1.65625 -8.25 C 2.15625 -9.0625 2.882812 -9.46875 3.84375 -9.46875 Z M 3.84375 -8.796875 C 2.457031 -8.796875 1.765625 -7.414062 1.765625 -4.65625 C 1.765625 -1.894531 2.457031 -0.515625 3.84375 -0.515625 C 4.53125 -0.515625 5.046875 -0.847656 5.390625 -1.515625 C 5.742188 -2.191406 5.921875 -3.234375 5.921875 -4.640625 C 5.921875 -6.054688 5.742188 -7.101562 5.390625 -7.78125 C 5.046875 -8.457031 4.53125 -8.796875 3.84375 -8.796875 Z M 3.84375 -8.796875 "/>
</g>
<g id="glyph-9-0-8b659028">
<path d="M 3.84375 -9.46875 C 4.8125 -9.46875 5.539062 -9.054688 6.03125 -8.234375 C 6.53125 -7.421875 6.78125 -6.222656 6.78125 -4.640625 C 6.78125 -3.078125 6.53125 -1.882812 6.03125 -1.0625 C 5.53125 -0.25 4.800781 0.15625 3.84375 0.15625 C 2.882812 0.15625 2.15625 -0.25 1.65625 -1.0625 C 1.164062 -1.882812 0.921875 -3.082031 0.921875 -4.65625 C 0.921875 -6.238281 1.164062 -7.4375 1.65625 -8.25 C 2.15625 -9.0625 2.882812 -9.46875 3.84375 -9.46875 Z M 3.84375 -8.796875 C 2.457031 -8.796875 1.765625 -7.414062 1.765625 -4.65625 C 1.765625 -1.894531 2.457031 -0.515625 3.84375 -0.515625 C 4.53125 -0.515625 5.046875 -0.847656 5.390625 -1.515625 C 5.742188 -2.191406 5.921875 -3.234375 5.921875 -4.640625 C 5.921875 -6.054688 5.742188 -7.101562 5.390625 -7.78125 C 5.046875 -8.457031 4.53125 -8.796875 3.84375 -8.796875 Z M 3.84375 -8.796875 "/>
</g>
<g id="glyph-10-0-8b659028">
<path d="M 5.671875 -8.640625 L 1.890625 -8.640625 L 1.890625 -5.453125 C 2.398438 -5.742188 2.929688 -5.890625 3.484375 -5.890625 C 4.285156 -5.890625 4.921875 -5.628906 5.390625 -5.109375 C 5.867188 -4.597656 6.109375 -3.894531 6.109375 -3 C 6.109375 -2.394531 5.984375 -1.847656 5.734375 -1.359375 C 5.484375 -0.878906 5.128906 -0.503906 4.671875 -0.234375 C 4.222656 0.0234375 3.703125 0.15625 3.109375 0.15625 C 2.066406 0.15625 1.1875 -0.21875 0.46875 -0.96875 L 0.984375 -1.453125 C 1.273438 -1.140625 1.585938 -0.90625 1.921875 -0.75 C 2.265625 -0.601562 2.660156 -0.53125 3.109375 -0.53125 C 3.773438 -0.53125 4.296875 -0.75 4.671875 -1.1875 C 5.054688 -1.632812 5.25 -2.242188 5.25 -3.015625 C 5.25 -3.753906 5.070312 -4.304688 4.71875 -4.671875 C 4.375 -5.046875 3.898438 -5.234375 3.296875 -5.234375 C 3.003906 -5.234375 2.742188 -5.195312 2.515625 -5.125 C 2.285156 -5.0625 2.03125 -4.945312 1.75 -4.78125 L 1.109375 -4.78125 L 1.109375 -9.3125 L 5.796875 -9.3125 Z M 5.671875 -8.640625 "/>
</g>
<g id="glyph-10-1-8b659028">
<path d="M 4.09375 -9.3125 L 4.09375 0 L 3.28125 0 L 3.28125 -8.40625 L 0.984375 -6.984375 L 0.609375 -7.59375 L 3.390625 -9.3125 Z M 4.09375 -9.3125 "/>
</g>
<g id="glyph-10-2-8b659028">
<path d="M 3.84375 -9.46875 C 4.8125 -9.46875 5.539062 -9.054688 6.03125 -8.234375 C 6.53125 -7.421875 6.78125 -6.222656 6.78125 -4.640625 C 6.78125 -3.078125 6.53125 -1.882812 6.03125 -1.0625 C 5.53125 -0.25 4.800781 0.15625 3.84375 0.15625 C 2.882812 0.15625 2.15625 -0.25 1.65625 -1.0625 C 1.164062 -1.882812 0.921875 -3.082031 0.921875 -4.65625 C 0.921875 -6.238281 1.164062 -7.4375 1.65625 -8.25 C 2.15625 -9.0625 2.882812 -9.46875 3.84375 -9.46875 Z M 3.84375 -8.796875 C 2.457031 -8.796875 1.765625 -7.414062 1.765625 -4.65625 C 1.765625 -1.894531 2.457031 -0.515625 3.84375 -0.515625 C 4.53125 -0.515625 5.046875 -0.847656 5.390625 -1.515625 C 5.742188 -2.191406 5.921875 -3.234375 5.921875 -4.640625 C 5.921875 -6.054688 5.742188 -7.101562 5.390625 -7.78125 C 5.046875 -8.457031 4.53125 -8.796875 3.84375 -8.796875 Z M 3.84375 -8.796875 "/>
</g>
<g id="glyph-10-3-8b659028">
<path d="M 1.4375 -1.171875 C 1.632812 -1.171875 1.796875 -1.109375 1.921875 -0.984375 C 2.046875 -0.859375 2.109375 -0.703125 2.109375 -0.515625 C 2.109375 -0.316406 2.046875 -0.15625 1.921875 -0.03125 C 1.796875 0.09375 1.632812 0.15625 1.4375 0.15625 C 1.25 0.15625 1.085938 0.09375 0.953125 -0.03125 C 0.828125 -0.164062 0.765625 -0.328125 0.765625 -0.515625 C 0.765625 -0.703125 0.828125 -0.859375 0.953125 -0.984375 C 1.085938 -1.109375 1.25 -1.171875 1.4375 -1.171875 Z M 1.4375 -1.171875 "/>
</g>
<g id="glyph-11-0-8b659028">
<path d="M 1.4375 -1.171875 C 1.632812 -1.171875 1.796875 -1.109375 1.921875 -0.984375 C 2.046875 -0.859375 2.109375 -0.703125 2.109375 -0.515625 C 2.109375 -0.316406 2.046875 -0.15625 1.921875 -0.03125 C 1.796875 0.09375 1.632812 0.15625 1.4375 0.15625 C 1.25 0.15625 1.085938 0.09375 0.953125 -0.03125 C 0.828125 -0.164062 0.765625 -0.328125 0.765625 -0.515625 C 0.765625 -0.703125 0.828125 -0.859375 0.953125 -0.984375 C 1.085938 -1.109375 1.25 -1.171875 1.4375 -1.171875 Z M 1.4375 -1.171875 "/>
</g>
<g id="glyph-11-1-8b659028">
<path d="M 5.671875 -8.640625 L 1.890625 -8.640625 L 1.890625 -5.453125 C 2.398438 -5.742188 2.929688 -5.890625 3.484375 -5.890625 C 4.285156 -5.890625 4.921875 -5.628906 5.390625 -5.109375 C 5.867188 -4.597656 6.109375 -3.894531 6.109375 -3 C 6.109375 -2.394531 5.984375 -1.847656 5.734375 -1.359375 C 5.484375 -0.878906 5.128906 -0.503906 4.671875 -0.234375 C 4.222656 0.0234375 3.703125 0.15625 3.109375 0.15625 C 2.066406 0.15625 1.1875 -0.21875 0.46875 -0.96875 L 0.984375 -1.453125 C 1.273438 -1.140625 1.585938 -0.90625 1.921875 -0.75 C 2.265625 -0.601562 2.660156 -0.53125 3.109375 -0.53125 C 3.773438 -0.53125 4.296875 -0.75 4.671875 -1.1875 C 5.054688 -1.632812 5.25 -2.242188 5.25 -3.015625 C 5.25 -3.753906 5.070312 -4.304688 4.71875 -4.671875 C 4.375 -5.046875 3.898438 -5.234375 3.296875 -5.234375 C 3.003906 -5.234375 2.742188 -5.195312 2.515625 -5.125 C 2.285156 -5.0625 2.03125 -4.945312 1.75 -4.78125 L 1.109375 -4.78125 L 1.109375 -9.3125 L 5.796875 -9.3125 Z M 5.671875 -8.640625 "/>
</g>
<g id="glyph-12-0-8b659028">
<path d="M 4.09375 -9.3125 L 4.09375 0 L 3.28125 0 L 3.28125 -8.40625 L 0.984375 -6.984375 L 0.609375 -7.59375 L 3.390625 -9.3125 Z M 4.09375 -9.3125 "/>
</g>
<g id="glyph-12-1-8b659028">
<path d="M 1.4375 -1.171875 C 1.632812 -1.171875 1.796875 -1.109375 1.921875 -0.984375 C 2.046875 -0.859375 2.109375 -0.703125 2.109375 -0.515625 C 2.109375 -0.316406 2.046875 -0.15625 1.921875 -0.03125 C 1.796875 0.09375 1.632812 0.15625 1.4375 0.15625 C 1.25 0.15625 1.085938 0.09375 0.953125 -0.03125 C 0.828125 -0.164062 0.765625 -0.328125 0.765625 -0.515625 C 0.765625 -0.703125 0.828125 -0.859375 0.953125 -0.984375 C 1.085938 -1.109375 1.25 -1.171875 1.4375 -1.171875 Z M 1.4375 -1.171875 "/>
</g>
<g id="glyph-13-0-8b659028">
<path d="M 3.84375 -9.46875 C 4.8125 -9.46875 5.539062 -9.054688 6.03125 -8.234375 C 6.53125 -7.421875 6.78125 -6.222656 6.78125 -4.640625 C 6.78125 -3.078125 6.53125 -1.882812 6.03125 -1.0625 C 5.53125 -0.25 4.800781 0.15625 3.84375 0.15625 C 2.882812 0.15625 2.15625 -0.25 1.65625 -1.0625 C 1.164062 -1.882812 0.921875 -3.082031 0.921875 -4.65625 C 0.921875 -6.238281 1.164062 -7.4375 1.65625 -8.25 C 2.15625 -9.0625 2.882812 -9.46875 3.84375 -9.46875 Z M 3.84375 -8.796875 C 2.457031 -8.796875 1.765625 -7.414062 1.765625 -4.65625 C 1.765625 -1.894531 2.457031 -0.515625 3.84375 -0.515625 C 4.53125 -0.515625 5.046875 -0.847656 5.390625 -1.515625 C 5.742188 -2.191406 5.921875 -3.234375 5.921875 -4.640625 C 5.921875 -6.054688 5.742188 -7.101562 5.390625 -7.78125 C 5.046875 -8.457031 4.53125 -8.796875 3.84375 -8.796875 Z M 3.84375 -8.796875 "/>
</g>
<g id="glyph-14-0-8b659028">
<path d="M 3.84375 -9.46875 C 4.8125 -9.46875 5.539062 -9.054688 6.03125 -8.234375 C 6.53125 -7.421875 6.78125 -6.222656 6.78125 -4.640625 C 6.78125 -3.078125 6.53125 -1.882812 6.03125 -1.0625 C 5.53125 -0.25 4.800781 0.15625 3.84375 0.15625 C 2.882812 0.15625 2.15625 -0.25 1.65625 -1.0625 C 1.164062 -1.882812 0.921875 -3.082031 0.921875 -4.65625 C 0.921875 -6.238281 1.164062 -7.4375 1.65625 -8.25 C 2.15625 -9.0625 2.882812 -9.46875 3.84375 -9.46875 Z M 3.84375 -8.796875 C 2.457031 -8.796875 1.765625 -7.414062 1.765625 -4.65625 C 1.765625 -1.894531 2.457031 -0.515625 3.84375 -0.515625 C 4.53125 -0.515625 5.046875 -0.847656 5.390625 -1.515625 C 5.742188 -2.191406 5.921875 -3.234375 5.921875 -4.640625 C 5.921875 -6.054688 5.742188 -7.101562 5.390625 -7.78125 C 5.046875 -8.457031 4.53125 -8.796875 3.84375 -8.796875 Z M 3.84375 -8.796875 "/>
</g>
<g id="glyph-15-0-8b659028">
<path d="M 7.15625 -3.875 C 7.15625 -3.78125 7.140625 -3.539062 7.109375 -3.15625 L 2.46875 -3.15625 C 2.519531 -2.4375 2.703125 -1.921875 3.015625 -1.609375 C 3.335938 -1.296875 3.757812 -1.140625 4.28125 -1.140625 C 4.613281 -1.140625 4.921875 -1.191406 5.203125 -1.296875 C 5.492188 -1.410156 5.800781 -1.582031 6.125 -1.8125 L 6.875 -0.78125 C 6.050781 -0.125 5.132812 0.203125 4.125 0.203125 C 3 0.203125 2.128906 -0.140625 1.515625 -0.828125 C 0.910156 -1.515625 0.609375 -2.457031 0.609375 -3.65625 C 0.609375 -4.40625 0.738281 -5.082031 1 -5.6875 C 1.257812 -6.289062 1.632812 -6.757812 2.125 -7.09375 C 2.625 -7.4375 3.210938 -7.609375 3.890625 -7.609375 C 4.929688 -7.609375 5.734375 -7.28125 6.296875 -6.625 C 6.867188 -5.96875 7.15625 -5.050781 7.15625 -3.875 Z M 5.375 -4.390625 C 5.375 -5.691406 4.894531 -6.34375 3.9375 -6.34375 C 3.5 -6.34375 3.15625 -6.179688 2.90625 -5.859375 C 2.65625 -5.535156 2.507812 -5.019531 2.46875 -4.3125 L 5.375 -4.3125 Z M 5.375 -4.390625 "/>
</g>
<g id="glyph-16-0-8b659028">
<path d="M 4.078125 -9.21875 C 3.722656 -9.21875 3.46875 -9.132812 3.3125 -8.96875 C 3.15625 -8.800781 3.078125 -8.539062 3.078125 -8.1875 L 3.078125 -7.40625 L 4.859375 -7.40625 L 4.65625 -6.125 L 3.078125 -6.125 L 3.078125 0 L 1.28125 0 L 1.28125 -6.125 L 0.078125 -6.125 L 0.078125 -7.40625 L 1.28125 -7.40625 L 1.28125 -8.21875 C 1.28125 -8.914062 1.503906 -9.476562 1.953125 -9.90625 C 2.410156 -10.34375 3.054688 -10.5625 3.890625 -10.5625 C 4.546875 -10.5625 5.1875 -10.421875 5.8125 -10.140625 L 5.296875 -8.9375 C 4.890625 -9.125 4.484375 -9.21875 4.078125 -9.21875 Z M 4.078125 -9.21875 "/>
</g>
<g id="glyph-17-0-8b659028">
<path d="M 7.515625 -7.015625 C 7.035156 -6.847656 6.320312 -6.765625 5.375 -6.765625 C 5.832031 -6.554688 6.171875 -6.300781 6.390625 -6 C 6.609375 -5.695312 6.71875 -5.316406 6.71875 -4.859375 C 6.71875 -4.367188 6.597656 -3.9375 6.359375 -3.5625 C 6.117188 -3.195312 5.769531 -2.90625 5.3125 -2.6875 C 4.863281 -2.46875 4.335938 -2.359375 3.734375 -2.359375 C 3.398438 -2.359375 3.109375 -2.398438 2.859375 -2.484375 C 2.648438 -2.335938 2.546875 -2.15625 2.546875 -1.9375 C 2.546875 -1.582031 2.84375 -1.40625 3.4375 -1.40625 L 4.578125 -1.40625 C 5.117188 -1.40625 5.59375 -1.316406 6 -1.140625 C 6.40625 -0.960938 6.71875 -0.710938 6.9375 -0.390625 C 7.164062 -0.078125 7.28125 0.28125 7.28125 0.6875 C 7.28125 1.4375 6.960938 2.015625 6.328125 2.421875 C 5.691406 2.835938 4.773438 3.046875 3.578125 3.046875 C 2.722656 3.046875 2.050781 2.957031 1.5625 2.78125 C 1.070312 2.601562 0.722656 2.347656 0.515625 2.015625 C 0.304688 1.679688 0.203125 1.253906 0.203125 0.734375 L 1.8125 0.734375 C 1.8125 0.992188 1.859375 1.195312 1.953125 1.34375 C 2.054688 1.488281 2.238281 1.597656 2.5 1.671875 C 2.757812 1.753906 3.128906 1.796875 3.609375 1.796875 C 4.296875 1.796875 4.773438 1.707031 5.046875 1.53125 C 5.328125 1.363281 5.46875 1.125 5.46875 0.8125 C 5.46875 0.53125 5.359375 0.3125 5.140625 0.15625 C 4.929688 0.0078125 4.625 -0.0625 4.21875 -0.0625 L 3.09375 -0.0625 C 2.394531 -0.0625 1.867188 -0.195312 1.515625 -0.46875 C 1.160156 -0.738281 0.984375 -1.082031 0.984375 -1.5 C 0.984375 -1.757812 1.054688 -2.007812 1.203125 -2.25 C 1.359375 -2.5 1.570312 -2.707031 1.84375 -2.875 C 1.394531 -3.101562 1.066406 -3.382812 0.859375 -3.71875 C 0.648438 -4.0625 0.546875 -4.472656 0.546875 -4.953125 C 0.546875 -5.484375 0.675781 -5.945312 0.9375 -6.34375 C 1.195312 -6.75 1.554688 -7.0625 2.015625 -7.28125 C 2.484375 -7.5 3.015625 -7.609375 3.609375 -7.609375 C 4.390625 -7.597656 5.019531 -7.660156 5.5 -7.796875 C 5.988281 -7.929688 6.507812 -8.144531 7.0625 -8.4375 Z M 3.640625 -6.390625 C 3.234375 -6.390625 2.914062 -6.257812 2.6875 -6 C 2.46875 -5.75 2.359375 -5.410156 2.359375 -4.984375 C 2.359375 -4.535156 2.472656 -4.179688 2.703125 -3.921875 C 2.929688 -3.660156 3.253906 -3.53125 3.671875 -3.53125 C 4.097656 -3.53125 4.421875 -3.65625 4.640625 -3.90625 C 4.867188 -4.164062 4.984375 -4.53125 4.984375 -5 C 4.984375 -5.925781 4.535156 -6.390625 3.640625 -6.390625 Z M 3.640625 -6.390625 "/>
</g>
<g id="glyph-18-0-8b659028">
<path d="M 5.03125 -7.609375 C 5.675781 -7.609375 6.1875 -7.40625 6.5625 -7 C 6.9375 -6.601562 7.125 -6.054688 7.125 -5.359375 L 7.125 0 L 5.328125 0 L 5.328125 -5.078125 C 5.328125 -5.515625 5.25 -5.820312 5.09375 -6 C 4.945312 -6.175781 4.722656 -6.265625 4.421875 -6.265625 C 4.117188 -6.265625 3.84375 -6.171875 3.59375 -5.984375 C 3.34375 -5.796875 3.101562 -5.523438 2.875 -5.171875 L 2.875 0 L 1.078125 0 L 1.078125 -10.359375 L 2.875 -10.546875 L 2.875 -6.53125 C 3.46875 -7.25 4.1875 -7.609375 5.03125 -7.609375 Z M 5.03125 -7.609375 "/>
</g>
<g id="glyph-19-0-8b659028">
<path d="M 0.03125 -4.65625 C 0.945312 -4.363281 1.65625 -3.910156 2.15625 -3.296875 C 2.664062 -2.691406 2.960938 -1.863281 3.046875 -0.8125 L 1.75 -0.625 C 1.675781 -1.113281 1.570312 -1.503906 1.4375 -1.796875 C 1.300781 -2.085938 1.117188 -2.320312 0.890625 -2.5 C 0.671875 -2.675781 0.375 -2.84375 0 -3 L 0 -2.375 L -7.40625 -0.03125 L -7.40625 -1.9375 L -1.1875 -3.546875 L -7.40625 -5.21875 L -7.40625 -7.0625 Z M 0.03125 -4.65625 "/>
</g>
<g id="glyph-20-0-8b659028">
<path d="M 4.5625 -3.96875 L 7.046875 0 L 4.96875 0 L 3.4375 -2.9375 L 1.9375 0 L -0.046875 0 L 2.421875 -3.90625 L 0.203125 -7.40625 L 2.25 -7.40625 L 3.515625 -4.890625 L 4.765625 -7.40625 L 6.703125 -7.40625 Z M 4.5625 -3.96875 "/>
</g>
</g>
</defs>
<rect x="-60" y="-45" width="720" height="540" fill="rgb(100%, 100%, 100%)" fill-opacity="1"/>
<path fill-rule="nonzero" fill="rgb(100%, 100%, 100%)" fill-opacity="1" d="M 65 194 L 316 194 L 316 37 L 65 37 Z M 65 194 "/>
<path fill-rule="nonzero" fill="rgb(100%, 100%, 100%)" fill-opacity="1" d="M 65 390 L 316 390 L 316 233 L 65 233 Z M 65 390 "/>
<path fill-rule="nonzero" fill="rgb(100%, 100%, 100%)" fill-opacity="1" d="M 334 194 L 584 194 L 584 37 L 334 37 Z M 334 194 "/>
<path fill-rule="nonzero" fill="rgb(100%, 100%, 100%)" fill-opacity="1" d="M 334 390 L 584 390 L 584 233 L 334 233 Z M 334 390 "/>
<g fill="rgb(0%, 0%, 0%)" fill-opacity="1">
<use xlink:href="#glyph-0-0-8b659028" x="36.702007" y="191.641357"/>
</g>
<g fill="rgb(0%, 0%, 0%)" fill-opacity="1">
<use xlink:href="#glyph-1-0-8b659028" x="44.402004" y="191.641357"/>
</g>
<g fill="rgb(0%, 0%, 0%)" fill-opacity="1">
<use xlink:href="#glyph-2-0-8b659028" x="47.300003" y="191.641357"/>
</g>
<g fill="rgb(0%, 0%, 0%)" fill-opacity="1">
<use xlink:href="#glyph-3-0-8b659028" x="37.584007" y="119.647499"/>
</g>
<g fill="rgb(0%, 0%, 0%)" fill-opacity="1">
<use xlink:href="#glyph-4-0-8b659028" x="45.284004" y="119.647499"/>
</g>
<g fill="rgb(0%, 0%, 0%)" fill-opacity="1">
<use xlink:href="#glyph-5-0-8b659028" x="48.182003" y="119.647499"/>
</g>
<g fill="rgb(0%, 0%, 0%)" fill-opacity="1">
<use xlink:href="#glyph-6-0-8b659028" x="38.620003" y="47.653587"/>
</g>
<g fill="rgb(0%, 0%, 0%)" fill-opacity="1">
<use xlink:href="#glyph-6-1-8b659028" x="44.402004" y="47.653587"/>
</g>
<g fill="rgb(0%, 0%, 0%)" fill-opacity="1">
<use xlink:href="#glyph-7-0-8b659028" x="47.300003" y="47.653587"/>
</g>
<path fill-rule="nonzero" fill="rgb(25.098041%, 25.098041%, 25.098041%)" fill-opacity="1" d="M 190.328125 148.640625 C 190.328125 144.410156 183.984375 144.410156 183.984375 148.640625 C 183.984375 152.871094 190.328125 152.871094 190.328125 148.640625 Z M 190.328125 148.640625 "/>
<path fill-rule="nonzero" fill="rgb(25.098041%, 25.098041%, 25.098041%)" fill-opacity="1" d="M 126.125 96.671875 C 126.125 92.441406 119.777344 92.441406 119.777344 96.671875 C 119.777344 100.902344 126.125 100.902344 126.125 96.671875 Z M 126.125 96.671875 "/>
<path fill-rule="nonzero" fill="rgb(25.098041%, 25.098041%, 25.098041%)" fill-opacity="1" d="M 286.996094 45.394531 C 286.996094 41.164062 280.652344 41.164062 280.652344 45.394531 C 280.652344 49.625 286.996094 49.625 286.996094 45.394531 Z M 286.996094 45.394531 "/>
<path fill-rule="nonzero" fill="rgb(25.098041%, 25.098041%, 25.098041%)" fill-opacity="1" d="M 123.367188 53.972656 C 123.367188 49.742188 117.019531 49.742188 117.019531 53.972656 C 117.019531 58.203125 123.367188 58.203125 123.367188 53.972656 Z M 123.367188 53.972656 "/>
<path fill-rule="nonzero" fill="rgb(25.098041%, 25.098041%, 25.098041%)" fill-opacity="1" d="M 252.054688 88.628906 C 252.054688 84.402344 245.710938 84.402344 245.710938 88.628906 C 245.710938 92.859375 252.054688 92.859375 252.054688 88.628906 Z M 252.054688 88.628906 "/>
<path fill-rule="nonzero" fill="rgb(25.098041%, 25.098041%, 25.098041%)" fill-opacity="1" d="M 150.953125 46.328125 C 150.953125 42.097656 144.605469 42.097656 144.605469 46.328125 C 144.605469 50.558594 150.953125 50.558594 150.953125 46.328125 Z M 150.953125 46.328125 "/>
<path fill-rule="nonzero" fill="rgb(25.098041%, 25.098041%, 25.098041%)" fill-opacity="1" d="M 271.195312 124.167969 C 271.195312 119.9375 264.851562 119.9375 264.851562 124.167969 C 264.851562 128.398438 271.195312 128.398438 271.195312 124.167969 Z M 271.195312 124.167969 "/>
<path fill-rule="nonzero" fill="rgb(25.098041%, 25.098041%, 25.098041%)" fill-opacity="1" d="M 165.304688 62.503906 C 165.304688 58.273438 158.957031 58.273438 158.957031 62.503906 C 158.957031 66.734375 165.304688 66.734375 165.304688 62.503906 Z M 165.304688 62.503906 "/>
<path fill-rule="nonzero" fill="rgb(25.098041%, 25.098041%, 25.098041%)" fill-opacity="1" d="M 118.433594 153.039062 C 118.433594 148.808594 112.089844 148.808594 112.089844 153.039062 C 112.089844 157.265625 118.433594 157.265625 118.433594 153.039062 Z M 118.433594 153.039062 "/>
<path fill-rule="nonzero" fill="rgb(25.098041%, 25.098041%, 25.098041%)" fill-opacity="1" d="M 196.734375 127.238281 C 196.734375 123.011719 190.390625 123.011719 190.390625 127.238281 C 190.390625 131.46875 196.734375 131.46875 196.734375 127.238281 Z M 196.734375 127.238281 "/>
<path fill-rule="nonzero" fill="rgb(25.098041%, 25.098041%, 25.098041%)" fill-opacity="1" d="M 195.363281 123.96875 C 195.363281 119.738281 189.015625 119.738281 189.015625 123.96875 C 189.015625 128.199219 195.363281 128.199219 195.363281 123.96875 Z M 195.363281 123.96875 "/>
<path fill-rule="nonzero" fill="rgb(25.098041%, 25.098041%, 25.098041%)" fill-opacity="1" d="M 265.582031 121.078125 C 265.582031 116.847656 259.234375 116.847656 259.234375 121.078125 C 259.234375 125.308594 265.582031 125.308594 265.582031 121.078125 Z M 265.582031 121.078125 "/>
<path fill-rule="nonzero" fill="rgb(25.098041%, 25.098041%, 25.098041%)" fill-opacity="1" d="M 199.199219 87.925781 C 199.199219 83.695312 192.851562 83.695312 192.851562 87.925781 C 192.851562 92.152344 199.199219 92.152344 199.199219 87.925781 Z M 199.199219 87.925781 "/>
<path fill-rule="nonzero" fill="rgb(25.098041%, 25.098041%, 25.098041%)" fill-opacity="1" d="M 296.296875 47.273438 C 296.296875 43.042969 289.953125 43.042969 289.953125 47.273438 C 289.953125 51.503906 296.296875 51.503906 296.296875 47.273438 Z M 296.296875 47.273438 "/>
<path fill-rule="nonzero" fill="rgb(25.098041%, 25.098041%, 25.098041%)" fill-opacity="1" d="M 119.539062 163.511719 C 119.539062 159.28125 113.191406 159.28125 113.191406 163.511719 C 113.191406 167.738281 119.539062 167.738281 119.539062 163.511719 Z M 119.539062 163.511719 "/>
<path fill-rule="nonzero" fill="rgb(25.098041%, 25.098041%, 25.098041%)" fill-opacity="1" d="M 227.125 133.742188 C 227.125 129.511719 220.777344 129.511719 220.777344 133.742188 C 220.777344 137.96875 227.125 137.96875 227.125 133.742188 Z M 227.125 133.742188 "/>
<path fill-rule="nonzero" fill="rgb(25.098041%, 25.098041%, 25.098041%)" fill-opacity="1" d="M 272.492188 66.265625 C 272.492188 62.035156 266.148438 62.035156 266.148438 66.265625 C 266.148438 70.496094 272.492188 70.496094 272.492188 66.265625 Z M 272.492188 66.265625 "/>
<path fill-rule="nonzero" fill="rgb(25.098041%, 25.098041%, 25.098041%)" fill-opacity="1" d="M 130.40625 66.441406 C 130.40625 62.210938 124.058594 62.210938 124.058594 66.441406 C 124.058594 70.671875 130.40625 70.671875 130.40625 66.441406 Z M 130.40625 66.441406 "/>
<path fill-rule="nonzero" fill="rgb(25.098041%, 25.098041%, 25.098041%)" fill-opacity="1" d="M 120.378906 175.265625 C 120.378906 171.035156 114.035156 171.035156 114.035156 175.265625 C 114.035156 179.496094 120.378906 179.496094 120.378906 175.265625 Z M 120.378906 175.265625 "/>
<path fill-rule="nonzero" fill="rgb(25.098041%, 25.098041%, 25.098041%)" fill-opacity="1" d="M 149.960938 148.894531 C 149.960938 144.664062 143.617188 144.664062 143.617188 148.894531 C 143.617188 153.125 149.960938 153.125 149.960938 148.894531 Z M 149.960938 148.894531 "/>
<path fill-rule="nonzero" fill="rgb(25.098041%, 25.098041%, 25.098041%)" fill-opacity="1" d="M 113.246094 97.109375 C 113.246094 92.878906 106.902344 92.878906 106.902344 97.109375 C 106.902344 101.339844 113.246094 101.339844 113.246094 97.109375 Z M 113.246094 97.109375 "/>
<path fill-rule="nonzero" fill="rgb(25.098041%, 25.098041%, 25.098041%)" fill-opacity="1" d="M 126.667969 60.605469 C 126.667969 56.375 120.324219 56.375 120.324219 60.605469 C 120.324219 64.835938 126.667969 64.835938 126.667969 60.605469 Z M 126.667969 60.605469 "/>
<path fill-rule="nonzero" fill="rgb(25.098041%, 25.098041%, 25.098041%)" fill-opacity="1" d="M 196.238281 51.066406 C 196.238281 46.835938 189.894531 46.835938 189.894531 51.066406 C 189.894531 55.296875 196.238281 55.296875 196.238281 51.066406 Z M 196.238281 51.066406 "/>
<path fill-rule="nonzero" fill="rgb(25.098041%, 25.098041%, 25.098041%)" fill-opacity="1" d="M 83.097656 159.699219 C 83.097656 155.46875 76.753906 155.46875 76.753906 159.699219 C 76.753906 163.929688 83.097656 163.929688 83.097656 159.699219 Z M 83.097656 159.699219 "/>
<path fill-rule="nonzero" fill="rgb(25.098041%, 25.098041%, 25.098041%)" fill-opacity="1" d="M 279.917969 44.136719 C 279.917969 39.90625 273.574219 39.90625 273.574219 44.136719 C 273.574219 48.367188 279.917969 48.367188 279.917969 44.136719 Z M 279.917969 44.136719 "/>
<path fill-rule="nonzero" fill="rgb(25.098041%, 25.098041%, 25.098041%)" fill-opacity="1" d="M 112.089844 186.105469 C 112.089844 181.875 105.746094 181.875 105.746094 186.105469 C 105.746094 190.335938 112.089844 190.335938 112.089844 186.105469 Z M 112.089844 186.105469 "/>
<path fill-rule="nonzero" fill="rgb(25.098041%, 25.098041%, 25.098041%)" fill-opacity="1" d="M 97.800781 168.136719 C 97.800781 163.90625 91.457031 163.90625 91.457031 168.136719 C 91.457031 172.367188 97.800781 172.367188 97.800781 168.136719 Z M 97.800781 168.136719 "/>
<path fill-rule="nonzero" fill="rgb(25.098041%, 25.098041%, 25.098041%)" fill-opacity="1" d="M 232.199219 176.945312 C 232.199219 172.71875 225.851562 172.71875 225.851562 176.945312 C 225.851562 181.175781 232.199219 181.175781 232.199219 176.945312 Z M 232.199219 176.945312 "/>
<path fill-rule="nonzero" fill="rgb(25.098041%, 25.098041%, 25.098041%)" fill-opacity="1" d="M 175.640625 182.742188 C 175.640625 178.511719 169.292969 178.511719 169.292969 182.742188 C 169.292969 186.972656 175.640625 186.972656 175.640625 182.742188 Z M 175.640625 182.742188 "/>
<path fill-rule="nonzero" fill="rgb(25.098041%, 25.098041%, 25.098041%)" fill-opacity="1" d="M 133.777344 47.308594 C 133.777344 43.078125 127.433594 43.078125 127.433594 47.308594 C 127.433594 51.539062 133.777344 51.539062 133.777344 47.308594 Z M 133.777344 47.308594 "/>
<path fill-rule="nonzero" fill="rgb(25.098041%, 25.098041%, 25.098041%)" fill-opacity="1" d="M 239.597656 124.835938 C 239.597656 120.609375 233.253906 120.609375 233.253906 124.835938 C 233.253906 129.066406 239.597656 129.066406 239.597656 124.835938 Z M 239.597656 124.835938 "/>
<path fill-rule="nonzero" fill="rgb(25.098041%, 25.098041%, 25.098041%)" fill-opacity="1" d="M 96.621094 150.933594 C 96.621094 146.703125 90.273438 146.703125 90.273438 150.933594 C 90.273438 155.164062 96.621094 155.164062 96.621094 150.933594 Z M 96.621094 150.933594 "/>
<path fill-rule="nonzero" fill="rgb(25.098041%, 25.098041%, 25.098041%)" fill-opacity="1" d="M 89.476562 131.980469 C 89.476562 127.75 83.132812 127.75 83.132812 131.980469 C 83.132812 136.210938 89.476562 136.210938 89.476562 131.980469 Z M 89.476562 131.980469 "/>
<path fill-rule="nonzero" fill="rgb(25.098041%, 25.098041%, 25.098041%)" fill-opacity="1" d="M 110.710938 71.113281 C 110.710938 66.882812 104.367188 66.882812 104.367188 71.113281 C 104.367188 75.34375 110.710938 75.34375 110.710938 71.113281 Z M 110.710938 71.113281 "/>
<path fill-rule="nonzero" fill="rgb(25.098041%, 25.098041%, 25.098041%)" fill-opacity="1" d="M 306.359375 87.089844 C 306.359375 82.859375 300.015625 82.859375 300.015625 87.089844 C 300.015625 91.320312 306.359375 91.320312 306.359375 87.089844 Z M 306.359375 87.089844 "/>
<path fill-rule="nonzero" fill="rgb(25.098041%, 25.098041%, 25.098041%)" fill-opacity="1" d="M 211.242188 99.109375 C 211.242188 94.882812 204.894531 94.882812 204.894531 99.109375 C 204.894531 103.339844 211.242188 103.339844 211.242188 99.109375 Z M 211.242188 99.109375 "/>
<path fill-rule="nonzero" fill="rgb(25.098041%, 25.098041%, 25.098041%)" fill-opacity="1" d="M 106.429688 179.40625 C 106.429688 175.175781 100.085938 175.175781 100.085938 179.40625 C 100.085938 183.636719 106.429688 183.636719 106.429688 179.40625 Z M 106.429688 179.40625 "/>
<path fill-rule="nonzero" fill="rgb(25.098041%, 25.098041%, 25.098041%)" fill-opacity="1" d="M 300.507812 155.832031 C 300.507812 151.601562 294.160156 151.601562 294.160156 155.832031 C 294.160156 160.0625 300.507812 160.0625 300.507812 155.832031 Z M 300.507812 155.832031 "/>
<path fill-rule="nonzero" fill="rgb(25.098041%, 25.098041%, 25.098041%)" fill-opacity="1" d="M 287.035156 143.773438 C 287.035156 139.542969 280.691406 139.542969 280.691406 143.773438 C 280.691406 148.003906 287.035156 148.003906 287.035156 143.773438 Z M 287.035156 143.773438 "/>
<path fill-rule="nonzero" fill="rgb(25.098041%, 25.098041%, 25.098041%)" fill-opacity="1" d="M 127.488281 79.675781 C 127.488281 75.445312 121.144531 75.445312 121.144531 79.675781 C 121.144531 83.90625 127.488281 83.90625 127.488281 79.675781 Z M 127.488281 79.675781 "/>
<path fill-rule="nonzero" fill="rgb(25.098041%, 25.098041%, 25.098041%)" fill-opacity="1" d="M 97.777344 140.144531 C 97.777344 135.914062 91.429688 135.914062 91.429688 140.144531 C 91.429688 144.375 97.777344 144.375 97.777344 140.144531 Z M 97.777344 140.144531 "/>
<path fill-rule="nonzero" fill="rgb(25.098041%, 25.098041%, 25.098041%)" fill-opacity="1" d="M 175.980469 52.488281 C 175.980469 48.257812 169.636719 48.257812 169.636719 52.488281 C 169.636719 56.714844 175.980469 56.714844 175.980469 52.488281 Z M 175.980469 52.488281 "/>
<path fill-rule="nonzero" fill="rgb(25.098041%, 25.098041%, 25.098041%)" fill-opacity="1" d="M 286.363281 62.171875 C 286.363281 57.945312 280.019531 57.945312 280.019531 62.171875 C 280.019531 66.402344 286.363281 66.402344 286.363281 62.171875 Z M 286.363281 62.171875 "/>
<path fill-rule="nonzero" fill="rgb(25.098041%, 25.098041%, 25.098041%)" fill-opacity="1" d="M 236.292969 102.578125 C 236.292969 98.347656 229.949219 98.347656 229.949219 102.578125 C 229.949219 106.808594 236.292969 106.808594 236.292969 102.578125 Z M 236.292969 102.578125 "/>
<path fill-rule="nonzero" fill="rgb(25.098041%, 25.098041%, 25.098041%)" fill-opacity="1" d="M 154.15625 91.847656 C 154.15625 87.617188 147.8125 87.617188 147.8125 91.847656 C 147.8125 96.078125 154.15625 96.078125 154.15625 91.847656 Z M 154.15625 91.847656 "/>
<path fill-rule="nonzero" fill="rgb(25.098041%, 25.098041%, 25.098041%)" fill-opacity="1" d="M 270.613281 59.707031 C 270.613281 55.476562 264.265625 55.476562 264.265625 59.707031 C 264.265625 63.9375 270.613281 63.9375 270.613281 59.707031 Z M 270.613281 59.707031 "/>
<path fill-rule="nonzero" fill="rgb(25.098041%, 25.098041%, 25.098041%)" fill-opacity="1" d="M 248.792969 75.835938 C 248.792969 71.605469 242.449219 71.605469 242.449219 75.835938 C 242.449219 80.066406 248.792969 80.066406 248.792969 75.835938 Z M 248.792969 75.835938 "/>
<path fill-rule="nonzero" fill="rgb(25.098041%, 25.098041%, 25.098041%)" fill-opacity="1" d="M 238.703125 151.542969 C 238.703125 147.316406 232.359375 147.316406 232.359375 151.542969 C 232.359375 155.773438 238.703125 155.773438 238.703125 151.542969 Z M 238.703125 151.542969 "/>
<path fill-rule="nonzero" fill="rgb(25.098041%, 25.098041%, 25.098041%)" fill-opacity="1" d="M 109.023438 70.957031 C 109.023438 66.726562 102.675781 66.726562 102.675781 70.957031 C 102.675781 75.1875 109.023438 75.1875 109.023438 70.957031 Z M 109.023438 70.957031 "/>
<path fill-rule="nonzero" fill="rgb(25.098041%, 25.098041%, 25.098041%)" fill-opacity="1" d="M 177.488281 149.679688 C 177.488281 145.449219 171.144531 145.449219 171.144531 149.679688 C 171.144531 153.910156 177.488281 153.910156 177.488281 149.679688 Z M 177.488281 149.679688 "/>
<path fill-rule="nonzero" fill="rgb(25.098041%, 25.098041%, 25.098041%)" fill-opacity="1" d="M 241.480469 142.273438 C 241.480469 138.042969 235.136719 138.042969 235.136719 142.273438 C 235.136719 146.503906 241.480469 146.503906 241.480469 142.273438 Z M 241.480469 142.273438 "/>
<path fill-rule="nonzero" fill="rgb(25.098041%, 25.098041%, 25.098041%)" fill-opacity="1" d="M 166.390625 45.472656 C 166.390625 41.246094 160.046875 41.246094 160.046875 45.472656 C 160.046875 49.703125 166.390625 49.703125 166.390625 45.472656 Z M 166.390625 45.472656 "/>
<path fill-rule="nonzero" fill="rgb(25.098041%, 25.098041%, 25.098041%)" fill-opacity="1" d="M 144.984375 142.847656 C 144.984375 138.617188 138.636719 138.617188 138.636719 142.847656 C 138.636719 147.074219 144.984375 147.074219 144.984375 142.847656 Z M 144.984375 142.847656 "/>
<path fill-rule="nonzero" fill="rgb(25.098041%, 25.098041%, 25.098041%)" fill-opacity="1" d="M 281.042969 173.09375 C 281.042969 168.863281 274.699219 168.863281 274.699219 173.09375 C 274.699219 177.324219 281.042969 177.324219 281.042969 173.09375 Z M 281.042969 173.09375 "/>
<path fill-rule="nonzero" fill="rgb(25.098041%, 25.098041%, 25.098041%)" fill-opacity="1" d="M 202.011719 64.042969 C 202.011719 59.8125 195.667969 59.8125 195.667969 64.042969 C 195.667969 68.273438 202.011719 68.273438 202.011719 64.042969 Z M 202.011719 64.042969 "/>
<path fill-rule="nonzero" fill="rgb(25.098041%, 25.098041%, 25.098041%)" fill-opacity="1" d="M 276.488281 72.035156 C 276.488281 67.804688 270.144531 67.804688 270.144531 72.035156 C 270.144531 76.265625 276.488281 76.265625 276.488281 72.035156 Z M 276.488281 72.035156 "/>
<path fill-rule="nonzero" fill="rgb(25.098041%, 25.098041%, 25.098041%)" fill-opacity="1" d="M 179.515625 166.953125 C 179.515625 162.726562 173.171875 162.726562 173.171875 166.953125 C 173.171875 171.183594 179.515625 171.183594 179.515625 166.953125 Z M 179.515625 166.953125 "/>
<path fill-rule="nonzero" fill="rgb(25.098041%, 25.098041%, 25.098041%)" fill-opacity="1" d="M 185.949219 54.441406 C 185.949219 50.210938 179.605469 50.210938 179.605469 54.441406 C 179.605469 58.671875 185.949219 58.671875 185.949219 54.441406 Z M 185.949219 54.441406 "/>
<path fill-rule="nonzero" fill="rgb(25.098041%, 25.098041%, 25.098041%)" fill-opacity="1" d="M 287.808594 78.601562 C 287.808594 74.371094 281.464844 74.371094 281.464844 78.601562 C 281.464844 82.832031 287.808594 82.832031 287.808594 78.601562 Z M 287.808594 78.601562 "/>
<path fill-rule="nonzero" fill="rgb(25.098041%, 25.098041%, 25.098041%)" fill-opacity="1" d="M 274.371094 54.898438 C 274.371094 50.667969 268.027344 50.667969 268.027344 54.898438 C 268.027344 59.128906 274.371094 59.128906 274.371094 54.898438 Z M 274.371094 54.898438 "/>
<g fill="rgb(0%, 0%, 0%)" fill-opacity="1">
<use xlink:href="#glyph-0-0-8b659028" x="67.123245" y="411.089996"/>
</g>
<g fill="rgb(0%, 0%, 0%)" fill-opacity="1">
<use xlink:href="#glyph-8-0-8b659028" x="74.823242" y="411.089996"/>
</g>
<g fill="rgb(0%, 0%, 0%)" fill-opacity="1">
<use xlink:href="#glyph-8-1-8b659028" x="77.721245" y="411.089996"/>
</g>
<g fill="rgb(0%, 0%, 0%)" fill-opacity="1">
<use xlink:href="#glyph-9-0-8b659028" x="181.915787" y="411.089996"/>
</g>
<g fill="rgb(0%, 0%, 0%)" fill-opacity="1">
<use xlink:href="#glyph-0-1-8b659028" x="189.615799" y="411.089996"/>
</g>
<g fill="rgb(0%, 0%, 0%)" fill-opacity="1">
<use xlink:href="#glyph-10-0-8b659028" x="192.513794" y="411.089996"/>
</g>
<g fill="rgb(0%, 0%, 0%)" fill-opacity="1">
<use xlink:href="#glyph-10-1-8b659028" x="296.78537" y="411.089996"/>
</g>
<g fill="rgb(0%, 0%, 0%)" fill-opacity="1">
<use xlink:href="#glyph-11-0-8b659028" x="302.567383" y="411.089996"/>
</g>
<g fill="rgb(0%, 0%, 0%)" fill-opacity="1">
<use xlink:href="#glyph-10-2-8b659028" x="305.465363" y="411.089996"/>
</g>
<g fill="rgb(0%, 0%, 0%)" fill-opacity="1">
<use xlink:href="#glyph-0-0-8b659028" x="36.702007" y="387.641388"/>
</g>
<g fill="rgb(0%, 0%, 0%)" fill-opacity="1">
<use xlink:href="#glyph-1-0-8b659028" x="44.402004" y="387.641388"/>
</g>
<g fill="rgb(0%, 0%, 0%)" fill-opacity="1">
<use xlink:href="#glyph-2-0-8b659028" x="47.300003" y="387.641388"/>
</g>
<g fill="rgb(0%, 0%, 0%)" fill-opacity="1">
<use xlink:href="#glyph-0-0-8b659028" x="37.584007" y="315.647491"/>
</g>
<g fill="rgb(0%, 0%, 0%)" fill-opacity="1">
<use xlink:href="#glyph-1-0-8b659028" x="45.284004" y="315.647491"/>
</g>
<g fill="rgb(0%, 0%, 0%)" fill-opacity="1">
<use xlink:href="#glyph-2-1-8b659028" x="48.182003" y="315.647491"/>
</g>
<g fill="rgb(0%, 0%, 0%)" fill-opacity="1">
<use xlink:href="#glyph-12-0-8b659028" x="38.620003" y="243.65358"/>
</g>
<g fill="rgb(0%, 0%, 0%)" fill-opacity="1">
<use xlink:href="#glyph-12-1-8b659028" x="44.402004" y="243.65358"/>
</g>
<g fill="rgb(0%, 0%, 0%)" fill-opacity="1">
<use xlink:href="#glyph-13-0-8b659028" x="47.300003" y="243.65358"/>
</g>
<path fill-rule="nonzero" fill="rgb(25.098041%, 25.098041%, 25.098041%)" fill-opacity="1" d="M 146.574219 321.378906 C 146.574219 317.152344 140.230469 317.152344 140.230469 321.378906 C 140.230469 325.609375 146.574219 325.609375 146.574219 321.378906 Z M 146.574219 321.378906 "/>
<path fill-rule="nonzero" fill="rgb(25.098041%, 25.098041%, 25.098041%)" fill-opacity="1" d="M 262.871094 326.816406 C 262.871094 322.585938 256.527344 322.585938 256.527344 326.816406 C 256.527344 331.046875 262.871094 331.046875 262.871094 326.816406 Z M 262.871094 326.816406 "/>
<path fill-rule="nonzero" fill="rgb(25.098041%, 25.098041%, 25.098041%)" fill-opacity="1" d="M 92.492188 241.757812 C 92.492188 237.527344 86.148438 237.527344 86.148438 241.757812 C 86.148438 245.984375 92.492188 245.984375 92.492188 241.757812 Z M 92.492188 241.757812 "/>
<path fill-rule="nonzero" fill="rgb(25.098041%, 25.098041%, 25.098041%)" fill-opacity="1" d="M 123.039062 363.851562 C 123.039062 359.621094 116.695312 359.621094 116.695312 363.851562 C 116.695312 368.082031 123.039062 368.082031 123.039062 363.851562 Z M 123.039062 363.851562 "/>
<path fill-rule="nonzero" fill="rgb(25.098041%, 25.098041%, 25.098041%)" fill-opacity="1" d="M 173.769531 306.808594 C 173.769531 302.578125 167.425781 302.578125 167.425781 306.808594 C 167.425781 311.039062 173.769531 311.039062 173.769531 306.808594 Z M 173.769531 306.808594 "/>
<path fill-rule="nonzero" fill="rgb(25.098041%, 25.098041%, 25.098041%)" fill-opacity="1" d="M 183.667969 263.925781 C 183.667969 259.695312 177.324219 259.695312 177.324219 263.925781 C 177.324219 268.15625 183.667969 268.15625 183.667969 263.925781 Z M 183.667969 263.925781 "/>
<path fill-rule="nonzero" fill="rgb(25.098041%, 25.098041%, 25.098041%)" fill-opacity="1" d="M 88.148438 287.585938 C 88.148438 283.355469 81.800781 283.355469 81.800781 287.585938 C 81.800781 291.816406 88.148438 291.816406 88.148438 287.585938 Z M 88.148438 287.585938 "/>
<path fill-rule="nonzero" fill="rgb(25.098041%, 25.098041%, 25.098041%)" fill-opacity="1" d="M 204.078125 368.859375 C 204.078125 364.628906 197.734375 364.628906 197.734375 368.859375 C 197.734375 373.089844 204.078125 373.089844 204.078125 368.859375 Z M 204.078125 368.859375 "/>
<path fill-rule="nonzero" fill="rgb(25.098041%, 25.098041%, 25.098041%)" fill-opacity="1" d="M 250.386719 352.058594 C 250.386719 347.828125 244.039062 347.828125 244.039062 352.058594 C 244.039062 356.289062 250.386719 356.289062 250.386719 352.058594 Z M 250.386719 352.058594 "/>
<path fill-rule="nonzero" fill="rgb(25.098041%, 25.098041%, 25.098041%)" fill-opacity="1" d="M 280.175781 369.601562 C 280.175781 365.371094 273.832031 365.371094 273.832031 369.601562 C 273.832031 373.828125 280.175781 373.828125 280.175781 369.601562 Z M 280.175781 369.601562 "/>
<path fill-rule="nonzero" fill="rgb(25.098041%, 25.098041%, 25.098041%)" fill-opacity="1" d="M 287.988281 256.910156 C 287.988281 252.679688 281.640625 252.679688 281.640625 256.910156 C 281.640625 261.140625 287.988281 261.140625 287.988281 256.910156 Z M 287.988281 256.910156 "/>
<path fill-rule="nonzero" fill="rgb(25.098041%, 25.098041%, 25.098041%)" fill-opacity="1" d="M 152.734375 353.703125 C 152.734375 349.476562 146.386719 349.476562 146.386719 353.703125 C 146.386719 357.933594 152.734375 357.933594 152.734375 353.703125 Z M 152.734375 353.703125 "/>
<path fill-rule="nonzero" fill="rgb(25.098041%, 25.098041%, 25.098041%)" fill-opacity="1" d="M 192.9375 323.195312 C 192.9375 318.964844 186.589844 318.964844 186.589844 323.195312 C 186.589844 327.425781 192.9375 327.425781 192.9375 323.195312 Z M 192.9375 323.195312 "/>
<path fill-rule="nonzero" fill="rgb(25.098041%, 25.098041%, 25.098041%)" fill-opacity="1" d="M 300.308594 257.101562 C 300.308594 252.871094 293.964844 252.871094 293.964844 257.101562 C 293.964844 261.332031 300.308594 261.332031 300.308594 257.101562 Z M 300.308594 257.101562 "/>
<path fill-rule="nonzero" fill="rgb(25.098041%, 25.098041%, 25.098041%)" fill-opacity="1" d="M 228.617188 256.332031 C 228.617188 252.101562 222.273438 252.101562 222.273438 256.332031 C 222.273438 260.5625 228.617188 260.5625 228.617188 256.332031 Z M 228.617188 256.332031 "/>
<path fill-rule="nonzero" fill="rgb(25.098041%, 25.098041%, 25.098041%)" fill-opacity="1" d="M 137.699219 346.300781 C 137.699219 342.070312 131.351562 342.070312 131.351562 346.300781 C 131.351562 350.53125 137.699219 350.53125 137.699219 346.300781 Z M 137.699219 346.300781 "/>
<path fill-rule="nonzero" fill="rgb(25.098041%, 25.098041%, 25.098041%)" fill-opacity="1" d="M 133.078125 279.417969 C 133.078125 275.1875 126.730469 275.1875 126.730469 279.417969 C 126.730469 283.648438 133.078125 283.648438 133.078125 279.417969 Z M 133.078125 279.417969 "/>
<path fill-rule="nonzero" fill="rgb(25.098041%, 25.098041%, 25.098041%)" fill-opacity="1" d="M 264.660156 338.742188 C 264.660156 334.511719 258.3125 334.511719 258.3125 338.742188 C 258.3125 342.972656 264.660156 342.972656 264.660156 338.742188 Z M 264.660156 338.742188 "/>
<path fill-rule="nonzero" fill="rgb(25.098041%, 25.098041%, 25.098041%)" fill-opacity="1" d="M 166.125 308.179688 C 166.125 303.949219 159.78125 303.949219 159.78125 308.179688 C 159.78125 312.410156 166.125 312.410156 166.125 308.179688 Z M 166.125 308.179688 "/>
<path fill-rule="nonzero" fill="rgb(25.098041%, 25.098041%, 25.098041%)" fill-opacity="1" d="M 302.851562 292.890625 C 302.851562 288.660156 296.503906 288.660156 296.503906 292.890625 C 296.503906 297.121094 302.851562 297.121094 302.851562 292.890625 Z M 302.851562 292.890625 "/>
<path fill-rule="nonzero" fill="rgb(25.098041%, 25.098041%, 25.098041%)" fill-opacity="1" d="M 284.46875 249.890625 C 284.46875 245.660156 278.125 245.660156 278.125 249.890625 C 278.125 254.121094 284.46875 254.121094 284.46875 249.890625 Z M 284.46875 249.890625 "/>
<path fill-rule="nonzero" fill="rgb(25.098041%, 25.098041%, 25.098041%)" fill-opacity="1" d="M 292.074219 249.277344 C 292.074219 245.046875 285.730469 245.046875 285.730469 249.277344 C 285.730469 253.507812 292.074219 253.507812 292.074219 249.277344 Z M 292.074219 249.277344 "/>
<path fill-rule="nonzero" fill="rgb(25.098041%, 25.098041%, 25.098041%)" fill-opacity="1" d="M 130.5625 379.195312 C 130.5625 374.964844 124.21875 374.964844 124.21875 379.195312 C 124.21875 383.425781 130.5625 383.425781 130.5625 379.195312 Z M 130.5625 379.195312 "/>
<path fill-rule="nonzero" fill="rgb(25.098041%, 25.098041%, 25.098041%)" fill-opacity="1" d="M 112.332031 366.433594 C 112.332031 362.203125 105.988281 362.203125 105.988281 366.433594 C 105.988281 370.664062 112.332031 370.664062 112.332031 366.433594 Z M 112.332031 366.433594 "/>
<path fill-rule="nonzero" fill="rgb(25.098041%, 25.098041%, 25.098041%)" fill-opacity="1" d="M 306.796875 324.480469 C 306.796875 320.25 300.453125 320.25 300.453125 324.480469 C 300.453125 328.710938 306.796875 328.710938 306.796875 324.480469 Z M 306.796875 324.480469 "/>
<path fill-rule="nonzero" fill="rgb(25.098041%, 25.098041%, 25.098041%)" fill-opacity="1" d="M 236.121094 242.011719 C 236.121094 237.78125 229.777344 237.78125 229.777344 242.011719 C 229.777344 246.242188 236.121094 246.242188 236.121094 242.011719 Z M 236.121094 242.011719 "/>
<path fill-rule="nonzero" fill="rgb(25.098041%, 25.098041%, 25.098041%)" fill-opacity="1" d="M 229.589844 241.234375 C 229.589844 237.003906 223.246094 237.003906 223.246094 241.234375 C 223.246094 245.460938 229.589844 245.460938 229.589844 241.234375 Z M 229.589844 241.234375 "/>
<path fill-rule="nonzero" fill="rgb(25.098041%, 25.098041%, 25.098041%)" fill-opacity="1" d="M 90.296875 256.800781 C 90.296875 252.570312 83.949219 252.570312 83.949219 256.800781 C 83.949219 261.03125 90.296875 261.03125 90.296875 256.800781 Z M 90.296875 256.800781 "/>
<path fill-rule="nonzero" fill="rgb(25.098041%, 25.098041%, 25.098041%)" fill-opacity="1" d="M 268.03125 344.964844 C 268.03125 340.734375 261.6875 340.734375 261.6875 344.964844 C 261.6875 349.195312 268.03125 349.195312 268.03125 344.964844 Z M 268.03125 344.964844 "/>
<path fill-rule="nonzero" fill="rgb(25.098041%, 25.098041%, 25.098041%)" fill-opacity="1" d="M 136.296875 251.34375 C 136.296875 247.113281 129.953125 247.113281 129.953125 251.34375 C 129.953125 255.574219 136.296875 255.574219 136.296875 251.34375 Z M 136.296875 251.34375 "/>
<path fill-rule="nonzero" fill="rgb(25.098041%, 25.098041%, 25.098041%)" fill-opacity="1" d="M 89.847656 309.078125 C 89.847656 304.847656 83.5 304.847656 83.5 309.078125 C 83.5 313.308594 89.847656 313.308594 89.847656 309.078125 Z M 89.847656 309.078125 "/>
<path fill-rule="nonzero" fill="rgb(25.098041%, 25.098041%, 25.098041%)" fill-opacity="1" d="M 213.03125 347.28125 C 213.03125 343.054688 206.6875 343.054688 206.6875 347.28125 C 206.6875 351.511719 213.03125 351.511719 213.03125 347.28125 Z M 213.03125 347.28125 "/>
<path fill-rule="nonzero" fill="rgb(25.098041%, 25.098041%, 25.098041%)" fill-opacity="1" d="M 257.484375 248.542969 C 257.484375 244.3125 251.140625 244.3125 251.140625 248.542969 C 251.140625 252.773438 257.484375 252.773438 257.484375 248.542969 Z M 257.484375 248.542969 "/>
<path fill-rule="nonzero" fill="rgb(25.098041%, 25.098041%, 25.098041%)" fill-opacity="1" d="M 266.5625 244.023438 C 266.5625 239.792969 260.214844 239.792969 260.214844 244.023438 C 260.214844 248.25 266.5625 248.25 266.5625 244.023438 Z M 266.5625 244.023438 "/>
<path fill-rule="nonzero" fill="rgb(25.098041%, 25.098041%, 25.098041%)" fill-opacity="1" d="M 151.679688 282.609375 C 151.679688 278.378906 145.332031 278.378906 145.332031 282.609375 C 145.332031 286.839844 151.679688 286.839844 151.679688 282.609375 Z M 151.679688 282.609375 "/>
<path fill-rule="nonzero" fill="rgb(25.098041%, 25.098041%, 25.098041%)" fill-opacity="1" d="M 239.171875 336.128906 C 239.171875 331.898438 232.828125 331.898438 232.828125 336.128906 C 232.828125 340.359375 239.171875 340.359375 239.171875 336.128906 Z M 239.171875 336.128906 "/>
<path fill-rule="nonzero" fill="rgb(25.098041%, 25.098041%, 25.098041%)" fill-opacity="1" d="M 124.523438 302.058594 C 124.523438 297.828125 118.179688 297.828125 118.179688 302.058594 C 118.179688 306.289062 124.523438 306.289062 124.523438 302.058594 Z M 124.523438 302.058594 "/>
<path fill-rule="nonzero" fill="rgb(25.098041%, 25.098041%, 25.098041%)" fill-opacity="1" d="M 302.707031 241.152344 C 302.707031 236.921875 296.363281 236.921875 296.363281 241.152344 C 296.363281 245.382812 302.707031 245.382812 302.707031 241.152344 Z M 302.707031 241.152344 "/>
<path fill-rule="nonzero" fill="rgb(25.098041%, 25.098041%, 25.098041%)" fill-opacity="1" d="M 238.148438 248.496094 C 238.148438 244.265625 231.800781 244.265625 231.800781 248.496094 C 231.800781 252.726562 238.148438 252.726562 238.148438 248.496094 Z M 238.148438 248.496094 "/>
<path fill-rule="nonzero" fill="rgb(25.098041%, 25.098041%, 25.098041%)" fill-opacity="1" d="M 150.050781 332.417969 C 150.050781 328.1875 143.707031 328.1875 143.707031 332.417969 C 143.707031 336.644531 150.050781 336.644531 150.050781 332.417969 Z M 150.050781 332.417969 "/>
<path fill-rule="nonzero" fill="rgb(25.098041%, 25.098041%, 25.098041%)" fill-opacity="1" d="M 231.75 348.40625 C 231.75 344.179688 225.40625 344.179688 225.40625 348.40625 C 225.40625 352.636719 231.75 352.636719 231.75 348.40625 Z M 231.75 348.40625 "/>
<path fill-rule="nonzero" fill="rgb(25.098041%, 25.098041%, 25.098041%)" fill-opacity="1" d="M 120.28125 263.824219 C 120.28125 259.59375 113.9375 259.59375 113.9375 263.824219 C 113.9375 268.054688 120.28125 268.054688 120.28125 263.824219 Z M 120.28125 263.824219 "/>
<path fill-rule="nonzero" fill="rgb(25.098041%, 25.098041%, 25.098041%)" fill-opacity="1" d="M 264.820312 355.507812 C 264.820312 351.277344 258.476562 351.277344 258.476562 355.507812 C 258.476562 359.738281 264.820312 359.738281 264.820312 355.507812 Z M 264.820312 355.507812 "/>
<path fill-rule="nonzero" fill="rgb(25.098041%, 25.098041%, 25.098041%)" fill-opacity="1" d="M 252.21875 346.320312 C 252.21875 342.089844 245.875 342.089844 245.875 346.320312 C 245.875 350.550781 252.21875 350.550781 252.21875 346.320312 Z M 252.21875 346.320312 "/>
<path fill-rule="nonzero" fill="rgb(25.098041%, 25.098041%, 25.098041%)" fill-opacity="1" d="M 302.101562 348.566406 C 302.101562 344.335938 295.757812 344.335938 295.757812 348.566406 C 295.757812 352.796875 302.101562 352.796875 302.101562 348.566406 Z M 302.101562 348.566406 "/>
<path fill-rule="nonzero" fill="rgb(25.098041%, 25.098041%, 25.098041%)" fill-opacity="1" d="M 195.042969 356.523438 C 195.042969 352.292969 188.699219 352.292969 188.699219 356.523438 C 188.699219 360.753906 195.042969 360.753906 195.042969 356.523438 Z M 195.042969 356.523438 "/>
<path fill-rule="nonzero" fill="rgb(25.098041%, 25.098041%, 25.098041%)" fill-opacity="1" d="M 155.585938 334.570312 C 155.585938 330.339844 149.238281 330.339844 149.238281 334.570312 C 149.238281 338.800781 155.585938 338.800781 155.585938 334.570312 Z M 155.585938 334.570312 "/>
<path fill-rule="nonzero" fill="rgb(25.098041%, 25.098041%, 25.098041%)" fill-opacity="1" d="M 103.28125 332.863281 C 103.28125 328.632812 96.9375 328.632812 96.9375 332.863281 C 96.9375 337.09375 103.28125 337.09375 103.28125 332.863281 Z M 103.28125 332.863281 "/>
<path fill-rule="nonzero" fill="rgb(25.098041%, 25.098041%, 25.098041%)" fill-opacity="1" d="M 196.046875 328.949219 C 196.046875 324.71875 189.703125 324.71875 189.703125 328.949219 C 189.703125 333.179688 196.046875 333.179688 196.046875 328.949219 Z M 196.046875 328.949219 "/>
<path fill-rule="nonzero" fill="rgb(25.098041%, 25.098041%, 25.098041%)" fill-opacity="1" d="M 293.328125 259.976562 C 293.328125 255.746094 286.980469 255.746094 286.980469 259.976562 C 286.980469 264.207031 293.328125 264.207031 293.328125 259.976562 Z M 293.328125 259.976562 "/>
<path fill-rule="nonzero" fill="rgb(25.098041%, 25.098041%, 25.098041%)" fill-opacity="1" d="M 155.164062 298.421875 C 155.164062 294.195312 148.820312 294.195312 148.820312 298.421875 C 148.820312 302.652344 155.164062 302.652344 155.164062 298.421875 Z M 155.164062 298.421875 "/>
<path fill-rule="nonzero" fill="rgb(25.098041%, 25.098041%, 25.098041%)" fill-opacity="1" d="M 162.105469 329.632812 C 162.105469 325.40625 155.761719 325.40625 155.761719 329.632812 C 155.761719 333.863281 162.105469 333.863281 162.105469 329.632812 Z M 162.105469 329.632812 "/>
<path fill-rule="nonzero" fill="rgb(25.098041%, 25.098041%, 25.098041%)" fill-opacity="1" d="M 272.449219 277.285156 C 272.449219 273.054688 266.105469 273.054688 266.105469 277.285156 C 266.105469 281.515625 272.449219 281.515625 272.449219 277.285156 Z M 272.449219 277.285156 "/>
<path fill-rule="nonzero" fill="rgb(25.098041%, 25.098041%, 25.098041%)" fill-opacity="1" d="M 196.277344 369.179688 C 196.277344 364.949219 189.933594 364.949219 189.933594 369.179688 C 189.933594 373.410156 196.277344 373.410156 196.277344 369.179688 Z M 196.277344 369.179688 "/>
<path fill-rule="nonzero" fill="rgb(25.098041%, 25.098041%, 25.098041%)" fill-opacity="1" d="M 196.8125 360.734375 C 196.8125 356.503906 190.46875 356.503906 190.46875 360.734375 C 190.46875 364.964844 196.8125 364.964844 196.8125 360.734375 Z M 196.8125 360.734375 "/>
<path fill-rule="nonzero" fill="rgb(25.098041%, 25.098041%, 25.098041%)" fill-opacity="1" d="M 130.667969 367.988281 C 130.667969 363.757812 124.320312 363.757812 124.320312 367.988281 C 124.320312 372.21875 130.667969 372.21875 130.667969 367.988281 Z M 130.667969 367.988281 "/>
<path fill-rule="nonzero" fill="rgb(25.098041%, 25.098041%, 25.098041%)" fill-opacity="1" d="M 79.582031 339.1875 C 79.582031 334.957031 73.238281 334.957031 73.238281 339.1875 C 73.238281 343.414062 79.582031 343.414062 79.582031 339.1875 Z M 79.582031 339.1875 "/>
<path fill-rule="nonzero" fill="rgb(25.098041%, 25.098041%, 25.098041%)" fill-opacity="1" d="M 119.953125 310.199219 C 119.953125 305.972656 113.609375 305.972656 113.609375 310.199219 C 113.609375 314.429688 119.953125 314.429688 119.953125 310.199219 Z M 119.953125 310.199219 "/>
<path fill-rule="nonzero" fill="rgb(25.098041%, 25.098041%, 25.098041%)" fill-opacity="1" d="M 110.398438 337.171875 C 110.398438 332.941406 104.050781 332.941406 104.050781 337.171875 C 104.050781 341.402344 110.398438 341.402344 110.398438 337.171875 Z M 110.398438 337.171875 "/>
<path fill-rule="nonzero" fill="rgb(25.098041%, 25.098041%, 25.098041%)" fill-opacity="1" d="M 153.035156 274.238281 C 153.035156 270.007812 146.691406 270.007812 146.691406 274.238281 C 146.691406 278.46875 153.035156 278.46875 153.035156 274.238281 Z M 153.035156 274.238281 "/>
<path fill-rule="nonzero" fill="rgb(25.098041%, 25.098041%, 25.098041%)" fill-opacity="1" d="M 162.652344 297.816406 C 162.652344 293.585938 156.304688 293.585938 156.304688 297.816406 C 156.304688 302.046875 162.652344 302.046875 162.652344 297.816406 Z M 162.652344 297.816406 "/>
<path fill-rule="nonzero" fill="rgb(25.098041%, 25.098041%, 25.098041%)" fill-opacity="1" d="M 401.519531 47.25 C 401.519531 43.019531 395.175781 43.019531 395.175781 47.25 C 395.175781 51.480469 401.519531 51.480469 401.519531 47.25 Z M 401.519531 47.25 "/>
<path fill-rule="nonzero" fill="rgb(25.098041%, 25.098041%, 25.098041%)" fill-opacity="1" d="M 422.277344 129.09375 C 422.277344 124.863281 415.929688 124.863281 415.929688 129.09375 C 415.929688 133.324219 422.277344 133.324219 422.277344 129.09375 Z M 422.277344 129.09375 "/>
<path fill-rule="nonzero" fill="rgb(25.098041%, 25.098041%, 25.098041%)" fill-opacity="1" d="M 531.132812 102.304688 C 531.132812 98.074219 524.785156 98.074219 524.785156 102.304688 C 524.785156 106.535156 531.132812 106.535156 531.132812 102.304688 Z M 531.132812 102.304688 "/>
<path fill-rule="nonzero" fill="rgb(25.098041%, 25.098041%, 25.098041%)" fill-opacity="1" d="M 552.5 109.210938 C 552.5 104.980469 546.15625 104.980469 546.15625 109.210938 C 546.15625 113.441406 552.5 113.441406 552.5 109.210938 Z M 552.5 109.210938 "/>
<path fill-rule="nonzero" fill="rgb(25.098041%, 25.098041%, 25.098041%)" fill-opacity="1" d="M 499.085938 67.757812 C 499.085938 63.53125 492.738281 63.53125 492.738281 67.757812 C 492.738281 71.988281 499.085938 71.988281 499.085938 67.757812 Z M 499.085938 67.757812 "/>
<path fill-rule="nonzero" fill="rgb(25.098041%, 25.098041%, 25.098041%)" fill-opacity="1" d="M 370.765625 162.628906 C 370.765625 158.398438 364.417969 158.398438 364.417969 162.628906 C 364.417969 166.855469 370.765625 166.855469 370.765625 162.628906 Z M 370.765625 162.628906 "/>
<path fill-rule="nonzero" fill="rgb(25.098041%, 25.098041%, 25.098041%)" fill-opacity="1" d="M 483.015625 160.085938 C 483.015625 155.855469 476.667969 155.855469 476.667969 160.085938 C 476.667969 164.316406 483.015625 164.316406 483.015625 160.085938 Z M 483.015625 160.085938 "/>
<path fill-rule="nonzero" fill="rgb(25.098041%, 25.098041%, 25.098041%)" fill-opacity="1" d="M 418.214844 160.15625 C 418.214844 155.925781 411.867188 155.925781 411.867188 160.15625 C 411.867188 164.386719 418.214844 164.386719 418.214844 160.15625 Z M 418.214844 160.15625 "/>
<path fill-rule="nonzero" fill="rgb(25.098041%, 25.098041%, 25.098041%)" fill-opacity="1" d="M 378.316406 123.878906 C 378.316406 119.648438 371.972656 119.648438 371.972656 123.878906 C 371.972656 128.109375 378.316406 128.109375 378.316406 123.878906 Z M 378.316406 123.878906 "/>
<path fill-rule="nonzero" fill="rgb(25.098041%, 25.098041%, 25.098041%)" fill-opacity="1" d="M 494.75 84.792969 C 494.75 80.5625 488.40625 80.5625 488.40625 84.792969 C 488.40625 89.023438 494.75 89.023438 494.75 84.792969 Z M 494.75 84.792969 "/>
<path fill-rule="nonzero" fill="rgb(25.098041%, 25.098041%, 25.098041%)" fill-opacity="1" d="M 506.738281 147.425781 C 506.738281 143.195312 500.394531 143.195312 500.394531 147.425781 C 500.394531 151.65625 506.738281 151.65625 506.738281 147.425781 Z M 506.738281 147.425781 "/>
<path fill-rule="nonzero" fill="rgb(25.098041%, 25.098041%, 25.098041%)" fill-opacity="1" d="M 368.273438 153.867188 C 368.273438 149.636719 361.925781 149.636719 361.925781 153.867188 C 361.925781 158.097656 368.273438 158.097656 368.273438 153.867188 Z M 368.273438 153.867188 "/>
<path fill-rule="nonzero" fill="rgb(25.098041%, 25.098041%, 25.098041%)" fill-opacity="1" d="M 458.976562 175.25 C 458.976562 171.019531 452.632812 171.019531 452.632812 175.25 C 452.632812 179.480469 458.976562 179.480469 458.976562 175.25 Z M 458.976562 175.25 "/>
<path fill-rule="nonzero" fill="rgb(25.098041%, 25.098041%, 25.098041%)" fill-opacity="1" d="M 465.882812 86.433594 C 465.882812 82.203125 459.539062 82.203125 459.539062 86.433594 C 459.539062 90.660156 465.882812 90.660156 465.882812 86.433594 Z M 465.882812 86.433594 "/>
<path fill-rule="nonzero" fill="rgb(25.098041%, 25.098041%, 25.098041%)" fill-opacity="1" d="M 548.574219 154.386719 C 548.574219 150.15625 542.230469 150.15625 542.230469 154.386719 C 542.230469 158.617188 548.574219 158.617188 548.574219 154.386719 Z M 548.574219 154.386719 "/>
<path fill-rule="nonzero" fill="rgb(25.098041%, 25.098041%, 25.098041%)" fill-opacity="1" d="M 516.15625 97.667969 C 516.15625 93.4375 509.808594 93.4375 509.808594 97.667969 C 509.808594 101.898438 516.15625 101.898438 516.15625 97.667969 Z M 516.15625 97.667969 "/>
<path fill-rule="nonzero" fill="rgb(25.098041%, 25.098041%, 25.098041%)" fill-opacity="1" d="M 421.640625 112.976562 C 421.640625 108.746094 415.296875 108.746094 415.296875 112.976562 C 415.296875 117.207031 421.640625 117.207031 421.640625 112.976562 Z M 421.640625 112.976562 "/>
<path fill-rule="nonzero" fill="rgb(25.098041%, 25.098041%, 25.098041%)" fill-opacity="1" d="M 534.808594 86.890625 C 534.808594 82.660156 528.464844 82.660156 528.464844 86.890625 C 528.464844 91.117188 534.808594 91.117188 534.808594 86.890625 Z M 534.808594 86.890625 "/>
<path fill-rule="nonzero" fill="rgb(25.098041%, 25.098041%, 25.098041%)" fill-opacity="1" d="M 451.730469 138.207031 C 451.730469 133.976562 445.386719 133.976562 445.386719 138.207031 C 445.386719 142.433594 451.730469 142.433594 451.730469 138.207031 Z M 451.730469 138.207031 "/>
<path fill-rule="nonzero" fill="rgb(25.098041%, 25.098041%, 25.098041%)" fill-opacity="1" d="M 472.636719 149.605469 C 472.636719 145.375 466.292969 145.375 466.292969 149.605469 C 466.292969 153.835938 472.636719 153.835938 472.636719 149.605469 Z M 472.636719 149.605469 "/>
<path fill-rule="nonzero" fill="rgb(25.098041%, 25.098041%, 25.098041%)" fill-opacity="1" d="M 357.171875 53.972656 C 357.171875 49.742188 350.828125 49.742188 350.828125 53.972656 C 350.828125 58.203125 357.171875 58.203125 357.171875 53.972656 Z M 357.171875 53.972656 "/>
<path fill-rule="nonzero" fill="rgb(25.098041%, 25.098041%, 25.098041%)" fill-opacity="1" d="M 434.734375 121.492188 C 434.734375 117.265625 428.390625 117.265625 428.390625 121.492188 C 428.390625 125.722656 434.734375 125.722656 434.734375 121.492188 Z M 434.734375 121.492188 "/>
<path fill-rule="nonzero" fill="rgb(25.098041%, 25.098041%, 25.098041%)" fill-opacity="1" d="M 463.929688 181.300781 C 463.929688 177.070312 457.585938 177.070312 457.585938 181.300781 C 457.585938 185.527344 463.929688 185.527344 463.929688 181.300781 Z M 463.929688 181.300781 "/>
<path fill-rule="nonzero" fill="rgb(25.098041%, 25.098041%, 25.098041%)" fill-opacity="1" d="M 418.222656 158.921875 C 418.222656 154.691406 411.878906 154.691406 411.878906 158.921875 C 411.878906 163.148438 418.222656 163.148438 418.222656 158.921875 Z M 418.222656 158.921875 "/>
<path fill-rule="nonzero" fill="rgb(25.098041%, 25.098041%, 25.098041%)" fill-opacity="1" d="M 466.199219 85.113281 C 466.199219 80.882812 459.851562 80.882812 459.851562 85.113281 C 459.851562 89.339844 466.199219 89.339844 466.199219 85.113281 Z M 466.199219 85.113281 "/>
<path fill-rule="nonzero" fill="rgb(25.098041%, 25.098041%, 25.098041%)" fill-opacity="1" d="M 395.949219 167.441406 C 395.949219 163.210938 389.605469 163.210938 389.605469 167.441406 C 389.605469 171.671875 395.949219 171.671875 395.949219 167.441406 Z M 395.949219 167.441406 "/>
<path fill-rule="nonzero" fill="rgb(25.098041%, 25.098041%, 25.098041%)" fill-opacity="1" d="M 463.636719 186.644531 C 463.636719 182.414062 457.292969 182.414062 457.292969 186.644531 C 457.292969 190.875 463.636719 190.875 463.636719 186.644531 Z M 463.636719 186.644531 "/>
<path fill-rule="nonzero" fill="rgb(25.098041%, 25.098041%, 25.098041%)" fill-opacity="1" d="M 496.230469 173.890625 C 496.230469 169.660156 489.886719 169.660156 489.886719 173.890625 C 489.886719 178.117188 496.230469 178.117188 496.230469 173.890625 Z M 496.230469 173.890625 "/>
<path fill-rule="nonzero" fill="rgb(25.098041%, 25.098041%, 25.098041%)" fill-opacity="1" d="M 356.589844 161.832031 C 356.589844 157.601562 350.242188 157.601562 350.242188 161.832031 C 350.242188 166.0625 356.589844 166.0625 356.589844 161.832031 Z M 356.589844 161.832031 "/>
<path fill-rule="nonzero" fill="rgb(25.098041%, 25.098041%, 25.098041%)" fill-opacity="1" d="M 519.042969 161.460938 C 519.042969 157.230469 512.695312 157.230469 512.695312 161.460938 C 512.695312 165.691406 519.042969 165.691406 519.042969 161.460938 Z M 519.042969 161.460938 "/>
<path fill-rule="nonzero" fill="rgb(25.098041%, 25.098041%, 25.098041%)" fill-opacity="1" d="M 425.566406 69.964844 C 425.566406 65.734375 419.222656 65.734375 419.222656 69.964844 C 419.222656 74.195312 425.566406 74.195312 425.566406 69.964844 Z M 425.566406 69.964844 "/>
<path fill-rule="nonzero" fill="rgb(25.098041%, 25.098041%, 25.098041%)" fill-opacity="1" d="M 505.785156 63.902344 C 505.785156 59.671875 499.441406 59.671875 499.441406 63.902344 C 499.441406 68.132812 505.785156 68.132812 505.785156 63.902344 Z M 505.785156 63.902344 "/>
<path fill-rule="nonzero" fill="rgb(25.098041%, 25.098041%, 25.098041%)" fill-opacity="1" d="M 529.308594 125.816406 C 529.308594 121.585938 522.960938 121.585938 522.960938 125.816406 C 522.960938 130.046875 529.308594 130.046875 529.308594 125.816406 Z M 529.308594 125.816406 "/>
<path fill-rule="nonzero" fill="rgb(25.098041%, 25.098041%, 25.098041%)" fill-opacity="1" d="M 374.613281 130.652344 C 374.613281 126.425781 368.269531 126.425781 368.269531 130.652344 C 368.269531 134.882812 374.613281 134.882812 374.613281 130.652344 Z M 374.613281 130.652344 "/>
<path fill-rule="nonzero" fill="rgb(25.098041%, 25.098041%, 25.098041%)" fill-opacity="1" d="M 505.855469 98.921875 C 505.855469 94.691406 499.507812 94.691406 499.507812 98.921875 C 499.507812 103.152344 505.855469 103.152344 505.855469 98.921875 Z M 505.855469 98.921875 "/>
<path fill-rule="nonzero" fill="rgb(25.098041%, 25.098041%, 25.098041%)" fill-opacity="1" d="M 544.601562 46.515625 C 544.601562 42.285156 538.257812 42.285156 538.257812 46.515625 C 538.257812 50.742188 544.601562 50.742188 544.601562 46.515625 Z M 544.601562 46.515625 "/>
<path fill-rule="nonzero" fill="rgb(25.098041%, 25.098041%, 25.098041%)" fill-opacity="1" d="M 464.28125 66.816406 C 464.28125 62.585938 457.9375 62.585938 457.9375 66.816406 C 457.9375 71.046875 464.28125 71.046875 464.28125 66.816406 Z M 464.28125 66.816406 "/>
<path fill-rule="nonzero" fill="rgb(25.098041%, 25.098041%, 25.098041%)" fill-opacity="1" d="M 465.796875 119.5625 C 465.796875 115.332031 459.453125 115.332031 459.453125 119.5625 C 459.453125 123.792969 465.796875 123.792969 465.796875 119.5625 Z M 465.796875 119.5625 "/>
<path fill-rule="nonzero" fill="rgb(25.098041%, 25.098041%, 25.098041%)" fill-opacity="1" d="M 556.703125 89.140625 C 556.703125 84.910156 550.359375 84.910156 550.359375 89.140625 C 550.359375 93.367188 556.703125 93.367188 556.703125 89.140625 Z M 556.703125 89.140625 "/>
<path fill-rule="nonzero" fill="rgb(25.098041%, 25.098041%, 25.098041%)" fill-opacity="1" d="M 551.707031 72.773438 C 551.707031 68.546875 545.363281 68.546875 545.363281 72.773438 C 545.363281 77.003906 551.707031 77.003906 551.707031 72.773438 Z M 551.707031 72.773438 "/>
<path fill-rule="nonzero" fill="rgb(25.098041%, 25.098041%, 25.098041%)" fill-opacity="1" d="M 472.957031 84.390625 C 472.957031 80.160156 466.609375 80.160156 466.609375 84.390625 C 466.609375 88.617188 472.957031 88.617188 472.957031 84.390625 Z M 472.957031 84.390625 "/>
<path fill-rule="nonzero" fill="rgb(25.098041%, 25.098041%, 25.098041%)" fill-opacity="1" d="M 433.066406 169.769531 C 433.066406 165.539062 426.71875 165.539062 426.71875 169.769531 C 426.71875 174 433.066406 174 433.066406 169.769531 Z M 433.066406 169.769531 "/>
<path fill-rule="nonzero" fill="rgb(25.098041%, 25.098041%, 25.098041%)" fill-opacity="1" d="M 390.300781 46.4375 C 390.300781 42.207031 383.957031 42.207031 383.957031 46.4375 C 383.957031 50.664062 390.300781 50.664062 390.300781 46.4375 Z M 390.300781 46.4375 "/>
<path fill-rule="nonzero" fill="rgb(25.098041%, 25.098041%, 25.098041%)" fill-opacity="1" d="M 395.59375 148.945312 C 395.59375 144.714844 389.246094 144.714844 389.246094 148.945312 C 389.246094 153.175781 395.59375 153.175781 395.59375 148.945312 Z M 395.59375 148.945312 "/>
<path fill-rule="nonzero" fill="rgb(25.098041%, 25.098041%, 25.098041%)" fill-opacity="1" d="M 441.238281 186.863281 C 441.238281 182.632812 434.890625 182.632812 434.890625 186.863281 C 434.890625 191.09375 441.238281 191.09375 441.238281 186.863281 Z M 441.238281 186.863281 "/>
<path fill-rule="nonzero" fill="rgb(25.098041%, 25.098041%, 25.098041%)" fill-opacity="1" d="M 471.601562 86.34375 C 471.601562 82.113281 465.257812 82.113281 465.257812 86.34375 C 465.257812 90.574219 471.601562 90.574219 471.601562 86.34375 Z M 471.601562 86.34375 "/>
<path fill-rule="nonzero" fill="rgb(25.098041%, 25.098041%, 25.098041%)" fill-opacity="1" d="M 456.125 170.332031 C 456.125 166.101562 449.78125 166.101562 449.78125 170.332031 C 449.78125 174.5625 456.125 174.5625 456.125 170.332031 Z M 456.125 170.332031 "/>
<path fill-rule="nonzero" fill="rgb(25.098041%, 25.098041%, 25.098041%)" fill-opacity="1" d="M 403.820312 122.40625 C 403.820312 118.175781 397.476562 118.175781 397.476562 122.40625 C 397.476562 126.636719 403.820312 126.636719 403.820312 122.40625 Z M 403.820312 122.40625 "/>
<path fill-rule="nonzero" fill="rgb(25.098041%, 25.098041%, 25.098041%)" fill-opacity="1" d="M 509.519531 72.636719 C 509.519531 68.40625 503.175781 68.40625 503.175781 72.636719 C 503.175781 76.867188 509.519531 76.867188 509.519531 72.636719 Z M 509.519531 72.636719 "/>
<path fill-rule="nonzero" fill="rgb(25.098041%, 25.098041%, 25.098041%)" fill-opacity="1" d="M 552.257812 186.054688 C 552.257812 181.824219 545.914062 181.824219 545.914062 186.054688 C 545.914062 190.285156 552.257812 190.285156 552.257812 186.054688 Z M 552.257812 186.054688 "/>
<path fill-rule="nonzero" fill="rgb(25.098041%, 25.098041%, 25.098041%)" fill-opacity="1" d="M 360.378906 85.894531 C 360.378906 81.664062 354.035156 81.664062 354.035156 85.894531 C 354.035156 90.121094 360.378906 90.121094 360.378906 85.894531 Z M 360.378906 85.894531 "/>
<path fill-rule="nonzero" fill="rgb(25.098041%, 25.098041%, 25.098041%)" fill-opacity="1" d="M 399.667969 45.339844 C 399.667969 41.109375 393.324219 41.109375 393.324219 45.339844 C 393.324219 49.570312 399.667969 49.570312 399.667969 45.339844 Z M 399.667969 45.339844 "/>
<path fill-rule="nonzero" fill="rgb(25.098041%, 25.098041%, 25.098041%)" fill-opacity="1" d="M 365.003906 166.675781 C 365.003906 162.445312 358.660156 162.445312 358.660156 166.675781 C 358.660156 170.90625 365.003906 170.90625 365.003906 166.675781 Z M 365.003906 166.675781 "/>
<path fill-rule="nonzero" fill="rgb(25.098041%, 25.098041%, 25.098041%)" fill-opacity="1" d="M 545.414062 157.269531 C 545.414062 153.039062 539.070312 153.039062 539.070312 157.269531 C 539.070312 161.5 545.414062 161.5 545.414062 157.269531 Z M 545.414062 157.269531 "/>
<path fill-rule="nonzero" fill="rgb(25.098041%, 25.098041%, 25.098041%)" fill-opacity="1" d="M 527.863281 149.847656 C 527.863281 145.617188 521.519531 145.617188 521.519531 149.847656 C 521.519531 154.078125 527.863281 154.078125 527.863281 149.847656 Z M 527.863281 149.847656 "/>
<path fill-rule="nonzero" fill="rgb(25.098041%, 25.098041%, 25.098041%)" fill-opacity="1" d="M 488.144531 119.707031 C 488.144531 115.476562 481.800781 115.476562 481.800781 119.707031 C 481.800781 123.9375 488.144531 123.9375 488.144531 119.707031 Z M 488.144531 119.707031 "/>
<path fill-rule="nonzero" fill="rgb(25.098041%, 25.098041%, 25.098041%)" fill-opacity="1" d="M 536.308594 102.316406 C 536.308594 98.085938 529.964844 98.085938 529.964844 102.316406 C 529.964844 106.542969 536.308594 106.542969 536.308594 102.316406 Z M 536.308594 102.316406 "/>
<path fill-rule="nonzero" fill="rgb(25.098041%, 25.098041%, 25.098041%)" fill-opacity="1" d="M 558.441406 71.664062 C 558.441406 67.433594 552.097656 67.433594 552.097656 71.664062 C 552.097656 75.894531 558.441406 75.894531 558.441406 71.664062 Z M 558.441406 71.664062 "/>
<path fill-rule="nonzero" fill="rgb(25.098041%, 25.098041%, 25.098041%)" fill-opacity="1" d="M 353.3125 121.113281 C 353.3125 116.882812 346.96875 116.882812 346.96875 121.113281 C 346.96875 125.34375 353.3125 125.34375 353.3125 121.113281 Z M 353.3125 121.113281 "/>
<path fill-rule="nonzero" fill="rgb(25.098041%, 25.098041%, 25.098041%)" fill-opacity="1" d="M 517.738281 176.203125 C 517.738281 171.972656 511.394531 171.972656 511.394531 176.203125 C 511.394531 180.433594 517.738281 180.433594 517.738281 176.203125 Z M 517.738281 176.203125 "/>
<g fill="rgb(0%, 0%, 0%)" fill-opacity="1">
<use xlink:href="#glyph-14-0-8b659028" x="336.078308" y="411.089996"/>
</g>
<g fill="rgb(0%, 0%, 0%)" fill-opacity="1">
<use xlink:href="#glyph-11-0-8b659028" x="343.778351" y="411.089996"/>
</g>
<g fill="rgb(0%, 0%, 0%)" fill-opacity="1">
<use xlink:href="#glyph-10-2-8b659028" x="346.676331" y="411.089996"/>
</g>
<g fill="rgb(0%, 0%, 0%)" fill-opacity="1">
<use xlink:href="#glyph-14-0-8b659028" x="450.415314" y="411.089996"/>
</g>
<g fill="rgb(0%, 0%, 0%)" fill-opacity="1">
<use xlink:href="#glyph-10-3-8b659028" x="458.115326" y="411.089996"/>
</g>
<g fill="rgb(0%, 0%, 0%)" fill-opacity="1">
<use xlink:href="#glyph-11-1-8b659028" x="461.013336" y="411.089996"/>
</g>
<g fill="rgb(0%, 0%, 0%)" fill-opacity="1">
<use xlink:href="#glyph-10-1-8b659028" x="564.829285" y="411.089996"/>
</g>
<g fill="rgb(0%, 0%, 0%)" fill-opacity="1">
<use xlink:href="#glyph-10-3-8b659028" x="570.611267" y="411.089996"/>
</g>
<g fill="rgb(0%, 0%, 0%)" fill-opacity="1">
<use xlink:href="#glyph-10-2-8b659028" x="573.509277" y="411.089996"/>
</g>
<path fill-rule="nonzero" fill="rgb(25.098041%, 25.098041%, 25.098041%)" fill-opacity="1" d="M 466.699219 289.730469 C 466.699219 285.503906 460.351562 285.503906 460.351562 289.730469 C 460.351562 293.960938 466.699219 293.960938 466.699219 289.730469 Z M 466.699219 289.730469 "/>
<path fill-rule="nonzero" fill="rgb(25.098041%, 25.098041%, 25.098041%)" fill-opacity="1" d="M 536.164062 272.851562 C 536.164062 268.621094 529.820312 268.621094 529.820312 272.851562 C 529.820312 277.082031 536.164062 277.082031 536.164062 272.851562 Z M 536.164062 272.851562 "/>
<path fill-rule="nonzero" fill="rgb(25.098041%, 25.098041%, 25.098041%)" fill-opacity="1" d="M 438.6875 368.042969 C 438.6875 363.8125 432.34375 363.8125 432.34375 368.042969 C 432.34375 372.273438 438.6875 372.273438 438.6875 368.042969 Z M 438.6875 368.042969 "/>
<path fill-rule="nonzero" fill="rgb(25.098041%, 25.098041%, 25.098041%)" fill-opacity="1" d="M 361.832031 363.710938 C 361.832031 359.480469 355.484375 359.480469 355.484375 363.710938 C 355.484375 367.941406 361.832031 367.941406 361.832031 363.710938 Z M 361.832031 363.710938 "/>
<path fill-rule="nonzero" fill="rgb(25.098041%, 25.098041%, 25.098041%)" fill-opacity="1" d="M 575.808594 247.839844 C 575.808594 243.609375 569.464844 243.609375 569.464844 247.839844 C 569.464844 252.070312 575.808594 252.070312 575.808594 247.839844 Z M 575.808594 247.839844 "/>
<path fill-rule="nonzero" fill="rgb(25.098041%, 25.098041%, 25.098041%)" fill-opacity="1" d="M 398.640625 252.207031 C 398.640625 247.976562 392.296875 247.976562 392.296875 252.207031 C 392.296875 256.4375 398.640625 256.4375 398.640625 252.207031 Z M 398.640625 252.207031 "/>
<path fill-rule="nonzero" fill="rgb(25.098041%, 25.098041%, 25.098041%)" fill-opacity="1" d="M 407.066406 344.144531 C 407.066406 339.914062 400.722656 339.914062 400.722656 344.144531 C 400.722656 348.371094 407.066406 348.371094 407.066406 344.144531 Z M 407.066406 344.144531 "/>
<path fill-rule="nonzero" fill="rgb(25.098041%, 25.098041%, 25.098041%)" fill-opacity="1" d="M 533.660156 321.136719 C 533.660156 316.90625 527.3125 316.90625 527.3125 321.136719 C 527.3125 325.363281 533.660156 325.363281 533.660156 321.136719 Z M 533.660156 321.136719 "/>
<path fill-rule="nonzero" fill="rgb(25.098041%, 25.098041%, 25.098041%)" fill-opacity="1" d="M 516.910156 299.550781 C 516.910156 295.320312 510.566406 295.320312 510.566406 299.550781 C 510.566406 303.78125 516.910156 303.78125 516.910156 299.550781 Z M 516.910156 299.550781 "/>
<path fill-rule="nonzero" fill="rgb(25.098041%, 25.098041%, 25.098041%)" fill-opacity="1" d="M 359.269531 302.292969 C 359.269531 298.0625 352.921875 298.0625 352.921875 302.292969 C 352.921875 306.519531 359.269531 306.519531 359.269531 302.292969 Z M 359.269531 302.292969 "/>
<path fill-rule="nonzero" fill="rgb(25.098041%, 25.098041%, 25.098041%)" fill-opacity="1" d="M 474.332031 278.332031 C 474.332031 274.101562 467.988281 274.101562 467.988281 278.332031 C 467.988281 282.5625 474.332031 282.5625 474.332031 278.332031 Z M 474.332031 278.332031 "/>
<path fill-rule="nonzero" fill="rgb(25.098041%, 25.098041%, 25.098041%)" fill-opacity="1" d="M 370.195312 375.753906 C 370.195312 371.523438 363.847656 371.523438 363.847656 375.753906 C 363.847656 379.980469 370.195312 379.980469 370.195312 375.753906 Z M 370.195312 375.753906 "/>
<path fill-rule="nonzero" fill="rgb(25.098041%, 25.098041%, 25.098041%)" fill-opacity="1" d="M 380.066406 250.519531 C 380.066406 246.289062 373.71875 246.289062 373.71875 250.519531 C 373.71875 254.75 380.066406 254.75 380.066406 250.519531 Z M 380.066406 250.519531 "/>
<path fill-rule="nonzero" fill="rgb(25.098041%, 25.098041%, 25.098041%)" fill-opacity="1" d="M 476.824219 319.734375 C 476.824219 315.503906 470.480469 315.503906 470.480469 319.734375 C 470.480469 323.964844 476.824219 323.964844 476.824219 319.734375 Z M 476.824219 319.734375 "/>
<path fill-rule="nonzero" fill="rgb(25.098041%, 25.098041%, 25.098041%)" fill-opacity="1" d="M 458.769531 241.265625 C 458.769531 237.039062 452.425781 237.039062 452.425781 241.265625 C 452.425781 245.496094 458.769531 245.496094 458.769531 241.265625 Z M 458.769531 241.265625 "/>
<path fill-rule="nonzero" fill="rgb(25.098041%, 25.098041%, 25.098041%)" fill-opacity="1" d="M 380.1875 377.6875 C 380.1875 373.460938 373.84375 373.460938 373.84375 377.6875 C 373.84375 381.917969 380.1875 381.917969 380.1875 377.6875 Z M 380.1875 377.6875 "/>
<path fill-rule="nonzero" fill="rgb(25.098041%, 25.098041%, 25.098041%)" fill-opacity="1" d="M 530.683594 315.128906 C 530.683594 310.898438 524.339844 310.898438 524.339844 315.128906 C 524.339844 319.355469 530.683594 319.355469 530.683594 315.128906 Z M 530.683594 315.128906 "/>
<path fill-rule="nonzero" fill="rgb(25.098041%, 25.098041%, 25.098041%)" fill-opacity="1" d="M 530.535156 372.753906 C 530.535156 368.523438 524.1875 368.523438 524.1875 372.753906 C 524.1875 376.984375 530.535156 376.984375 530.535156 372.753906 Z M 530.535156 372.753906 "/>
<path fill-rule="nonzero" fill="rgb(25.098041%, 25.098041%, 25.098041%)" fill-opacity="1" d="M 499.234375 258.496094 C 499.234375 254.265625 492.890625 254.265625 492.890625 258.496094 C 492.890625 262.726562 499.234375 262.726562 499.234375 258.496094 Z M 499.234375 258.496094 "/>
<path fill-rule="nonzero" fill="rgb(25.098041%, 25.098041%, 25.098041%)" fill-opacity="1" d="M 505.425781 294.515625 C 505.425781 290.285156 499.082031 290.285156 499.082031 294.515625 C 499.082031 298.746094 505.425781 298.746094 505.425781 294.515625 Z M 505.425781 294.515625 "/>
<path fill-rule="nonzero" fill="rgb(25.098041%, 25.098041%, 25.098041%)" fill-opacity="1" d="M 476.988281 374.660156 C 476.988281 370.429688 470.644531 370.429688 470.644531 374.660156 C 470.644531 378.886719 476.988281 378.886719 476.988281 374.660156 Z M 476.988281 374.660156 "/>
<path fill-rule="nonzero" fill="rgb(25.098041%, 25.098041%, 25.098041%)" fill-opacity="1" d="M 402.832031 360.378906 C 402.832031 356.148438 396.488281 356.148438 396.488281 360.378906 C 396.488281 364.609375 402.832031 364.609375 402.832031 360.378906 Z M 402.832031 360.378906 "/>
<path fill-rule="nonzero" fill="rgb(25.098041%, 25.098041%, 25.098041%)" fill-opacity="1" d="M 395.953125 331.515625 C 395.953125 327.285156 389.609375 327.285156 389.609375 331.515625 C 389.609375 335.746094 395.953125 335.746094 395.953125 331.515625 Z M 395.953125 331.515625 "/>
<path fill-rule="nonzero" fill="rgb(25.098041%, 25.098041%, 25.098041%)" fill-opacity="1" d="M 436.683594 313.632812 C 436.683594 309.402344 430.335938 309.402344 430.335938 313.632812 C 430.335938 317.863281 436.683594 317.863281 436.683594 313.632812 Z M 436.683594 313.632812 "/>
<path fill-rule="nonzero" fill="rgb(25.098041%, 25.098041%, 25.098041%)" fill-opacity="1" d="M 451.898438 275.421875 C 451.898438 271.195312 445.554688 271.195312 445.554688 275.421875 C 445.554688 279.652344 451.898438 279.652344 451.898438 275.421875 Z M 451.898438 275.421875 "/>
<path fill-rule="nonzero" fill="rgb(25.098041%, 25.098041%, 25.098041%)" fill-opacity="1" d="M 446.238281 280.0625 C 446.238281 275.832031 439.894531 275.832031 439.894531 280.0625 C 439.894531 284.289062 446.238281 284.289062 446.238281 280.0625 Z M 446.238281 280.0625 "/>
<path fill-rule="nonzero" fill="rgb(25.098041%, 25.098041%, 25.098041%)" fill-opacity="1" d="M 371.472656 263.578125 C 371.472656 259.347656 365.128906 259.347656 365.128906 263.578125 C 365.128906 267.808594 371.472656 267.808594 371.472656 263.578125 Z M 371.472656 263.578125 "/>
<path fill-rule="nonzero" fill="rgb(25.098041%, 25.098041%, 25.098041%)" fill-opacity="1" d="M 519.703125 283.457031 C 519.703125 279.230469 513.359375 279.230469 513.359375 283.457031 C 513.359375 287.6875 519.703125 287.6875 519.703125 283.457031 Z M 519.703125 283.457031 "/>
<path fill-rule="nonzero" fill="rgb(25.098041%, 25.098041%, 25.098041%)" fill-opacity="1" d="M 468.636719 309.761719 C 468.636719 305.53125 462.292969 305.53125 462.292969 309.761719 C 462.292969 313.992188 468.636719 313.992188 468.636719 309.761719 Z M 468.636719 309.761719 "/>
<path fill-rule="nonzero" fill="rgb(25.098041%, 25.098041%, 25.098041%)" fill-opacity="1" d="M 379.964844 361.171875 C 379.964844 356.941406 373.621094 356.941406 373.621094 361.171875 C 373.621094 365.402344 379.964844 365.402344 379.964844 361.171875 Z M 379.964844 361.171875 "/>
<path fill-rule="nonzero" fill="rgb(25.098041%, 25.098041%, 25.098041%)" fill-opacity="1" d="M 543.546875 358.503906 C 543.546875 354.273438 537.203125 354.273438 537.203125 358.503906 C 537.203125 362.734375 543.546875 362.734375 543.546875 358.503906 Z M 543.546875 358.503906 "/>
<path fill-rule="nonzero" fill="rgb(25.098041%, 25.098041%, 25.098041%)" fill-opacity="1" d="M 533.75 307.847656 C 533.75 303.617188 527.40625 303.617188 527.40625 307.847656 C 527.40625 312.078125 533.75 312.078125 533.75 307.847656 Z M 533.75 307.847656 "/>
<path fill-rule="nonzero" fill="rgb(25.098041%, 25.098041%, 25.098041%)" fill-opacity="1" d="M 488.03125 328.394531 C 488.03125 324.164062 481.6875 324.164062 481.6875 328.394531 C 481.6875 332.625 488.03125 332.625 488.03125 328.394531 Z M 488.03125 328.394531 "/>
<path fill-rule="nonzero" fill="rgb(25.098041%, 25.098041%, 25.098041%)" fill-opacity="1" d="M 431.332031 373.339844 C 431.332031 369.109375 424.988281 369.109375 424.988281 373.339844 C 424.988281 377.570312 431.332031 377.570312 431.332031 373.339844 Z M 431.332031 373.339844 "/>
<path fill-rule="nonzero" fill="rgb(25.098041%, 25.098041%, 25.098041%)" fill-opacity="1" d="M 457.757812 340.46875 C 457.757812 336.242188 451.410156 336.242188 451.410156 340.46875 C 451.410156 344.699219 457.757812 344.699219 457.757812 340.46875 Z M 457.757812 340.46875 "/>
<path fill-rule="nonzero" fill="rgb(25.098041%, 25.098041%, 25.098041%)" fill-opacity="1" d="M 461.457031 339.730469 C 461.457031 335.5 455.113281 335.5 455.113281 339.730469 C 455.113281 343.960938 461.457031 343.960938 461.457031 339.730469 Z M 461.457031 339.730469 "/>
<path fill-rule="nonzero" fill="rgb(25.098041%, 25.098041%, 25.098041%)" fill-opacity="1" d="M 366.890625 271.90625 C 366.890625 267.675781 360.546875 267.675781 360.546875 271.90625 C 360.546875 276.132812 366.890625 276.132812 366.890625 271.90625 Z M 366.890625 271.90625 "/>
<path fill-rule="nonzero" fill="rgb(25.098041%, 25.098041%, 25.098041%)" fill-opacity="1" d="M 523.007812 366.5625 C 523.007812 362.332031 516.660156 362.332031 516.660156 366.5625 C 516.660156 370.792969 523.007812 370.792969 523.007812 366.5625 Z M 523.007812 366.5625 "/>
<path fill-rule="nonzero" fill="rgb(25.098041%, 25.098041%, 25.098041%)" fill-opacity="1" d="M 374.105469 289.933594 C 374.105469 285.703125 367.761719 285.703125 367.761719 289.933594 C 367.761719 294.160156 374.105469 294.160156 374.105469 289.933594 Z M 374.105469 289.933594 "/>
<path fill-rule="nonzero" fill="rgb(25.098041%, 25.098041%, 25.098041%)" fill-opacity="1" d="M 404.28125 325.59375 C 404.28125 321.363281 397.9375 321.363281 397.9375 325.59375 C 397.9375 329.824219 404.28125 329.824219 404.28125 325.59375 Z M 404.28125 325.59375 "/>
<path fill-rule="nonzero" fill="rgb(25.098041%, 25.098041%, 25.098041%)" fill-opacity="1" d="M 453.980469 259.042969 C 453.980469 254.816406 447.636719 254.816406 447.636719 259.042969 C 447.636719 263.273438 453.980469 263.273438 453.980469 259.042969 Z M 453.980469 259.042969 "/>
<path fill-rule="nonzero" fill="rgb(25.098041%, 25.098041%, 25.098041%)" fill-opacity="1" d="M 537.09375 292.488281 C 537.09375 288.261719 530.75 288.261719 530.75 292.488281 C 530.75 296.71875 537.09375 296.71875 537.09375 292.488281 Z M 537.09375 292.488281 "/>
<path fill-rule="nonzero" fill="rgb(25.098041%, 25.098041%, 25.098041%)" fill-opacity="1" d="M 540.871094 375.761719 C 540.871094 371.53125 534.527344 371.53125 534.527344 375.761719 C 534.527344 379.992188 540.871094 379.992188 540.871094 375.761719 Z M 540.871094 375.761719 "/>
<path fill-rule="nonzero" fill="rgb(25.098041%, 25.098041%, 25.098041%)" fill-opacity="1" d="M 514.496094 346.105469 C 514.496094 341.875 508.152344 341.875 508.152344 346.105469 C 508.152344 350.335938 514.496094 350.335938 514.496094 346.105469 Z M 514.496094 346.105469 "/>
<path fill-rule="nonzero" fill="rgb(25.098041%, 25.098041%, 25.098041%)" fill-opacity="1" d="M 556.273438 280.019531 C 556.273438 275.789062 549.929688 275.789062 549.929688 280.019531 C 549.929688 284.25 556.273438 284.25 556.273438 280.019531 Z M 556.273438 280.019531 "/>
<path fill-rule="nonzero" fill="rgb(25.098041%, 25.098041%, 25.098041%)" fill-opacity="1" d="M 453.574219 241.605469 C 453.574219 237.375 447.230469 237.375 447.230469 241.605469 C 447.230469 245.832031 453.574219 245.832031 453.574219 241.605469 Z M 453.574219 241.605469 "/>
<path fill-rule="nonzero" fill="rgb(25.098041%, 25.098041%, 25.098041%)" fill-opacity="1" d="M 535.394531 307.4375 C 535.394531 303.207031 529.050781 303.207031 529.050781 307.4375 C 529.050781 311.667969 535.394531 311.667969 535.394531 307.4375 Z M 535.394531 307.4375 "/>
<path fill-rule="nonzero" fill="rgb(25.098041%, 25.098041%, 25.098041%)" fill-opacity="1" d="M 404.4375 268.507812 C 404.4375 264.277344 398.089844 264.277344 398.089844 268.507812 C 398.089844 272.738281 404.4375 272.738281 404.4375 268.507812 Z M 404.4375 268.507812 "/>
<path fill-rule="nonzero" fill="rgb(25.098041%, 25.098041%, 25.098041%)" fill-opacity="1" d="M 538.152344 271.105469 C 538.152344 266.875 531.804688 266.875 531.804688 271.105469 C 531.804688 275.332031 538.152344 275.332031 538.152344 271.105469 Z M 538.152344 271.105469 "/>
<path fill-rule="nonzero" fill="rgb(25.098041%, 25.098041%, 25.098041%)" fill-opacity="1" d="M 445.691406 368.929688 C 445.691406 364.703125 439.347656 364.703125 439.347656 368.929688 C 439.347656 373.160156 445.691406 373.160156 445.691406 368.929688 Z M 445.691406 368.929688 "/>
<path fill-rule="nonzero" fill="rgb(25.098041%, 25.098041%, 25.098041%)" fill-opacity="1" d="M 360.199219 350.445312 C 360.199219 346.214844 353.855469 346.214844 353.855469 350.445312 C 353.855469 354.675781 360.199219 354.675781 360.199219 350.445312 Z M 360.199219 350.445312 "/>
<path fill-rule="nonzero" fill="rgb(25.098041%, 25.098041%, 25.098041%)" fill-opacity="1" d="M 387.4375 380.226562 C 387.4375 375.996094 381.089844 375.996094 381.089844 380.226562 C 381.089844 384.457031 387.4375 384.457031 387.4375 380.226562 Z M 387.4375 380.226562 "/>
<path fill-rule="nonzero" fill="rgb(25.098041%, 25.098041%, 25.098041%)" fill-opacity="1" d="M 367.386719 307.976562 C 367.386719 303.746094 361.039062 303.746094 361.039062 307.976562 C 361.039062 312.203125 367.386719 312.203125 367.386719 307.976562 Z M 367.386719 307.976562 "/>
<path fill-rule="nonzero" fill="rgb(25.098041%, 25.098041%, 25.098041%)" fill-opacity="1" d="M 498.546875 332.457031 C 498.546875 328.226562 492.203125 328.226562 492.203125 332.457031 C 492.203125 336.6875 498.546875 336.6875 498.546875 332.457031 Z M 498.546875 332.457031 "/>
<path fill-rule="nonzero" fill="rgb(25.098041%, 25.098041%, 25.098041%)" fill-opacity="1" d="M 574.421875 273.632812 C 574.421875 269.402344 568.078125 269.402344 568.078125 273.632812 C 568.078125 277.863281 574.421875 277.863281 574.421875 273.632812 Z M 574.421875 273.632812 "/>
<path fill-rule="nonzero" fill="rgb(25.098041%, 25.098041%, 25.098041%)" fill-opacity="1" d="M 500.761719 332.5625 C 500.761719 328.335938 494.417969 328.335938 494.417969 332.5625 C 494.417969 336.792969 500.761719 336.792969 500.761719 332.5625 Z M 500.761719 332.5625 "/>
<path fill-rule="nonzero" fill="rgb(25.098041%, 25.098041%, 25.098041%)" fill-opacity="1" d="M 441.167969 261.933594 C 441.167969 257.703125 434.824219 257.703125 434.824219 261.933594 C 434.824219 266.164062 441.167969 266.164062 441.167969 261.933594 Z M 441.167969 261.933594 "/>
<path fill-rule="nonzero" fill="rgb(25.098041%, 25.098041%, 25.098041%)" fill-opacity="1" d="M 440.589844 240.164062 C 440.589844 235.933594 434.246094 235.933594 434.246094 240.164062 C 434.246094 244.394531 440.589844 244.394531 440.589844 240.164062 Z M 440.589844 240.164062 "/>
<path fill-rule="nonzero" fill="rgb(25.098041%, 25.098041%, 25.098041%)" fill-opacity="1" d="M 540.023438 255.347656 C 540.023438 251.117188 533.675781 251.117188 533.675781 255.347656 C 533.675781 259.578125 540.023438 259.578125 540.023438 255.347656 Z M 540.023438 255.347656 "/>
<path fill-rule="nonzero" fill="rgb(25.098041%, 25.098041%, 25.098041%)" fill-opacity="1" d="M 432.484375 346.632812 C 432.484375 342.402344 426.140625 342.402344 426.140625 346.632812 C 426.140625 350.863281 432.484375 350.863281 432.484375 346.632812 Z M 432.484375 346.632812 "/>
<path fill-rule="nonzero" fill="rgb(25.098041%, 25.098041%, 25.098041%)" fill-opacity="1" d="M 445.898438 262.304688 C 445.898438 258.074219 439.554688 258.074219 439.554688 262.304688 C 439.554688 266.535156 445.898438 266.535156 445.898438 262.304688 Z M 445.898438 262.304688 "/>
<path fill-rule="nonzero" fill="rgb(25.098041%, 25.098041%, 25.098041%)" fill-opacity="1" d="M 529.828125 317.316406 C 529.828125 313.085938 523.484375 313.085938 523.484375 317.316406 C 523.484375 321.546875 529.828125 321.546875 529.828125 317.316406 Z M 529.828125 317.316406 "/>
<g fill="rgb(0%, 0%, 0%)" fill-opacity="1">
<use xlink:href="#glyph-15-0-8b659028" x="186.480515" y="29.089993"/>
</g>
<g fill="rgb(0%, 0%, 0%)" fill-opacity="1">
<use xlink:href="#glyph-16-0-8b659028" x="456.345459" y="29.089993"/>
</g>
<g fill="rgb(0%, 0%, 0%)" fill-opacity="1">
<use xlink:href="#glyph-17-0-8b659028" x="186.564484" y="225.290024"/>
</g>
<g fill="rgb(0%, 0%, 0%)" fill-opacity="1">
<use xlink:href="#glyph-18-0-8b659028" x="454.707458" y="225.290024"/>
</g>
<g fill="rgb(0%, 0%, 0%)" fill-opacity="1">
<use xlink:href="#glyph-19-0-8b659028" x="29.090006" y="217.142029"/>
</g>
<g fill="rgb(0%, 0%, 0%)" fill-opacity="1">
<use xlink:href="#glyph-20-0-8b659028" x="321.048981" y="430.29007"/>
</g>
<path fill="none" stroke-width="1" stroke-linecap="butt" stroke-linejoin="miter" stroke="rgb(66.274512%, 66.274512%, 66.274512%)" stroke-opacity="1" stroke-miterlimit="1.154701" d="M 64.5 186.953125 L 59.5 186.953125 "/>
<path fill="none" stroke-width="1" stroke-linecap="butt" stroke-linejoin="miter" stroke="rgb(66.274512%, 66.274512%, 66.274512%)" stroke-opacity="1" stroke-miterlimit="1.154701" d="M 64.5 114.957031 L 59.5 114.957031 "/>
<path fill="none" stroke-width="1" stroke-linecap="butt" stroke-linejoin="miter" stroke="rgb(66.274512%, 66.274512%, 66.274512%)" stroke-opacity="1" stroke-miterlimit="1.154701" d="M 64.5 42.964844 L 59.5 42.964844 "/>
<path fill="none" stroke-width="1" stroke-linecap="butt" stroke-linejoin="miter" stroke="rgb(66.274512%, 66.274512%, 66.274512%)" stroke-opacity="1" stroke-miterlimit="1.154701" d="M 76.273438 390.5 L 76.273438 395.5 "/>
<path fill="none" stroke-width="1" stroke-linecap="butt" stroke-linejoin="miter" stroke="rgb(66.274512%, 66.274512%, 66.274512%)" stroke-opacity="1" stroke-miterlimit="1.154701" d="M 190.625 390.5 L 190.625 395.5 "/>
<path fill="none" stroke-width="1" stroke-linecap="butt" stroke-linejoin="miter" stroke="rgb(66.274512%, 66.274512%, 66.274512%)" stroke-opacity="1" stroke-miterlimit="1.154701" d="M 304.976562 390.5 L 304.976562 395.5 "/>
<path fill="none" stroke-width="1" stroke-linecap="butt" stroke-linejoin="miter" stroke="rgb(66.274512%, 66.274512%, 66.274512%)" stroke-opacity="1" stroke-miterlimit="1.154701" d="M 64.5 382.953125 L 59.5 382.953125 "/>
<path fill="none" stroke-width="1" stroke-linecap="butt" stroke-linejoin="miter" stroke="rgb(66.274512%, 66.274512%, 66.274512%)" stroke-opacity="1" stroke-miterlimit="1.154701" d="M 64.5 310.957031 L 59.5 310.957031 "/>
<path fill="none" stroke-width="1" stroke-linecap="butt" stroke-linejoin="miter" stroke="rgb(66.274512%, 66.274512%, 66.274512%)" stroke-opacity="1" stroke-miterlimit="1.154701" d="M 64.5 238.964844 L 59.5 238.964844 "/>
<path fill="none" stroke-width="1" stroke-linecap="butt" stroke-linejoin="miter" stroke="rgb(66.274512%, 66.274512%, 66.274512%)" stroke-opacity="1" stroke-miterlimit="1.154701" d="M 345.226562 390.5 L 345.226562 395.5 "/>
<path fill="none" stroke-width="1" stroke-linecap="butt" stroke-linejoin="miter" stroke="rgb(66.274512%, 66.274512%, 66.274512%)" stroke-opacity="1" stroke-miterlimit="1.154701" d="M 459.125 390.5 L 459.125 395.5 "/>
<path fill="none" stroke-width="1" stroke-linecap="butt" stroke-linejoin="miter" stroke="rgb(66.274512%, 66.274512%, 66.274512%)" stroke-opacity="1" stroke-miterlimit="1.154701" d="M 573.019531 390.5 L 573.019531 395.5 "/>
<path fill="none" stroke-width="1" stroke-linecap="butt" stroke-linejoin="miter" stroke="rgb(66.274512%, 66.274512%, 66.274512%)" stroke-opacity="1" stroke-miterlimit="1.154701" d="M 64.5 194 L 316.5 194 "/>
<path fill="none" stroke-width="1" stroke-linecap="butt" stroke-linejoin="miter" stroke="rgb(66.274512%, 66.274512%, 66.274512%)" stroke-opacity="1" stroke-miterlimit="1.154701" d="M 65 194.5 L 65 36.5 "/>
<path fill="none" stroke-width="1" stroke-linecap="butt" stroke-linejoin="miter" stroke="rgb(66.274512%, 66.274512%, 66.274512%)" stroke-opacity="1" stroke-miterlimit="1.154701" d="M 64.5 390 L 316.5 390 "/>
<path fill="none" stroke-width="1" stroke-linecap="butt" stroke-linejoin="miter" stroke="rgb(66.274512%, 66.274512%, 66.274512%)" stroke-opacity="1" stroke-miterlimit="1.154701" d="M 65 390.5 L 65 232.5 "/>
<path fill="none" stroke-width="1" stroke-linecap="butt" stroke-linejoin="miter" stroke="rgb(66.274512%, 66.274512%, 66.274512%)" stroke-opacity="1" stroke-miterlimit="1.154701" d="M 333.5 194 L 584.5 194 "/>
<path fill="none" stroke-width="1" stroke-linecap="butt" stroke-linejoin="miter" stroke="rgb(66.274512%, 66.274512%, 66.274512%)" stroke-opacity="1" stroke-miterlimit="1.154701" d="M 334 194.5 L 334 36.5 "/>
<path fill="none" stroke-width="1" stroke-linecap="butt" stroke-linejoin="miter" stroke="rgb(66.274512%, 66.274512%, 66.274512%)" stroke-opacity="1" stroke-miterlimit="1.154701" d="M 333.5 390 L 584.5 390 "/>
<path fill="none" stroke-width="1" stroke-linecap="butt" stroke-linejoin="miter" stroke="rgb(66.274512%, 66.274512%, 66.274512%)" stroke-opacity="1" stroke-miterlimit="1.154701" d="M 334 390.5 L 334 232.5 "/>
</svg>
