<?xml version="1.0" encoding="UTF-8"?>
<svg xmlns="http://www.w3.org/2000/svg" xmlns:xlink="http://www.w3.org/1999/xlink" width="600" height="450" viewBox="0 0 600 450">
<defs>
<g>
<g id="glyph-0-0-5c98508f">
<path d="M 4.5625 -3.96875 L 7.046875 0 L 4.96875 0 L 3.4375 -2.9375 L 1.9375 0 L -0.046875 0 L 2.421875 -3.90625 L 0.203125 -7.40625 L 2.25 -7.40625 L 3.515625 -4.890625 L 4.765625 -7.40625 L 6.703125 -7.40625 Z M 4.5625 -3.96875 "/>
</g>
<g id="glyph-1-0-5c98508f">
<path d="M 3.84375 -9.46875 C 4.8125 -9.46875 5.539062 -9.054688 6.03125 -8.234375 C 6.53125 -7.421875 6.78125 -6.222656 6.78125 -4.640625 C 6.78125 -3.078125 6.53125 -1.882812 6.03125 -1.0625 C 5.53125 -0.25 4.800781 0.15625 3.84375 0.15625 C 2.882812 0.15625 2.15625 -0.25 1.65625 -1.0625 C 1.164062 -1.882812 0.921875 -3.082031 0.921875 -4.65625 C 0.921875 -6.238281 1.164062 -7.4375 1.65625 -8.25 C 2.15625 -9.0625 2.882812 -9.46875 3.84375 -9.46875 Z M 3.84375 -8.796875 C 2.457031 -8.796875 1.765625 -7.414062 1.765625 -4.65625 C 1.765625 -1.894531 2.457031 -0.515625 3.84375 -0.515625 C 4.53125 -0.515625 5.046875 -0.847656 5.390625 -1.515625 C 5.742188 -2.191406 5.921875 -3.234375 5.921875 -4.640625 C 5.921875 -6.054688 5.742188 -7.101562 5.390625 -7.78125 C 5.046875 -8.457031 4.53125 -8.796875 3.84375 -8.796875 Z M 3.84375 -8.796875 "/>
</g>
<g id="glyph-1-1-5c98508f">
<path d="M 1.4375 -1.171875 C 1.632812 -1.171875 1.796875 -1.109375 1.921875 -0.984375 C 2.046875 -0.859375 2.109375 -0.703125 2.109375 -0.515625 C 2.109375 -0.316406 2.046875 -0.15625 1.921875 -0.03125 C 1.796875 0.09375 1.632812 0.15625 1.4375 0.15625 C 1.25 0.15625 1.085938 0.09375 0.953125 -0.03125 C 0.828125 -0.164062 0.765625 -0.328125 0.765625 -0.515625 C 0.765625 -0.703125 0.828125 -0.859375 0.953125 -0.984375 C 1.085938 -1.109375 1.25 -1.171875 1.4375 -1.171875 Z M 1.4375 -1.171875 "/>
</g>
<g id="glyph-2-0-5c98508f">
<path d="M 3.84375 -9.46875 C 4.8125 -9.46875 5.539062 -9.054688 6.03125 -8.234375 C 6.53125 -7.421875 6.78125 -6.222656 6.78125 -4.640625 C 6.78125 -3.078125 6.53125 -1.882812 6.03125 -1.0625 C 5.53125 -0.25 4.800781 0.15625 3.84375 0.15625 C 2.882812 0.15625 2.15625 -0.25 1.65625 -1.0625 C 1.164062 -1.882812 0.921875 -3.082031 0.921875 -4.65625 C 0.921875 -6.238281 1.164062 -7.4375 1.65625 -8.25 C 2.15625 -9.0625 2.882812 -9.46875 3.84375 -9.46875 Z M 3.84375 -8.796875 C 2.457031 -8.796875 1.765625 -7.414062 1.765625 -4.65625 C 1.765625 -1.894531 2.457031 -0.515625 3.84375 -0.515625 C 4.53125 -0.515625 5.046875 -0.847656 5.390625 -1.515625 C 5.742188 -2.191406 5.921875 -3.234375 5.921875 -4.640625 C 5.921875 -6.054688 5.742188 -7.101562 5.390625 -7.78125 C 5.046875 -8.457031 4.53125 -8.796875 3.84375 -8.796875 Z M 3.84375 -8.796875 "/>
</g>
<g id="glyph-2-1-5c98508f">
<path d="M 1.4375 -1.171875 C 1.632812 -1.171875 1.796875 -1.109375 1.921875 -0.984375 C 2.046875 -0.859375 2.109375 -0.703125 2.109375 -0.515625 C 2.109375 -0.316406 2.046875 -0.15625 1.921875 -0.03125 C 1.796875 0.09375 1.632812 0.15625 1.4375 0.15625 C 1.25 0.15625 1.085938 0.09375 0.953125 -0.03125 C 0.828125 -0.164062 0.765625 -0.328125 0.765625 -0.515625 C 0.765625 -0.703125 0.828125 -0.859375 0.953125 -0.984375 C 1.085938 -1.109375 1.25 -1.171875 1.4375 -1.171875 Z M 1.4375 -1.171875 "/>
</g>
<g id="glyph-2-2-5c98508f">
<path d="M 4.09375 -9.3125 L 4.09375 0 L 3.28125 0 L 3.28125 -8.40625 L 0.984375 -6.984375 L 0.609375 -7.59375 L 3.390625 -9.3125 Z M 4.09375 -9.3125 "/>
</g>
<g id="glyph-2-3-5c98508f">
<path d="M 6.03125 -1.625 C 6.03125 -1.238281 6.078125 -0.960938 6.171875 -0.796875 C 6.273438 -0.628906 6.4375 -0.503906 6.65625 -0.421875 L 6.46875 0.15625 C 6.132812 0.09375 5.875 -0.03125 5.6875 -0.21875 C 5.507812 -0.40625 5.390625 -0.691406 5.328125 -1.078125 C 4.828125 -0.253906 4.066406 0.15625 3.046875 0.15625 C 2.347656 0.15625 1.796875 -0.0390625 1.390625 -0.4375 C 0.984375 -0.832031 0.78125 -1.363281 0.78125 -2.03125 C 0.78125 -2.78125 1.046875 -3.359375 1.578125 -3.765625 C 2.117188 -4.179688 2.867188 -4.390625 3.828125 -4.390625 L 5.21875 -4.390625 L 5.21875 -5.109375 C 5.21875 -5.691406 5.085938 -6.117188 4.828125 -6.390625 C 4.566406 -6.660156 4.132812 -6.796875 3.53125 -6.796875 C 2.96875 -6.796875 2.304688 -6.65625 1.546875 -6.375 L 1.328125 -6.984375 C 2.148438 -7.304688 2.921875 -7.46875 3.640625 -7.46875 C 5.234375 -7.46875 6.03125 -6.695312 6.03125 -5.15625 Z M 3.1875 -0.5 C 4.070312 -0.5 4.75 -0.929688 5.21875 -1.796875 L 5.21875 -3.8125 L 3.953125 -3.8125 C 3.203125 -3.8125 2.628906 -3.664062 2.234375 -3.375 C 1.847656 -3.082031 1.65625 -2.648438 1.65625 -2.078125 C 1.65625 -1.566406 1.789062 -1.175781 2.0625 -0.90625 C 2.332031 -0.632812 2.707031 -0.5 3.1875 -0.5 Z M 3.1875 -0.5 "/>
</g>
<g id="glyph-2-4-5c98508f">
<path d="M 4.5 -7.46875 C 5.34375 -7.46875 6 -7.140625 6.46875 -6.484375 C 6.9375 -5.835938 7.171875 -4.910156 7.171875 -3.703125 C 7.171875 -2.515625 6.925781 -1.570312 6.4375 -0.875 C 5.945312 -0.1875 5.257812 0.15625 4.375 0.15625 C 3.9375 0.15625 3.535156 0.0546875 3.171875 -0.140625 C 2.816406 -0.335938 2.519531 -0.597656 2.28125 -0.921875 L 2.203125 0 L 1.484375 0 L 1.484375 -10.296875 L 2.296875 -10.40625 L 2.296875 -6.296875 C 2.867188 -7.078125 3.601562 -7.46875 4.5 -7.46875 Z M 4.234375 -0.515625 C 4.890625 -0.515625 5.394531 -0.78125 5.75 -1.3125 C 6.113281 -1.851562 6.296875 -2.648438 6.296875 -3.703125 C 6.296875 -5.765625 5.640625 -6.796875 4.328125 -6.796875 C 3.890625 -6.796875 3.507812 -6.6875 3.1875 -6.46875 C 2.875 -6.25 2.578125 -5.941406 2.296875 -5.546875 L 2.296875 -1.6875 C 2.523438 -1.320312 2.800781 -1.035156 3.125 -0.828125 C 3.457031 -0.617188 3.828125 -0.515625 4.234375 -0.515625 Z M 4.234375 -0.515625 "/>
</g>
<g id="glyph-2-5-5c98508f">
<path d="M 6.703125 -10.296875 L 6.703125 0 L 6 0 L 5.90625 -1.125 C 5.40625 -0.269531 4.671875 0.15625 3.703125 0.15625 C 2.859375 0.15625 2.191406 -0.179688 1.703125 -0.859375 C 1.210938 -1.535156 0.96875 -2.457031 0.96875 -3.625 C 0.96875 -4.382812 1.082031 -5.050781 1.3125 -5.625 C 1.539062 -6.207031 1.867188 -6.660156 2.296875 -6.984375 C 2.734375 -7.304688 3.25 -7.46875 3.84375 -7.46875 C 4.664062 -7.46875 5.347656 -7.140625 5.890625 -6.484375 L 5.890625 -10.40625 Z M 3.84375 -0.515625 C 4.300781 -0.515625 4.691406 -0.625 5.015625 -0.84375 C 5.335938 -1.070312 5.628906 -1.414062 5.890625 -1.875 L 5.890625 -5.703125 C 5.367188 -6.429688 4.726562 -6.796875 3.96875 -6.796875 C 3.3125 -6.796875 2.785156 -6.519531 2.390625 -5.96875 C 2.003906 -5.425781 1.816406 -4.648438 1.828125 -3.640625 C 1.828125 -2.628906 2.003906 -1.851562 2.359375 -1.3125 C 2.710938 -0.78125 3.207031 -0.515625 3.84375 -0.515625 Z M 3.84375 -0.515625 "/>
</g>
<g id="glyph-3-0-5c98508f">
<path d="M 5.671875 -8.640625 L 1.890625 -8.640625 L 1.890625 -5.453125 C 2.398438 -5.742188 2.929688 -5.890625 3.484375 -5.890625 C 4.285156 -5.890625 4.921875 -5.628906 5.390625 -5.109375 C 5.867188 -4.597656 6.109375 -3.894531 6.109375 -3 C 6.109375 -2.394531 5.984375 -1.847656 5.734375 -1.359375 C 5.484375 -0.878906 5.128906 -0.503906 4.671875 -0.234375 C 4.222656 0.0234375 3.703125 0.15625 3.109375 0.15625 C 2.066406 0.15625 1.1875 -0.21875 0.46875 -0.96875 L 0.984375 -1.453125 C 1.273438 -1.140625 1.585938 -0.90625 1.921875 -0.75 C 2.265625 -0.601562 2.660156 -0.53125 3.109375 -0.53125 C 3.773438 -0.53125 4.296875 -0.75 4.671875 -1.1875 C 5.054688 -1.632812 5.25 -2.242188 5.25 -3.015625 C 5.25 -3.753906 5.070312 -4.304688 4.71875 -4.671875 C 4.375 -5.046875 3.898438 -5.234375 3.296875 -5.234375 C 3.003906 -5.234375 2.742188 -5.195312 2.515625 -5.125 C 2.285156 -5.0625 2.03125 -4.945312 1.75 -4.78125 L 1.109375 -4.78125 L 1.109375 -9.3125 L 5.796875 -9.3125 Z M 5.671875 -8.640625 "/>
</g>
<g id="glyph-4-0-5c98508f">
<path d="M 1.4375 -1.171875 C 1.632812 -1.171875 1.796875 -1.109375 1.921875 -0.984375 C 2.046875 -0.859375 2.109375 -0.703125 2.109375 -0.515625 C 2.109375 -0.316406 2.046875 -0.15625 1.921875 -0.03125 C 1.796875 0.09375 1.632812 0.15625 1.4375 0.15625 C 1.25 0.15625 1.085938 0.09375 0.953125 -0.03125 C 0.828125 -0.164062 0.765625 -0.328125 0.765625 -0.515625 C 0.765625 -0.703125 0.828125 -0.859375 0.953125 -0.984375 C 1.085938 -1.109375 1.25 -1.171875 1.4375 -1.171875 Z M 1.4375 -1.171875 "/>
</g>
<g id="glyph-5-0-5c98508f">
<path d="M 0.03125 -4.65625 C 0.945312 -4.363281 1.65625 -3.910156 2.15625 -3.296875 C 2.664062 -2.691406 2.960938 -1.863281 3.046875 -0.8125 L 1.75 -0.625 C 1.675781 -1.113281 1.570312 -1.503906 1.4375 -1.796875 C 1.300781 -2.085938 1.117188 -2.320312 0.890625 -2.5 C 0.671875 -2.675781 0.375 -2.84375 0 -3 L 0 -2.375 L -7.40625 -0.03125 L -7.40625 -1.9375 L -1.1875 -3.546875 L -7.40625 -5.21875 L -7.40625 -7.0625 Z M 0.03125 -4.65625 "/>
</g>
<g id="glyph-6-0-5c98508f">
<path d="M 3.84375 -9.46875 C 4.8125 -9.46875 5.539062 -9.054688 6.03125 -8.234375 C 6.53125 -7.421875 6.78125 -6.222656 6.78125 -4.640625 C 6.78125 -3.078125 6.53125 -1.882812 6.03125 -1.0625 C 5.53125 -0.25 4.800781 0.15625 3.84375 0.15625 C 2.882812 0.15625 2.15625 -0.25 1.65625 -1.0625 C 1.164062 -1.882812 0.921875 -3.082031 0.921875 -4.65625 C 0.921875 -6.238281 1.164062 -7.4375 1.65625 -8.25 C 2.15625 -9.0625 2.882812 -9.46875 3.84375 -9.46875 Z M 3.84375 -8.796875 C 2.457031 -8.796875 1.765625 -7.414062 1.765625 -4.65625 C 1.765625 -1.894531 2.457031 -0.515625 3.84375 -0.515625 C 4.53125 -0.515625 5.046875 -0.847656 5.390625 -1.515625 C 5.742188 -2.191406 5.921875 -3.234375 5.921875 -4.640625 C 5.921875 -6.054688 5.742188 -7.101562 5.390625 -7.78125 C 5.046875 -8.457031 4.53125 -8.796875 3.84375 -8.796875 Z M 3.84375 -8.796875 "/>
</g>
<g id="glyph-7-0-5c98508f">
<path d="M 1.4375 -1.171875 C 1.632812 -1.171875 1.796875 -1.109375 1.921875 -0.984375 C 2.046875 -0.859375 2.109375 -0.703125 2.109375 -0.515625 C 2.109375 -0.316406 2.046875 -0.15625 1.921875 -0.03125 C 1.796875 0.09375 1.632812 0.15625 1.4375 0.15625 C 1.25 0.15625 1.085938 0.09375 0.953125 -0.03125 C 0.828125 -0.164062 0.765625 -0.328125 0.765625 -0.515625 C 0.765625 -0.703125 0.828125 -0.859375 0.953125 -0.984375 C 1.085938 -1.109375 1.25 -1.171875 1.4375 -1.171875 Z M 1.4375 -1.171875 "/>
</g>
<g id="glyph-8-0-5c98508f">
<path d="M 3.84375 -9.46875 C 4.8125 -9.46875 5.539062 -9.054688 6.03125 -8.234375 C 6.53125 -7.421875 6.78125 -6.222656 6.78125 -4.640625 C 6.78125 -3.078125 6.53125 -1.882812 6.03125 -1.0625 C 5.53125 -0.25 4.800781 0.15625 3.84375 0.15625 C 2.882812 0.15625 2.15625 -0.25 1.65625 -1.0625 C 1.164062 -1.882812 0.921875 -3.082031 0.921875 -4.65625 C 0.921875 -6.238281 1.164062 -7.4375 1.65625 -8.25 C 2.15625 -9.0625 2.882812 -9.46875 3.84375 -9.46875 Z M 3.84375 -8.796875 C 2.457031 -8.796875 1.765625 -7.414062 1.765625 -4.65625 C 1.765625 -1.894531 2.457031 -0.515625 3.84375 -0.515625 C 4.53125 -0.515625 5.046875 -0.847656 5.390625 -1.515625 C 5.742188 -2.191406 5.921875 -3.234375 5.921875 -4.640625 C 5.921875 -6.054688 5.742188 -7.101562 5.390625 -7.78125 C 5.046875 -8.457031 4.53125 -8.796875 3.84375 -8.796875 Z M 3.84375 -8.796875 "/>
</g>
<g id="glyph-8-1-5c98508f">
<path d="M 5.671875 -8.640625 L 1.890625 -8.640625 L 1.890625 -5.453125 C 2.398438 -5.742188 2.929688 -5.890625 3.484375 -5.890625 C 4.285156 -5.890625 4.921875 -5.628906 5.390625 -5.109375 C 5.867188 -4.597656 6.109375 -3.894531 6.109375 -3 C 6.109375 -2.394531 5.984375 -1.847656 5.734375 -1.359375 C 5.484375 -0.878906 5.128906 -0.503906 4.671875 -0.234375 C 4.222656 0.0234375 3.703125 0.15625 3.109375 0.15625 C 2.066406 0.15625 1.1875 -0.21875 0.46875 -0.96875 L 0.984375 -1.453125 C 1.273438 -1.140625 1.585938 -0.90625 1.921875 -0.75 C 2.265625 -0.601562 2.660156 -0.53125 3.109375 -0.53125 C 3.773438 -0.53125 4.296875 -0.75 4.671875 -1.1875 C 5.054688 -1.632812 5.25 -2.242188 5.25 -3.015625 C 5.25 -3.753906 5.070312 -4.304688 4.71875 -4.671875 C 4.375 -5.046875 3.898438 -5.234375 3.296875 -5.234375 C 3.003906 -5.234375 2.742188 -5.195312 2.515625 -5.125 C 2.285156 -5.0625 2.03125 -4.945312 1.75 -4.78125 L 1.109375 -4.78125 L 1.109375 -9.3125 L 5.796875 -9.3125 Z M 5.671875 -8.640625 "/>
</g>
<g id="glyph-9-0-5c98508f">
<path d="M 4.09375 -9.3125 L 4.09375 0 L 3.28125 0 L 3.28125 -8.40625 L 0.984375 -6.984375 L 0.609375 -7.59375 L 3.390625 -9.3125 Z M 4.09375 -9.3125 "/>
</g>
<g id="glyph-9-1-5c98508f">
<path d="M 1.4375 -1.171875 C 1.632812 -1.171875 1.796875 -1.109375 1.921875 -0.984375 C 2.046875 -0.859375 2.109375 -0.703125 2.109375 -0.515625 C 2.109375 -0.316406 2.046875 -0.15625 1.921875 -0.03125 C 1.796875 0.09375 1.632812 0.15625 1.4375 0.15625 C 1.25 0.15625 1.085938 0.09375 0.953125 -0.03125 C 0.828125 -0.164062 0.765625 -0.328125 0.765625 -0.515625 C 0.765625 -0.703125 0.828125 -0.859375 0.953125 -0.984375 C 1.085938 -1.109375 1.25 -1.171875 1.4375 -1.171875 Z M 1.4375 -1.171875 "/>
</g>
<g id="glyph-10-0-5c98508f">
<path d="M 3.84375 -9.46875 C 4.8125 -9.46875 5.539062 -9.054688 6.03125 -8.234375 C 6.53125 -7.421875 6.78125 -6.222656 6.78125 -4.640625 C 6.78125 -3.078125 6.53125 -1.882812 6.03125 -1.0625 C 5.53125 -0.25 4.800781 0.15625 3.84375 0.15625 C 2.882812 0.15625 2.15625 -0.25 1.65625 -1.0625 C 1.164062 -1.882812 0.921875 -3.082031 0.921875 -4.65625 C 0.921875 -6.238281 1.164062 -7.4375 1.65625 -8.25 C 2.15625 -9.0625 2.882812 -9.46875 3.84375 -9.46875 Z M 3.84375 -8.796875 C 2.457031 -8.796875 1.765625 -7.414062 1.765625 -4.65625 C 1.765625 -1.894531 2.457031 -0.515625 3.84375 -0.515625 C 4.53125 -0.515625 5.046875 -0.847656 5.390625 -1.515625 C 5.742188 -2.191406 5.921875 -3.234375 5.921875 -4.640625 C 5.921875 -6.054688 5.742188 -7.101562 5.390625 -7.78125 C 5.046875 -8.457031 4.53125 -8.796875 3.84375 -8.796875 Z M 3.84375 -8.796875 "/>
</g>
<g id="glyph-11-0-5c98508f">
<path d="M 5.890625 -7.40625 L 5.890625 -6.125 L 2.3125 -1.40625 L 5.96875 -1.40625 L 5.78125 0 L 0.25 0 L 0.25 -1.28125 L 3.84375 -6 L 0.5625 -6 L 0.5625 -7.40625 Z M 5.890625 -7.40625 "/>
</g>
<g id="glyph-12-0-5c98508f">
<path d="M 3.984375 -7.46875 C 4.410156 -7.46875 4.785156 -7.410156 5.109375 -7.296875 C 5.429688 -7.179688 5.75 -6.992188 6.0625 -6.734375 L 5.65625 -6.203125 C 5.414062 -6.398438 5.164062 -6.546875 4.90625 -6.640625 C 4.644531 -6.734375 4.351562 -6.78125 4.03125 -6.78125 C 3.34375 -6.78125 2.789062 -6.507812 2.375 -5.96875 C 1.96875 -5.4375 1.765625 -4.65625 1.765625 -3.625 C 1.765625 -2.601562 1.96875 -1.835938 2.375 -1.328125 C 2.78125 -0.816406 3.328125 -0.5625 4.015625 -0.5625 C 4.347656 -0.5625 4.644531 -0.613281 4.90625 -0.71875 C 5.175781 -0.820312 5.445312 -0.972656 5.71875 -1.171875 L 6.109375 -0.625 C 5.492188 -0.101562 4.789062 0.15625 4 0.15625 C 3.375 0.15625 2.828125 0.0078125 2.359375 -0.28125 C 1.898438 -0.582031 1.539062 -1.015625 1.28125 -1.578125 C 1.019531 -2.148438 0.890625 -2.828125 0.890625 -3.609375 C 0.890625 -4.390625 1.019531 -5.070312 1.28125 -5.65625 C 1.539062 -6.238281 1.898438 -6.6875 2.359375 -7 C 2.828125 -7.3125 3.367188 -7.46875 3.984375 -7.46875 Z M 3.984375 -7.46875 "/>
</g>
</g>
</defs>
<rect x="-60" y="-45" width="720" height="540" fill="rgb(100%, 100%, 100%)" fill-opacity="1"/>
<path fill-rule="nonzero" fill="rgb(100%, 100%, 100%)" fill-opacity="1" d="M 65 390 L 533 390 L 533 16 L 65 16 Z M 65 390 "/>
<g fill="rgb(0%, 0%, 0%)" fill-opacity="1">
<use xlink:href="#glyph-0-0-5c98508f" x="295.5" y="430.890015"/>
</g>
<g fill="rgb(0%, 0%, 0%)" fill-opacity="1">
<use xlink:href="#glyph-1-0-5c98508f" x="71.952545" y="411.089996"/>
</g>
<g fill="rgb(0%, 0%, 0%)" fill-opacity="1">
<use xlink:href="#glyph-1-1-5c98508f" x="79.652542" y="411.089996"/>
</g>
<g fill="rgb(0%, 0%, 0%)" fill-opacity="1">
<use xlink:href="#glyph-2-0-5c98508f" x="82.550545" y="411.089996"/>
</g>
<g fill="rgb(0%, 0%, 0%)" fill-opacity="1">
<use xlink:href="#glyph-2-0-5c98508f" x="288.536804" y="411.089996"/>
</g>
<g fill="rgb(0%, 0%, 0%)" fill-opacity="1">
<use xlink:href="#glyph-2-1-5c98508f" x="296.236816" y="411.089996"/>
</g>
<g fill="rgb(0%, 0%, 0%)" fill-opacity="1">
<use xlink:href="#glyph-3-0-5c98508f" x="299.134796" y="411.089996"/>
</g>
<g fill="rgb(0%, 0%, 0%)" fill-opacity="1">
<use xlink:href="#glyph-2-2-5c98508f" x="505.198059" y="411.089996"/>
</g>
<g fill="rgb(0%, 0%, 0%)" fill-opacity="1">
<use xlink:href="#glyph-4-0-5c98508f" x="510.980072" y="411.089996"/>
</g>
<g fill="rgb(0%, 0%, 0%)" fill-opacity="1">
<use xlink:href="#glyph-2-0-5c98508f" x="513.878052" y="411.089996"/>
</g>
<g fill="rgb(0%, 0%, 0%)" fill-opacity="1">
<use xlink:href="#glyph-5-0-5c98508f" x="27.991999" y="206.542007"/>
</g>
<g fill="rgb(0%, 0%, 0%)" fill-opacity="1">
<use xlink:href="#glyph-6-0-5c98508f" x="36.702007" y="387.30481"/>
</g>
<g fill="rgb(0%, 0%, 0%)" fill-opacity="1">
<use xlink:href="#glyph-7-0-5c98508f" x="44.402004" y="387.30481"/>
</g>
<g fill="rgb(0%, 0%, 0%)" fill-opacity="1">
<use xlink:href="#glyph-8-0-5c98508f" x="47.300003" y="387.30481"/>
</g>
<g fill="rgb(0%, 0%, 0%)" fill-opacity="1">
<use xlink:href="#glyph-6-0-5c98508f" x="37.584007" y="212.156189"/>
</g>
<g fill="rgb(0%, 0%, 0%)" fill-opacity="1">
<use xlink:href="#glyph-7-0-5c98508f" x="45.284004" y="212.156189"/>
</g>
<g fill="rgb(0%, 0%, 0%)" fill-opacity="1">
<use xlink:href="#glyph-8-1-5c98508f" x="48.182003" y="212.156189"/>
</g>
<g fill="rgb(0%, 0%, 0%)" fill-opacity="1">
<use xlink:href="#glyph-9-0-5c98508f" x="38.620003" y="37.007591"/>
</g>
<g fill="rgb(0%, 0%, 0%)" fill-opacity="1">
<use xlink:href="#glyph-9-1-5c98508f" x="44.402004" y="37.007591"/>
</g>
<g fill="rgb(0%, 0%, 0%)" fill-opacity="1">
<use xlink:href="#glyph-10-0-5c98508f" x="47.300003" y="37.007591"/>
</g>
<path fill-rule="nonzero" fill="rgb(100%, 38.82353%, 27.843139%)" fill-opacity="1" d="M 183.398438 115.039062 C 183.398438 110.808594 177.054688 110.808594 177.054688 115.039062 C 177.054688 119.269531 183.398438 119.269531 183.398438 115.039062 Z M 183.398438 115.039062 "/>
<path fill-rule="nonzero" fill="rgb(100%, 38.82353%, 27.843139%)" fill-opacity="1" d="M 214.613281 317.851562 C 214.613281 313.621094 208.265625 313.621094 208.265625 317.851562 C 208.265625 322.082031 214.613281 322.082031 214.613281 317.851562 Z M 214.613281 317.851562 "/>
<path fill-rule="nonzero" fill="rgb(100%, 38.82353%, 27.843139%)" fill-opacity="1" d="M 419.808594 169.398438 C 419.808594 165.167969 413.460938 165.167969 413.460938 169.398438 C 413.460938 173.625 419.808594 173.625 419.808594 169.398438 Z M 419.808594 169.398438 "/>
<path fill-rule="nonzero" fill="rgb(100%, 38.82353%, 27.843139%)" fill-opacity="1" d="M 190.519531 42.910156 C 190.519531 38.683594 184.175781 38.683594 184.175781 42.910156 C 184.175781 47.140625 190.519531 47.140625 190.519531 42.910156 Z M 190.519531 42.910156 "/>
<path fill-rule="nonzero" fill="rgb(100%, 38.82353%, 27.843139%)" fill-opacity="1" d="M 91.796875 181.433594 C 91.796875 177.203125 85.453125 177.203125 85.453125 181.433594 C 85.453125 185.664062 91.796875 185.664062 91.796875 181.433594 Z M 91.796875 181.433594 "/>
<path fill-rule="nonzero" fill="rgb(100%, 38.82353%, 27.843139%)" fill-opacity="1" d="M 514.632812 206.121094 C 514.632812 201.890625 508.289062 201.890625 508.289062 206.121094 C 508.289062 210.347656 514.632812 210.347656 514.632812 206.121094 Z M 514.632812 206.121094 "/>
<path fill-rule="nonzero" fill="rgb(100%, 38.82353%, 27.843139%)" fill-opacity="1" d="M 423.480469 157.835938 C 423.480469 153.609375 417.136719 153.609375 417.136719 157.835938 C 417.136719 162.066406 423.480469 162.066406 423.480469 157.835938 Z M 423.480469 157.835938 "/>
<path fill-rule="nonzero" fill="rgb(100%, 38.82353%, 27.843139%)" fill-opacity="1" d="M 201.5 295.449219 C 201.5 291.21875 195.15625 291.21875 195.15625 295.449219 C 195.15625 299.679688 201.5 299.679688 201.5 295.449219 Z M 201.5 295.449219 "/>
<path fill-rule="nonzero" fill="rgb(100%, 38.82353%, 27.843139%)" fill-opacity="1" d="M 402.527344 52.398438 C 402.527344 48.167969 396.183594 48.167969 396.183594 52.398438 C 396.183594 56.628906 402.527344 56.628906 402.527344 52.398438 Z M 402.527344 52.398438 "/>
<path fill-rule="nonzero" fill="rgb(100%, 38.82353%, 27.843139%)" fill-opacity="1" d="M 229.269531 211.074219 C 229.269531 206.847656 222.925781 206.847656 222.925781 211.074219 C 222.925781 215.304688 229.269531 215.304688 229.269531 211.074219 Z M 229.269531 211.074219 "/>
<path fill-rule="nonzero" fill="rgb(100%, 38.82353%, 27.843139%)" fill-opacity="1" d="M 230.898438 88.875 C 230.898438 84.648438 224.554688 84.648438 224.554688 88.875 C 224.554688 93.105469 230.898438 93.105469 230.898438 88.875 Z M 230.898438 88.875 "/>
<path fill-rule="nonzero" fill="rgb(100%, 38.82353%, 27.843139%)" fill-opacity="1" d="M 300.820312 78.375 C 300.820312 74.144531 294.476562 74.144531 294.476562 78.375 C 294.476562 82.601562 300.820312 82.601562 300.820312 78.375 Z M 300.820312 78.375 "/>
<path fill-rule="nonzero" fill="rgb(100%, 38.82353%, 27.843139%)" fill-opacity="1" d="M 438.125 80.140625 C 438.125 75.910156 431.78125 75.910156 431.78125 80.140625 C 431.78125 84.371094 438.125 84.371094 438.125 80.140625 Z M 438.125 80.140625 "/>
<path fill-rule="nonzero" fill="rgb(100%, 38.82353%, 27.843139%)" fill-opacity="1" d="M 371.71875 353.773438 C 371.71875 349.542969 365.371094 349.542969 365.371094 353.773438 C 365.371094 358.003906 371.71875 358.003906 371.71875 353.773438 Z M 371.71875 353.773438 "/>
<path fill-rule="nonzero" fill="rgb(100%, 38.82353%, 27.843139%)" fill-opacity="1" d="M 197.363281 259.601562 C 197.363281 255.371094 191.015625 255.371094 191.015625 259.601562 C 191.015625 263.832031 197.363281 263.832031 197.363281 259.601562 Z M 197.363281 259.601562 "/>
<path fill-rule="nonzero" fill="rgb(100%, 38.82353%, 27.843139%)" fill-opacity="1" d="M 112.292969 75.898438 C 112.292969 71.667969 105.945312 71.667969 105.945312 75.898438 C 105.945312 80.128906 112.292969 80.128906 112.292969 75.898438 Z M 112.292969 75.898438 "/>
<path fill-rule="nonzero" fill="rgb(100%, 38.82353%, 27.843139%)" fill-opacity="1" d="M 270.246094 313.003906 C 270.246094 308.773438 263.898438 308.773438 263.898438 313.003906 C 263.898438 317.234375 270.246094 317.234375 270.246094 313.003906 Z M 270.246094 313.003906 "/>
<path fill-rule="nonzero" fill="rgb(100%, 38.82353%, 27.843139%)" fill-opacity="1" d="M 322.417969 289.691406 C 322.417969 285.460938 316.070312 285.460938 316.070312 289.691406 C 316.070312 293.921875 322.417969 293.921875 322.417969 289.691406 Z M 322.417969 289.691406 "/>
<path fill-rule="nonzero" fill="rgb(59.607846%, 55.686277%, 83.529413%)" fill-opacity="1" d="M 337.886719 284.359375 C 337.886719 280.128906 331.542969 280.128906 331.542969 284.359375 C 331.542969 288.589844 337.886719 288.589844 337.886719 284.359375 Z M 337.886719 284.359375 "/>
<path fill-rule="nonzero" fill="rgb(59.607846%, 55.686277%, 83.529413%)" fill-opacity="1" d="M 336.316406 321.605469 C 336.316406 317.375 329.972656 317.375 329.972656 321.605469 C 329.972656 325.835938 336.316406 325.835938 336.316406 321.605469 Z M 336.316406 321.605469 "/>
<path fill-rule="nonzero" fill="rgb(59.607846%, 55.686277%, 83.529413%)" fill-opacity="1" d="M 274.042969 319.328125 C 274.042969 315.097656 267.699219 315.097656 267.699219 319.328125 C 267.699219 323.554688 274.042969 323.554688 274.042969 319.328125 Z M 274.042969 319.328125 "/>
<path fill-rule="nonzero" fill="rgb(59.607846%, 55.686277%, 83.529413%)" fill-opacity="1" d="M 98.164062 314.417969 C 98.164062 310.1875 91.816406 310.1875 91.816406 314.417969 C 91.816406 318.644531 98.164062 318.644531 98.164062 314.417969 Z M 98.164062 314.417969 "/>
<path fill-rule="nonzero" fill="rgb(59.607846%, 55.686277%, 83.529413%)" fill-opacity="1" d="M 313.566406 288.273438 C 313.566406 284.042969 307.222656 284.042969 307.222656 288.273438 C 307.222656 292.503906 313.566406 292.503906 313.566406 288.273438 Z M 313.566406 288.273438 "/>
<path fill-rule="nonzero" fill="rgb(59.607846%, 55.686277%, 83.529413%)" fill-opacity="1" d="M 514.898438 194.710938 C 514.898438 190.480469 508.554688 190.480469 508.554688 194.710938 C 508.554688 198.941406 514.898438 198.941406 514.898438 194.710938 Z M 514.898438 194.710938 "/>
<path fill-rule="nonzero" fill="rgb(59.607846%, 55.686277%, 83.529413%)" fill-opacity="1" d="M 492.554688 65.945312 C 492.554688 61.71875 486.207031 61.71875 486.207031 65.945312 C 486.207031 70.175781 492.554688 70.175781 492.554688 65.945312 Z M 492.554688 65.945312 "/>
<path fill-rule="nonzero" fill="rgb(59.607846%, 55.686277%, 83.529413%)" fill-opacity="1" d="M 471.03125 212.945312 C 471.03125 208.714844 464.6875 208.714844 464.6875 212.945312 C 464.6875 217.175781 471.03125 217.175781 471.03125 212.945312 Z M 471.03125 212.945312 "/>
<path fill-rule="nonzero" fill="rgb(59.607846%, 55.686277%, 83.529413%)" fill-opacity="1" d="M 349.015625 57.445312 C 349.015625 53.214844 342.671875 53.214844 342.671875 57.445312 C 342.671875 61.675781 349.015625 61.675781 349.015625 57.445312 Z M 349.015625 57.445312 "/>
<path fill-rule="nonzero" fill="rgb(59.607846%, 55.686277%, 83.529413%)" fill-opacity="1" d="M 501.390625 365.664062 C 501.390625 361.433594 495.042969 361.433594 495.042969 365.664062 C 495.042969 369.894531 501.390625 369.894531 501.390625 365.664062 Z M 501.390625 365.664062 "/>
<path fill-rule="nonzero" fill="rgb(59.607846%, 55.686277%, 83.529413%)" fill-opacity="1" d="M 122.800781 325.78125 C 122.800781 321.550781 116.457031 321.550781 116.457031 325.78125 C 116.457031 330.011719 122.800781 330.011719 122.800781 325.78125 Z M 122.800781 325.78125 "/>
<path fill-rule="nonzero" fill="rgb(59.607846%, 55.686277%, 83.529413%)" fill-opacity="1" d="M 204.40625 33 C 204.40625 28.769531 198.0625 28.769531 198.0625 33 C 198.0625 37.230469 204.40625 37.230469 204.40625 33 Z M 204.40625 33 "/>
<path fill-rule="nonzero" fill="rgb(59.607846%, 55.686277%, 83.529413%)" fill-opacity="1" d="M 170.898438 167.75 C 170.898438 163.519531 164.550781 163.519531 164.550781 167.75 C 164.550781 171.976562 170.898438 171.976562 170.898438 167.75 Z M 170.898438 167.75 "/>
<path fill-rule="nonzero" fill="rgb(59.607846%, 55.686277%, 83.529413%)" fill-opacity="1" d="M 257.308594 176.230469 C 257.308594 172 250.964844 172 250.964844 176.230469 C 250.964844 180.460938 257.308594 180.460938 257.308594 176.230469 Z M 257.308594 176.230469 "/>
<path fill-rule="nonzero" fill="rgb(59.607846%, 55.686277%, 83.529413%)" fill-opacity="1" d="M 222.699219 88.835938 C 222.699219 84.605469 216.351562 84.605469 216.351562 88.835938 C 216.351562 93.066406 222.699219 93.066406 222.699219 88.835938 Z M 222.699219 88.835938 "/>
<path fill-rule="nonzero" fill="rgb(59.607846%, 55.686277%, 83.529413%)" fill-opacity="1" d="M 210.03125 212.460938 C 210.03125 208.230469 203.6875 208.230469 203.6875 212.460938 C 203.6875 216.691406 210.03125 216.691406 210.03125 212.460938 Z M 210.03125 212.460938 "/>
<path fill-rule="nonzero" fill="rgb(59.607846%, 55.686277%, 83.529413%)" fill-opacity="1" d="M 323.417969 303.640625 C 323.417969 299.410156 317.070312 299.410156 317.070312 303.640625 C 317.070312 307.871094 323.417969 307.871094 323.417969 303.640625 Z M 323.417969 303.640625 "/>
<path fill-rule="nonzero" fill="rgb(59.607846%, 55.686277%, 83.529413%)" fill-opacity="1" d="M 299.015625 152.0625 C 299.015625 147.832031 292.671875 147.832031 292.671875 152.0625 C 292.671875 156.292969 299.015625 156.292969 299.015625 152.0625 Z M 299.015625 152.0625 "/>
<path fill-rule="nonzero" fill="rgb(59.607846%, 55.686277%, 83.529413%)" fill-opacity="1" d="M 436.984375 85.75 C 436.984375 81.519531 430.640625 81.519531 430.640625 85.75 C 430.640625 89.980469 436.984375 89.980469 436.984375 85.75 Z M 436.984375 85.75 "/>
<path fill-rule="nonzero" fill="rgb(59.607846%, 55.686277%, 83.529413%)" fill-opacity="1" d="M 224.929688 167.304688 C 224.929688 163.074219 218.582031 163.074219 218.582031 167.304688 C 218.582031 171.53125 224.929688 171.53125 224.929688 167.304688 Z M 224.929688 167.304688 "/>
<path fill-rule="nonzero" fill="rgb(59.607846%, 55.686277%, 83.529413%)" fill-opacity="1" d="M 231.34375 261.964844 C 231.34375 257.734375 225 257.734375 225 261.964844 C 225 266.195312 231.34375 266.195312 231.34375 261.964844 Z M 231.34375 261.964844 "/>
<path fill-rule="nonzero" fill="rgb(59.607846%, 55.686277%, 83.529413%)" fill-opacity="1" d="M 454.273438 336.414062 C 454.273438 332.183594 447.929688 332.183594 447.929688 336.414062 C 447.929688 340.644531 454.273438 340.644531 454.273438 336.414062 Z M 454.273438 336.414062 "/>
<path fill-rule="nonzero" fill="rgb(59.607846%, 55.686277%, 83.529413%)" fill-opacity="1" d="M 236.546875 88.90625 C 236.546875 84.675781 230.203125 84.675781 230.203125 88.90625 C 230.203125 93.136719 236.546875 93.136719 236.546875 88.90625 Z M 236.546875 88.90625 "/>
<path fill-rule="nonzero" fill="rgb(59.607846%, 55.686277%, 83.529413%)" fill-opacity="1" d="M 244.585938 340.769531 C 244.585938 336.539062 238.238281 336.539062 238.238281 340.769531 C 238.238281 345 244.585938 345 244.585938 340.769531 Z M 244.585938 340.769531 "/>
<path fill-rule="nonzero" fill="rgb(59.607846%, 55.686277%, 83.529413%)" fill-opacity="1" d="M 506.484375 101.175781 C 506.484375 96.945312 500.140625 96.945312 500.140625 101.175781 C 500.140625 105.40625 506.484375 105.40625 506.484375 101.175781 Z M 506.484375 101.175781 "/>
<path fill-rule="nonzero" fill="rgb(59.607846%, 55.686277%, 83.529413%)" fill-opacity="1" d="M 138.355469 106.730469 C 138.355469 102.5 132.011719 102.5 132.011719 106.730469 C 132.011719 110.960938 138.355469 110.960938 138.355469 106.730469 Z M 138.355469 106.730469 "/>
<path fill-rule="nonzero" fill="rgb(59.607846%, 55.686277%, 83.529413%)" fill-opacity="1" d="M 230.074219 179.191406 C 230.074219 174.960938 223.730469 174.960938 223.730469 179.191406 C 223.730469 183.421875 230.074219 183.421875 230.074219 179.191406 Z M 230.074219 179.191406 "/>
<path fill-rule="nonzero" fill="rgb(59.607846%, 55.686277%, 83.529413%)" fill-opacity="1" d="M 391.027344 373 C 391.027344 368.769531 384.683594 368.769531 384.683594 373 C 384.683594 377.230469 391.027344 377.230469 391.027344 373 Z M 391.027344 373 "/>
<path fill-rule="nonzero" fill="rgb(59.607846%, 55.686277%, 83.529413%)" fill-opacity="1" d="M 504.695312 186.523438 C 504.695312 182.296875 498.347656 182.296875 498.347656 186.523438 C 498.347656 190.753906 504.695312 190.753906 504.695312 186.523438 Z M 504.695312 186.523438 "/>
<path fill-rule="nonzero" fill="rgb(59.607846%, 55.686277%, 83.529413%)" fill-opacity="1" d="M 470.101562 219.070312 C 470.101562 214.839844 463.757812 214.839844 463.757812 219.070312 C 463.757812 223.300781 470.101562 223.300781 470.101562 219.070312 Z M 470.101562 219.070312 "/>
<path fill-rule="nonzero" fill="rgb(59.607846%, 55.686277%, 83.529413%)" fill-opacity="1" d="M 350.433594 220.828125 C 350.433594 216.597656 344.089844 216.597656 344.089844 220.828125 C 344.089844 225.058594 350.433594 225.058594 350.433594 220.828125 Z M 350.433594 220.828125 "/>
<path fill-rule="nonzero" fill="rgb(59.607846%, 55.686277%, 83.529413%)" fill-opacity="1" d="M 328.433594 230.671875 C 328.433594 226.441406 322.085938 226.441406 322.085938 230.671875 C 322.085938 234.902344 328.433594 234.902344 328.433594 230.671875 Z M 328.433594 230.671875 "/>
<path fill-rule="nonzero" fill="rgb(0%, 100%, 0%)" fill-opacity="1" d="M 502.929688 336.425781 C 502.929688 332.195312 496.585938 332.195312 496.585938 336.425781 C 496.585938 340.65625 502.929688 340.65625 502.929688 336.425781 Z M 502.929688 336.425781 "/>
<path fill-rule="nonzero" fill="rgb(0%, 100%, 0%)" fill-opacity="1" d="M 512.097656 187.945312 C 512.097656 183.71875 505.75 183.71875 505.75 187.945312 C 505.75 192.175781 512.097656 192.175781 512.097656 187.945312 Z M 512.097656 187.945312 "/>
<path fill-rule="nonzero" fill="rgb(0%, 100%, 0%)" fill-opacity="1" d="M 329.441406 104.09375 C 329.441406 99.863281 323.097656 99.863281 323.097656 104.09375 C 323.097656 108.324219 329.441406 108.324219 329.441406 104.09375 Z M 329.441406 104.09375 "/>
<path fill-rule="nonzero" fill="rgb(0%, 100%, 0%)" fill-opacity="1" d="M 161.769531 61.183594 C 161.769531 56.953125 155.425781 56.953125 155.425781 61.183594 C 155.425781 65.414062 161.769531 65.414062 161.769531 61.183594 Z M 161.769531 61.183594 "/>
<path fill-rule="nonzero" fill="rgb(0%, 100%, 0%)" fill-opacity="1" d="M 496.210938 359.960938 C 496.210938 355.730469 489.867188 355.730469 489.867188 359.960938 C 489.867188 364.1875 496.210938 364.1875 496.210938 359.960938 Z M 496.210938 359.960938 "/>
<path fill-rule="nonzero" fill="rgb(0%, 100%, 0%)" fill-opacity="1" d="M 491.113281 339.777344 C 491.113281 335.546875 484.765625 335.546875 484.765625 339.777344 C 484.765625 344.007812 491.113281 344.007812 491.113281 339.777344 Z M 491.113281 339.777344 "/>
<path fill-rule="nonzero" fill="rgb(0%, 100%, 0%)" fill-opacity="1" d="M 215.039062 237.84375 C 215.039062 233.613281 208.695312 233.613281 208.695312 237.84375 C 208.695312 242.074219 215.039062 242.074219 215.039062 237.84375 Z M 215.039062 237.84375 "/>
<path fill-rule="nonzero" fill="rgb(0%, 100%, 0%)" fill-opacity="1" d="M 513.988281 287.101562 C 513.988281 282.871094 507.644531 282.871094 507.644531 287.101562 C 507.644531 291.332031 513.988281 291.332031 513.988281 287.101562 Z M 513.988281 287.101562 "/>
<path fill-rule="nonzero" fill="rgb(0%, 100%, 0%)" fill-opacity="1" d="M 271.652344 138.113281 C 271.652344 133.882812 265.304688 133.882812 265.304688 138.113281 C 265.304688 142.34375 271.652344 142.34375 271.652344 138.113281 Z M 271.652344 138.113281 "/>
<path fill-rule="nonzero" fill="rgb(0%, 100%, 0%)" fill-opacity="1" d="M 388.402344 104.714844 C 388.402344 100.484375 382.058594 100.484375 382.058594 104.714844 C 382.058594 108.945312 388.402344 108.945312 388.402344 104.714844 Z M 388.402344 104.714844 "/>
<path fill-rule="nonzero" fill="rgb(0%, 100%, 0%)" fill-opacity="1" d="M 297.542969 245.421875 C 297.542969 241.191406 291.199219 241.191406 291.199219 245.421875 C 291.199219 249.652344 297.542969 249.652344 297.542969 245.421875 Z M 297.542969 245.421875 "/>
<path fill-rule="nonzero" fill="rgb(0%, 100%, 0%)" fill-opacity="1" d="M 183.054688 109.964844 C 183.054688 105.734375 176.710938 105.734375 176.710938 109.964844 C 176.710938 114.195312 183.054688 114.195312 183.054688 109.964844 Z M 183.054688 109.964844 "/>
<path fill-rule="nonzero" fill="rgb(0%, 100%, 0%)" fill-opacity="1" d="M 309.203125 129.484375 C 309.203125 125.253906 302.859375 125.253906 302.859375 129.484375 C 302.859375 133.714844 309.203125 133.714844 309.203125 129.484375 Z M 309.203125 129.484375 "/>
<path fill-rule="nonzero" fill="rgb(0%, 100%, 0%)" fill-opacity="1" d="M 372.730469 361.417969 C 372.730469 357.191406 366.386719 357.191406 366.386719 361.417969 C 366.386719 365.648438 372.730469 365.648438 372.730469 361.417969 Z M 372.730469 361.417969 "/>
<path fill-rule="nonzero" fill="rgb(0%, 100%, 0%)" fill-opacity="1" d="M 432.363281 371.105469 C 432.363281 366.875 426.019531 366.875 426.019531 371.105469 C 426.019531 375.335938 432.363281 375.335938 432.363281 371.105469 Z M 432.363281 371.105469 "/>
<path fill-rule="nonzero" fill="rgb(0%, 100%, 0%)" fill-opacity="1" d="M 149.917969 310.699219 C 149.917969 306.46875 143.570312 306.46875 143.570312 310.699219 C 143.570312 314.929688 149.917969 314.929688 149.917969 310.699219 Z M 149.917969 310.699219 "/>
<path fill-rule="nonzero" fill="rgb(46.666667%, 46.666667%, 46.666667%)" fill-opacity="1" d="M 336.5625 301.691406 C 336.5625 297.460938 330.214844 297.460938 330.214844 301.691406 C 330.214844 305.921875 336.5625 305.921875 336.5625 301.691406 Z M 336.5625 301.691406 "/>
<path fill-rule="nonzero" fill="rgb(46.666667%, 46.666667%, 46.666667%)" fill-opacity="1" d="M 198.152344 51.46875 C 198.152344 47.238281 191.804688 47.238281 191.804688 51.46875 C 191.804688 55.699219 198.152344 55.699219 198.152344 51.46875 Z M 198.152344 51.46875 "/>
<path fill-rule="nonzero" fill="rgb(46.666667%, 46.666667%, 46.666667%)" fill-opacity="1" d="M 255.011719 159.484375 C 255.011719 155.253906 248.664062 155.253906 248.664062 159.484375 C 248.664062 163.714844 255.011719 163.714844 255.011719 159.484375 Z M 255.011719 159.484375 "/>
<path fill-rule="nonzero" fill="rgb(46.666667%, 46.666667%, 46.666667%)" fill-opacity="1" d="M 396.058594 300.503906 C 396.058594 296.273438 389.714844 296.273438 389.714844 300.503906 C 389.714844 304.734375 396.058594 304.734375 396.058594 300.503906 Z M 396.058594 300.503906 "/>
<path fill-rule="nonzero" fill="rgb(46.666667%, 46.666667%, 46.666667%)" fill-opacity="1" d="M 89.445312 72.035156 C 89.445312 67.804688 83.101562 67.804688 83.101562 72.035156 C 83.101562 76.265625 89.445312 76.265625 89.445312 72.035156 Z M 89.445312 72.035156 "/>
<path fill-rule="nonzero" fill="rgb(46.666667%, 46.666667%, 46.666667%)" fill-opacity="1" d="M 404.136719 65.148438 C 404.136719 60.917969 397.789062 60.917969 397.789062 65.148438 C 397.789062 69.378906 404.136719 69.378906 404.136719 65.148438 Z M 404.136719 65.148438 "/>
<path fill-rule="nonzero" fill="rgb(46.666667%, 46.666667%, 46.666667%)" fill-opacity="1" d="M 389.847656 256.253906 C 389.847656 252.023438 383.503906 252.023438 383.503906 256.253906 C 383.503906 260.484375 389.847656 260.484375 389.847656 256.253906 Z M 389.847656 256.253906 "/>
<path fill-rule="nonzero" fill="rgb(46.666667%, 46.666667%, 46.666667%)" fill-opacity="1" d="M 153.492188 353.441406 C 153.492188 349.210938 147.148438 349.210938 147.148438 353.441406 C 147.148438 357.671875 153.492188 357.671875 153.492188 353.441406 Z M 153.492188 353.441406 "/>
<path fill-rule="nonzero" fill="rgb(46.666667%, 46.666667%, 46.666667%)" fill-opacity="1" d="M 104.046875 318.917969 C 104.046875 314.6875 97.703125 314.6875 97.703125 318.917969 C 97.703125 323.148438 104.046875 323.148438 104.046875 318.917969 Z M 104.046875 318.917969 "/>
<path fill-rule="nonzero" fill="rgb(46.666667%, 46.666667%, 46.666667%)" fill-opacity="1" d="M 302.796875 303.652344 C 302.796875 299.421875 296.453125 299.421875 296.453125 303.652344 C 296.453125 307.878906 302.796875 307.878906 302.796875 303.652344 Z M 302.796875 303.652344 "/>
<path fill-rule="nonzero" fill="rgb(46.666667%, 46.666667%, 46.666667%)" fill-opacity="1" d="M 300.722656 291.074219 C 300.722656 286.84375 294.378906 286.84375 294.378906 291.074219 C 294.378906 295.300781 300.722656 295.300781 300.722656 291.074219 Z M 300.722656 291.074219 "/>
<path fill-rule="nonzero" fill="rgb(46.666667%, 46.666667%, 46.666667%)" fill-opacity="1" d="M 209.238281 251.582031 C 209.238281 247.351562 202.894531 247.351562 202.894531 251.582031 C 202.894531 255.8125 209.238281 255.8125 209.238281 251.582031 Z M 209.238281 251.582031 "/>
<path fill-rule="nonzero" fill="rgb(46.666667%, 46.666667%, 46.666667%)" fill-opacity="1" d="M 288.824219 192.5625 C 288.824219 188.332031 282.480469 188.332031 282.480469 192.5625 C 282.480469 196.792969 288.824219 196.792969 288.824219 192.5625 Z M 288.824219 192.5625 "/>
<path fill-rule="nonzero" fill="rgb(46.666667%, 46.666667%, 46.666667%)" fill-opacity="1" d="M 298.839844 327.398438 C 298.839844 323.167969 292.496094 323.167969 292.496094 327.398438 C 292.496094 331.628906 298.839844 331.628906 298.839844 327.398438 Z M 298.839844 327.398438 "/>
<path fill-rule="nonzero" fill="rgb(46.666667%, 46.666667%, 46.666667%)" fill-opacity="1" d="M 364.296875 332.203125 C 364.296875 327.972656 357.953125 327.972656 357.953125 332.203125 C 357.953125 336.433594 364.296875 336.433594 364.296875 332.203125 Z M 364.296875 332.203125 "/>
<path fill-rule="nonzero" fill="rgb(46.666667%, 46.666667%, 46.666667%)" fill-opacity="1" d="M 430.351562 207.730469 C 430.351562 203.503906 424.007812 203.503906 424.007812 207.730469 C 424.007812 211.960938 430.351562 211.960938 430.351562 207.730469 Z M 430.351562 207.730469 "/>
<path fill-rule="nonzero" fill="rgb(46.666667%, 46.666667%, 46.666667%)" fill-opacity="1" d="M 254.859375 106.5625 C 254.859375 102.335938 248.515625 102.335938 248.515625 106.5625 C 248.515625 110.792969 254.859375 110.792969 254.859375 106.5625 Z M 254.859375 106.5625 "/>
<path fill-rule="nonzero" fill="rgb(46.666667%, 46.666667%, 46.666667%)" fill-opacity="1" d="M 184.914062 316.078125 C 184.914062 311.847656 178.566406 311.847656 178.566406 316.078125 C 178.566406 320.308594 184.914062 320.308594 184.914062 316.078125 Z M 184.914062 316.078125 "/>
<path fill-rule="nonzero" fill="rgb(46.666667%, 46.666667%, 46.666667%)" fill-opacity="1" d="M 239.089844 372.722656 C 239.089844 368.492188 232.746094 368.492188 232.746094 372.722656 C 232.746094 376.949219 239.089844 376.949219 239.089844 372.722656 Z M 239.089844 372.722656 "/>
<path fill-rule="nonzero" fill="rgb(46.666667%, 46.666667%, 46.666667%)" fill-opacity="1" d="M 92.5 206.84375 C 92.5 202.613281 86.152344 202.613281 86.152344 206.84375 C 86.152344 211.074219 92.5 211.074219 92.5 206.84375 Z M 92.5 206.84375 "/>
<path fill-rule="nonzero" fill="rgb(46.666667%, 46.666667%, 46.666667%)" fill-opacity="1" d="M 477.457031 94.328125 C 477.457031 90.097656 471.113281 90.097656 471.113281 94.328125 C 471.113281 98.554688 477.457031 98.554688 477.457031 94.328125 Z M 477.457031 94.328125 "/>
<path fill-rule="nonzero" fill="rgb(46.666667%, 46.666667%, 46.666667%)" fill-opacity="1" d="M 124.800781 256.265625 C 124.800781 252.035156 118.457031 252.035156 118.457031 256.265625 C 118.457031 260.492188 124.800781 260.492188 124.800781 256.265625 Z M 124.800781 256.265625 "/>
<path fill-rule="nonzero" fill="rgb(46.666667%, 46.666667%, 46.666667%)" fill-opacity="1" d="M 198.738281 236.792969 C 198.738281 232.5625 192.394531 232.5625 192.394531 236.792969 C 192.394531 241.023438 198.738281 241.023438 198.738281 236.792969 Z M 198.738281 236.792969 "/>
<path fill-rule="nonzero" fill="rgb(46.666667%, 46.666667%, 46.666667%)" fill-opacity="1" d="M 345.160156 299.3125 C 345.160156 295.082031 338.8125 295.082031 338.8125 299.3125 C 338.8125 303.542969 345.160156 303.542969 345.160156 299.3125 Z M 345.160156 299.3125 "/>
<path fill-rule="nonzero" fill="rgb(46.666667%, 46.666667%, 46.666667%)" fill-opacity="1" d="M 94.277344 204.554688 C 94.277344 200.324219 87.933594 200.324219 87.933594 204.554688 C 87.933594 208.785156 94.277344 208.785156 94.277344 204.554688 Z M 94.277344 204.554688 "/>
<path fill-rule="nonzero" fill="rgb(46.666667%, 46.666667%, 46.666667%)" fill-opacity="1" d="M 273.796875 256.925781 C 273.796875 252.695312 267.453125 252.695312 267.453125 256.925781 C 267.453125 261.15625 273.796875 261.15625 273.796875 256.925781 Z M 273.796875 256.925781 "/>
<path fill-rule="nonzero" fill="rgb(46.666667%, 46.666667%, 46.666667%)" fill-opacity="1" d="M 183.9375 135.9375 C 183.9375 131.707031 177.589844 131.707031 177.589844 135.9375 C 177.589844 140.167969 183.9375 140.167969 183.9375 135.9375 Z M 183.9375 135.9375 "/>
<path fill-rule="nonzero" fill="rgb(46.666667%, 46.666667%, 46.666667%)" fill-opacity="1" d="M 438.652344 314.289062 C 438.652344 310.0625 432.308594 310.0625 432.308594 314.289062 C 432.308594 318.519531 438.652344 318.519531 438.652344 314.289062 Z M 438.652344 314.289062 "/>
<path fill-rule="nonzero" fill="rgb(46.666667%, 46.666667%, 46.666667%)" fill-opacity="1" d="M 299.632812 144.261719 C 299.632812 140.03125 293.289062 140.03125 293.289062 144.261719 C 293.289062 148.492188 299.632812 148.492188 299.632812 144.261719 Z M 299.632812 144.261719 "/>
<path fill-rule="nonzero" fill="rgb(46.666667%, 46.666667%, 46.666667%)" fill-opacity="1" d="M 384.070312 66.195312 C 384.070312 61.964844 377.726562 61.964844 377.726562 66.195312 C 377.726562 70.425781 384.070312 70.425781 384.070312 66.195312 Z M 384.070312 66.195312 "/>
<path fill-rule="nonzero" fill="rgb(46.666667%, 46.666667%, 46.666667%)" fill-opacity="1" d="M 393.042969 195.316406 C 393.042969 191.085938 386.695312 191.085938 386.695312 195.316406 C 386.695312 199.546875 393.042969 199.546875 393.042969 195.316406 Z M 393.042969 195.316406 "/>
<path fill-rule="nonzero" fill="rgb(46.666667%, 46.666667%, 46.666667%)" fill-opacity="1" d="M 103.898438 250.246094 C 103.898438 246.019531 97.554688 246.019531 97.554688 250.246094 C 97.554688 254.476562 103.898438 254.476562 103.898438 250.246094 Z M 103.898438 250.246094 "/>
<path fill-rule="nonzero" fill="rgb(46.666667%, 46.666667%, 46.666667%)" fill-opacity="1" d="M 282.828125 152.121094 C 282.828125 147.890625 276.484375 147.890625 276.484375 152.121094 C 276.484375 156.351562 282.828125 156.351562 282.828125 152.121094 Z M 282.828125 152.121094 "/>
<path fill-rule="nonzero" fill="rgb(46.666667%, 46.666667%, 46.666667%)" fill-opacity="1" d="M 234.769531 324.835938 C 234.769531 320.605469 228.425781 320.605469 228.425781 324.835938 C 228.425781 329.066406 234.769531 329.066406 234.769531 324.835938 Z M 234.769531 324.835938 "/>
<path fill="none" stroke-width="1" stroke-linecap="butt" stroke-linejoin="miter" stroke="rgb(66.274512%, 66.274512%, 66.274512%)" stroke-opacity="1" stroke-miterlimit="1.154701" d="M 81.101562 390.5 L 81.101562 395.5 "/>
<path fill="none" stroke-width="1" stroke-linecap="butt" stroke-linejoin="miter" stroke="rgb(66.274512%, 66.274512%, 66.274512%)" stroke-opacity="1" stroke-miterlimit="1.154701" d="M 297.246094 390.5 L 297.246094 395.5 "/>
<path fill="none" stroke-width="1" stroke-linecap="butt" stroke-linejoin="miter" stroke="rgb(66.274512%, 66.274512%, 66.274512%)" stroke-opacity="1" stroke-miterlimit="1.154701" d="M 513.386719 390.5 L 513.386719 395.5 "/>
<path fill="none" stroke-width="1" stroke-linecap="butt" stroke-linejoin="miter" stroke="rgb(66.274512%, 66.274512%, 66.274512%)" stroke-opacity="1" stroke-miterlimit="1.154701" d="M 64.5 382.613281 L 59.5 382.613281 "/>
<path fill="none" stroke-width="1" stroke-linecap="butt" stroke-linejoin="miter" stroke="rgb(66.274512%, 66.274512%, 66.274512%)" stroke-opacity="1" stroke-miterlimit="1.154701" d="M 64.5 207.464844 L 59.5 207.464844 "/>
<path fill="none" stroke-width="1" stroke-linecap="butt" stroke-linejoin="miter" stroke="rgb(66.274512%, 66.274512%, 66.274512%)" stroke-opacity="1" stroke-miterlimit="1.154701" d="M 64.5 32.316406 L 59.5 32.316406 "/>
<path fill-rule="nonzero" fill="rgb(100%, 38.82353%, 27.843139%)" fill-opacity="1" d="M 564.078125 180.898438 C 564.078125 176.671875 557.734375 176.671875 557.734375 180.898438 C 557.734375 185.128906 564.078125 185.128906 564.078125 180.898438 Z M 564.078125 180.898438 "/>
<path fill-rule="nonzero" fill="rgb(59.607846%, 55.686277%, 83.529413%)" fill-opacity="1" d="M 564.078125 203.898438 C 564.078125 199.671875 557.734375 199.671875 557.734375 203.898438 C 557.734375 208.128906 564.078125 208.128906 564.078125 203.898438 Z M 564.078125 203.898438 "/>
<path fill-rule="nonzero" fill="rgb(0%, 100%, 0%)" fill-opacity="1" d="M 564.078125 226.898438 C 564.078125 222.671875 557.734375 222.671875 557.734375 226.898438 C 557.734375 231.128906 564.078125 231.128906 564.078125 226.898438 Z M 564.078125 226.898438 "/>
<path fill-rule="nonzero" fill="rgb(46.666667%, 46.666667%, 46.666667%)" fill-opacity="1" d="M 564.078125 249.898438 C 564.078125 245.671875 557.734375 245.671875 557.734375 249.898438 C 557.734375 254.128906 564.078125 254.128906 564.078125 249.898438 Z M 564.078125 249.898438 "/>
<g fill="rgb(0%, 0%, 0%)" fill-opacity="1">
<use xlink:href="#glyph-11-0-5c98508f" x="564.357056" y="159.189957"/>
</g>
<g fill="rgb(0%, 0%, 0%)" fill-opacity="1">
<use xlink:href="#glyph-2-3-5c98508f" x="575.905029" y="185.589966"/>
</g>
<g fill="rgb(0%, 0%, 0%)" fill-opacity="1">
<use xlink:href="#glyph-2-4-5c98508f" x="575.905029" y="208.589966"/>
</g>
<g fill="rgb(0%, 0%, 0%)" fill-opacity="1">
<use xlink:href="#glyph-12-0-5c98508f" x="575.905029" y="231.589966"/>
</g>
<g fill="rgb(0%, 0%, 0%)" fill-opacity="1">
<use xlink:href="#glyph-2-5-5c98508f" x="575.905029" y="254.589966"/>
</g>
<path fill="none" stroke-width="1" stroke-linecap="butt" stroke-linejoin="miter" stroke="rgb(66.274512%, 66.274512%, 66.274512%)" stroke-opacity="1" stroke-miterlimit="1.154701" d="M 64.5 390 L 533.5 390 "/>
<path fill="none" stroke-width="1" stroke-linecap="butt" stroke-linejoin="miter" stroke="rgb(66.274512%, 66.274512%, 66.274512%)" stroke-opacity="1" stroke-miterlimit="1.154701" d="M 65 390.5 L 65 15.5 "/>
</svg>
