<?xml version="1.0" encoding="UTF-8"?>
<svg xmlns="http://www.w3.org/2000/svg" xmlns:xlink="http://www.w3.org/1999/xlink" width="600" height="450" viewBox="0 0 600 450">
<defs>
<g>
<g id="glyph-0-0-c0ca30f2">
<path d="M 4.5625 -3.96875 L 7.046875 0 L 4.96875 0 L 3.4375 -2.9375 L 1.9375 0 L -0.046875 0 L 2.421875 -3.90625 L 0.203125 -7.40625 L 2.25 -7.40625 L 3.515625 -4.890625 L 4.765625 -7.40625 L 6.703125 -7.40625 Z M 4.5625 -3.96875 "/>
</g>
<g id="glyph-1-0-c0ca30f2">
<path d="M 3.84375 -9.46875 C 4.8125 -9.46875 5.539062 -9.054688 6.03125 -8.234375 C 6.53125 -7.421875 6.78125 -6.222656 6.78125 -4.640625 C 6.78125 -3.078125 6.53125 -1.882812 6.03125 -1.0625 C 5.53125 -0.25 4.800781 0.15625 3.84375 0.15625 C 2.882812 0.15625 2.15625 -0.25 1.65625 -1.0625 C 1.164062 -1.882812 0.921875 -3.082031 0.921875 -4.65625 C 0.921875 -6.238281 1.164062 -7.4375 1.65625 -8.25 C 2.15625 -9.0625 2.882812 -9.46875 3.84375 -9.46875 Z M 3.84375 -8.796875 C 2.457031 -8.796875 1.765625 -7.414062 1.765625 -4.65625 C 1.765625 -1.894531 2.457031 -0.515625 3.84375 -0.515625 C 4.53125 -0.515625 5.046875 -0.847656 5.390625 -1.515625 C 5.742188 -2.191406 5.921875 -3.234375 5.921875 -4.640625 C 5.921875 -6.054688 5.742188 -7.101562 5.390625 -7.78125 C 5.046875 -8.457031 4.53125 -8.796875 3.84375 -8.796875 Z M 3.84375 -8.796875 "/>
</g>
<g id="glyph-1-1-c0ca30f2">
<path d="M 1.4375 -1.171875 C 1.632812 -1.171875 1.796875 -1.109375 1.921875 -0.984375 C 2.046875 -0.859375 2.109375 -0.703125 2.109375 -0.515625 C 2.109375 -0.316406 2.046875 -0.15625 1.921875 -0.03125 C 1.796875 0.09375 1.632812 0.15625 1.4375 0.15625 C 1.25 0.15625 1.085938 0.09375 0.953125 -0.03125 C 0.828125 -0.164062 0.765625 -0.328125 0.765625 -0.515625 C 0.765625 -0.703125 0.828125 -0.859375 0.953125 -0.984375 C 1.085938 -1.109375 1.25 -1.171875 1.4375 -1.171875 Z M 1.4375 -1.171875 "/>
</g>
<g id="glyph-1-2-c0ca30f2">
<path d="M 5.671875 -8.640625 L 1.890625 -8.640625 L 1.890625 -5.453125 C 2.398438 -5.742188 2.929688 -5.890625 3.484375 -5.890625 C 4.285156 -5.890625 4.921875 -5.628906 5.390625 -5.109375 C 5.867188 -4.597656 6.109375 -3.894531 6.109375 -3 C 6.109375 -2.394531 5.984375 -1.847656 5.734375 -1.359375 C 5.484375 -0.878906 5.128906 -0.503906 4.671875 -0.234375 C 4.222656 0.0234375 3.703125 0.15625 3.109375 0.15625 C 2.066406 0.15625 1.1875 -0.21875 0.46875 -0.96875 L 0.984375 -1.453125 C 1.273438 -1.140625 1.585938 -0.90625 1.921875 -0.75 C 2.265625 -0.601562 2.660156 -0.53125 3.109375 -0.53125 C 3.773438 -0.53125 4.296875 -0.75 4.671875 -1.1875 C 5.054688 -1.632812 5.25 -2.242188 5.25 -3.015625 C 5.25 -3.753906 5.070312 -4.304688 4.71875 -4.671875 C 4.375 -5.046875 3.898438 -5.234375 3.296875 -5.234375 C 3.003906 -5.234375 2.742188 -5.195312 2.515625 -5.125 C 2.285156 -5.0625 2.03125 -4.945312 1.75 -4.78125 L 1.109375 -4.78125 L 1.109375 -9.3125 L 5.796875 -9.3125 Z M 5.671875 -8.640625 "/>
</g>
<g id="glyph-1-3-c0ca30f2">
<path d="M 6.03125 -1.625 C 6.03125 -1.238281 6.078125 -0.960938 6.171875 -0.796875 C 6.273438 -0.628906 6.4375 -0.503906 6.65625 -0.421875 L 6.46875 0.15625 C 6.132812 0.09375 5.875 -0.03125 5.6875 -0.21875 C 5.507812 -0.40625 5.390625 -0.691406 5.328125 -1.078125 C 4.828125 -0.253906 4.066406 0.15625 3.046875 0.15625 C 2.347656 0.15625 1.796875 -0.0390625 1.390625 -0.4375 C 0.984375 -0.832031 0.78125 -1.363281 0.78125 -2.03125 C 0.78125 -2.78125 1.046875 -3.359375 1.578125 -3.765625 C 2.117188 -4.179688 2.867188 -4.390625 3.828125 -4.390625 L 5.21875 -4.390625 L 5.21875 -5.109375 C 5.21875 -5.691406 5.085938 -6.117188 4.828125 -6.390625 C 4.566406 -6.660156 4.132812 -6.796875 3.53125 -6.796875 C 2.96875 -6.796875 2.304688 -6.65625 1.546875 -6.375 L 1.328125 -6.984375 C 2.148438 -7.304688 2.921875 -7.46875 3.640625 -7.46875 C 5.234375 -7.46875 6.03125 -6.695312 6.03125 -5.15625 Z M 3.1875 -0.5 C 4.070312 -0.5 4.75 -0.929688 5.21875 -1.796875 L 5.21875 -3.8125 L 3.953125 -3.8125 C 3.203125 -3.8125 2.628906 -3.664062 2.234375 -3.375 C 1.847656 -3.082031 1.65625 -2.648438 1.65625 -2.078125 C 1.65625 -1.566406 1.789062 -1.175781 2.0625 -0.90625 C 2.332031 -0.632812 2.707031 -0.5 3.1875 -0.5 Z M 3.1875 -0.5 "/>
</g>
<g id="glyph-1-4-c0ca30f2">
<path d="M 4.5 -7.46875 C 5.34375 -7.46875 6 -7.140625 6.46875 -6.484375 C 6.9375 -5.835938 7.171875 -4.910156 7.171875 -3.703125 C 7.171875 -2.515625 6.925781 -1.570312 6.4375 -0.875 C 5.945312 -0.1875 5.257812 0.15625 4.375 0.15625 C 3.9375 0.15625 3.535156 0.0546875 3.171875 -0.140625 C 2.816406 -0.335938 2.519531 -0.597656 2.28125 -0.921875 L 2.203125 0 L 1.484375 0 L 1.484375 -10.296875 L 2.296875 -10.40625 L 2.296875 -6.296875 C 2.867188 -7.078125 3.601562 -7.46875 4.5 -7.46875 Z M 4.234375 -0.515625 C 4.890625 -0.515625 5.394531 -0.78125 5.75 -1.3125 C 6.113281 -1.851562 6.296875 -2.648438 6.296875 -3.703125 C 6.296875 -5.765625 5.640625 -6.796875 4.328125 -6.796875 C 3.890625 -6.796875 3.507812 -6.6875 3.1875 -6.46875 C 2.875 -6.25 2.578125 -5.941406 2.296875 -5.546875 L 2.296875 -1.6875 C 2.523438 -1.320312 2.800781 -1.035156 3.125 -0.828125 C 3.457031 -0.617188 3.828125 -0.515625 4.234375 -0.515625 Z M 4.234375 -0.515625 "/>
</g>
<g id="glyph-1-5-c0ca30f2">
<path d="M 6.703125 -10.296875 L 6.703125 0 L 6 0 L 5.90625 -1.125 C 5.40625 -0.269531 4.671875 0.15625 3.703125 0.15625 C 2.859375 0.15625 2.191406 -0.179688 1.703125 -0.859375 C 1.210938 -1.535156 0.96875 -2.457031 0.96875 -3.625 C 0.96875 -4.382812 1.082031 -5.050781 1.3125 -5.625 C 1.539062 -6.207031 1.867188 -6.660156 2.296875 -6.984375 C 2.734375 -7.304688 3.25 -7.46875 3.84375 -7.46875 C 4.664062 -7.46875 5.347656 -7.140625 5.890625 -6.484375 L 5.890625 -10.40625 Z M 3.84375 -0.515625 C 4.300781 -0.515625 4.691406 -0.625 5.015625 -0.84375 C 5.335938 -1.070312 5.628906 -1.414062 5.890625 -1.875 L 5.890625 -5.703125 C 5.367188 -6.429688 4.726562 -6.796875 3.96875 -6.796875 C 3.3125 -6.796875 2.785156 -6.519531 2.390625 -5.96875 C 2.003906 -5.425781 1.816406 -4.648438 1.828125 -3.640625 C 1.828125 -2.628906 2.003906 -1.851562 2.359375 -1.3125 C 2.710938 -0.78125 3.207031 -0.515625 3.84375 -0.515625 Z M 3.84375 -0.515625 "/>
</g>
<g id="glyph-2-0-c0ca30f2">
<path d="M 1.4375 -1.171875 C 1.632812 -1.171875 1.796875 -1.109375 1.921875 -0.984375 C 2.046875 -0.859375 2.109375 -0.703125 2.109375 -0.515625 C 2.109375 -0.316406 2.046875 -0.15625 1.921875 -0.03125 C 1.796875 0.09375 1.632812 0.15625 1.4375 0.15625 C 1.25 0.15625 1.085938 0.09375 0.953125 -0.03125 C 0.828125 -0.164062 0.765625 -0.328125 0.765625 -0.515625 C 0.765625 -0.703125 0.828125 -0.859375 0.953125 -0.984375 C 1.085938 -1.109375 1.25 -1.171875 1.4375 -1.171875 Z M 1.4375 -1.171875 "/>
</g>
<g id="glyph-3-0-c0ca30f2">
<path d="M 4.09375 -9.3125 L 4.09375 0 L 3.28125 0 L 3.28125 -8.40625 L 0.984375 -6.984375 L 0.609375 -7.59375 L 3.390625 -9.3125 Z M 4.09375 -9.3125 "/>
</g>
<g id="glyph-4-0-c0ca30f2">
<path d="M 0.03125 -4.65625 C 0.945312 -4.363281 1.65625 -3.910156 2.15625 -3.296875 C 2.664062 -2.691406 2.960938 -1.863281 3.046875 -0.8125 L 1.75 -0.625 C 1.675781 -1.113281 1.570312 -1.503906 1.4375 -1.796875 C 1.300781 -2.085938 1.117188 -2.320312 0.890625 -2.5 C 0.671875 -2.675781 0.375 -2.84375 0 -3 L 0 -2.375 L -7.40625 -0.03125 L -7.40625 -1.9375 L -1.1875 -3.546875 L -7.40625 -5.21875 L -7.40625 -7.0625 Z M 0.03125 -4.65625 "/>
</g>
<g id="glyph-5-0-c0ca30f2">
<path d="M 3.84375 -9.46875 C 4.8125 -9.46875 5.539062 -9.054688 6.03125 -8.234375 C 6.53125 -7.421875 6.78125 -6.222656 6.78125 -4.640625 C 6.78125 -3.078125 6.53125 -1.882812 6.03125 -1.0625 C 5.53125 -0.25 4.800781 0.15625 3.84375 0.15625 C 2.882812 0.15625 2.15625 -0.25 1.65625 -1.0625 C 1.164062 -1.882812 0.921875 -3.082031 0.921875 -4.65625 C 0.921875 -6.238281 1.164062 -7.4375 1.65625 -8.25 C 2.15625 -9.0625 2.882812 -9.46875 3.84375 -9.46875 Z M 3.84375 -8.796875 C 2.457031 -8.796875 1.765625 -7.414062 1.765625 -4.65625 C 1.765625 -1.894531 2.457031 -0.515625 3.84375 -0.515625 C 4.53125 -0.515625 5.046875 -0.847656 5.390625 -1.515625 C 5.742188 -2.191406 5.921875 -3.234375 5.921875 -4.640625 C 5.921875 -6.054688 5.742188 -7.101562 5.390625 -7.78125 C 5.046875 -8.457031 4.53125 -8.796875 3.84375 -8.796875 Z M 3.84375 -8.796875 "/>
</g>
<g id="glyph-6-0-c0ca30f2">
<path d="M 1.4375 -1.171875 C 1.632812 -1.171875 1.796875 -1.109375 1.921875 -0.984375 C 2.046875 -0.859375 2.109375 -0.703125 2.109375 -0.515625 C 2.109375 -0.316406 2.046875 -0.15625 1.921875 -0.03125 C 1.796875 0.09375 1.632812 0.15625 1.4375 0.15625 C 1.25 0.15625 1.085938 0.09375 0.953125 -0.03125 C 0.828125 -0.164062 0.765625 -0.328125 0.765625 -0.515625 C 0.765625 -0.703125 0.828125 -0.859375 0.953125 -0.984375 C 1.085938 -1.109375 1.25 -1.171875 1.4375 -1.171875 Z M 1.4375 -1.171875 "/>
</g>
<g id="glyph-7-0-c0ca30f2">
<path d="M 3.84375 -9.46875 C 4.8125 -9.46875 5.539062 -9.054688 6.03125 -8.234375 C 6.53125 -7.421875 6.78125 -6.222656 6.78125 -4.640625 C 6.78125 -3.078125 6.53125 -1.882812 6.03125 -1.0625 C 5.53125 -0.25 4.800781 0.15625 3.84375 0.15625 C 2.882812 0.15625 2.15625 -0.25 1.65625 -1.0625 C 1.164062 -1.882812 0.921875 -3.082031 0.921875 -4.65625 C 0.921875 -6.238281 1.164062 -7.4375 1.65625 -8.25 C 2.15625 -9.0625 2.882812 -9.46875 3.84375 -9.46875 Z M 3.84375 -8.796875 C 2.457031 -8.796875 1.765625 -7.414062 1.765625 -4.65625 C 1.765625 -1.894531 2.457031 -0.515625 3.84375 -0.515625 C 4.53125 -0.515625 5.046875 -0.847656 5.390625 -1.515625 C 5.742188 -2.191406 5.921875 -3.234375 5.921875 -4.640625 C 5.921875 -6.054688 5.742188 -7.101562 5.390625 -7.78125 C 5.046875 -8.457031 4.53125 -8.796875 3.84375 -8.796875 Z M 3.84375 -8.796875 "/>
</g>
<g id="glyph-8-0-c0ca30f2">
<path d="M 3.84375 -9.46875 C 4.8125 -9.46875 5.539062 -9.054688 6.03125 -8.234375 C 6.53125 -7.421875 6.78125 -6.222656 6.78125 -4.640625 C 6.78125 -3.078125 6.53125 -1.882812 6.03125 -1.0625 C 5.53125 -0.25 4.800781 0.15625 3.84375 0.15625 C 2.882812 0.15625 2.15625 -0.25 1.65625 -1.0625 C 1.164062 -1.882812 0.921875 -3.082031 0.921875 -4.65625 C 0.921875 -6.238281 1.164062 -7.4375 1.65625 -8.25 C 2.15625 -9.0625 2.882812 -9.46875 3.84375 -9.46875 Z M 3.84375 -8.796875 C 2.457031 -8.796875 1.765625 -7.414062 1.765625 -4.65625 C 1.765625 -1.894531 2.457031 -0.515625 3.84375 -0.515625 C 4.53125 -0.515625 5.046875 -0.847656 5.390625 -1.515625 C 5.742188 -2.191406 5.921875 -3.234375 5.921875 -4.640625 C 5.921875 -6.054688 5.742188 -7.101562 5.390625 -7.78125 C 5.046875 -8.457031 4.53125 -8.796875 3.84375 -8.796875 Z M 3.84375 -8.796875 "/>
</g>
<g id="glyph-9-0-c0ca30f2">
<path d="M 1.4375 -1.171875 C 1.632812 -1.171875 1.796875 -1.109375 1.921875 -0.984375 C 2.046875 -0.859375 2.109375 -0.703125 2.109375 -0.515625 C 2.109375 -0.316406 2.046875 -0.15625 1.921875 -0.03125 C 1.796875 0.09375 1.632812 0.15625 1.4375 0.15625 C 1.25 0.15625 1.085938 0.09375 0.953125 -0.03125 C 0.828125 -0.164062 0.765625 -0.328125 0.765625 -0.515625 C 0.765625 -0.703125 0.828125 -0.859375 0.953125 -0.984375 C 1.085938 -1.109375 1.25 -1.171875 1.4375 -1.171875 Z M 1.4375 -1.171875 "/>
</g>
<g id="glyph-10-0-c0ca30f2">
<path d="M 5.671875 -8.640625 L 1.890625 -8.640625 L 1.890625 -5.453125 C 2.398438 -5.742188 2.929688 -5.890625 3.484375 -5.890625 C 4.285156 -5.890625 4.921875 -5.628906 5.390625 -5.109375 C 5.867188 -4.597656 6.109375 -3.894531 6.109375 -3 C 6.109375 -2.394531 5.984375 -1.847656 5.734375 -1.359375 C 5.484375 -0.878906 5.128906 -0.503906 4.671875 -0.234375 C 4.222656 0.0234375 3.703125 0.15625 3.109375 0.15625 C 2.066406 0.15625 1.1875 -0.21875 0.46875 -0.96875 L 0.984375 -1.453125 C 1.273438 -1.140625 1.585938 -0.90625 1.921875 -0.75 C 2.265625 -0.601562 2.660156 -0.53125 3.109375 -0.53125 C 3.773438 -0.53125 4.296875 -0.75 4.671875 -1.1875 C 5.054688 -1.632812 5.25 -2.242188 5.25 -3.015625 C 5.25 -3.753906 5.070312 -4.304688 4.71875 -4.671875 C 4.375 -5.046875 3.898438 -5.234375 3.296875 -5.234375 C 3.003906 -5.234375 2.742188 -5.195312 2.515625 -5.125 C 2.285156 -5.0625 2.03125 -4.945312 1.75 -4.78125 L 1.109375 -4.78125 L 1.109375 -9.3125 L 5.796875 -9.3125 Z M 5.671875 -8.640625 "/>
</g>
<g id="glyph-11-0-c0ca30f2">
<path d="M 4.09375 -9.3125 L 4.09375 0 L 3.28125 0 L 3.28125 -8.40625 L 0.984375 -6.984375 L 0.609375 -7.59375 L 3.390625 -9.3125 Z M 4.09375 -9.3125 "/>
</g>
<g id="glyph-11-1-c0ca30f2">
<path d="M 1.4375 -1.171875 C 1.632812 -1.171875 1.796875 -1.109375 1.921875 -0.984375 C 2.046875 -0.859375 2.109375 -0.703125 2.109375 -0.515625 C 2.109375 -0.316406 2.046875 -0.15625 1.921875 -0.03125 C 1.796875 0.09375 1.632812 0.15625 1.4375 0.15625 C 1.25 0.15625 1.085938 0.09375 0.953125 -0.03125 C 0.828125 -0.164062 0.765625 -0.328125 0.765625 -0.515625 C 0.765625 -0.703125 0.828125 -0.859375 0.953125 -0.984375 C 1.085938 -1.109375 1.25 -1.171875 1.4375 -1.171875 Z M 1.4375 -1.171875 "/>
</g>
<g id="glyph-12-0-c0ca30f2">
<path d="M 3.84375 -9.46875 C 4.8125 -9.46875 5.539062 -9.054688 6.03125 -8.234375 C 6.53125 -7.421875 6.78125 -6.222656 6.78125 -4.640625 C 6.78125 -3.078125 6.53125 -1.882812 6.03125 -1.0625 C 5.53125 -0.25 4.800781 0.15625 3.84375 0.15625 C 2.882812 0.15625 2.15625 -0.25 1.65625 -1.0625 C 1.164062 -1.882812 0.921875 -3.082031 0.921875 -4.65625 C 0.921875 -6.238281 1.164062 -7.4375 1.65625 -8.25 C 2.15625 -9.0625 2.882812 -9.46875 3.84375 -9.46875 Z M 3.84375 -8.796875 C 2.457031 -8.796875 1.765625 -7.414062 1.765625 -4.65625 C 1.765625 -1.894531 2.457031 -0.515625 3.84375 -0.515625 C 4.53125 -0.515625 5.046875 -0.847656 5.390625 -1.515625 C 5.742188 -2.191406 5.921875 -3.234375 5.921875 -4.640625 C 5.921875 -6.054688 5.742188 -7.101562 5.390625 -7.78125 C 5.046875 -8.457031 4.53125 -8.796875 3.84375 -8.796875 Z M 3.84375 -8.796875 "/>
</g>
<g id="glyph-13-0-c0ca30f2">
<path d="M 5.890625 -7.40625 L 5.890625 -6.125 L 2.3125 -1.40625 L 5.96875 -1.40625 L 5.78125 0 L 0.25 0 L 0.25 -1.28125 L 3.84375 -6 L 0.5625 -6 L 0.5625 -7.40625 Z M 5.890625 -7.40625 "/>
</g>
<g id="glyph-14-0-c0ca30f2">
<path d="M 3.984375 -7.46875 C 4.410156 -7.46875 4.785156 -7.410156 5.109375 -7.296875 C 5.429688 -7.179688 5.75 -6.992188 6.0625 -6.734375 L 5.65625 -6.203125 C 5.414062 -6.398438 5.164062 -6.546875 4.90625 -6.640625 C 4.644531 -6.734375 4.351562 -6.78125 4.03125 -6.78125 C 3.34375 -6.78125 2.789062 -6.507812 2.375 -5.96875 C 1.96875 -5.4375 1.765625 -4.65625 1.765625 -3.625 C 1.765625 -2.601562 1.96875 -1.835938 2.375 -1.328125 C 2.78125 -0.816406 3.328125 -0.5625 4.015625 -0.5625 C 4.347656 -0.5625 4.644531 -0.613281 4.90625 -0.71875 C 5.175781 -0.820312 5.445312 -0.972656 5.71875 -1.171875 L 6.109375 -0.625 C 5.492188 -0.101562 4.789062 0.15625 4 0.15625 C 3.375 0.15625 2.828125 0.0078125 2.359375 -0.28125 C 1.898438 -0.582031 1.539062 -1.015625 1.28125 -1.578125 C 1.019531 -2.148438 0.890625 -2.828125 0.890625 -3.609375 C 0.890625 -4.390625 1.019531 -5.070312 1.28125 -5.65625 C 1.539062 -6.238281 1.898438 -6.6875 2.359375 -7 C 2.828125 -7.3125 3.367188 -7.46875 3.984375 -7.46875 Z M 3.984375 -7.46875 "/>
</g>
</g>
</defs>
<rect x="-60" y="-45" width="720" height="540" fill="rgb(100%, 100%, 100%)" fill-opacity="1"/>
<path fill-rule="nonzero" fill="rgb(100%, 100%, 100%)" fill-opacity="1" d="M 65 390 L 533 390 L 533 16 L 65 16 Z M 65 390 "/>
<g fill="rgb(0%, 0%, 0%)" fill-opacity="1">
<use xlink:href="#glyph-0-0-c0ca30f2" x="295.5" y="430.890015"/>
</g>
<g fill="rgb(0%, 0%, 0%)" fill-opacity="1">
<use xlink:href="#glyph-1-0-c0ca30f2" x="69.028099" y="411.089996"/>
</g>
<g fill="rgb(0%, 0%, 0%)" fill-opacity="1">
<use xlink:href="#glyph-1-1-c0ca30f2" x="76.728096" y="411.089996"/>
</g>
<g fill="rgb(0%, 0%, 0%)" fill-opacity="1">
<use xlink:href="#glyph-1-0-c0ca30f2" x="79.626099" y="411.089996"/>
</g>
<g fill="rgb(0%, 0%, 0%)" fill-opacity="1">
<use xlink:href="#glyph-1-0-c0ca30f2" x="286.295746" y="411.089996"/>
</g>
<g fill="rgb(0%, 0%, 0%)" fill-opacity="1">
<use xlink:href="#glyph-2-0-c0ca30f2" x="293.995758" y="411.089996"/>
</g>
<g fill="rgb(0%, 0%, 0%)" fill-opacity="1">
<use xlink:href="#glyph-1-2-c0ca30f2" x="296.893738" y="411.089996"/>
</g>
<g fill="rgb(0%, 0%, 0%)" fill-opacity="1">
<use xlink:href="#glyph-3-0-c0ca30f2" x="503.640381" y="411.089996"/>
</g>
<g fill="rgb(0%, 0%, 0%)" fill-opacity="1">
<use xlink:href="#glyph-1-1-c0ca30f2" x="509.422424" y="411.089996"/>
</g>
<g fill="rgb(0%, 0%, 0%)" fill-opacity="1">
<use xlink:href="#glyph-1-0-c0ca30f2" x="512.320435" y="411.089996"/>
</g>
<g fill="rgb(0%, 0%, 0%)" fill-opacity="1">
<use xlink:href="#glyph-4-0-c0ca30f2" x="27.991999" y="206.542007"/>
</g>
<g fill="rgb(0%, 0%, 0%)" fill-opacity="1">
<use xlink:href="#glyph-5-0-c0ca30f2" x="36.702007" y="377.95929"/>
</g>
<g fill="rgb(0%, 0%, 0%)" fill-opacity="1">
<use xlink:href="#glyph-6-0-c0ca30f2" x="44.402004" y="377.95929"/>
</g>
<g fill="rgb(0%, 0%, 0%)" fill-opacity="1">
<use xlink:href="#glyph-7-0-c0ca30f2" x="47.300003" y="377.95929"/>
</g>
<g fill="rgb(0%, 0%, 0%)" fill-opacity="1">
<use xlink:href="#glyph-8-0-c0ca30f2" x="37.584007" y="203.392487"/>
</g>
<g fill="rgb(0%, 0%, 0%)" fill-opacity="1">
<use xlink:href="#glyph-9-0-c0ca30f2" x="45.284004" y="203.392487"/>
</g>
<g fill="rgb(0%, 0%, 0%)" fill-opacity="1">
<use xlink:href="#glyph-10-0-c0ca30f2" x="48.182003" y="203.392487"/>
</g>
<g fill="rgb(0%, 0%, 0%)" fill-opacity="1">
<use xlink:href="#glyph-11-0-c0ca30f2" x="38.620003" y="28.825687"/>
</g>
<g fill="rgb(0%, 0%, 0%)" fill-opacity="1">
<use xlink:href="#glyph-11-1-c0ca30f2" x="44.402004" y="28.825687"/>
</g>
<g fill="rgb(0%, 0%, 0%)" fill-opacity="1">
<use xlink:href="#glyph-12-0-c0ca30f2" x="47.300003" y="28.825687"/>
</g>
<path fill-rule="nonzero" fill="rgb(100%, 38.82353%, 27.843139%)" fill-opacity="1" d="M 340.113281 33.695312 C 340.113281 29.464844 333.769531 29.464844 333.769531 33.695312 C 333.769531 37.925781 340.113281 37.925781 340.113281 33.695312 Z M 340.113281 33.695312 "/>
<path fill-rule="nonzero" fill="rgb(100%, 38.82353%, 27.843139%)" fill-opacity="1" d="M 158.101562 65.6875 C 158.101562 61.457031 151.757812 61.457031 151.757812 65.6875 C 151.757812 69.917969 158.101562 69.917969 158.101562 65.6875 Z M 158.101562 65.6875 "/>
<path fill-rule="nonzero" fill="rgb(100%, 38.82353%, 27.843139%)" fill-opacity="1" d="M 501.042969 326.710938 C 501.042969 322.484375 494.699219 322.484375 494.699219 326.710938 C 494.699219 330.941406 501.042969 330.941406 501.042969 326.710938 Z M 501.042969 326.710938 "/>
<path fill-rule="nonzero" fill="rgb(100%, 38.82353%, 27.843139%)" fill-opacity="1" d="M 131.921875 361.976562 C 131.921875 357.75 125.574219 357.75 125.574219 361.976562 C 125.574219 366.207031 131.921875 366.207031 131.921875 361.976562 Z M 131.921875 361.976562 "/>
<path fill-rule="nonzero" fill="rgb(100%, 38.82353%, 27.843139%)" fill-opacity="1" d="M 117.605469 169.121094 C 117.605469 164.890625 111.261719 164.890625 111.261719 169.121094 C 111.261719 173.347656 117.605469 173.347656 117.605469 169.121094 Z M 117.605469 169.121094 "/>
<path fill-rule="nonzero" fill="rgb(100%, 38.82353%, 27.843139%)" fill-opacity="1" d="M 263.476562 199.292969 C 263.476562 195.0625 257.132812 195.0625 257.132812 199.292969 C 257.132812 203.523438 263.476562 203.523438 263.476562 199.292969 Z M 263.476562 199.292969 "/>
<path fill-rule="nonzero" fill="rgb(100%, 38.82353%, 27.843139%)" fill-opacity="1" d="M 169.386719 128.628906 C 169.386719 124.398438 163.042969 124.398438 163.042969 128.628906 C 163.042969 132.855469 169.386719 132.855469 169.386719 128.628906 Z M 169.386719 128.628906 "/>
<path fill-rule="nonzero" fill="rgb(100%, 38.82353%, 27.843139%)" fill-opacity="1" d="M 330.070312 86.410156 C 330.070312 82.179688 323.726562 82.179688 323.726562 86.410156 C 323.726562 90.640625 330.070312 90.640625 330.070312 86.410156 Z M 330.070312 86.410156 "/>
<path fill-rule="nonzero" fill="rgb(100%, 38.82353%, 27.843139%)" fill-opacity="1" d="M 429.726562 192.8125 C 429.726562 188.582031 423.378906 188.582031 423.378906 192.8125 C 423.378906 197.042969 429.726562 197.042969 429.726562 192.8125 Z M 429.726562 192.8125 "/>
<path fill-rule="nonzero" fill="rgb(100%, 38.82353%, 27.843139%)" fill-opacity="1" d="M 128.964844 194.691406 C 128.964844 190.464844 122.617188 190.464844 122.617188 194.691406 C 122.617188 198.921875 128.964844 198.921875 128.964844 194.691406 Z M 128.964844 194.691406 "/>
<path fill-rule="nonzero" fill="rgb(100%, 38.82353%, 27.843139%)" fill-opacity="1" d="M 419.253906 360.023438 C 419.253906 355.792969 412.910156 355.792969 412.910156 360.023438 C 412.910156 364.253906 419.253906 364.253906 419.253906 360.023438 Z M 419.253906 360.023438 "/>
<path fill-rule="nonzero" fill="rgb(100%, 38.82353%, 27.843139%)" fill-opacity="1" d="M 89.445312 188.738281 C 89.445312 184.511719 83.101562 184.511719 83.101562 188.738281 C 83.101562 192.96875 89.445312 192.96875 89.445312 188.738281 Z M 89.445312 188.738281 "/>
<path fill-rule="nonzero" fill="rgb(100%, 38.82353%, 27.843139%)" fill-opacity="1" d="M 381.316406 211.679688 C 381.316406 207.449219 374.96875 207.449219 374.96875 211.679688 C 374.96875 215.910156 381.316406 215.910156 381.316406 211.679688 Z M 381.316406 211.679688 "/>
<path fill-rule="nonzero" fill="rgb(100%, 38.82353%, 27.843139%)" fill-opacity="1" d="M 417.957031 252.25 C 417.957031 248.019531 411.613281 248.019531 411.613281 252.25 C 411.613281 256.480469 417.957031 256.480469 417.957031 252.25 Z M 417.957031 252.25 "/>
<path fill-rule="nonzero" fill="rgb(100%, 38.82353%, 27.843139%)" fill-opacity="1" d="M 473.332031 373 C 473.332031 368.769531 466.988281 368.769531 466.988281 373 C 466.988281 377.230469 473.332031 377.230469 473.332031 373 Z M 473.332031 373 "/>
<path fill-rule="nonzero" fill="rgb(100%, 38.82353%, 27.843139%)" fill-opacity="1" d="M 461.8125 185.503906 C 461.8125 181.273438 455.46875 181.273438 455.46875 185.503906 C 455.46875 189.734375 461.8125 189.734375 461.8125 185.503906 Z M 461.8125 185.503906 "/>
<path fill-rule="nonzero" fill="rgb(100%, 38.82353%, 27.843139%)" fill-opacity="1" d="M 400.097656 372.027344 C 400.097656 367.800781 393.75 367.800781 393.75 372.027344 C 393.75 376.257812 400.097656 376.257812 400.097656 372.027344 Z M 400.097656 372.027344 "/>
<path fill-rule="nonzero" fill="rgb(100%, 38.82353%, 27.843139%)" fill-opacity="1" d="M 472.304688 138.503906 C 472.304688 134.273438 465.960938 134.273438 465.960938 138.503906 C 465.960938 142.734375 472.304688 142.734375 472.304688 138.503906 Z M 472.304688 138.503906 "/>
<path fill-rule="nonzero" fill="rgb(100%, 38.82353%, 27.843139%)" fill-opacity="1" d="M 176.824219 358.730469 C 176.824219 354.5 170.476562 354.5 170.476562 358.730469 C 170.476562 362.960938 176.824219 362.960938 176.824219 358.730469 Z M 176.824219 358.730469 "/>
<path fill-rule="nonzero" fill="rgb(100%, 38.82353%, 27.843139%)" fill-opacity="1" d="M 410.476562 334.445312 C 410.476562 330.214844 404.132812 330.214844 404.132812 334.445312 C 404.132812 338.675781 410.476562 338.675781 410.476562 334.445312 Z M 410.476562 334.445312 "/>
<path fill-rule="nonzero" fill="rgb(100%, 38.82353%, 27.843139%)" fill-opacity="1" d="M 381.019531 323.089844 C 381.019531 318.859375 374.671875 318.859375 374.671875 323.089844 C 374.671875 327.320312 381.019531 327.320312 381.019531 323.089844 Z M 381.019531 323.089844 "/>
<path fill-rule="nonzero" fill="rgb(100%, 38.82353%, 27.843139%)" fill-opacity="1" d="M 499.230469 112.90625 C 499.230469 108.675781 492.886719 108.675781 492.886719 112.90625 C 492.886719 117.136719 499.230469 117.136719 499.230469 112.90625 Z M 499.230469 112.90625 "/>
<path fill-rule="nonzero" fill="rgb(100%, 38.82353%, 27.843139%)" fill-opacity="1" d="M 185.304688 279.183594 C 185.304688 274.953125 178.957031 274.953125 178.957031 279.183594 C 178.957031 283.414062 185.304688 283.414062 185.304688 279.183594 Z M 185.304688 279.183594 "/>
<path fill-rule="nonzero" fill="rgb(100%, 38.82353%, 27.843139%)" fill-opacity="1" d="M 210.75 347.472656 C 210.75 343.242188 204.40625 343.242188 204.40625 347.472656 C 204.40625 351.703125 210.75 351.703125 210.75 347.472656 Z M 210.75 347.472656 "/>
<path fill-rule="nonzero" fill="rgb(100%, 38.82353%, 27.843139%)" fill-opacity="1" d="M 422.738281 44.960938 C 422.738281 40.730469 416.390625 40.730469 416.390625 44.960938 C 416.390625 49.191406 422.738281 49.191406 422.738281 44.960938 Z M 422.738281 44.960938 "/>
<path fill-rule="nonzero" fill="rgb(100%, 38.82353%, 27.843139%)" fill-opacity="1" d="M 177.023438 33 C 177.023438 28.769531 170.679688 28.769531 170.679688 33 C 170.679688 37.230469 177.023438 37.230469 177.023438 33 Z M 177.023438 33 "/>
<path fill-rule="nonzero" fill="rgb(59.607846%, 55.686277%, 83.529413%)" fill-opacity="1" d="M 281.292969 336.363281 C 281.292969 332.132812 274.949219 332.132812 274.949219 336.363281 C 274.949219 340.589844 281.292969 340.589844 281.292969 336.363281 Z M 281.292969 336.363281 "/>
<path fill-rule="nonzero" fill="rgb(59.607846%, 55.686277%, 83.529413%)" fill-opacity="1" d="M 116.019531 360.847656 C 116.019531 356.617188 109.675781 356.617188 109.675781 360.847656 C 109.675781 365.078125 116.019531 365.078125 116.019531 360.847656 Z M 116.019531 360.847656 "/>
<path fill-rule="nonzero" fill="rgb(59.607846%, 55.686277%, 83.529413%)" fill-opacity="1" d="M 270.398438 358.050781 C 270.398438 353.820312 264.054688 353.820312 264.054688 358.050781 C 264.054688 362.28125 270.398438 362.28125 270.398438 358.050781 Z M 270.398438 358.050781 "/>
<path fill-rule="nonzero" fill="rgb(59.607846%, 55.686277%, 83.529413%)" fill-opacity="1" d="M 222.164062 235.847656 C 222.164062 231.617188 215.820312 231.617188 215.820312 235.847656 C 215.820312 240.078125 222.164062 240.078125 222.164062 235.847656 Z M 222.164062 235.847656 "/>
<path fill-rule="nonzero" fill="rgb(59.607846%, 55.686277%, 83.529413%)" fill-opacity="1" d="M 436.917969 270.6875 C 436.917969 266.457031 430.574219 266.457031 430.574219 270.6875 C 430.574219 274.917969 436.917969 274.917969 436.917969 270.6875 Z M 436.917969 270.6875 "/>
<path fill-rule="nonzero" fill="rgb(59.607846%, 55.686277%, 83.529413%)" fill-opacity="1" d="M 170.199219 118.964844 C 170.199219 114.734375 163.851562 114.734375 163.851562 118.964844 C 163.851562 123.195312 170.199219 123.195312 170.199219 118.964844 Z M 170.199219 118.964844 "/>
<path fill-rule="nonzero" fill="rgb(59.607846%, 55.686277%, 83.529413%)" fill-opacity="1" d="M 214.011719 109.988281 C 214.011719 105.757812 207.667969 105.757812 207.667969 109.988281 C 207.667969 114.21875 214.011719 114.21875 214.011719 109.988281 Z M 214.011719 109.988281 "/>
<path fill-rule="nonzero" fill="rgb(59.607846%, 55.686277%, 83.529413%)" fill-opacity="1" d="M 94.261719 146.902344 C 94.261719 142.671875 87.917969 142.671875 87.917969 146.902344 C 87.917969 151.132812 94.261719 151.132812 94.261719 146.902344 Z M 94.261719 146.902344 "/>
<path fill-rule="nonzero" fill="rgb(59.607846%, 55.686277%, 83.529413%)" fill-opacity="1" d="M 249.296875 299.34375 C 249.296875 295.113281 242.953125 295.113281 242.953125 299.34375 C 242.953125 303.574219 249.296875 303.574219 249.296875 299.34375 Z M 249.296875 299.34375 "/>
<path fill-rule="nonzero" fill="rgb(59.607846%, 55.686277%, 83.529413%)" fill-opacity="1" d="M 471.128906 40.199219 C 471.128906 35.96875 464.785156 35.96875 464.785156 40.199219 C 464.785156 44.429688 471.128906 44.429688 471.128906 40.199219 Z M 471.128906 40.199219 "/>
<path fill-rule="nonzero" fill="rgb(59.607846%, 55.686277%, 83.529413%)" fill-opacity="1" d="M 514.898438 172.902344 C 514.898438 168.671875 508.554688 168.671875 508.554688 172.902344 C 508.554688 177.132812 514.898438 177.132812 514.898438 172.902344 Z M 514.898438 172.902344 "/>
<path fill-rule="nonzero" fill="rgb(59.607846%, 55.686277%, 83.529413%)" fill-opacity="1" d="M 423.59375 83.808594 C 423.59375 79.578125 417.25 79.578125 417.25 83.808594 C 417.25 88.039062 423.59375 88.039062 423.59375 83.808594 Z M 423.59375 83.808594 "/>
<path fill-rule="nonzero" fill="rgb(59.607846%, 55.686277%, 83.529413%)" fill-opacity="1" d="M 310.433594 181.460938 C 310.433594 177.230469 304.089844 177.230469 304.089844 181.460938 C 304.089844 185.691406 310.433594 185.691406 310.433594 181.460938 Z M 310.433594 181.460938 "/>
<path fill-rule="nonzero" fill="rgb(59.607846%, 55.686277%, 83.529413%)" fill-opacity="1" d="M 227.03125 107.785156 C 227.03125 103.554688 220.6875 103.554688 220.6875 107.785156 C 220.6875 112.015625 227.03125 112.015625 227.03125 107.785156 Z M 227.03125 107.785156 "/>
<path fill-rule="nonzero" fill="rgb(59.607846%, 55.686277%, 83.529413%)" fill-opacity="1" d="M 462.863281 66.019531 C 462.863281 61.789062 456.519531 61.789062 456.519531 66.019531 C 456.519531 70.25 462.863281 70.25 462.863281 66.019531 Z M 462.863281 66.019531 "/>
<path fill-rule="nonzero" fill="rgb(59.607846%, 55.686277%, 83.529413%)" fill-opacity="1" d="M 93.445312 292.367188 C 93.445312 288.136719 87.101562 288.136719 87.101562 292.367188 C 87.101562 296.597656 93.445312 296.597656 93.445312 292.367188 Z M 93.445312 292.367188 "/>
<path fill-rule="nonzero" fill="rgb(59.607846%, 55.686277%, 83.529413%)" fill-opacity="1" d="M 470.324219 273.417969 C 470.324219 269.191406 463.976562 269.191406 463.976562 273.417969 C 463.976562 277.648438 470.324219 277.648438 470.324219 273.417969 Z M 470.324219 273.417969 "/>
<path fill-rule="nonzero" fill="rgb(59.607846%, 55.686277%, 83.529413%)" fill-opacity="1" d="M 186.84375 114.789062 C 186.84375 110.5625 180.5 110.5625 180.5 114.789062 C 180.5 119.019531 186.84375 119.019531 186.84375 114.789062 Z M 186.84375 114.789062 "/>
<path fill-rule="nonzero" fill="rgb(59.607846%, 55.686277%, 83.529413%)" fill-opacity="1" d="M 164.515625 171.921875 C 164.515625 167.695312 158.167969 167.695312 158.167969 171.921875 C 158.167969 176.152344 164.515625 176.152344 164.515625 171.921875 Z M 164.515625 171.921875 "/>
<path fill-rule="nonzero" fill="rgb(59.607846%, 55.686277%, 83.529413%)" fill-opacity="1" d="M 268.503906 279.148438 C 268.503906 274.917969 262.160156 274.917969 262.160156 279.148438 C 262.160156 283.378906 268.503906 283.378906 268.503906 279.148438 Z M 268.503906 279.148438 "/>
<path fill-rule="nonzero" fill="rgb(59.607846%, 55.686277%, 83.529413%)" fill-opacity="1" d="M 388.621094 133.234375 C 388.621094 129.003906 382.277344 129.003906 382.277344 133.234375 C 382.277344 137.464844 388.621094 137.464844 388.621094 133.234375 Z M 388.621094 133.234375 "/>
<path fill-rule="nonzero" fill="rgb(0%, 100%, 0%)" fill-opacity="1" d="M 117.277344 61.003906 C 117.277344 56.773438 110.933594 56.773438 110.933594 61.003906 C 110.933594 65.234375 117.277344 65.234375 117.277344 61.003906 Z M 117.277344 61.003906 "/>
<path fill-rule="nonzero" fill="rgb(0%, 100%, 0%)" fill-opacity="1" d="M 400.164062 114.253906 C 400.164062 110.023438 393.820312 110.023438 393.820312 114.253906 C 393.820312 118.484375 400.164062 118.484375 400.164062 114.253906 Z M 400.164062 114.253906 "/>
<path fill-rule="nonzero" fill="rgb(0%, 100%, 0%)" fill-opacity="1" d="M 202.179688 273.488281 C 202.179688 269.257812 195.835938 269.257812 195.835938 273.488281 C 195.835938 277.71875 202.179688 277.71875 202.179688 273.488281 Z M 202.179688 273.488281 "/>
<path fill-rule="nonzero" fill="rgb(0%, 100%, 0%)" fill-opacity="1" d="M 201.382812 250.988281 C 201.382812 246.757812 195.035156 246.757812 195.035156 250.988281 C 195.035156 255.21875 201.382812 255.21875 201.382812 250.988281 Z M 201.382812 250.988281 "/>
<path fill-rule="nonzero" fill="rgb(0%, 100%, 0%)" fill-opacity="1" d="M 264.5625 127.539062 C 264.5625 123.308594 258.21875 123.308594 258.21875 127.539062 C 258.21875 131.769531 264.5625 131.769531 264.5625 127.539062 Z M 264.5625 127.539062 "/>
<path fill-rule="nonzero" fill="rgb(0%, 100%, 0%)" fill-opacity="1" d="M 417.546875 270.390625 C 417.546875 266.160156 411.203125 266.160156 411.203125 270.390625 C 411.203125 274.621094 417.546875 274.621094 417.546875 270.390625 Z M 417.546875 270.390625 "/>
<path fill-rule="nonzero" fill="rgb(0%, 100%, 0%)" fill-opacity="1" d="M 394.394531 96.738281 C 394.394531 92.511719 388.050781 92.511719 388.050781 96.738281 C 388.050781 100.96875 394.394531 100.96875 394.394531 96.738281 Z M 394.394531 96.738281 "/>
<path fill-rule="nonzero" fill="rgb(0%, 100%, 0%)" fill-opacity="1" d="M 202.171875 167.273438 C 202.171875 163.042969 195.828125 163.042969 195.828125 167.273438 C 195.828125 171.503906 202.171875 171.503906 202.171875 167.273438 Z M 202.171875 167.273438 "/>
<path fill-rule="nonzero" fill="rgb(0%, 100%, 0%)" fill-opacity="1" d="M 174.648438 141.332031 C 174.648438 137.101562 168.304688 137.101562 168.304688 141.332031 C 168.304688 145.5625 174.648438 145.5625 174.648438 141.332031 Z M 174.648438 141.332031 "/>
<path fill-rule="nonzero" fill="rgb(0%, 100%, 0%)" fill-opacity="1" d="M 210.695312 345.640625 C 210.695312 341.410156 204.347656 341.410156 204.347656 345.640625 C 204.347656 349.871094 210.695312 349.871094 210.695312 345.640625 Z M 210.695312 345.640625 "/>
<path fill-rule="nonzero" fill="rgb(0%, 100%, 0%)" fill-opacity="1" d="M 305.949219 230.765625 C 305.949219 226.535156 299.605469 226.535156 299.605469 230.765625 C 299.605469 234.996094 305.949219 234.996094 305.949219 230.765625 Z M 305.949219 230.765625 "/>
<path fill-rule="nonzero" fill="rgb(0%, 100%, 0%)" fill-opacity="1" d="M 134.832031 202.308594 C 134.832031 198.082031 128.488281 198.082031 128.488281 202.308594 C 128.488281 206.539062 134.832031 206.539062 134.832031 202.308594 Z M 134.832031 202.308594 "/>
<path fill-rule="nonzero" fill="rgb(0%, 100%, 0%)" fill-opacity="1" d="M 336.902344 115.335938 C 336.902344 111.105469 330.558594 111.105469 330.558594 115.335938 C 330.558594 119.566406 336.902344 119.566406 336.902344 115.335938 Z M 336.902344 115.335938 "/>
<path fill-rule="nonzero" fill="rgb(0%, 100%, 0%)" fill-opacity="1" d="M 476.726562 228.632812 C 476.726562 224.402344 470.378906 224.402344 470.378906 228.632812 C 470.378906 232.863281 476.726562 232.863281 476.726562 228.632812 Z M 476.726562 228.632812 "/>
<path fill-rule="nonzero" fill="rgb(0%, 100%, 0%)" fill-opacity="1" d="M 96.839844 156.832031 C 96.839844 152.601562 90.496094 152.601562 90.496094 156.832031 C 90.496094 161.0625 96.839844 161.0625 96.839844 156.832031 Z M 96.839844 156.832031 "/>
<path fill-rule="nonzero" fill="rgb(0%, 100%, 0%)" fill-opacity="1" d="M 404.371094 365.664062 C 404.371094 361.433594 398.023438 361.433594 398.023438 365.664062 C 398.023438 369.894531 404.371094 369.894531 404.371094 365.664062 Z M 404.371094 365.664062 "/>
<path fill-rule="nonzero" fill="rgb(0%, 100%, 0%)" fill-opacity="1" d="M 132.597656 214.5625 C 132.597656 210.335938 126.25 210.335938 126.25 214.5625 C 126.25 218.792969 132.597656 218.792969 132.597656 214.5625 Z M 132.597656 214.5625 "/>
<path fill-rule="nonzero" fill="rgb(0%, 100%, 0%)" fill-opacity="1" d="M 180.808594 244.128906 C 180.808594 239.898438 174.460938 239.898438 174.460938 244.128906 C 174.460938 248.359375 180.808594 248.359375 180.808594 244.128906 Z M 180.808594 244.128906 "/>
<path fill-rule="nonzero" fill="rgb(0%, 100%, 0%)" fill-opacity="1" d="M 168.171875 209.203125 C 168.171875 204.972656 161.828125 204.972656 161.828125 209.203125 C 161.828125 213.433594 168.171875 213.433594 168.171875 209.203125 Z M 168.171875 209.203125 "/>
<path fill-rule="nonzero" fill="rgb(0%, 100%, 0%)" fill-opacity="1" d="M 102.441406 360.441406 C 102.441406 356.214844 96.097656 356.214844 96.097656 360.441406 C 96.097656 364.671875 102.441406 364.671875 102.441406 360.441406 Z M 102.441406 360.441406 "/>
<path fill-rule="nonzero" fill="rgb(0%, 100%, 0%)" fill-opacity="1" d="M 95.796875 346.652344 C 95.796875 342.421875 89.453125 342.421875 89.453125 346.652344 C 89.453125 350.882812 95.796875 350.882812 95.796875 346.652344 Z M 95.796875 346.652344 "/>
<path fill-rule="nonzero" fill="rgb(0%, 100%, 0%)" fill-opacity="1" d="M 100.292969 85.324219 C 100.292969 81.09375 93.949219 81.09375 93.949219 85.324219 C 93.949219 89.554688 100.292969 89.554688 100.292969 85.324219 Z M 100.292969 85.324219 "/>
<path fill-rule="nonzero" fill="rgb(0%, 100%, 0%)" fill-opacity="1" d="M 290.855469 172.75 C 290.855469 168.519531 284.507812 168.519531 284.507812 172.75 C 284.507812 176.980469 290.855469 176.980469 290.855469 172.75 Z M 290.855469 172.75 "/>
<path fill-rule="nonzero" fill="rgb(0%, 100%, 0%)" fill-opacity="1" d="M 291.867188 55.511719 C 291.867188 51.28125 285.523438 51.28125 285.523438 55.511719 C 285.523438 59.742188 291.867188 59.742188 291.867188 55.511719 Z M 291.867188 55.511719 "/>
<path fill-rule="nonzero" fill="rgb(0%, 100%, 0%)" fill-opacity="1" d="M 176.332031 142.898438 C 176.332031 138.667969 169.988281 138.667969 169.988281 142.898438 C 169.988281 147.128906 176.332031 147.128906 176.332031 142.898438 Z M 176.332031 142.898438 "/>
<path fill-rule="nonzero" fill="rgb(0%, 100%, 0%)" fill-opacity="1" d="M 476.363281 364.644531 C 476.363281 360.417969 470.015625 360.417969 470.015625 364.644531 C 470.015625 368.875 476.363281 368.875 476.363281 364.644531 Z M 476.363281 364.644531 "/>
<path fill-rule="nonzero" fill="rgb(0%, 100%, 0%)" fill-opacity="1" d="M 403.285156 276.5625 C 403.285156 272.332031 396.941406 272.332031 396.941406 276.5625 C 396.941406 280.792969 403.285156 280.792969 403.285156 276.5625 Z M 403.285156 276.5625 "/>
<path fill-rule="nonzero" fill="rgb(0%, 100%, 0%)" fill-opacity="1" d="M 346.929688 119.058594 C 346.929688 114.828125 340.585938 114.828125 340.585938 119.058594 C 340.585938 123.289062 346.929688 123.289062 346.929688 119.058594 Z M 346.929688 119.058594 "/>
<path fill-rule="nonzero" fill="rgb(46.666667%, 46.666667%, 46.666667%)" fill-opacity="1" d="M 446.792969 87.4375 C 446.792969 83.207031 440.445312 83.207031 440.445312 87.4375 C 440.445312 91.667969 446.792969 91.667969 446.792969 87.4375 Z M 446.792969 87.4375 "/>
<path fill-rule="nonzero" fill="rgb(46.666667%, 46.666667%, 46.666667%)" fill-opacity="1" d="M 439.207031 271.511719 C 439.207031 267.28125 432.859375 267.28125 432.859375 271.511719 C 432.859375 275.742188 439.207031 275.742188 439.207031 271.511719 Z M 439.207031 271.511719 "/>
<path fill-rule="nonzero" fill="rgb(46.666667%, 46.666667%, 46.666667%)" fill-opacity="1" d="M 263.800781 201.894531 C 263.800781 197.664062 257.457031 197.664062 257.457031 201.894531 C 257.457031 206.121094 263.800781 206.121094 263.800781 201.894531 Z M 263.800781 201.894531 "/>
<path fill-rule="nonzero" fill="rgb(46.666667%, 46.666667%, 46.666667%)" fill-opacity="1" d="M 94.882812 217.222656 C 94.882812 212.992188 88.539062 212.992188 88.539062 217.222656 C 88.539062 221.453125 94.882812 221.453125 94.882812 217.222656 Z M 94.882812 217.222656 "/>
<path fill-rule="nonzero" fill="rgb(46.666667%, 46.666667%, 46.666667%)" fill-opacity="1" d="M 352.441406 237.609375 C 352.441406 233.378906 346.097656 233.378906 346.097656 237.609375 C 346.097656 241.839844 352.441406 241.839844 352.441406 237.609375 Z M 352.441406 237.609375 "/>
<path fill-rule="nonzero" fill="rgb(46.666667%, 46.666667%, 46.666667%)" fill-opacity="1" d="M 251.785156 83.15625 C 251.785156 78.925781 245.4375 78.925781 245.4375 83.15625 C 245.4375 87.386719 251.785156 87.386719 251.785156 83.15625 Z M 251.785156 83.15625 "/>
<path fill-rule="nonzero" fill="rgb(46.666667%, 46.666667%, 46.666667%)" fill-opacity="1" d="M 329.980469 304.414062 C 329.980469 300.183594 323.632812 300.183594 323.632812 304.414062 C 323.632812 308.644531 329.980469 308.644531 329.980469 304.414062 Z M 329.980469 304.414062 "/>
<path fill-rule="nonzero" fill="rgb(46.666667%, 46.666667%, 46.666667%)" fill-opacity="1" d="M 479.914062 86.472656 C 479.914062 82.242188 473.570312 82.242188 473.570312 86.472656 C 473.570312 90.703125 479.914062 90.703125 479.914062 86.472656 Z M 479.914062 86.472656 "/>
<path fill-rule="nonzero" fill="rgb(46.666667%, 46.666667%, 46.666667%)" fill-opacity="1" d="M 477.800781 65.6875 C 477.800781 61.457031 471.457031 61.457031 471.457031 65.6875 C 471.457031 69.917969 477.800781 69.917969 477.800781 65.6875 Z M 477.800781 65.6875 "/>
<path fill-rule="nonzero" fill="rgb(46.666667%, 46.666667%, 46.666667%)" fill-opacity="1" d="M 171.976562 259.839844 C 171.976562 255.609375 165.628906 255.609375 165.628906 259.839844 C 165.628906 264.066406 171.976562 264.066406 171.976562 259.839844 Z M 171.976562 259.839844 "/>
<path fill-rule="nonzero" fill="rgb(46.666667%, 46.666667%, 46.666667%)" fill-opacity="1" d="M 316.375 50.707031 C 316.375 46.476562 310.03125 46.476562 310.03125 50.707031 C 310.03125 54.9375 316.375 54.9375 316.375 50.707031 Z M 316.375 50.707031 "/>
<path fill-rule="nonzero" fill="rgb(46.666667%, 46.666667%, 46.666667%)" fill-opacity="1" d="M 148.25 215.277344 C 148.25 211.046875 141.902344 211.046875 141.902344 215.277344 C 141.902344 219.507812 148.25 219.507812 148.25 215.277344 Z M 148.25 215.277344 "/>
<path fill-rule="nonzero" fill="rgb(46.666667%, 46.666667%, 46.666667%)" fill-opacity="1" d="M 234.6875 330.445312 C 234.6875 326.214844 228.34375 326.214844 228.34375 330.445312 C 228.34375 334.675781 234.6875 334.675781 234.6875 330.445312 Z M 234.6875 330.445312 "/>
<path fill-rule="nonzero" fill="rgb(46.666667%, 46.666667%, 46.666667%)" fill-opacity="1" d="M 448.453125 132.484375 C 448.453125 128.253906 442.105469 128.253906 442.105469 132.484375 C 442.105469 136.714844 448.453125 136.714844 448.453125 132.484375 Z M 448.453125 132.484375 "/>
<path fill-rule="nonzero" fill="rgb(46.666667%, 46.666667%, 46.666667%)" fill-opacity="1" d="M 446.097656 245.164062 C 446.097656 240.933594 439.753906 240.933594 439.753906 245.164062 C 439.753906 249.394531 446.097656 249.394531 446.097656 245.164062 Z M 446.097656 245.164062 "/>
<path fill-rule="nonzero" fill="rgb(46.666667%, 46.666667%, 46.666667%)" fill-opacity="1" d="M 433.480469 288.746094 C 433.480469 284.515625 427.136719 284.515625 427.136719 288.746094 C 427.136719 292.976562 433.480469 292.976562 433.480469 288.746094 Z M 433.480469 288.746094 "/>
<path fill-rule="nonzero" fill="rgb(46.666667%, 46.666667%, 46.666667%)" fill-opacity="1" d="M 268.5625 164.066406 C 268.5625 159.835938 262.21875 159.835938 262.21875 164.066406 C 262.21875 168.292969 268.5625 168.292969 268.5625 164.066406 Z M 268.5625 164.066406 "/>
<path fill-rule="nonzero" fill="rgb(46.666667%, 46.666667%, 46.666667%)" fill-opacity="1" d="M 146.476562 334.898438 C 146.476562 330.667969 140.128906 330.667969 140.128906 334.898438 C 140.128906 339.128906 146.476562 339.128906 146.476562 334.898438 Z M 146.476562 334.898438 "/>
<path fill-rule="nonzero" fill="rgb(46.666667%, 46.666667%, 46.666667%)" fill-opacity="1" d="M 361 75.386719 C 361 71.15625 354.652344 71.15625 354.652344 75.386719 C 354.652344 79.613281 361 79.613281 361 75.386719 Z M 361 75.386719 "/>
<path fill-rule="nonzero" fill="rgb(46.666667%, 46.666667%, 46.666667%)" fill-opacity="1" d="M 121.960938 208.464844 C 121.960938 204.234375 115.617188 204.234375 115.617188 208.464844 C 115.617188 212.695312 121.960938 212.695312 121.960938 208.464844 Z M 121.960938 208.464844 "/>
<path fill-rule="nonzero" fill="rgb(46.666667%, 46.666667%, 46.666667%)" fill-opacity="1" d="M 398.339844 53.660156 C 398.339844 49.429688 391.992188 49.429688 391.992188 53.660156 C 391.992188 57.890625 398.339844 57.890625 398.339844 53.660156 Z M 398.339844 53.660156 "/>
<path fill-rule="nonzero" fill="rgb(46.666667%, 46.666667%, 46.666667%)" fill-opacity="1" d="M 366.136719 372.941406 C 366.136719 368.710938 359.792969 368.710938 359.792969 372.941406 C 359.792969 377.171875 366.136719 377.171875 366.136719 372.941406 Z M 366.136719 372.941406 "/>
<path fill-rule="nonzero" fill="rgb(46.666667%, 46.666667%, 46.666667%)" fill-opacity="1" d="M 343.429688 236.148438 C 343.429688 231.917969 337.085938 231.917969 337.085938 236.148438 C 337.085938 240.378906 343.429688 240.378906 343.429688 236.148438 Z M 343.429688 236.148438 "/>
<path fill-rule="nonzero" fill="rgb(46.666667%, 46.666667%, 46.666667%)" fill-opacity="1" d="M 213.75 318.433594 C 213.75 314.203125 207.402344 314.203125 207.402344 318.433594 C 207.402344 322.664062 213.75 322.664062 213.75 318.433594 Z M 213.75 318.433594 "/>
<path fill-rule="nonzero" fill="rgb(46.666667%, 46.666667%, 46.666667%)" fill-opacity="1" d="M 170.496094 308.09375 C 170.496094 303.863281 164.148438 303.863281 164.148438 308.09375 C 164.148438 312.324219 170.496094 312.324219 170.496094 308.09375 Z M 170.496094 308.09375 "/>
<path fill="none" stroke-width="1" stroke-linecap="butt" stroke-linejoin="miter" stroke="rgb(66.274512%, 66.274512%, 66.274512%)" stroke-opacity="1" stroke-miterlimit="1.154701" d="M 78.175781 390.5 L 78.175781 395.5 "/>
<path fill="none" stroke-width="1" stroke-linecap="butt" stroke-linejoin="miter" stroke="rgb(66.274512%, 66.274512%, 66.274512%)" stroke-opacity="1" stroke-miterlimit="1.154701" d="M 295.003906 390.5 L 295.003906 395.5 "/>
<path fill="none" stroke-width="1" stroke-linecap="butt" stroke-linejoin="miter" stroke="rgb(66.274512%, 66.274512%, 66.274512%)" stroke-opacity="1" stroke-miterlimit="1.154701" d="M 511.832031 390.5 L 511.832031 395.5 "/>
<path fill="none" stroke-width="1" stroke-linecap="butt" stroke-linejoin="miter" stroke="rgb(66.274512%, 66.274512%, 66.274512%)" stroke-opacity="1" stroke-miterlimit="1.154701" d="M 64.5 373.269531 L 59.5 373.269531 "/>
<path fill="none" stroke-width="1" stroke-linecap="butt" stroke-linejoin="miter" stroke="rgb(66.274512%, 66.274512%, 66.274512%)" stroke-opacity="1" stroke-miterlimit="1.154701" d="M 64.5 198.703125 L 59.5 198.703125 "/>
<path fill="none" stroke-width="1" stroke-linecap="butt" stroke-linejoin="miter" stroke="rgb(66.274512%, 66.274512%, 66.274512%)" stroke-opacity="1" stroke-miterlimit="1.154701" d="M 64.5 24.136719 L 59.5 24.136719 "/>
<path fill-rule="nonzero" fill="rgb(100%, 38.82353%, 27.843139%)" fill-opacity="1" d="M 564.078125 180.898438 C 564.078125 176.671875 557.734375 176.671875 557.734375 180.898438 C 557.734375 185.128906 564.078125 185.128906 564.078125 180.898438 Z M 564.078125 180.898438 "/>
<path fill-rule="nonzero" fill="rgb(59.607846%, 55.686277%, 83.529413%)" fill-opacity="1" d="M 564.078125 203.898438 C 564.078125 199.671875 557.734375 199.671875 557.734375 203.898438 C 557.734375 208.128906 564.078125 208.128906 564.078125 203.898438 Z M 564.078125 203.898438 "/>
<path fill-rule="nonzero" fill="rgb(0%, 100%, 0%)" fill-opacity="1" d="M 564.078125 226.898438 C 564.078125 222.671875 557.734375 222.671875 557.734375 226.898438 C 557.734375 231.128906 564.078125 231.128906 564.078125 226.898438 Z M 564.078125 226.898438 "/>
<path fill-rule="nonzero" fill="rgb(46.666667%, 46.666667%, 46.666667%)" fill-opacity="1" d="M 564.078125 249.898438 C 564.078125 245.671875 557.734375 245.671875 557.734375 249.898438 C 557.734375 254.128906 564.078125 254.128906 564.078125 249.898438 Z M 564.078125 249.898438 "/>
<g fill="rgb(0%, 0%, 0%)" fill-opacity="1">
<use xlink:href="#glyph-13-0-c0ca30f2" x="564.357056" y="159.189957"/>
</g>
<g fill="rgb(0%, 0%, 0%)" fill-opacity="1">
<use xlink:href="#glyph-1-3-c0ca30f2" x="575.905029" y="185.589966"/>
</g>
<g fill="rgb(0%, 0%, 0%)" fill-opacity="1">
<use xlink:href="#glyph-1-4-c0ca30f2" x="575.905029" y="208.589966"/>
</g>
<g fill="rgb(0%, 0%, 0%)" fill-opacity="1">
<use xlink:href="#glyph-14-0-c0ca30f2" x="575.905029" y="231.589966"/>
</g>
<g fill="rgb(0%, 0%, 0%)" fill-opacity="1">
<use xlink:href="#glyph-1-5-c0ca30f2" x="575.905029" y="254.589966"/>
</g>
<path fill="none" stroke-width="1" stroke-linecap="butt" stroke-linejoin="miter" stroke="rgb(66.274512%, 66.274512%, 66.274512%)" stroke-opacity="1" stroke-miterlimit="1.154701" d="M 64.5 390 L 533.5 390 "/>
<path fill="none" stroke-width="1" stroke-linecap="butt" stroke-linejoin="miter" stroke="rgb(66.274512%, 66.274512%, 66.274512%)" stroke-opacity="1" stroke-miterlimit="1.154701" d="M 65 390.5 L 65 15.5 "/>
</svg>
