<?xml version="1.0" encoding="UTF-8"?>
<svg xmlns="http://www.w3.org/2000/svg" xmlns:xlink="http://www.w3.org/1999/xlink" width="600" height="450" viewBox="0 0 600 450">
<defs>
<g>
<g id="glyph-0-0-ca1064ab">
<path d="M 4.5625 -3.96875 L 7.046875 0 L 4.96875 0 L 3.4375 -2.9375 L 1.9375 0 L -0.046875 0 L 2.421875 -3.90625 L 0.203125 -7.40625 L 2.25 -7.40625 L 3.515625 -4.890625 L 4.765625 -7.40625 L 6.703125 -7.40625 Z M 4.5625 -3.96875 "/>
</g>
<g id="glyph-1-0-ca1064ab">
<path d="M 3.84375 -9.46875 C 4.8125 -9.46875 5.539062 -9.054688 6.03125 -8.234375 C 6.53125 -7.421875 6.78125 -6.222656 6.78125 -4.640625 C 6.78125 -3.078125 6.53125 -1.882812 6.03125 -1.0625 C 5.53125 -0.25 4.800781 0.15625 3.84375 0.15625 C 2.882812 0.15625 2.15625 -0.25 1.65625 -1.0625 C 1.164062 -1.882812 0.921875 -3.082031 0.921875 -4.65625 C 0.921875 -6.238281 1.164062 -7.4375 1.65625 -8.25 C 2.15625 -9.0625 2.882812 -9.46875 3.84375 -9.46875 Z M 3.84375 -8.796875 C 2.457031 -8.796875 1.765625 -7.414062 1.765625 -4.65625 C 1.765625 -1.894531 2.457031 -0.515625 3.84375 -0.515625 C 4.53125 -0.515625 5.046875 -0.847656 5.390625 -1.515625 C 5.742188 -2.191406 5.921875 -3.234375 5.921875 -4.640625 C 5.921875 -6.054688 5.742188 -7.101562 5.390625 -7.78125 C 5.046875 -8.457031 4.53125 -8.796875 3.84375 -8.796875 Z M 3.84375 -8.796875 "/>
</g>
<g id="glyph-2-0-ca1064ab">
<path d="M 1.4375 -1.171875 C 1.632812 -1.171875 1.796875 -1.109375 1.921875 -0.984375 C 2.046875 -0.859375 2.109375 -0.703125 2.109375 -0.515625 C 2.109375 -0.316406 2.046875 -0.15625 1.921875 -0.03125 C 1.796875 0.09375 1.632812 0.15625 1.4375 0.15625 C 1.25 0.15625 1.085938 0.09375 0.953125 -0.03125 C 0.828125 -0.164062 0.765625 -0.328125 0.765625 -0.515625 C 0.765625 -0.703125 0.828125 -0.859375 0.953125 -0.984375 C 1.085938 -1.109375 1.25 -1.171875 1.4375 -1.171875 Z M 1.4375 -1.171875 "/>
</g>
<g id="glyph-2-1-ca1064ab">
<path d="M 3.84375 -9.46875 C 4.8125 -9.46875 5.539062 -9.054688 6.03125 -8.234375 C 6.53125 -7.421875 6.78125 -6.222656 6.78125 -4.640625 C 6.78125 -3.078125 6.53125 -1.882812 6.03125 -1.0625 C 5.53125 -0.25 4.800781 0.15625 3.84375 0.15625 C 2.882812 0.15625 2.15625 -0.25 1.65625 -1.0625 C 1.164062 -1.882812 0.921875 -3.082031 0.921875 -4.65625 C 0.921875 -6.238281 1.164062 -7.4375 1.65625 -8.25 C 2.15625 -9.0625 2.882812 -9.46875 3.84375 -9.46875 Z M 3.84375 -8.796875 C 2.457031 -8.796875 1.765625 -7.414062 1.765625 -4.65625 C 1.765625 -1.894531 2.457031 -0.515625 3.84375 -0.515625 C 4.53125 -0.515625 5.046875 -0.847656 5.390625 -1.515625 C 5.742188 -2.191406 5.921875 -3.234375 5.921875 -4.640625 C 5.921875 -6.054688 5.742188 -7.101562 5.390625 -7.78125 C 5.046875 -8.457031 4.53125 -8.796875 3.84375 -8.796875 Z M 3.84375 -8.796875 "/>
</g>
<g id="glyph-3-0-ca1064ab">
<path d="M 3.84375 -9.46875 C 4.8125 -9.46875 5.539062 -9.054688 6.03125 -8.234375 C 6.53125 -7.421875 6.78125 -6.222656 6.78125 -4.640625 C 6.78125 -3.078125 6.53125 -1.882812 6.03125 -1.0625 C 5.53125 -0.25 4.800781 0.15625 3.84375 0.15625 C 2.882812 0.15625 2.15625 -0.25 1.65625 -1.0625 C 1.164062 -1.882812 0.921875 -3.082031 0.921875 -4.65625 C 0.921875 -6.238281 1.164062 -7.4375 1.65625 -8.25 C 2.15625 -9.0625 2.882812 -9.46875 3.84375 -9.46875 Z M 3.84375 -8.796875 C 2.457031 -8.796875 1.765625 -7.414062 1.765625 -4.65625 C 1.765625 -1.894531 2.457031 -0.515625 3.84375 -0.515625 C 4.53125 -0.515625 5.046875 -0.847656 5.390625 -1.515625 C 5.742188 -2.191406 5.921875 -3.234375 5.921875 -4.640625 C 5.921875 -6.054688 5.742188 -7.101562 5.390625 -7.78125 C 5.046875 -8.457031 4.53125 -8.796875 3.84375 -8.796875 Z M 3.84375 -8.796875 "/>
</g>
<g id="glyph-3-1-ca1064ab">
<path d="M 5.671875 -8.640625 L 1.890625 -8.640625 L 1.890625 -5.453125 C 2.398438 -5.742188 2.929688 -5.890625 3.484375 -5.890625 C 4.285156 -5.890625 4.921875 -5.628906 5.390625 -5.109375 C 5.867188 -4.597656 6.109375 -3.894531 6.109375 -3 C 6.109375 -2.394531 5.984375 -1.847656 5.734375 -1.359375 C 5.484375 -0.878906 5.128906 -0.503906 4.671875 -0.234375 C 4.222656 0.0234375 3.703125 0.15625 3.109375 0.15625 C 2.066406 0.15625 1.1875 -0.21875 0.46875 -0.96875 L 0.984375 -1.453125 C 1.273438 -1.140625 1.585938 -0.90625 1.921875 -0.75 C 2.265625 -0.601562 2.660156 -0.53125 3.109375 -0.53125 C 3.773438 -0.53125 4.296875 -0.75 4.671875 -1.1875 C 5.054688 -1.632812 5.25 -2.242188 5.25 -3.015625 C 5.25 -3.753906 5.070312 -4.304688 4.71875 -4.671875 C 4.375 -5.046875 3.898438 -5.234375 3.296875 -5.234375 C 3.003906 -5.234375 2.742188 -5.195312 2.515625 -5.125 C 2.285156 -5.0625 2.03125 -4.945312 1.75 -4.78125 L 1.109375 -4.78125 L 1.109375 -9.3125 L 5.796875 -9.3125 Z M 5.671875 -8.640625 "/>
</g>
<g id="glyph-3-2-ca1064ab">
<path d="M 4.09375 -9.3125 L 4.09375 0 L 3.28125 0 L 3.28125 -8.40625 L 0.984375 -6.984375 L 0.609375 -7.59375 L 3.390625 -9.3125 Z M 4.09375 -9.3125 "/>
</g>
<g id="glyph-3-3-ca1064ab">
<path d="M 1.4375 -1.171875 C 1.632812 -1.171875 1.796875 -1.109375 1.921875 -0.984375 C 2.046875 -0.859375 2.109375 -0.703125 2.109375 -0.515625 C 2.109375 -0.316406 2.046875 -0.15625 1.921875 -0.03125 C 1.796875 0.09375 1.632812 0.15625 1.4375 0.15625 C 1.25 0.15625 1.085938 0.09375 0.953125 -0.03125 C 0.828125 -0.164062 0.765625 -0.328125 0.765625 -0.515625 C 0.765625 -0.703125 0.828125 -0.859375 0.953125 -0.984375 C 1.085938 -1.109375 1.25 -1.171875 1.4375 -1.171875 Z M 1.4375 -1.171875 "/>
</g>
<g id="glyph-4-0-ca1064ab">
<path d="M 1.4375 -1.171875 C 1.632812 -1.171875 1.796875 -1.109375 1.921875 -0.984375 C 2.046875 -0.859375 2.109375 -0.703125 2.109375 -0.515625 C 2.109375 -0.316406 2.046875 -0.15625 1.921875 -0.03125 C 1.796875 0.09375 1.632812 0.15625 1.4375 0.15625 C 1.25 0.15625 1.085938 0.09375 0.953125 -0.03125 C 0.828125 -0.164062 0.765625 -0.328125 0.765625 -0.515625 C 0.765625 -0.703125 0.828125 -0.859375 0.953125 -0.984375 C 1.085938 -1.109375 1.25 -1.171875 1.4375 -1.171875 Z M 1.4375 -1.171875 "/>
</g>
<g id="glyph-5-0-ca1064ab">
<path d="M 0.03125 -4.65625 C 0.945312 -4.363281 1.65625 -3.910156 2.15625 -3.296875 C 2.664062 -2.691406 2.960938 -1.863281 3.046875 -0.8125 L 1.75 -0.625 C 1.675781 -1.113281 1.570312 -1.503906 1.4375 -1.796875 C 1.300781 -2.085938 1.117188 -2.320312 0.890625 -2.5 C 0.671875 -2.675781 0.375 -2.84375 0 -3 L 0 -2.375 L -7.40625 -0.03125 L -7.40625 -1.9375 L -1.1875 -3.546875 L -7.40625 -5.21875 L -7.40625 -7.0625 Z M 0.03125 -4.65625 "/>
</g>
<g id="glyph-6-0-ca1064ab">
<path d="M 1.4375 -1.171875 C 1.632812 -1.171875 1.796875 -1.109375 1.921875 -0.984375 C 2.046875 -0.859375 2.109375 -0.703125 2.109375 -0.515625 C 2.109375 -0.316406 2.046875 -0.15625 1.921875 -0.03125 C 1.796875 0.09375 1.632812 0.15625 1.4375 0.15625 C 1.25 0.15625 1.085938 0.09375 0.953125 -0.03125 C 0.828125 -0.164062 0.765625 -0.328125 0.765625 -0.515625 C 0.765625 -0.703125 0.828125 -0.859375 0.953125 -0.984375 C 1.085938 -1.109375 1.25 -1.171875 1.4375 -1.171875 Z M 1.4375 -1.171875 "/>
</g>
<g id="glyph-7-0-ca1064ab">
<path d="M 3.84375 -9.46875 C 4.8125 -9.46875 5.539062 -9.054688 6.03125 -8.234375 C 6.53125 -7.421875 6.78125 -6.222656 6.78125 -4.640625 C 6.78125 -3.078125 6.53125 -1.882812 6.03125 -1.0625 C 5.53125 -0.25 4.800781 0.15625 3.84375 0.15625 C 2.882812 0.15625 2.15625 -0.25 1.65625 -1.0625 C 1.164062 -1.882812 0.921875 -3.082031 0.921875 -4.65625 C 0.921875 -6.238281 1.164062 -7.4375 1.65625 -8.25 C 2.15625 -9.0625 2.882812 -9.46875 3.84375 -9.46875 Z M 3.84375 -8.796875 C 2.457031 -8.796875 1.765625 -7.414062 1.765625 -4.65625 C 1.765625 -1.894531 2.457031 -0.515625 3.84375 -0.515625 C 4.53125 -0.515625 5.046875 -0.847656 5.390625 -1.515625 C 5.742188 -2.191406 5.921875 -3.234375 5.921875 -4.640625 C 5.921875 -6.054688 5.742188 -7.101562 5.390625 -7.78125 C 5.046875 -8.457031 4.53125 -8.796875 3.84375 -8.796875 Z M 3.84375 -8.796875 "/>
</g>
<g id="glyph-8-0-ca1064ab">
<path d="M 3.84375 -9.46875 C 4.8125 -9.46875 5.539062 -9.054688 6.03125 -8.234375 C 6.53125 -7.421875 6.78125 -6.222656 6.78125 -4.640625 C 6.78125 -3.078125 6.53125 -1.882812 6.03125 -1.0625 C 5.53125 -0.25 4.800781 0.15625 3.84375 0.15625 C 2.882812 0.15625 2.15625 -0.25 1.65625 -1.0625 C 1.164062 -1.882812 0.921875 -3.082031 0.921875 -4.65625 C 0.921875 -6.238281 1.164062 -7.4375 1.65625 -8.25 C 2.15625 -9.0625 2.882812 -9.46875 3.84375 -9.46875 Z M 3.84375 -8.796875 C 2.457031 -8.796875 1.765625 -7.414062 1.765625 -4.65625 C 1.765625 -1.894531 2.457031 -0.515625 3.84375 -0.515625 C 4.53125 -0.515625 5.046875 -0.847656 5.390625 -1.515625 C 5.742188 -2.191406 5.921875 -3.234375 5.921875 -4.640625 C 5.921875 -6.054688 5.742188 -7.101562 5.390625 -7.78125 C 5.046875 -8.457031 4.53125 -8.796875 3.84375 -8.796875 Z M 3.84375 -8.796875 "/>
</g>
<g id="glyph-9-0-ca1064ab">
<path d="M 1.4375 -1.171875 C 1.632812 -1.171875 1.796875 -1.109375 1.921875 -0.984375 C 2.046875 -0.859375 2.109375 -0.703125 2.109375 -0.515625 C 2.109375 -0.316406 2.046875 -0.15625 1.921875 -0.03125 C 1.796875 0.09375 1.632812 0.15625 1.4375 0.15625 C 1.25 0.15625 1.085938 0.09375 0.953125 -0.03125 C 0.828125 -0.164062 0.765625 -0.328125 0.765625 -0.515625 C 0.765625 -0.703125 0.828125 -0.859375 0.953125 -0.984375 C 1.085938 -1.109375 1.25 -1.171875 1.4375 -1.171875 Z M 1.4375 -1.171875 "/>
</g>
<g id="glyph-10-0-ca1064ab">
<path d="M 5.671875 -8.640625 L 1.890625 -8.640625 L 1.890625 -5.453125 C 2.398438 -5.742188 2.929688 -5.890625 3.484375 -5.890625 C 4.285156 -5.890625 4.921875 -5.628906 5.390625 -5.109375 C 5.867188 -4.597656 6.109375 -3.894531 6.109375 -3 C 6.109375 -2.394531 5.984375 -1.847656 5.734375 -1.359375 C 5.484375 -0.878906 5.128906 -0.503906 4.671875 -0.234375 C 4.222656 0.0234375 3.703125 0.15625 3.109375 0.15625 C 2.066406 0.15625 1.1875 -0.21875 0.46875 -0.96875 L 0.984375 -1.453125 C 1.273438 -1.140625 1.585938 -0.90625 1.921875 -0.75 C 2.265625 -0.601562 2.660156 -0.53125 3.109375 -0.53125 C 3.773438 -0.53125 4.296875 -0.75 4.671875 -1.1875 C 5.054688 -1.632812 5.25 -2.242188 5.25 -3.015625 C 5.25 -3.753906 5.070312 -4.304688 4.71875 -4.671875 C 4.375 -5.046875 3.898438 -5.234375 3.296875 -5.234375 C 3.003906 -5.234375 2.742188 -5.195312 2.515625 -5.125 C 2.285156 -5.0625 2.03125 -4.945312 1.75 -4.78125 L 1.109375 -4.78125 L 1.109375 -9.3125 L 5.796875 -9.3125 Z M 5.671875 -8.640625 "/>
</g>
<g id="glyph-11-0-ca1064ab">
<path d="M 4.09375 -9.3125 L 4.09375 0 L 3.28125 0 L 3.28125 -8.40625 L 0.984375 -6.984375 L 0.609375 -7.59375 L 3.390625 -9.3125 Z M 4.09375 -9.3125 "/>
</g>
<g id="glyph-11-1-ca1064ab">
<path d="M 1.4375 -1.171875 C 1.632812 -1.171875 1.796875 -1.109375 1.921875 -0.984375 C 2.046875 -0.859375 2.109375 -0.703125 2.109375 -0.515625 C 2.109375 -0.316406 2.046875 -0.15625 1.921875 -0.03125 C 1.796875 0.09375 1.632812 0.15625 1.4375 0.15625 C 1.25 0.15625 1.085938 0.09375 0.953125 -0.03125 C 0.828125 -0.164062 0.765625 -0.328125 0.765625 -0.515625 C 0.765625 -0.703125 0.828125 -0.859375 0.953125 -0.984375 C 1.085938 -1.109375 1.25 -1.171875 1.4375 -1.171875 Z M 1.4375 -1.171875 "/>
</g>
<g id="glyph-12-0-ca1064ab">
<path d="M 3.84375 -9.46875 C 4.8125 -9.46875 5.539062 -9.054688 6.03125 -8.234375 C 6.53125 -7.421875 6.78125 -6.222656 6.78125 -4.640625 C 6.78125 -3.078125 6.53125 -1.882812 6.03125 -1.0625 C 5.53125 -0.25 4.800781 0.15625 3.84375 0.15625 C 2.882812 0.15625 2.15625 -0.25 1.65625 -1.0625 C 1.164062 -1.882812 0.921875 -3.082031 0.921875 -4.65625 C 0.921875 -6.238281 1.164062 -7.4375 1.65625 -8.25 C 2.15625 -9.0625 2.882812 -9.46875 3.84375 -9.46875 Z M 3.84375 -8.796875 C 2.457031 -8.796875 1.765625 -7.414062 1.765625 -4.65625 C 1.765625 -1.894531 2.457031 -0.515625 3.84375 -0.515625 C 4.53125 -0.515625 5.046875 -0.847656 5.390625 -1.515625 C 5.742188 -2.191406 5.921875 -3.234375 5.921875 -4.640625 C 5.921875 -6.054688 5.742188 -7.101562 5.390625 -7.78125 C 5.046875 -8.457031 4.53125 -8.796875 3.84375 -8.796875 Z M 3.84375 -8.796875 "/>
</g>
<g id="glyph-13-0-ca1064ab">
<path d="M 7.515625 -7.015625 C 7.035156 -6.847656 6.320312 -6.765625 5.375 -6.765625 C 5.832031 -6.554688 6.171875 -6.300781 6.390625 -6 C 6.609375 -5.695312 6.71875 -5.316406 6.71875 -4.859375 C 6.71875 -4.367188 6.597656 -3.9375 6.359375 -3.5625 C 6.117188 -3.195312 5.769531 -2.90625 5.3125 -2.6875 C 4.863281 -2.46875 4.335938 -2.359375 3.734375 -2.359375 C 3.398438 -2.359375 3.109375 -2.398438 2.859375 -2.484375 C 2.648438 -2.335938 2.546875 -2.15625 2.546875 -1.9375 C 2.546875 -1.582031 2.84375 -1.40625 3.4375 -1.40625 L 4.578125 -1.40625 C 5.117188 -1.40625 5.59375 -1.316406 6 -1.140625 C 6.40625 -0.960938 6.71875 -0.710938 6.9375 -0.390625 C 7.164062 -0.078125 7.28125 0.28125 7.28125 0.6875 C 7.28125 1.4375 6.960938 2.015625 6.328125 2.421875 C 5.691406 2.835938 4.773438 3.046875 3.578125 3.046875 C 2.722656 3.046875 2.050781 2.957031 1.5625 2.78125 C 1.070312 2.601562 0.722656 2.347656 0.515625 2.015625 C 0.304688 1.679688 0.203125 1.253906 0.203125 0.734375 L 1.8125 0.734375 C 1.8125 0.992188 1.859375 1.195312 1.953125 1.34375 C 2.054688 1.488281 2.238281 1.597656 2.5 1.671875 C 2.757812 1.753906 3.128906 1.796875 3.609375 1.796875 C 4.296875 1.796875 4.773438 1.707031 5.046875 1.53125 C 5.328125 1.363281 5.46875 1.125 5.46875 0.8125 C 5.46875 0.53125 5.359375 0.3125 5.140625 0.15625 C 4.929688 0.0078125 4.625 -0.0625 4.21875 -0.0625 L 3.09375 -0.0625 C 2.394531 -0.0625 1.867188 -0.195312 1.515625 -0.46875 C 1.160156 -0.738281 0.984375 -1.082031 0.984375 -1.5 C 0.984375 -1.757812 1.054688 -2.007812 1.203125 -2.25 C 1.359375 -2.5 1.570312 -2.707031 1.84375 -2.875 C 1.394531 -3.101562 1.066406 -3.382812 0.859375 -3.71875 C 0.648438 -4.0625 0.546875 -4.472656 0.546875 -4.953125 C 0.546875 -5.484375 0.675781 -5.945312 0.9375 -6.34375 C 1.195312 -6.75 1.554688 -7.0625 2.015625 -7.28125 C 2.484375 -7.5 3.015625 -7.609375 3.609375 -7.609375 C 4.390625 -7.597656 5.019531 -7.660156 5.5 -7.796875 C 5.988281 -7.929688 6.507812 -8.144531 7.0625 -8.4375 Z M 3.640625 -6.390625 C 3.234375 -6.390625 2.914062 -6.257812 2.6875 -6 C 2.46875 -5.75 2.359375 -5.410156 2.359375 -4.984375 C 2.359375 -4.535156 2.472656 -4.179688 2.703125 -3.921875 C 2.929688 -3.660156 3.253906 -3.53125 3.671875 -3.53125 C 4.097656 -3.53125 4.421875 -3.65625 4.640625 -3.90625 C 4.867188 -4.164062 4.984375 -4.53125 4.984375 -5 C 4.984375 -5.925781 4.535156 -6.390625 3.640625 -6.390625 Z M 3.640625 -6.390625 "/>
</g>
<g id="glyph-14-0-ca1064ab">
<path d="M 4.734375 -7.609375 C 5.003906 -7.609375 5.25 -7.570312 5.46875 -7.5 L 5.171875 -5.765625 C 4.941406 -5.828125 4.722656 -5.859375 4.515625 -5.859375 C 4.066406 -5.859375 3.71875 -5.695312 3.46875 -5.375 C 3.21875 -5.0625 3.019531 -4.585938 2.875 -3.953125 L 2.875 0 L 1.078125 0 L 1.078125 -7.40625 L 2.625 -7.40625 L 2.796875 -5.953125 C 2.972656 -6.484375 3.226562 -6.890625 3.5625 -7.171875 C 3.90625 -7.460938 4.296875 -7.609375 4.734375 -7.609375 Z M 4.734375 -7.609375 "/>
</g>
<g id="glyph-15-0-ca1064ab">
<path d="M 4.109375 -7.609375 C 5.191406 -7.609375 6.039062 -7.257812 6.65625 -6.5625 C 7.269531 -5.875 7.578125 -4.921875 7.578125 -3.703125 C 7.578125 -2.929688 7.4375 -2.25 7.15625 -1.65625 C 6.875 -1.0625 6.472656 -0.601562 5.953125 -0.28125 C 5.429688 0.0390625 4.8125 0.203125 4.09375 0.203125 C 3 0.203125 2.144531 -0.140625 1.53125 -0.828125 C 0.914062 -1.523438 0.609375 -2.484375 0.609375 -3.703125 C 0.609375 -4.484375 0.742188 -5.164062 1.015625 -5.75 C 1.296875 -6.34375 1.703125 -6.800781 2.234375 -7.125 C 2.765625 -7.445312 3.390625 -7.609375 4.109375 -7.609375 Z M 4.109375 -6.265625 C 3.023438 -6.265625 2.484375 -5.410156 2.484375 -3.703125 C 2.484375 -2.828125 2.617188 -2.179688 2.890625 -1.765625 C 3.160156 -1.347656 3.5625 -1.140625 4.09375 -1.140625 C 4.625 -1.140625 5.019531 -1.347656 5.28125 -1.765625 C 5.550781 -2.191406 5.6875 -2.835938 5.6875 -3.703125 C 5.6875 -4.578125 5.550781 -5.222656 5.28125 -5.640625 C 5.019531 -6.054688 4.628906 -6.265625 4.109375 -6.265625 Z M 4.109375 -6.265625 "/>
</g>
<g id="glyph-15-1-ca1064ab">
<path d="M 7 0 L 5.453125 0 L 5.34375 -1.03125 C 5.070312 -0.613281 4.753906 -0.300781 4.390625 -0.09375 C 4.023438 0.101562 3.585938 0.203125 3.078125 0.203125 C 2.421875 0.203125 1.910156 0 1.546875 -0.40625 C 1.191406 -0.8125 1.015625 -1.375 1.015625 -2.09375 L 1.015625 -7.40625 L 2.796875 -7.40625 L 2.796875 -2.3125 C 2.796875 -1.894531 2.867188 -1.59375 3.015625 -1.40625 C 3.160156 -1.226562 3.390625 -1.140625 3.703125 -1.140625 C 4.273438 -1.140625 4.773438 -1.492188 5.203125 -2.203125 L 5.203125 -7.40625 L 7 -7.40625 Z M 7 0 "/>
</g>
<g id="glyph-15-2-ca1064ab">
<path d="M 4.90625 -7.609375 C 5.84375 -7.609375 6.535156 -7.269531 6.984375 -6.59375 C 7.429688 -5.914062 7.65625 -4.957031 7.65625 -3.71875 C 7.65625 -2.957031 7.539062 -2.28125 7.3125 -1.6875 C 7.082031 -1.09375 6.742188 -0.628906 6.296875 -0.296875 C 5.859375 0.0351562 5.335938 0.203125 4.734375 0.203125 C 3.953125 0.203125 3.332031 -0.0664062 2.875 -0.609375 L 2.875 2.859375 L 1.078125 3.046875 L 1.078125 -7.40625 L 2.640625 -7.40625 L 2.75 -6.5 C 3.03125 -6.875 3.359375 -7.148438 3.734375 -7.328125 C 4.109375 -7.515625 4.5 -7.609375 4.90625 -7.609375 Z M 4.234375 -1.15625 C 5.265625 -1.15625 5.78125 -2.003906 5.78125 -3.703125 C 5.78125 -4.609375 5.660156 -5.257812 5.421875 -5.65625 C 5.191406 -6.0625 4.84375 -6.265625 4.375 -6.265625 C 4.082031 -6.265625 3.804688 -6.171875 3.546875 -5.984375 C 3.285156 -5.804688 3.0625 -5.566406 2.875 -5.265625 L 2.875 -1.9375 C 3.21875 -1.414062 3.671875 -1.15625 4.234375 -1.15625 Z M 4.234375 -1.15625 "/>
</g>
<g id="glyph-16-0-ca1064ab">
<path d="M 6.03125 -1.625 C 6.03125 -1.238281 6.078125 -0.960938 6.171875 -0.796875 C 6.273438 -0.628906 6.4375 -0.503906 6.65625 -0.421875 L 6.46875 0.15625 C 6.132812 0.09375 5.875 -0.03125 5.6875 -0.21875 C 5.507812 -0.40625 5.390625 -0.691406 5.328125 -1.078125 C 4.828125 -0.253906 4.066406 0.15625 3.046875 0.15625 C 2.347656 0.15625 1.796875 -0.0390625 1.390625 -0.4375 C 0.984375 -0.832031 0.78125 -1.363281 0.78125 -2.03125 C 0.78125 -2.78125 1.046875 -3.359375 1.578125 -3.765625 C 2.117188 -4.179688 2.867188 -4.390625 3.828125 -4.390625 L 5.21875 -4.390625 L 5.21875 -5.109375 C 5.21875 -5.691406 5.085938 -6.117188 4.828125 -6.390625 C 4.566406 -6.660156 4.132812 -6.796875 3.53125 -6.796875 C 2.96875 -6.796875 2.304688 -6.65625 1.546875 -6.375 L 1.328125 -6.984375 C 2.148438 -7.304688 2.921875 -7.46875 3.640625 -7.46875 C 5.234375 -7.46875 6.03125 -6.695312 6.03125 -5.15625 Z M 3.1875 -0.5 C 4.070312 -0.5 4.75 -0.929688 5.21875 -1.796875 L 5.21875 -3.8125 L 3.953125 -3.8125 C 3.203125 -3.8125 2.628906 -3.664062 2.234375 -3.375 C 1.847656 -3.082031 1.65625 -2.648438 1.65625 -2.078125 C 1.65625 -1.566406 1.789062 -1.175781 2.0625 -0.90625 C 2.332031 -0.632812 2.707031 -0.5 3.1875 -0.5 Z M 3.1875 -0.5 "/>
</g>
<g id="glyph-16-1-ca1064ab">
</g>
<g id="glyph-17-0-ca1064ab">
<path d="M 2.703125 0.15625 C 2.296875 0.15625 1.976562 0.0390625 1.75 -0.1875 C 1.519531 -0.425781 1.40625 -0.773438 1.40625 -1.234375 L 1.40625 -10.296875 L 2.21875 -10.40625 L 2.21875 -1.265625 C 2.21875 -0.785156 2.414062 -0.546875 2.8125 -0.546875 C 3.007812 -0.546875 3.175781 -0.578125 3.3125 -0.640625 L 3.546875 -0.046875 C 3.285156 0.0859375 3.003906 0.15625 2.703125 0.15625 Z M 2.703125 0.15625 "/>
</g>
<g id="glyph-17-1-ca1064ab">
<path d="M 4 -7.46875 C 4.96875 -7.46875 5.722656 -7.132812 6.265625 -6.46875 C 6.816406 -5.800781 7.09375 -4.875 7.09375 -3.6875 C 7.09375 -2.5 6.816406 -1.5625 6.265625 -0.875 C 5.710938 -0.1875 4.953125 0.15625 3.984375 0.15625 C 3.015625 0.15625 2.253906 -0.179688 1.703125 -0.859375 C 1.160156 -1.535156 0.890625 -2.46875 0.890625 -3.65625 C 0.890625 -4.425781 1.015625 -5.097656 1.265625 -5.671875 C 1.523438 -6.253906 1.882812 -6.695312 2.34375 -7 C 2.8125 -7.3125 3.363281 -7.46875 4 -7.46875 Z M 4 -6.796875 C 3.289062 -6.796875 2.738281 -6.523438 2.34375 -5.984375 C 1.957031 -5.453125 1.765625 -4.675781 1.765625 -3.65625 C 1.765625 -2.632812 1.957031 -1.859375 2.34375 -1.328125 C 2.726562 -0.796875 3.273438 -0.53125 3.984375 -0.53125 C 4.691406 -0.53125 5.242188 -0.796875 5.640625 -1.328125 C 6.046875 -1.859375 6.25 -2.644531 6.25 -3.6875 C 6.25 -4.695312 6.050781 -5.46875 5.65625 -6 C 5.269531 -6.53125 4.71875 -6.796875 4 -6.796875 Z M 4 -6.796875 "/>
</g>
<g id="glyph-17-2-ca1064ab">
<path d="M 4.71875 -7.46875 C 5.382812 -7.46875 5.890625 -7.269531 6.234375 -6.875 C 6.585938 -6.488281 6.765625 -5.941406 6.765625 -5.234375 L 6.765625 0 L 5.953125 0 L 5.953125 -5.125 C 5.953125 -5.707031 5.832031 -6.132812 5.59375 -6.40625 C 5.363281 -6.675781 5.019531 -6.8125 4.5625 -6.8125 C 4.09375 -6.8125 3.675781 -6.679688 3.3125 -6.421875 C 2.957031 -6.171875 2.617188 -5.800781 2.296875 -5.3125 L 2.296875 0 L 1.484375 0 L 1.484375 -7.328125 L 2.1875 -7.328125 L 2.265625 -6.078125 C 2.566406 -6.515625 2.921875 -6.851562 3.328125 -7.09375 C 3.742188 -7.34375 4.207031 -7.46875 4.71875 -7.46875 Z M 4.71875 -7.46875 "/>
</g>
<g id="glyph-17-3-ca1064ab">
</g>
<g id="glyph-17-4-ca1064ab">
<path d="M 6.671875 -3.9375 C 6.671875 -3.726562 6.664062 -3.53125 6.65625 -3.34375 L 1.765625 -3.34375 C 1.804688 -2.394531 2.03125 -1.6875 2.4375 -1.21875 C 2.84375 -0.757812 3.378906 -0.53125 4.046875 -0.53125 C 4.429688 -0.53125 4.769531 -0.585938 5.0625 -0.703125 C 5.351562 -0.816406 5.671875 -1.003906 6.015625 -1.265625 L 6.390625 -0.734375 C 6.035156 -0.441406 5.664062 -0.21875 5.28125 -0.0625 C 4.894531 0.0820312 4.46875 0.15625 4 0.15625 C 3.03125 0.15625 2.269531 -0.171875 1.71875 -0.828125 C 1.164062 -1.492188 0.890625 -2.414062 0.890625 -3.59375 C 0.890625 -4.375 1.007812 -5.054688 1.25 -5.640625 C 1.488281 -6.222656 1.828125 -6.671875 2.265625 -6.984375 C 2.710938 -7.304688 3.234375 -7.46875 3.828125 -7.46875 C 4.753906 -7.46875 5.457031 -7.15625 5.9375 -6.53125 C 6.425781 -5.90625 6.671875 -5.039062 6.671875 -3.9375 Z M 5.875 -4.1875 C 5.875 -5.007812 5.703125 -5.648438 5.359375 -6.109375 C 5.023438 -6.566406 4.519531 -6.796875 3.84375 -6.796875 C 3.238281 -6.796875 2.75 -6.5625 2.375 -6.09375 C 2 -5.632812 1.796875 -4.925781 1.765625 -3.96875 L 5.875 -3.96875 Z M 5.875 -4.1875 "/>
</g>
<g id="glyph-18-0-ca1064ab">
<path d="M 4 -7.46875 C 4.96875 -7.46875 5.722656 -7.132812 6.265625 -6.46875 C 6.816406 -5.800781 7.09375 -4.875 7.09375 -3.6875 C 7.09375 -2.5 6.816406 -1.5625 6.265625 -0.875 C 5.710938 -0.1875 4.953125 0.15625 3.984375 0.15625 C 3.015625 0.15625 2.253906 -0.179688 1.703125 -0.859375 C 1.160156 -1.535156 0.890625 -2.46875 0.890625 -3.65625 C 0.890625 -4.425781 1.015625 -5.097656 1.265625 -5.671875 C 1.523438 -6.253906 1.882812 -6.695312 2.34375 -7 C 2.8125 -7.3125 3.363281 -7.46875 4 -7.46875 Z M 4 -6.796875 C 3.289062 -6.796875 2.738281 -6.523438 2.34375 -5.984375 C 1.957031 -5.453125 1.765625 -4.675781 1.765625 -3.65625 C 1.765625 -2.632812 1.957031 -1.859375 2.34375 -1.328125 C 2.726562 -0.796875 3.273438 -0.53125 3.984375 -0.53125 C 4.691406 -0.53125 5.242188 -0.796875 5.640625 -1.328125 C 6.046875 -1.859375 6.25 -2.644531 6.25 -3.6875 C 6.25 -4.695312 6.050781 -5.46875 5.65625 -6 C 5.269531 -6.53125 4.71875 -6.796875 4 -6.796875 Z M 4 -6.796875 "/>
</g>
<g id="glyph-18-1-ca1064ab">
<path d="M 6.9375 -7.171875 C 6.488281 -7.046875 5.8125 -6.972656 4.90625 -6.953125 C 5.726562 -6.566406 6.140625 -5.90625 6.140625 -4.96875 C 6.140625 -4.25 5.898438 -3.664062 5.421875 -3.21875 C 4.953125 -2.78125 4.3125 -2.5625 3.5 -2.5625 C 3.132812 -2.5625 2.816406 -2.609375 2.546875 -2.703125 C 2.367188 -2.597656 2.226562 -2.472656 2.125 -2.328125 C 2.03125 -2.179688 1.984375 -2.023438 1.984375 -1.859375 C 1.984375 -1.359375 2.375 -1.109375 3.15625 -1.109375 L 4.34375 -1.109375 C 5.0625 -1.109375 5.628906 -0.929688 6.046875 -0.578125 C 6.472656 -0.234375 6.6875 0.210938 6.6875 0.765625 C 6.6875 1.441406 6.421875 1.960938 5.890625 2.328125 C 5.359375 2.691406 4.566406 2.875 3.515625 2.875 C 2.421875 2.875 1.640625 2.707031 1.171875 2.375 C 0.703125 2.039062 0.46875 1.503906 0.46875 0.765625 L 1.21875 0.765625 C 1.226562 1.117188 1.300781 1.398438 1.4375 1.609375 C 1.582031 1.816406 1.816406 1.96875 2.140625 2.0625 C 2.460938 2.15625 2.921875 2.203125 3.515625 2.203125 C 4.335938 2.203125 4.929688 2.082031 5.296875 1.84375 C 5.671875 1.601562 5.859375 1.257812 5.859375 0.8125 C 5.859375 0.414062 5.710938 0.113281 5.421875 -0.09375 C 5.140625 -0.300781 4.738281 -0.40625 4.21875 -0.40625 L 3.03125 -0.40625 C 2.445312 -0.40625 2 -0.523438 1.6875 -0.765625 C 1.375 -1.015625 1.21875 -1.320312 1.21875 -1.6875 C 1.21875 -1.9375 1.285156 -2.164062 1.421875 -2.375 C 1.566406 -2.59375 1.765625 -2.78125 2.015625 -2.9375 C 1.597656 -3.15625 1.285156 -3.429688 1.078125 -3.765625 C 0.878906 -4.097656 0.78125 -4.507812 0.78125 -5 C 0.78125 -5.738281 1.023438 -6.332031 1.515625 -6.78125 C 2.015625 -7.238281 2.664062 -7.46875 3.46875 -7.46875 C 4.351562 -7.46875 5 -7.503906 5.40625 -7.578125 C 5.8125 -7.648438 6.234375 -7.773438 6.671875 -7.953125 Z M 3.46875 -6.84375 C 2.863281 -6.84375 2.40625 -6.675781 2.09375 -6.34375 C 1.78125 -6.007812 1.625 -5.5625 1.625 -5 C 1.625 -4.414062 1.789062 -3.960938 2.125 -3.640625 C 2.457031 -3.316406 2.90625 -3.15625 3.46875 -3.15625 C 4.070312 -3.15625 4.53125 -3.3125 4.84375 -3.625 C 5.15625 -3.945312 5.3125 -4.398438 5.3125 -4.984375 C 5.3125 -5.566406 5.15625 -6.019531 4.84375 -6.34375 C 4.53125 -6.675781 4.070312 -6.84375 3.46875 -6.84375 Z M 3.46875 -6.84375 "/>
</g>
<g id="glyph-18-2-ca1064ab">
<path d="M 2.703125 0.15625 C 2.296875 0.15625 1.976562 0.0390625 1.75 -0.1875 C 1.519531 -0.425781 1.40625 -0.773438 1.40625 -1.234375 L 1.40625 -10.296875 L 2.21875 -10.40625 L 2.21875 -1.265625 C 2.21875 -0.785156 2.414062 -0.546875 2.8125 -0.546875 C 3.007812 -0.546875 3.175781 -0.578125 3.3125 -0.640625 L 3.546875 -0.046875 C 3.285156 0.0859375 3.003906 0.15625 2.703125 0.15625 Z M 2.703125 0.15625 "/>
</g>
<g id="glyph-18-3-ca1064ab">
<path d="M 6.03125 -1.625 C 6.03125 -1.238281 6.078125 -0.960938 6.171875 -0.796875 C 6.273438 -0.628906 6.4375 -0.503906 6.65625 -0.421875 L 6.46875 0.15625 C 6.132812 0.09375 5.875 -0.03125 5.6875 -0.21875 C 5.507812 -0.40625 5.390625 -0.691406 5.328125 -1.078125 C 4.828125 -0.253906 4.066406 0.15625 3.046875 0.15625 C 2.347656 0.15625 1.796875 -0.0390625 1.390625 -0.4375 C 0.984375 -0.832031 0.78125 -1.363281 0.78125 -2.03125 C 0.78125 -2.78125 1.046875 -3.359375 1.578125 -3.765625 C 2.117188 -4.179688 2.867188 -4.390625 3.828125 -4.390625 L 5.21875 -4.390625 L 5.21875 -5.109375 C 5.21875 -5.691406 5.085938 -6.117188 4.828125 -6.390625 C 4.566406 -6.660156 4.132812 -6.796875 3.53125 -6.796875 C 2.96875 -6.796875 2.304688 -6.65625 1.546875 -6.375 L 1.328125 -6.984375 C 2.148438 -7.304688 2.921875 -7.46875 3.640625 -7.46875 C 5.234375 -7.46875 6.03125 -6.695312 6.03125 -5.15625 Z M 3.1875 -0.5 C 4.070312 -0.5 4.75 -0.929688 5.21875 -1.796875 L 5.21875 -3.8125 L 3.953125 -3.8125 C 3.203125 -3.8125 2.628906 -3.664062 2.234375 -3.375 C 1.847656 -3.082031 1.65625 -2.648438 1.65625 -2.078125 C 1.65625 -1.566406 1.789062 -1.175781 2.0625 -0.90625 C 2.332031 -0.632812 2.707031 -0.5 3.1875 -0.5 Z M 3.1875 -0.5 "/>
</g>
<g id="glyph-18-4-ca1064ab">
<path d="M 4.5 -7.46875 C 5.34375 -7.46875 6 -7.140625 6.46875 -6.484375 C 6.9375 -5.835938 7.171875 -4.910156 7.171875 -3.703125 C 7.171875 -2.515625 6.925781 -1.570312 6.4375 -0.875 C 5.945312 -0.1875 5.257812 0.15625 4.375 0.15625 C 3.9375 0.15625 3.535156 0.0546875 3.171875 -0.140625 C 2.816406 -0.335938 2.519531 -0.597656 2.28125 -0.921875 L 2.203125 0 L 1.484375 0 L 1.484375 -10.296875 L 2.296875 -10.40625 L 2.296875 -6.296875 C 2.867188 -7.078125 3.601562 -7.46875 4.5 -7.46875 Z M 4.234375 -0.515625 C 4.890625 -0.515625 5.394531 -0.78125 5.75 -1.3125 C 6.113281 -1.851562 6.296875 -2.648438 6.296875 -3.703125 C 6.296875 -5.765625 5.640625 -6.796875 4.328125 -6.796875 C 3.890625 -6.796875 3.507812 -6.6875 3.1875 -6.46875 C 2.875 -6.25 2.578125 -5.941406 2.296875 -5.546875 L 2.296875 -1.6875 C 2.523438 -1.320312 2.800781 -1.035156 3.125 -0.828125 C 3.457031 -0.617188 3.828125 -0.515625 4.234375 -0.515625 Z M 4.234375 -0.515625 "/>
</g>
<g id="glyph-18-5-ca1064ab">
<path d="M 4.71875 -7.46875 C 5.382812 -7.46875 5.890625 -7.269531 6.234375 -6.875 C 6.585938 -6.488281 6.765625 -5.941406 6.765625 -5.234375 L 6.765625 0 L 5.953125 0 L 5.953125 -5.125 C 5.953125 -5.707031 5.832031 -6.132812 5.59375 -6.40625 C 5.363281 -6.675781 5.019531 -6.8125 4.5625 -6.8125 C 4.09375 -6.8125 3.675781 -6.679688 3.3125 -6.421875 C 2.957031 -6.171875 2.617188 -5.800781 2.296875 -5.3125 L 2.296875 0 L 1.484375 0 L 1.484375 -7.328125 L 2.1875 -7.328125 L 2.265625 -6.078125 C 2.566406 -6.515625 2.921875 -6.851562 3.328125 -7.09375 C 3.742188 -7.34375 4.207031 -7.46875 4.71875 -7.46875 Z M 4.71875 -7.46875 "/>
</g>
<g id="glyph-18-6-ca1064ab">
</g>
<g id="glyph-18-7-ca1064ab">
<path d="M 6.671875 -3.9375 C 6.671875 -3.726562 6.664062 -3.53125 6.65625 -3.34375 L 1.765625 -3.34375 C 1.804688 -2.394531 2.03125 -1.6875 2.4375 -1.21875 C 2.84375 -0.757812 3.378906 -0.53125 4.046875 -0.53125 C 4.429688 -0.53125 4.769531 -0.585938 5.0625 -0.703125 C 5.351562 -0.816406 5.671875 -1.003906 6.015625 -1.265625 L 6.390625 -0.734375 C 6.035156 -0.441406 5.664062 -0.21875 5.28125 -0.0625 C 4.894531 0.0820312 4.46875 0.15625 4 0.15625 C 3.03125 0.15625 2.269531 -0.171875 1.71875 -0.828125 C 1.164062 -1.492188 0.890625 -2.414062 0.890625 -3.59375 C 0.890625 -4.375 1.007812 -5.054688 1.25 -5.640625 C 1.488281 -6.222656 1.828125 -6.671875 2.265625 -6.984375 C 2.710938 -7.304688 3.234375 -7.46875 3.828125 -7.46875 C 4.753906 -7.46875 5.457031 -7.15625 5.9375 -6.53125 C 6.425781 -5.90625 6.671875 -5.039062 6.671875 -3.9375 Z M 5.875 -4.1875 C 5.875 -5.007812 5.703125 -5.648438 5.359375 -6.109375 C 5.023438 -6.566406 4.519531 -6.796875 3.84375 -6.796875 C 3.238281 -6.796875 2.75 -6.5625 2.375 -6.09375 C 2 -5.632812 1.796875 -4.925781 1.765625 -3.96875 L 5.875 -3.96875 Z M 5.875 -4.1875 "/>
</g>
<g id="glyph-18-8-ca1064ab">
<path d="M 6.375 -7.328125 L 3.84375 0 L 2.828125 0 L 0.203125 -7.328125 L 1.109375 -7.328125 L 3.328125 -0.71875 L 5.5 -7.328125 Z M 6.375 -7.328125 "/>
</g>
<g id="glyph-18-9-ca1064ab">
<path d="M 4.328125 -7.46875 C 4.617188 -7.46875 4.859375 -7.441406 5.046875 -7.390625 L 4.90625 -6.625 C 4.695312 -6.675781 4.476562 -6.703125 4.25 -6.703125 C 3.757812 -6.703125 3.363281 -6.519531 3.0625 -6.15625 C 2.757812 -5.800781 2.503906 -5.242188 2.296875 -4.484375 L 2.296875 0 L 1.484375 0 L 1.484375 -7.328125 L 2.1875 -7.328125 L 2.25 -5.6875 C 2.445312 -6.289062 2.710938 -6.738281 3.046875 -7.03125 C 3.390625 -7.320312 3.816406 -7.46875 4.328125 -7.46875 Z M 4.328125 -7.46875 "/>
</g>
<g id="glyph-19-0-ca1064ab">
<path d="M 4 -7.46875 C 4.96875 -7.46875 5.722656 -7.132812 6.265625 -6.46875 C 6.816406 -5.800781 7.09375 -4.875 7.09375 -3.6875 C 7.09375 -2.5 6.816406 -1.5625 6.265625 -0.875 C 5.710938 -0.1875 4.953125 0.15625 3.984375 0.15625 C 3.015625 0.15625 2.253906 -0.179688 1.703125 -0.859375 C 1.160156 -1.535156 0.890625 -2.46875 0.890625 -3.65625 C 0.890625 -4.425781 1.015625 -5.097656 1.265625 -5.671875 C 1.523438 -6.253906 1.882812 -6.695312 2.34375 -7 C 2.8125 -7.3125 3.363281 -7.46875 4 -7.46875 Z M 4 -6.796875 C 3.289062 -6.796875 2.738281 -6.523438 2.34375 -5.984375 C 1.957031 -5.453125 1.765625 -4.675781 1.765625 -3.65625 C 1.765625 -2.632812 1.957031 -1.859375 2.34375 -1.328125 C 2.726562 -0.796875 3.273438 -0.53125 3.984375 -0.53125 C 4.691406 -0.53125 5.242188 -0.796875 5.640625 -1.328125 C 6.046875 -1.859375 6.25 -2.644531 6.25 -3.6875 C 6.25 -4.695312 6.050781 -5.46875 5.65625 -6 C 5.269531 -6.53125 4.71875 -6.796875 4 -6.796875 Z M 4 -6.796875 "/>
</g>
<g id="glyph-20-0-ca1064ab">
<path d="M 4 -7.46875 C 4.96875 -7.46875 5.722656 -7.132812 6.265625 -6.46875 C 6.816406 -5.800781 7.09375 -4.875 7.09375 -3.6875 C 7.09375 -2.5 6.816406 -1.5625 6.265625 -0.875 C 5.710938 -0.1875 4.953125 0.15625 3.984375 0.15625 C 3.015625 0.15625 2.253906 -0.179688 1.703125 -0.859375 C 1.160156 -1.535156 0.890625 -2.46875 0.890625 -3.65625 C 0.890625 -4.425781 1.015625 -5.097656 1.265625 -5.671875 C 1.523438 -6.253906 1.882812 -6.695312 2.34375 -7 C 2.8125 -7.3125 3.363281 -7.46875 4 -7.46875 Z M 4 -6.796875 C 3.289062 -6.796875 2.738281 -6.523438 2.34375 -5.984375 C 1.957031 -5.453125 1.765625 -4.675781 1.765625 -3.65625 C 1.765625 -2.632812 1.957031 -1.859375 2.34375 -1.328125 C 2.726562 -0.796875 3.273438 -0.53125 3.984375 -0.53125 C 4.691406 -0.53125 5.242188 -0.796875 5.640625 -1.328125 C 6.046875 -1.859375 6.25 -2.644531 6.25 -3.6875 C 6.25 -4.695312 6.050781 -5.46875 5.65625 -6 C 5.269531 -6.53125 4.71875 -6.796875 4 -6.796875 Z M 4 -6.796875 "/>
</g>
<g id="glyph-20-1-ca1064ab">
</g>
<g id="glyph-20-2-ca1064ab">
<path d="M 4.71875 -7.46875 C 5.382812 -7.46875 5.890625 -7.269531 6.234375 -6.875 C 6.585938 -6.488281 6.765625 -5.941406 6.765625 -5.234375 L 6.765625 0 L 5.953125 0 L 5.953125 -5.125 C 5.953125 -5.707031 5.832031 -6.132812 5.59375 -6.40625 C 5.363281 -6.675781 5.019531 -6.8125 4.5625 -6.8125 C 4.09375 -6.8125 3.675781 -6.679688 3.3125 -6.421875 C 2.957031 -6.171875 2.617188 -5.800781 2.296875 -5.3125 L 2.296875 0 L 1.484375 0 L 1.484375 -7.328125 L 2.1875 -7.328125 L 2.265625 -6.078125 C 2.566406 -6.515625 2.921875 -6.851562 3.328125 -7.09375 C 3.742188 -7.34375 4.207031 -7.46875 4.71875 -7.46875 Z M 4.71875 -7.46875 "/>
</g>
<g id="glyph-20-3-ca1064ab">
<path d="M 6.671875 -3.9375 C 6.671875 -3.726562 6.664062 -3.53125 6.65625 -3.34375 L 1.765625 -3.34375 C 1.804688 -2.394531 2.03125 -1.6875 2.4375 -1.21875 C 2.84375 -0.757812 3.378906 -0.53125 4.046875 -0.53125 C 4.429688 -0.53125 4.769531 -0.585938 5.0625 -0.703125 C 5.351562 -0.816406 5.671875 -1.003906 6.015625 -1.265625 L 6.390625 -0.734375 C 6.035156 -0.441406 5.664062 -0.21875 5.28125 -0.0625 C 4.894531 0.0820312 4.46875 0.15625 4 0.15625 C 3.03125 0.15625 2.269531 -0.171875 1.71875 -0.828125 C 1.164062 -1.492188 0.890625 -2.414062 0.890625 -3.59375 C 0.890625 -4.375 1.007812 -5.054688 1.25 -5.640625 C 1.488281 -6.222656 1.828125 -6.671875 2.265625 -6.984375 C 2.710938 -7.304688 3.234375 -7.46875 3.828125 -7.46875 C 4.753906 -7.46875 5.457031 -7.15625 5.9375 -6.53125 C 6.425781 -5.90625 6.671875 -5.039062 6.671875 -3.9375 Z M 5.875 -4.1875 C 5.875 -5.007812 5.703125 -5.648438 5.359375 -6.109375 C 5.023438 -6.566406 4.519531 -6.796875 3.84375 -6.796875 C 3.238281 -6.796875 2.75 -6.5625 2.375 -6.09375 C 2 -5.632812 1.796875 -4.925781 1.765625 -3.96875 L 5.875 -3.96875 Z M 5.875 -4.1875 "/>
</g>
<g id="glyph-21-0-ca1064ab">
<path d="M 2.703125 0.15625 C 2.296875 0.15625 1.976562 0.0390625 1.75 -0.1875 C 1.519531 -0.425781 1.40625 -0.773438 1.40625 -1.234375 L 1.40625 -10.296875 L 2.21875 -10.40625 L 2.21875 -1.265625 C 2.21875 -0.785156 2.414062 -0.546875 2.8125 -0.546875 C 3.007812 -0.546875 3.175781 -0.578125 3.3125 -0.640625 L 3.546875 -0.046875 C 3.285156 0.0859375 3.003906 0.15625 2.703125 0.15625 Z M 2.703125 0.15625 "/>
</g>
<g id="glyph-21-1-ca1064ab">
<path d="M 6.9375 -7.171875 C 6.488281 -7.046875 5.8125 -6.972656 4.90625 -6.953125 C 5.726562 -6.566406 6.140625 -5.90625 6.140625 -4.96875 C 6.140625 -4.25 5.898438 -3.664062 5.421875 -3.21875 C 4.953125 -2.78125 4.3125 -2.5625 3.5 -2.5625 C 3.132812 -2.5625 2.816406 -2.609375 2.546875 -2.703125 C 2.367188 -2.597656 2.226562 -2.472656 2.125 -2.328125 C 2.03125 -2.179688 1.984375 -2.023438 1.984375 -1.859375 C 1.984375 -1.359375 2.375 -1.109375 3.15625 -1.109375 L 4.34375 -1.109375 C 5.0625 -1.109375 5.628906 -0.929688 6.046875 -0.578125 C 6.472656 -0.234375 6.6875 0.210938 6.6875 0.765625 C 6.6875 1.441406 6.421875 1.960938 5.890625 2.328125 C 5.359375 2.691406 4.566406 2.875 3.515625 2.875 C 2.421875 2.875 1.640625 2.707031 1.171875 2.375 C 0.703125 2.039062 0.46875 1.503906 0.46875 0.765625 L 1.21875 0.765625 C 1.226562 1.117188 1.300781 1.398438 1.4375 1.609375 C 1.582031 1.816406 1.816406 1.96875 2.140625 2.0625 C 2.460938 2.15625 2.921875 2.203125 3.515625 2.203125 C 4.335938 2.203125 4.929688 2.082031 5.296875 1.84375 C 5.671875 1.601562 5.859375 1.257812 5.859375 0.8125 C 5.859375 0.414062 5.710938 0.113281 5.421875 -0.09375 C 5.140625 -0.300781 4.738281 -0.40625 4.21875 -0.40625 L 3.03125 -0.40625 C 2.445312 -0.40625 2 -0.523438 1.6875 -0.765625 C 1.375 -1.015625 1.21875 -1.320312 1.21875 -1.6875 C 1.21875 -1.9375 1.285156 -2.164062 1.421875 -2.375 C 1.566406 -2.59375 1.765625 -2.78125 2.015625 -2.9375 C 1.597656 -3.15625 1.285156 -3.429688 1.078125 -3.765625 C 0.878906 -4.097656 0.78125 -4.507812 0.78125 -5 C 0.78125 -5.738281 1.023438 -6.332031 1.515625 -6.78125 C 2.015625 -7.238281 2.664062 -7.46875 3.46875 -7.46875 C 4.351562 -7.46875 5 -7.503906 5.40625 -7.578125 C 5.8125 -7.648438 6.234375 -7.773438 6.671875 -7.953125 Z M 3.46875 -6.84375 C 2.863281 -6.84375 2.40625 -6.675781 2.09375 -6.34375 C 1.78125 -6.007812 1.625 -5.5625 1.625 -5 C 1.625 -4.414062 1.789062 -3.960938 2.125 -3.640625 C 2.457031 -3.316406 2.90625 -3.15625 3.46875 -3.15625 C 4.070312 -3.15625 4.53125 -3.3125 4.84375 -3.625 C 5.15625 -3.945312 5.3125 -4.398438 5.3125 -4.984375 C 5.3125 -5.566406 5.15625 -6.019531 4.84375 -6.34375 C 4.53125 -6.675781 4.070312 -6.84375 3.46875 -6.84375 Z M 3.46875 -6.84375 "/>
</g>
<g id="glyph-21-2-ca1064ab">
<path d="M 6.03125 -1.625 C 6.03125 -1.238281 6.078125 -0.960938 6.171875 -0.796875 C 6.273438 -0.628906 6.4375 -0.503906 6.65625 -0.421875 L 6.46875 0.15625 C 6.132812 0.09375 5.875 -0.03125 5.6875 -0.21875 C 5.507812 -0.40625 5.390625 -0.691406 5.328125 -1.078125 C 4.828125 -0.253906 4.066406 0.15625 3.046875 0.15625 C 2.347656 0.15625 1.796875 -0.0390625 1.390625 -0.4375 C 0.984375 -0.832031 0.78125 -1.363281 0.78125 -2.03125 C 0.78125 -2.78125 1.046875 -3.359375 1.578125 -3.765625 C 2.117188 -4.179688 2.867188 -4.390625 3.828125 -4.390625 L 5.21875 -4.390625 L 5.21875 -5.109375 C 5.21875 -5.691406 5.085938 -6.117188 4.828125 -6.390625 C 4.566406 -6.660156 4.132812 -6.796875 3.53125 -6.796875 C 2.96875 -6.796875 2.304688 -6.65625 1.546875 -6.375 L 1.328125 -6.984375 C 2.148438 -7.304688 2.921875 -7.46875 3.640625 -7.46875 C 5.234375 -7.46875 6.03125 -6.695312 6.03125 -5.15625 Z M 3.1875 -0.5 C 4.070312 -0.5 4.75 -0.929688 5.21875 -1.796875 L 5.21875 -3.8125 L 3.953125 -3.8125 C 3.203125 -3.8125 2.628906 -3.664062 2.234375 -3.375 C 1.847656 -3.082031 1.65625 -2.648438 1.65625 -2.078125 C 1.65625 -1.566406 1.789062 -1.175781 2.0625 -0.90625 C 2.332031 -0.632812 2.707031 -0.5 3.1875 -0.5 Z M 3.1875 -0.5 "/>
</g>
<g id="glyph-21-3-ca1064ab">
<path d="M 4.5 -7.46875 C 5.34375 -7.46875 6 -7.140625 6.46875 -6.484375 C 6.9375 -5.835938 7.171875 -4.910156 7.171875 -3.703125 C 7.171875 -2.515625 6.925781 -1.570312 6.4375 -0.875 C 5.945312 -0.1875 5.257812 0.15625 4.375 0.15625 C 3.9375 0.15625 3.535156 0.0546875 3.171875 -0.140625 C 2.816406 -0.335938 2.519531 -0.597656 2.28125 -0.921875 L 2.203125 0 L 1.484375 0 L 1.484375 -10.296875 L 2.296875 -10.40625 L 2.296875 -6.296875 C 2.867188 -7.078125 3.601562 -7.46875 4.5 -7.46875 Z M 4.234375 -0.515625 C 4.890625 -0.515625 5.394531 -0.78125 5.75 -1.3125 C 6.113281 -1.851562 6.296875 -2.648438 6.296875 -3.703125 C 6.296875 -5.765625 5.640625 -6.796875 4.328125 -6.796875 C 3.890625 -6.796875 3.507812 -6.6875 3.1875 -6.46875 C 2.875 -6.25 2.578125 -5.941406 2.296875 -5.546875 L 2.296875 -1.6875 C 2.523438 -1.320312 2.800781 -1.035156 3.125 -0.828125 C 3.457031 -0.617188 3.828125 -0.515625 4.234375 -0.515625 Z M 4.234375 -0.515625 "/>
</g>
<g id="glyph-21-4-ca1064ab">
<path d="M 6.671875 -3.9375 C 6.671875 -3.726562 6.664062 -3.53125 6.65625 -3.34375 L 1.765625 -3.34375 C 1.804688 -2.394531 2.03125 -1.6875 2.4375 -1.21875 C 2.84375 -0.757812 3.378906 -0.53125 4.046875 -0.53125 C 4.429688 -0.53125 4.769531 -0.585938 5.0625 -0.703125 C 5.351562 -0.816406 5.671875 -1.003906 6.015625 -1.265625 L 6.390625 -0.734375 C 6.035156 -0.441406 5.664062 -0.21875 5.28125 -0.0625 C 4.894531 0.0820312 4.46875 0.15625 4 0.15625 C 3.03125 0.15625 2.269531 -0.171875 1.71875 -0.828125 C 1.164062 -1.492188 0.890625 -2.414062 0.890625 -3.59375 C 0.890625 -4.375 1.007812 -5.054688 1.25 -5.640625 C 1.488281 -6.222656 1.828125 -6.671875 2.265625 -6.984375 C 2.710938 -7.304688 3.234375 -7.46875 3.828125 -7.46875 C 4.753906 -7.46875 5.457031 -7.15625 5.9375 -6.53125 C 6.425781 -5.90625 6.671875 -5.039062 6.671875 -3.9375 Z M 5.875 -4.1875 C 5.875 -5.007812 5.703125 -5.648438 5.359375 -6.109375 C 5.023438 -6.566406 4.519531 -6.796875 3.84375 -6.796875 C 3.238281 -6.796875 2.75 -6.5625 2.375 -6.09375 C 2 -5.632812 1.796875 -4.925781 1.765625 -3.96875 L 5.875 -3.96875 Z M 5.875 -4.1875 "/>
</g>
<g id="glyph-21-5-ca1064ab">
<path d="M 6.703125 -10.296875 L 6.703125 0 L 6 0 L 5.90625 -1.125 C 5.40625 -0.269531 4.671875 0.15625 3.703125 0.15625 C 2.859375 0.15625 2.191406 -0.179688 1.703125 -0.859375 C 1.210938 -1.535156 0.96875 -2.457031 0.96875 -3.625 C 0.96875 -4.382812 1.082031 -5.050781 1.3125 -5.625 C 1.539062 -6.207031 1.867188 -6.660156 2.296875 -6.984375 C 2.734375 -7.304688 3.25 -7.46875 3.84375 -7.46875 C 4.664062 -7.46875 5.347656 -7.140625 5.890625 -6.484375 L 5.890625 -10.40625 Z M 3.84375 -0.515625 C 4.300781 -0.515625 4.691406 -0.625 5.015625 -0.84375 C 5.335938 -1.070312 5.628906 -1.414062 5.890625 -1.875 L 5.890625 -5.703125 C 5.367188 -6.429688 4.726562 -6.796875 3.96875 -6.796875 C 3.3125 -6.796875 2.785156 -6.519531 2.390625 -5.96875 C 2.003906 -5.425781 1.816406 -4.648438 1.828125 -3.640625 C 1.828125 -2.628906 2.003906 -1.851562 2.359375 -1.3125 C 2.710938 -0.78125 3.207031 -0.515625 3.84375 -0.515625 Z M 3.84375 -0.515625 "/>
</g>
<g id="glyph-21-6-ca1064ab">
</g>
<g id="glyph-22-0-ca1064ab">
<path d="M 6.671875 -3.9375 C 6.671875 -3.726562 6.664062 -3.53125 6.65625 -3.34375 L 1.765625 -3.34375 C 1.804688 -2.394531 2.03125 -1.6875 2.4375 -1.21875 C 2.84375 -0.757812 3.378906 -0.53125 4.046875 -0.53125 C 4.429688 -0.53125 4.769531 -0.585938 5.0625 -0.703125 C 5.351562 -0.816406 5.671875 -1.003906 6.015625 -1.265625 L 6.390625 -0.734375 C 6.035156 -0.441406 5.664062 -0.21875 5.28125 -0.0625 C 4.894531 0.0820312 4.46875 0.15625 4 0.15625 C 3.03125 0.15625 2.269531 -0.171875 1.71875 -0.828125 C 1.164062 -1.492188 0.890625 -2.414062 0.890625 -3.59375 C 0.890625 -4.375 1.007812 -5.054688 1.25 -5.640625 C 1.488281 -6.222656 1.828125 -6.671875 2.265625 -6.984375 C 2.710938 -7.304688 3.234375 -7.46875 3.828125 -7.46875 C 4.753906 -7.46875 5.457031 -7.15625 5.9375 -6.53125 C 6.425781 -5.90625 6.671875 -5.039062 6.671875 -3.9375 Z M 5.875 -4.1875 C 5.875 -5.007812 5.703125 -5.648438 5.359375 -6.109375 C 5.023438 -6.566406 4.519531 -6.796875 3.84375 -6.796875 C 3.238281 -6.796875 2.75 -6.5625 2.375 -6.09375 C 2 -5.632812 1.796875 -4.925781 1.765625 -3.96875 L 5.875 -3.96875 Z M 5.875 -4.1875 "/>
</g>
<g id="glyph-22-1-ca1064ab">
</g>
<g id="glyph-22-2-ca1064ab">
<path d="M 4.328125 -7.46875 C 4.617188 -7.46875 4.859375 -7.441406 5.046875 -7.390625 L 4.90625 -6.625 C 4.695312 -6.675781 4.476562 -6.703125 4.25 -6.703125 C 3.757812 -6.703125 3.363281 -6.519531 3.0625 -6.15625 C 2.757812 -5.800781 2.503906 -5.242188 2.296875 -4.484375 L 2.296875 0 L 1.484375 0 L 1.484375 -7.328125 L 2.1875 -7.328125 L 2.25 -5.6875 C 2.445312 -6.289062 2.710938 -6.738281 3.046875 -7.03125 C 3.390625 -7.320312 3.816406 -7.46875 4.328125 -7.46875 Z M 4.328125 -7.46875 "/>
</g>
<g id="glyph-22-3-ca1064ab">
<path d="M 2.703125 0.15625 C 2.296875 0.15625 1.976562 0.0390625 1.75 -0.1875 C 1.519531 -0.425781 1.40625 -0.773438 1.40625 -1.234375 L 1.40625 -10.296875 L 2.21875 -10.40625 L 2.21875 -1.265625 C 2.21875 -0.785156 2.414062 -0.546875 2.8125 -0.546875 C 3.007812 -0.546875 3.175781 -0.578125 3.3125 -0.640625 L 3.546875 -0.046875 C 3.285156 0.0859375 3.003906 0.15625 2.703125 0.15625 Z M 2.703125 0.15625 "/>
</g>
<g id="glyph-23-0-ca1064ab">
<path d="M 8.625 -7.46875 C 9.207031 -7.46875 9.671875 -7.265625 10.015625 -6.859375 C 10.359375 -6.460938 10.53125 -5.921875 10.53125 -5.234375 L 10.53125 0 L 9.71875 0 L 9.71875 -5.125 C 9.71875 -5.695312 9.609375 -6.117188 9.390625 -6.390625 C 9.171875 -6.671875 8.863281 -6.8125 8.46875 -6.8125 C 8.0625 -6.8125 7.691406 -6.679688 7.359375 -6.421875 C 7.035156 -6.160156 6.71875 -5.789062 6.40625 -5.3125 L 6.40625 0 L 5.59375 0 L 5.59375 -5.125 C 5.59375 -5.695312 5.484375 -6.117188 5.265625 -6.390625 C 5.046875 -6.671875 4.742188 -6.8125 4.359375 -6.8125 C 3.929688 -6.8125 3.554688 -6.679688 3.234375 -6.421875 C 2.910156 -6.160156 2.597656 -5.789062 2.296875 -5.3125 L 2.296875 0 L 1.484375 0 L 1.484375 -7.328125 L 2.1875 -7.328125 L 2.25 -6.078125 C 2.53125 -6.515625 2.863281 -6.851562 3.25 -7.09375 C 3.632812 -7.34375 4.054688 -7.46875 4.515625 -7.46875 C 4.972656 -7.46875 5.359375 -7.335938 5.671875 -7.078125 C 5.992188 -6.828125 6.210938 -6.472656 6.328125 -6.015625 C 6.617188 -6.472656 6.957031 -6.828125 7.34375 -7.078125 C 7.726562 -7.335938 8.15625 -7.46875 8.625 -7.46875 Z M 8.625 -7.46875 "/>
</g>
<g id="glyph-23-1-ca1064ab">
<path d="M 6.9375 -7.171875 C 6.488281 -7.046875 5.8125 -6.972656 4.90625 -6.953125 C 5.726562 -6.566406 6.140625 -5.90625 6.140625 -4.96875 C 6.140625 -4.25 5.898438 -3.664062 5.421875 -3.21875 C 4.953125 -2.78125 4.3125 -2.5625 3.5 -2.5625 C 3.132812 -2.5625 2.816406 -2.609375 2.546875 -2.703125 C 2.367188 -2.597656 2.226562 -2.472656 2.125 -2.328125 C 2.03125 -2.179688 1.984375 -2.023438 1.984375 -1.859375 C 1.984375 -1.359375 2.375 -1.109375 3.15625 -1.109375 L 4.34375 -1.109375 C 5.0625 -1.109375 5.628906 -0.929688 6.046875 -0.578125 C 6.472656 -0.234375 6.6875 0.210938 6.6875 0.765625 C 6.6875 1.441406 6.421875 1.960938 5.890625 2.328125 C 5.359375 2.691406 4.566406 2.875 3.515625 2.875 C 2.421875 2.875 1.640625 2.707031 1.171875 2.375 C 0.703125 2.039062 0.46875 1.503906 0.46875 0.765625 L 1.21875 0.765625 C 1.226562 1.117188 1.300781 1.398438 1.4375 1.609375 C 1.582031 1.816406 1.816406 1.96875 2.140625 2.0625 C 2.460938 2.15625 2.921875 2.203125 3.515625 2.203125 C 4.335938 2.203125 4.929688 2.082031 5.296875 1.84375 C 5.671875 1.601562 5.859375 1.257812 5.859375 0.8125 C 5.859375 0.414062 5.710938 0.113281 5.421875 -0.09375 C 5.140625 -0.300781 4.738281 -0.40625 4.21875 -0.40625 L 3.03125 -0.40625 C 2.445312 -0.40625 2 -0.523438 1.6875 -0.765625 C 1.375 -1.015625 1.21875 -1.320312 1.21875 -1.6875 C 1.21875 -1.9375 1.285156 -2.164062 1.421875 -2.375 C 1.566406 -2.59375 1.765625 -2.78125 2.015625 -2.9375 C 1.597656 -3.15625 1.285156 -3.429688 1.078125 -3.765625 C 0.878906 -4.097656 0.78125 -4.507812 0.78125 -5 C 0.78125 -5.738281 1.023438 -6.332031 1.515625 -6.78125 C 2.015625 -7.238281 2.664062 -7.46875 3.46875 -7.46875 C 4.351562 -7.46875 5 -7.503906 5.40625 -7.578125 C 5.8125 -7.648438 6.234375 -7.773438 6.671875 -7.953125 Z M 3.46875 -6.84375 C 2.863281 -6.84375 2.40625 -6.675781 2.09375 -6.34375 C 1.78125 -6.007812 1.625 -5.5625 1.625 -5 C 1.625 -4.414062 1.789062 -3.960938 2.125 -3.640625 C 2.457031 -3.316406 2.90625 -3.15625 3.46875 -3.15625 C 4.070312 -3.15625 4.53125 -3.3125 4.84375 -3.625 C 5.15625 -3.945312 5.3125 -4.398438 5.3125 -4.984375 C 5.3125 -5.566406 5.15625 -6.019531 4.84375 -6.34375 C 4.53125 -6.675781 4.070312 -6.84375 3.46875 -6.84375 Z M 3.46875 -6.84375 "/>
</g>
<g id="glyph-23-2-ca1064ab">
<path d="M 6.03125 -1.625 C 6.03125 -1.238281 6.078125 -0.960938 6.171875 -0.796875 C 6.273438 -0.628906 6.4375 -0.503906 6.65625 -0.421875 L 6.46875 0.15625 C 6.132812 0.09375 5.875 -0.03125 5.6875 -0.21875 C 5.507812 -0.40625 5.390625 -0.691406 5.328125 -1.078125 C 4.828125 -0.253906 4.066406 0.15625 3.046875 0.15625 C 2.347656 0.15625 1.796875 -0.0390625 1.390625 -0.4375 C 0.984375 -0.832031 0.78125 -1.363281 0.78125 -2.03125 C 0.78125 -2.78125 1.046875 -3.359375 1.578125 -3.765625 C 2.117188 -4.179688 2.867188 -4.390625 3.828125 -4.390625 L 5.21875 -4.390625 L 5.21875 -5.109375 C 5.21875 -5.691406 5.085938 -6.117188 4.828125 -6.390625 C 4.566406 -6.660156 4.132812 -6.796875 3.53125 -6.796875 C 2.96875 -6.796875 2.304688 -6.65625 1.546875 -6.375 L 1.328125 -6.984375 C 2.148438 -7.304688 2.921875 -7.46875 3.640625 -7.46875 C 5.234375 -7.46875 6.03125 -6.695312 6.03125 -5.15625 Z M 3.1875 -0.5 C 4.070312 -0.5 4.75 -0.929688 5.21875 -1.796875 L 5.21875 -3.8125 L 3.953125 -3.8125 C 3.203125 -3.8125 2.628906 -3.664062 2.234375 -3.375 C 1.847656 -3.082031 1.65625 -2.648438 1.65625 -2.078125 C 1.65625 -1.566406 1.789062 -1.175781 2.0625 -0.90625 C 2.332031 -0.632812 2.707031 -0.5 3.1875 -0.5 Z M 3.1875 -0.5 "/>
</g>
</g>
</defs>
<rect x="-60" y="-45" width="720" height="540" fill="rgb(100%, 100%, 100%)" fill-opacity="1"/>
<path fill-rule="nonzero" fill="rgb(100%, 100%, 100%)" fill-opacity="1" d="M 65 390 L 584 390 L 584 64 L 65 64 Z M 65 390 "/>
<g fill="rgb(0%, 0%, 0%)" fill-opacity="1">
<use xlink:href="#glyph-0-0-ca1064ab" x="321.000031" y="430.890015"/>
</g>
<g fill="rgb(0%, 0%, 0%)" fill-opacity="1">
<use xlink:href="#glyph-1-0-ca1064ab" x="75.527122" y="411.089996"/>
</g>
<g fill="rgb(0%, 0%, 0%)" fill-opacity="1">
<use xlink:href="#glyph-2-0-ca1064ab" x="83.227142" y="411.089996"/>
</g>
<g fill="rgb(0%, 0%, 0%)" fill-opacity="1">
<use xlink:href="#glyph-2-1-ca1064ab" x="86.125145" y="411.089996"/>
</g>
<g fill="rgb(0%, 0%, 0%)" fill-opacity="1">
<use xlink:href="#glyph-3-0-ca1064ab" x="317.672333" y="411.089996"/>
</g>
<g fill="rgb(0%, 0%, 0%)" fill-opacity="1">
<use xlink:href="#glyph-4-0-ca1064ab" x="325.372345" y="411.089996"/>
</g>
<g fill="rgb(0%, 0%, 0%)" fill-opacity="1">
<use xlink:href="#glyph-3-1-ca1064ab" x="328.270325" y="411.089996"/>
</g>
<g fill="rgb(0%, 0%, 0%)" fill-opacity="1">
<use xlink:href="#glyph-3-2-ca1064ab" x="559.894531" y="411.089996"/>
</g>
<g fill="rgb(0%, 0%, 0%)" fill-opacity="1">
<use xlink:href="#glyph-3-3-ca1064ab" x="565.676514" y="411.089996"/>
</g>
<g fill="rgb(0%, 0%, 0%)" fill-opacity="1">
<use xlink:href="#glyph-3-0-ca1064ab" x="568.574524" y="411.089996"/>
</g>
<g fill="rgb(0%, 0%, 0%)" fill-opacity="1">
<use xlink:href="#glyph-5-0-ca1064ab" x="27.991999" y="230.542007"/>
</g>
<g fill="rgb(0%, 0%, 0%)" fill-opacity="1">
<use xlink:href="#glyph-2-1-ca1064ab" x="36.702007" y="380.930603"/>
</g>
<g fill="rgb(0%, 0%, 0%)" fill-opacity="1">
<use xlink:href="#glyph-6-0-ca1064ab" x="44.402004" y="380.930603"/>
</g>
<g fill="rgb(0%, 0%, 0%)" fill-opacity="1">
<use xlink:href="#glyph-7-0-ca1064ab" x="47.300003" y="380.930603"/>
</g>
<g fill="rgb(0%, 0%, 0%)" fill-opacity="1">
<use xlink:href="#glyph-8-0-ca1064ab" x="37.584007" y="225.190994"/>
</g>
<g fill="rgb(0%, 0%, 0%)" fill-opacity="1">
<use xlink:href="#glyph-9-0-ca1064ab" x="45.284004" y="225.190994"/>
</g>
<g fill="rgb(0%, 0%, 0%)" fill-opacity="1">
<use xlink:href="#glyph-10-0-ca1064ab" x="48.182003" y="225.190994"/>
</g>
<g fill="rgb(0%, 0%, 0%)" fill-opacity="1">
<use xlink:href="#glyph-11-0-ca1064ab" x="38.620003" y="69.451416"/>
</g>
<g fill="rgb(0%, 0%, 0%)" fill-opacity="1">
<use xlink:href="#glyph-11-1-ca1064ab" x="44.402004" y="69.451416"/>
</g>
<g fill="rgb(0%, 0%, 0%)" fill-opacity="1">
<use xlink:href="#glyph-12-0-ca1064ab" x="47.300003" y="69.451416"/>
</g>
<path fill="none" stroke-width="1.5" stroke-linecap="butt" stroke-linejoin="miter" stroke="rgb(25.098041%, 25.098041%, 25.098041%)" stroke-opacity="1" stroke-miterlimit="2" d="M 88.589844 250.109375 L 98.074219 249.5 L 100.445312 249.34375 L 119.414062 248.125 L 121.785156 247.96875 L 136.011719 247.054688 L 138.378906 246.902344 L 140.75 246.75 L 143.121094 246.59375 L 162.089844 245.375 L 164.460938 245.21875 L 183.429688 244 L 185.800781 243.84375 L 197.65625 243.082031 L 200.023438 242.929688 L 204.765625 242.625 L 207.136719 242.46875 L 226.105469 241.25 L 228.476562 241.09375 L 247.445312 239.875 L 249.816406 239.71875 L 261.671875 238.957031 L 264.039062 238.804688 L 268.78125 238.5 L 271.152344 238.34375 L 290.121094 237.125 L 292.492188 236.96875 L 311.460938 235.75 L 313.832031 235.59375 L 323.316406 234.984375 L 325.683594 234.832031 L 332.796875 234.375 L 335.167969 234.21875 L 354.136719 233 L 356.507812 232.84375 L 375.476562 231.625 L 377.847656 231.46875 L 384.960938 231.011719 L 387.328125 230.859375 L 396.8125 230.25 L 399.183594 230.09375 L 418.152344 228.875 L 420.523438 228.71875 L 439.492188 227.5 L 441.863281 227.34375 L 448.976562 226.886719 L 451.34375 226.734375 L 460.828125 226.125 L 463.199219 225.96875 L 482.167969 224.75 L 484.539062 224.59375 L 503.507812 223.375 L 505.878906 223.21875 L 512.992188 222.761719 L 515.359375 222.609375 L 524.84375 222 L 527.214844 221.84375 L 543.8125 220.777344 L 546.183594 220.621094 L 560.410156 219.707031 "/>
<path fill-rule="nonzero" fill="rgb(25.098041%, 25.098041%, 25.098041%)" fill-opacity="0.15" d="M 88.589844 218.269531 L 98.074219 218.566406 L 100.445312 218.636719 L 102.816406 218.710938 L 105.1875 218.78125 L 107.558594 218.847656 L 112.300781 218.988281 L 121.785156 219.253906 L 133.640625 219.566406 L 136.011719 219.625 L 138.378906 219.683594 L 140.75 219.742188 L 150.234375 219.960938 L 159.71875 220.164062 L 164.460938 220.257812 L 173.945312 220.429688 L 176.316406 220.46875 L 178.6875 220.503906 L 181.058594 220.542969 L 183.429688 220.578125 L 190.542969 220.671875 L 195.285156 220.726562 L 197.65625 220.75 L 200.023438 220.773438 L 207.136719 220.832031 L 209.507812 220.847656 L 214.25 220.871094 L 218.992188 220.886719 L 221.363281 220.890625 L 228.476562 220.890625 L 235.589844 220.867188 L 237.960938 220.855469 L 240.332031 220.839844 L 245.074219 220.800781 L 247.445312 220.773438 L 249.816406 220.75 L 254.558594 220.6875 L 261.671875 220.570312 L 264.039062 220.523438 L 268.78125 220.421875 L 271.152344 220.367188 L 273.523438 220.308594 L 275.894531 220.246094 L 278.265625 220.179688 L 280.636719 220.109375 L 283.007812 220.035156 L 285.378906 219.957031 L 287.75 219.875 L 292.492188 219.703125 L 294.863281 219.609375 L 297.234375 219.511719 L 299.605469 219.410156 L 301.976562 219.304688 L 304.347656 219.195312 L 306.71875 219.082031 L 309.089844 218.964844 L 311.460938 218.84375 L 313.832031 218.71875 L 316.203125 218.589844 L 318.574219 218.457031 L 323.316406 218.175781 L 325.683594 218.027344 L 328.054688 217.875 L 330.425781 217.71875 L 332.796875 217.558594 L 335.167969 217.394531 L 337.539062 217.226562 L 339.910156 217.054688 L 342.28125 216.878906 L 347.023438 216.511719 L 349.394531 216.324219 L 351.765625 216.128906 L 356.507812 215.730469 L 358.878906 215.523438 L 363.621094 215.101562 L 365.992188 214.882812 L 368.363281 214.660156 L 373.105469 214.207031 L 375.476562 213.972656 L 380.21875 213.496094 L 384.960938 213.003906 L 387.328125 212.753906 L 389.699219 212.5 L 392.070312 212.242188 L 394.441406 211.980469 L 399.183594 211.449219 L 406.296875 210.628906 L 411.039062 210.066406 L 413.410156 209.78125 L 415.78125 209.492188 L 420.523438 208.90625 L 425.265625 208.3125 L 427.636719 208.011719 L 432.378906 207.402344 L 434.75 207.09375 L 439.492188 206.46875 L 444.234375 205.835938 L 448.976562 205.195312 L 451.34375 204.871094 L 453.714844 204.546875 L 458.457031 203.890625 L 465.570312 202.894531 L 467.941406 202.558594 L 477.425781 201.199219 L 479.796875 200.851562 L 482.167969 200.507812 L 489.28125 199.464844 L 494.023438 198.761719 L 503.507812 197.339844 L 512.992188 195.902344 L 515.359375 195.539062 L 517.730469 195.175781 L 520.101562 194.808594 L 522.472656 194.445312 L 529.585938 193.34375 L 541.441406 191.488281 L 546.183594 190.738281 L 548.554688 190.367188 L 550.925781 189.988281 L 553.296875 189.613281 L 555.667969 189.234375 L 558.039062 188.859375 L 560.410156 188.480469 L 560.410156 250.933594 L 558.039062 250.859375 L 555.667969 250.789062 L 553.296875 250.714844 L 548.554688 250.574219 L 546.183594 250.507812 L 543.8125 250.4375 L 541.441406 250.371094 L 539.070312 250.300781 L 536.699219 250.234375 L 534.328125 250.171875 L 531.957031 250.105469 L 522.472656 249.855469 L 515.359375 249.679688 L 512.992188 249.625 L 510.621094 249.566406 L 505.878906 249.457031 L 496.394531 249.253906 L 491.652344 249.160156 L 489.28125 249.117188 L 486.910156 249.070312 L 484.539062 249.027344 L 477.425781 248.910156 L 475.054688 248.875 L 472.683594 248.835938 L 463.199219 248.710938 L 460.828125 248.6875 L 458.457031 248.660156 L 456.085938 248.636719 L 453.714844 248.617188 L 451.34375 248.59375 L 448.976562 248.578125 L 444.234375 248.546875 L 441.863281 248.535156 L 437.121094 248.519531 L 432.378906 248.511719 L 427.636719 248.511719 L 425.265625 248.515625 L 422.894531 248.523438 L 415.78125 248.558594 L 411.039062 248.597656 L 408.667969 248.621094 L 403.925781 248.675781 L 401.554688 248.707031 L 399.183594 248.742188 L 394.441406 248.820312 L 389.699219 248.914062 L 387.328125 248.964844 L 384.960938 249.019531 L 382.589844 249.078125 L 377.847656 249.203125 L 375.476562 249.273438 L 370.734375 249.421875 L 365.992188 249.585938 L 361.25 249.765625 L 356.507812 249.960938 L 351.765625 250.171875 L 349.394531 250.285156 L 347.023438 250.402344 L 342.28125 250.644531 L 339.910156 250.773438 L 337.539062 250.90625 L 335.167969 251.042969 L 330.425781 251.332031 L 328.054688 251.480469 L 325.683594 251.636719 L 323.316406 251.792969 L 320.945312 251.957031 L 318.574219 252.125 L 316.203125 252.296875 L 313.832031 252.472656 L 311.460938 252.652344 L 309.089844 252.835938 L 306.71875 253.023438 L 304.347656 253.214844 L 299.605469 253.613281 L 297.234375 253.816406 L 292.492188 254.238281 L 287.75 254.675781 L 285.378906 254.898438 L 280.636719 255.359375 L 275.894531 255.835938 L 273.523438 256.078125 L 271.152344 256.324219 L 268.78125 256.574219 L 266.410156 256.828125 L 264.039062 257.085938 L 261.671875 257.34375 L 256.929688 257.875 L 254.558594 258.144531 L 249.816406 258.691406 L 245.074219 259.253906 L 240.332031 259.824219 L 237.960938 260.113281 L 235.589844 260.40625 L 230.847656 261 L 228.476562 261.300781 L 223.734375 261.910156 L 218.992188 262.527344 L 214.25 263.152344 L 211.878906 263.472656 L 209.507812 263.789062 L 207.136719 264.109375 L 202.394531 264.757812 L 200.023438 265.085938 L 197.65625 265.414062 L 195.285156 265.742188 L 192.914062 266.074219 L 185.800781 267.082031 L 178.6875 268.101562 L 176.316406 268.445312 L 173.945312 268.792969 L 171.574219 269.136719 L 169.203125 269.484375 L 166.832031 269.835938 L 164.460938 270.183594 L 162.089844 270.535156 L 159.71875 270.890625 L 157.347656 271.242188 L 154.976562 271.597656 L 152.605469 271.957031 L 150.234375 272.3125 L 145.492188 273.03125 L 138.378906 274.121094 L 136.011719 274.484375 L 133.640625 274.847656 L 126.527344 275.949219 L 124.15625 276.320312 L 121.785156 276.6875 L 117.042969 277.429688 L 114.671875 277.804688 L 112.300781 278.175781 L 102.816406 279.675781 L 100.445312 280.054688 L 98.074219 280.429688 L 90.960938 281.566406 L 88.589844 281.949219 Z M 88.589844 218.269531 "/>
<path fill-rule="nonzero" fill="rgb(0%, 44.705883%, 69.803923%)" fill-opacity="1" d="M 396.125 310.105469 C 396.125 305.875 389.78125 305.875 389.78125 310.105469 C 389.78125 314.335938 396.125 314.335938 396.125 310.105469 Z M 396.125 310.105469 "/>
<path fill-rule="nonzero" fill="rgb(0%, 44.705883%, 69.803923%)" fill-opacity="1" d="M 218.269531 269.90625 C 218.269531 265.675781 211.921875 265.675781 211.921875 269.90625 C 211.921875 274.136719 218.269531 274.136719 218.269531 269.90625 Z M 218.269531 269.90625 "/>
<path fill-rule="nonzero" fill="rgb(0%, 44.705883%, 69.803923%)" fill-opacity="1" d="M 113.328125 196.089844 C 113.328125 191.859375 106.984375 191.859375 106.984375 196.089844 C 106.984375 200.320312 113.328125 200.320312 113.328125 196.089844 Z M 113.328125 196.089844 "/>
<path fill-rule="nonzero" fill="rgb(0%, 44.705883%, 69.803923%)" fill-opacity="1" d="M 482.101562 354.601562 C 482.101562 350.371094 475.757812 350.371094 475.757812 354.601562 C 475.757812 358.832031 482.101562 358.832031 482.101562 354.601562 Z M 482.101562 354.601562 "/>
<path fill-rule="nonzero" fill="rgb(0%, 44.705883%, 69.803923%)" fill-opacity="1" d="M 132.558594 146.257812 C 132.558594 142.027344 126.214844 142.027344 126.214844 146.257812 C 126.214844 150.488281 132.558594 150.488281 132.558594 146.257812 Z M 132.558594 146.257812 "/>
<path fill-rule="nonzero" fill="rgb(0%, 44.705883%, 69.803923%)" fill-opacity="1" d="M 243.824219 253.488281 C 243.824219 249.257812 237.476562 249.257812 237.476562 253.488281 C 237.476562 257.71875 243.824219 257.71875 243.824219 253.488281 Z M 243.824219 253.488281 "/>
<path fill-rule="nonzero" fill="rgb(0%, 44.705883%, 69.803923%)" fill-opacity="1" d="M 485.375 243.476562 C 485.375 239.246094 479.03125 239.246094 479.03125 243.476562 C 479.03125 247.703125 485.375 247.703125 485.375 243.476562 Z M 485.375 243.476562 "/>
<path fill-rule="nonzero" fill="rgb(0%, 44.705883%, 69.803923%)" fill-opacity="1" d="M 345.535156 335.804688 C 345.535156 331.574219 339.191406 331.574219 339.191406 335.804688 C 339.191406 340.035156 345.535156 340.035156 345.535156 335.804688 Z M 345.535156 335.804688 "/>
<path fill-rule="nonzero" fill="rgb(0%, 44.705883%, 69.803923%)" fill-opacity="1" d="M 459.484375 85.292969 C 459.484375 81.0625 453.136719 81.0625 453.136719 85.292969 C 453.136719 89.523438 459.484375 89.523438 459.484375 85.292969 Z M 459.484375 85.292969 "/>
<path fill-rule="nonzero" fill="rgb(0%, 44.705883%, 69.803923%)" fill-opacity="1" d="M 269.773438 152.4375 C 269.773438 148.207031 263.429688 148.207031 263.429688 152.4375 C 263.429688 156.667969 269.773438 156.667969 269.773438 152.4375 Z M 269.773438 152.4375 "/>
<path fill-rule="nonzero" fill="rgb(0%, 44.705883%, 69.803923%)" fill-opacity="1" d="M 549.570312 281.492188 C 549.570312 277.261719 543.226562 277.261719 543.226562 281.492188 C 543.226562 285.71875 549.570312 285.71875 549.570312 281.492188 Z M 549.570312 281.492188 "/>
<path fill-rule="nonzero" fill="rgb(0%, 44.705883%, 69.803923%)" fill-opacity="1" d="M 197.085938 203.351562 C 197.085938 199.121094 190.742188 199.121094 190.742188 203.351562 C 190.742188 207.578125 197.085938 207.578125 197.085938 203.351562 Z M 197.085938 203.351562 "/>
<path fill-rule="nonzero" fill="rgb(0%, 44.705883%, 69.803923%)" fill-opacity="1" d="M 137.316406 334.484375 C 137.316406 330.253906 130.972656 330.253906 130.972656 334.484375 C 130.972656 338.710938 137.316406 338.710938 137.316406 334.484375 Z M 137.316406 334.484375 "/>
<path fill-rule="nonzero" fill="rgb(0%, 44.705883%, 69.803923%)" fill-opacity="1" d="M 136.015625 243.851562 C 136.015625 239.621094 129.671875 239.621094 129.671875 243.851562 C 129.671875 248.082031 136.015625 248.082031 136.015625 243.851562 Z M 136.015625 243.851562 "/>
<path fill-rule="nonzero" fill="rgb(0%, 44.705883%, 69.803923%)" fill-opacity="1" d="M 485.355469 321.859375 C 485.355469 317.628906 479.007812 317.628906 479.007812 321.859375 C 479.007812 326.089844 485.355469 326.089844 485.355469 321.859375 Z M 485.355469 321.859375 "/>
<path fill-rule="nonzero" fill="rgb(0%, 44.705883%, 69.803923%)" fill-opacity="1" d="M 116.035156 127.425781 C 116.035156 123.195312 109.691406 123.195312 109.691406 127.425781 C 109.691406 131.65625 116.035156 131.65625 116.035156 127.425781 Z M 116.035156 127.425781 "/>
<path fill-rule="nonzero" fill="rgb(0%, 44.705883%, 69.803923%)" fill-opacity="1" d="M 408.800781 335.542969 C 408.800781 331.3125 402.457031 331.3125 402.457031 335.542969 C 402.457031 339.773438 408.800781 339.773438 408.800781 335.542969 Z M 408.800781 335.542969 "/>
<path fill-rule="nonzero" fill="rgb(0%, 44.705883%, 69.803923%)" fill-opacity="1" d="M 112.863281 240.460938 C 112.863281 236.230469 106.515625 236.230469 106.515625 240.460938 C 106.515625 244.691406 112.863281 244.691406 112.863281 240.460938 Z M 112.863281 240.460938 "/>
<path fill-rule="nonzero" fill="rgb(0%, 44.705883%, 69.803923%)" fill-opacity="1" d="M 501.601562 270.246094 C 501.601562 266.015625 495.253906 266.015625 495.253906 270.246094 C 495.253906 274.476562 501.601562 274.476562 501.601562 270.246094 Z M 501.601562 270.246094 "/>
<path fill-rule="nonzero" fill="rgb(0%, 44.705883%, 69.803923%)" fill-opacity="1" d="M 293.40625 168.785156 C 293.40625 164.554688 287.0625 164.554688 287.0625 168.785156 C 287.0625 173.015625 293.40625 173.015625 293.40625 168.785156 Z M 293.40625 168.785156 "/>
<path fill-rule="nonzero" fill="rgb(0%, 44.705883%, 69.803923%)" fill-opacity="1" d="M 145.554688 351.511719 C 145.554688 347.285156 139.207031 347.285156 139.207031 351.511719 C 139.207031 355.742188 145.554688 355.742188 145.554688 351.511719 Z M 145.554688 351.511719 "/>
<path fill-rule="nonzero" fill="rgb(0%, 44.705883%, 69.803923%)" fill-opacity="1" d="M 401.4375 355.179688 C 401.4375 350.949219 395.09375 350.949219 395.09375 355.179688 C 395.09375 359.410156 401.4375 359.410156 401.4375 355.179688 Z M 401.4375 355.179688 "/>
<path fill-rule="nonzero" fill="rgb(0%, 44.705883%, 69.803923%)" fill-opacity="1" d="M 135.132812 187.441406 C 135.132812 183.210938 128.789062 183.210938 128.789062 187.441406 C 128.789062 191.671875 135.132812 191.671875 135.132812 187.441406 Z M 135.132812 187.441406 "/>
<path fill-rule="nonzero" fill="rgb(0%, 44.705883%, 69.803923%)" fill-opacity="1" d="M 389.894531 159.875 C 389.894531 155.648438 383.550781 155.648438 383.550781 159.875 C 383.550781 164.105469 389.894531 164.105469 389.894531 159.875 Z M 389.894531 159.875 "/>
<path fill-rule="nonzero" fill="rgb(0%, 44.705883%, 69.803923%)" fill-opacity="1" d="M 119.78125 298.191406 C 119.78125 293.960938 113.4375 293.960938 113.4375 298.191406 C 113.4375 302.421875 119.78125 302.421875 119.78125 298.191406 Z M 119.78125 298.191406 "/>
<path fill-rule="nonzero" fill="rgb(0%, 44.705883%, 69.803923%)" fill-opacity="1" d="M 166.511719 236.605469 C 166.511719 232.375 160.167969 232.375 160.167969 236.605469 C 160.167969 240.835938 166.511719 240.835938 166.511719 236.605469 Z M 166.511719 236.605469 "/>
<path fill-rule="nonzero" fill="rgb(0%, 44.705883%, 69.803923%)" fill-opacity="1" d="M 459.09375 334.410156 C 459.09375 330.179688 452.75 330.179688 452.75 334.410156 C 452.75 338.636719 459.09375 338.636719 459.09375 334.410156 Z M 459.09375 334.410156 "/>
<path fill-rule="nonzero" fill="rgb(0%, 44.705883%, 69.803923%)" fill-opacity="1" d="M 356.070312 260.6875 C 356.070312 256.460938 349.726562 256.460938 349.726562 260.6875 C 349.726562 264.917969 356.070312 264.917969 356.070312 260.6875 Z M 356.070312 260.6875 "/>
<path fill-rule="nonzero" fill="rgb(0%, 44.705883%, 69.803923%)" fill-opacity="1" d="M 420.867188 310.699219 C 420.867188 306.472656 414.523438 306.472656 414.523438 310.699219 C 414.523438 314.929688 420.867188 314.929688 420.867188 310.699219 Z M 420.867188 310.699219 "/>
<path fill-rule="nonzero" fill="rgb(0%, 44.705883%, 69.803923%)" fill-opacity="1" d="M 283.585938 91.046875 C 283.585938 86.816406 277.242188 86.816406 277.242188 91.046875 C 277.242188 95.277344 283.585938 95.277344 283.585938 91.046875 Z M 283.585938 91.046875 "/>
<path fill-rule="nonzero" fill="rgb(0%, 44.705883%, 69.803923%)" fill-opacity="1" d="M 341.457031 83.929688 C 341.457031 79.699219 335.113281 79.699219 335.113281 83.929688 C 335.113281 88.160156 341.457031 88.160156 341.457031 83.929688 Z M 341.457031 83.929688 "/>
<path fill-rule="nonzero" fill="rgb(0%, 44.705883%, 69.803923%)" fill-opacity="1" d="M 91.761719 336.328125 C 91.761719 332.097656 85.417969 332.097656 85.417969 336.328125 C 85.417969 340.554688 91.761719 340.554688 91.761719 336.328125 Z M 91.761719 336.328125 "/>
<path fill-rule="nonzero" fill="rgb(0%, 44.705883%, 69.803923%)" fill-opacity="1" d="M 114.785156 357.984375 C 114.785156 353.753906 108.4375 353.753906 108.4375 357.984375 C 108.4375 362.210938 114.785156 362.210938 114.785156 357.984375 Z M 114.785156 357.984375 "/>
<path fill-rule="nonzero" fill="rgb(0%, 44.705883%, 69.803923%)" fill-opacity="1" d="M 557.203125 221.511719 C 557.203125 217.28125 550.859375 217.28125 550.859375 221.511719 C 550.859375 225.742188 557.203125 225.742188 557.203125 221.511719 Z M 557.203125 221.511719 "/>
<path fill-rule="nonzero" fill="rgb(90.196079%, 62.352943%, 0%)" fill-opacity="1" d="M 519.101562 237.113281 C 519.101562 232.882812 512.757812 232.882812 512.757812 237.113281 C 512.757812 241.34375 519.101562 241.34375 519.101562 237.113281 Z M 519.101562 237.113281 "/>
<path fill-rule="nonzero" fill="rgb(90.196079%, 62.352943%, 0%)" fill-opacity="1" d="M 502.984375 222.851562 C 502.984375 218.621094 496.640625 218.621094 496.640625 222.851562 C 496.640625 227.082031 502.984375 227.082031 502.984375 222.851562 Z M 502.984375 222.851562 "/>
<path fill-rule="nonzero" fill="rgb(90.196079%, 62.352943%, 0%)" fill-opacity="1" d="M 109.613281 302.125 C 109.613281 297.894531 103.269531 297.894531 103.269531 302.125 C 103.269531 306.355469 109.613281 306.355469 109.613281 302.125 Z M 109.613281 302.125 "/>
<path fill-rule="nonzero" fill="rgb(90.196079%, 62.352943%, 0%)" fill-opacity="1" d="M 201.621094 250.574219 C 201.621094 246.34375 195.277344 246.34375 195.277344 250.574219 C 195.277344 254.804688 201.621094 254.804688 201.621094 250.574219 Z M 201.621094 250.574219 "/>
<path fill-rule="nonzero" fill="rgb(90.196079%, 62.352943%, 0%)" fill-opacity="1" d="M 490.601562 242.824219 C 490.601562 238.59375 484.253906 238.59375 484.253906 242.824219 C 484.253906 247.054688 490.601562 247.054688 490.601562 242.824219 Z M 490.601562 242.824219 "/>
<path fill-rule="nonzero" fill="rgb(90.196079%, 62.352943%, 0%)" fill-opacity="1" d="M 274.476562 169.625 C 274.476562 165.394531 268.132812 165.394531 268.132812 169.625 C 268.132812 173.855469 274.476562 173.855469 274.476562 169.625 Z M 274.476562 169.625 "/>
<path fill-rule="nonzero" fill="rgb(90.196079%, 62.352943%, 0%)" fill-opacity="1" d="M 365.207031 154.617188 C 365.207031 150.386719 358.863281 150.386719 358.863281 154.617188 C 358.863281 158.847656 365.207031 158.847656 365.207031 154.617188 Z M 365.207031 154.617188 "/>
<path fill-rule="nonzero" fill="rgb(90.196079%, 62.352943%, 0%)" fill-opacity="1" d="M 476.652344 328.28125 C 476.652344 324.050781 470.304688 324.050781 470.304688 328.28125 C 470.304688 332.507812 476.652344 332.507812 476.652344 328.28125 Z M 476.652344 328.28125 "/>
<path fill-rule="nonzero" fill="rgb(90.196079%, 62.352943%, 0%)" fill-opacity="1" d="M 559.921875 191.757812 C 559.921875 187.527344 553.574219 187.527344 553.574219 191.757812 C 553.574219 195.988281 559.921875 195.988281 559.921875 191.757812 Z M 559.921875 191.757812 "/>
<path fill-rule="nonzero" fill="rgb(90.196079%, 62.352943%, 0%)" fill-opacity="1" d="M 234.367188 304.59375 C 234.367188 300.363281 228.023438 300.363281 228.023438 304.59375 C 228.023438 308.824219 234.367188 308.824219 234.367188 304.59375 Z M 234.367188 304.59375 "/>
<path fill-rule="nonzero" fill="rgb(90.196079%, 62.352943%, 0%)" fill-opacity="1" d="M 350.914062 165.566406 C 350.914062 161.339844 344.570312 161.339844 344.570312 165.566406 C 344.570312 169.796875 350.914062 169.796875 350.914062 165.566406 Z M 350.914062 165.566406 "/>
<path fill-rule="nonzero" fill="rgb(90.196079%, 62.352943%, 0%)" fill-opacity="1" d="M 374.144531 166.238281 C 374.144531 162.007812 367.800781 162.007812 367.800781 166.238281 C 367.800781 170.46875 374.144531 170.46875 374.144531 166.238281 Z M 374.144531 166.238281 "/>
<path fill-rule="nonzero" fill="rgb(90.196079%, 62.352943%, 0%)" fill-opacity="1" d="M 399.808594 239.277344 C 399.808594 235.050781 393.464844 235.050781 393.464844 239.277344 C 393.464844 243.507812 399.808594 243.507812 399.808594 239.277344 Z M 399.808594 239.277344 "/>
<path fill-rule="nonzero" fill="rgb(90.196079%, 62.352943%, 0%)" fill-opacity="1" d="M 362.882812 343.191406 C 362.882812 338.960938 356.539062 338.960938 356.539062 343.191406 C 356.539062 347.421875 362.882812 347.421875 362.882812 343.191406 Z M 362.882812 343.191406 "/>
<path fill-rule="nonzero" fill="rgb(90.196079%, 62.352943%, 0%)" fill-opacity="1" d="M 481.871094 178.65625 C 481.871094 174.425781 475.527344 174.425781 475.527344 178.65625 C 475.527344 182.886719 481.871094 182.886719 481.871094 178.65625 Z M 481.871094 178.65625 "/>
<path fill-rule="nonzero" fill="rgb(90.196079%, 62.352943%, 0%)" fill-opacity="1" d="M 374.570312 281.777344 C 374.570312 277.546875 368.222656 277.546875 368.222656 281.777344 C 368.222656 286.007812 374.570312 286.007812 374.570312 281.777344 Z M 374.570312 281.777344 "/>
<path fill-rule="nonzero" fill="rgb(90.196079%, 62.352943%, 0%)" fill-opacity="1" d="M 538.214844 78.816406 C 538.214844 74.589844 531.871094 74.589844 531.871094 78.816406 C 531.871094 83.046875 538.214844 83.046875 538.214844 78.816406 Z M 538.214844 78.816406 "/>
<path fill-rule="nonzero" fill="rgb(90.196079%, 62.352943%, 0%)" fill-opacity="1" d="M 562.042969 154.101562 C 562.042969 149.871094 555.699219 149.871094 555.699219 154.101562 C 555.699219 158.332031 562.042969 158.332031 562.042969 154.101562 Z M 562.042969 154.101562 "/>
<path fill-rule="nonzero" fill="rgb(90.196079%, 62.352943%, 0%)" fill-opacity="1" d="M 368.886719 346.972656 C 368.886719 342.742188 362.542969 342.742188 362.542969 346.972656 C 362.542969 351.203125 368.886719 351.203125 368.886719 346.972656 Z M 368.886719 346.972656 "/>
<path fill-rule="nonzero" fill="rgb(90.196079%, 62.352943%, 0%)" fill-opacity="1" d="M 541.242188 198.746094 C 541.242188 194.515625 534.898438 194.515625 534.898438 198.746094 C 534.898438 202.976562 541.242188 202.976562 541.242188 198.746094 Z M 541.242188 198.746094 "/>
<path fill-rule="nonzero" fill="rgb(90.196079%, 62.352943%, 0%)" fill-opacity="1" d="M 103.847656 79.625 C 103.847656 75.394531 97.503906 75.394531 97.503906 79.625 C 97.503906 83.855469 103.847656 83.855469 103.847656 79.625 Z M 103.847656 79.625 "/>
<path fill-rule="nonzero" fill="rgb(90.196079%, 62.352943%, 0%)" fill-opacity="1" d="M 479.25 364.664062 C 479.25 360.433594 472.90625 360.433594 472.90625 364.664062 C 472.90625 368.894531 479.25 368.894531 479.25 364.664062 Z M 479.25 364.664062 "/>
<path fill-rule="nonzero" fill="rgb(90.196079%, 62.352943%, 0%)" fill-opacity="1" d="M 513.128906 288.195312 C 513.128906 283.964844 506.785156 283.964844 506.785156 288.195312 C 506.785156 292.425781 513.128906 292.425781 513.128906 288.195312 Z M 513.128906 288.195312 "/>
<path fill-rule="nonzero" fill="rgb(90.196079%, 62.352943%, 0%)" fill-opacity="1" d="M 112.582031 155.039062 C 112.582031 150.808594 106.238281 150.808594 106.238281 155.039062 C 106.238281 159.269531 112.582031 159.269531 112.582031 155.039062 Z M 112.582031 155.039062 "/>
<path fill-rule="nonzero" fill="rgb(90.196079%, 62.352943%, 0%)" fill-opacity="1" d="M 163.085938 206.914062 C 163.085938 202.683594 156.742188 202.683594 156.742188 206.914062 C 156.742188 211.144531 163.085938 211.144531 163.085938 206.914062 Z M 163.085938 206.914062 "/>
<path fill-rule="nonzero" fill="rgb(90.196079%, 62.352943%, 0%)" fill-opacity="1" d="M 297.867188 150.890625 C 297.867188 146.660156 291.523438 146.660156 291.523438 150.890625 C 291.523438 155.121094 297.867188 155.121094 297.867188 150.890625 Z M 297.867188 150.890625 "/>
<path fill-rule="nonzero" fill="rgb(90.196079%, 62.352943%, 0%)" fill-opacity="1" d="M 96.585938 300.234375 C 96.585938 296.003906 90.242188 296.003906 90.242188 300.234375 C 90.242188 304.464844 96.585938 304.464844 96.585938 300.234375 Z M 96.585938 300.234375 "/>
<path fill-rule="nonzero" fill="rgb(90.196079%, 62.352943%, 0%)" fill-opacity="1" d="M 284.828125 145.179688 C 284.828125 140.949219 278.484375 140.949219 278.484375 145.179688 C 278.484375 149.410156 284.828125 149.410156 284.828125 145.179688 Z M 284.828125 145.179688 "/>
<path fill-rule="nonzero" fill="rgb(90.196079%, 62.352943%, 0%)" fill-opacity="1" d="M 437.675781 140.933594 C 437.675781 136.703125 431.332031 136.703125 431.332031 140.933594 C 431.332031 145.164062 437.675781 145.164062 437.675781 140.933594 Z M 437.675781 140.933594 "/>
<path fill-rule="nonzero" fill="rgb(90.196079%, 62.352943%, 0%)" fill-opacity="1" d="M 538.476562 255.71875 C 538.476562 251.492188 532.132812 251.492188 532.132812 255.71875 C 532.132812 259.949219 538.476562 259.949219 538.476562 255.71875 Z M 538.476562 255.71875 "/>
<path fill-rule="nonzero" fill="rgb(90.196079%, 62.352943%, 0%)" fill-opacity="1" d="M 466.910156 232.871094 C 466.910156 228.640625 460.566406 228.640625 460.566406 232.871094 C 460.566406 237.101562 466.910156 237.101562 466.910156 232.871094 Z M 466.910156 232.871094 "/>
<path fill-rule="nonzero" fill="rgb(0%, 61.960787%, 45.09804%)" fill-opacity="1" d="M 464.109375 266.914062 C 464.109375 262.683594 457.761719 262.683594 457.761719 266.914062 C 457.761719 271.144531 464.109375 271.144531 464.109375 266.914062 Z M 464.109375 266.914062 "/>
<path fill-rule="nonzero" fill="rgb(0%, 61.960787%, 45.09804%)" fill-opacity="1" d="M 157.972656 266.117188 C 157.972656 261.886719 151.625 261.886719 151.625 266.117188 C 151.625 270.347656 157.972656 270.347656 157.972656 266.117188 Z M 157.972656 266.117188 "/>
<path fill-rule="nonzero" fill="rgb(0%, 61.960787%, 45.09804%)" fill-opacity="1" d="M 440.113281 154.769531 C 440.113281 150.539062 433.769531 150.539062 433.769531 154.769531 C 433.769531 159 440.113281 159 440.113281 154.769531 Z M 440.113281 154.769531 "/>
<path fill-rule="nonzero" fill="rgb(0%, 61.960787%, 45.09804%)" fill-opacity="1" d="M 326.089844 205 C 326.089844 200.769531 319.746094 200.769531 319.746094 205 C 319.746094 209.230469 326.089844 209.230469 326.089844 205 Z M 326.089844 205 "/>
<path fill-rule="nonzero" fill="rgb(0%, 61.960787%, 45.09804%)" fill-opacity="1" d="M 211.984375 196.699219 C 211.984375 192.46875 205.640625 192.46875 205.640625 196.699219 C 205.640625 200.929688 211.984375 200.929688 211.984375 196.699219 Z M 211.984375 196.699219 "/>
<path fill-rule="nonzero" fill="rgb(0%, 61.960787%, 45.09804%)" fill-opacity="1" d="M 418.71875 113.6875 C 418.71875 109.457031 412.371094 109.457031 412.371094 113.6875 C 412.371094 117.914062 418.71875 117.914062 418.71875 113.6875 Z M 418.71875 113.6875 "/>
<path fill-rule="nonzero" fill="rgb(0%, 61.960787%, 45.09804%)" fill-opacity="1" d="M 159.34375 291.128906 C 159.34375 286.898438 153 286.898438 153 291.128906 C 153 295.359375 159.34375 295.359375 159.34375 291.128906 Z M 159.34375 291.128906 "/>
<path fill-rule="nonzero" fill="rgb(0%, 61.960787%, 45.09804%)" fill-opacity="1" d="M 354.714844 80.902344 C 354.714844 76.671875 348.371094 76.671875 348.371094 80.902344 C 348.371094 85.132812 354.714844 85.132812 354.714844 80.902344 Z M 354.714844 80.902344 "/>
<path fill-rule="nonzero" fill="rgb(0%, 61.960787%, 45.09804%)" fill-opacity="1" d="M 320.585938 299.519531 C 320.585938 295.289062 314.242188 295.289062 314.242188 299.519531 C 314.242188 303.75 320.585938 303.75 320.585938 299.519531 Z M 320.585938 299.519531 "/>
<path fill-rule="nonzero" fill="rgb(0%, 61.960787%, 45.09804%)" fill-opacity="1" d="M 221.507812 362.082031 C 221.507812 357.851562 215.164062 357.851562 215.164062 362.082031 C 215.164062 366.3125 221.507812 366.3125 221.507812 362.082031 Z M 221.507812 362.082031 "/>
<path fill-rule="nonzero" fill="rgb(0%, 61.960787%, 45.09804%)" fill-opacity="1" d="M 520.742188 120.496094 C 520.742188 116.265625 514.398438 116.265625 514.398438 120.496094 C 514.398438 124.726562 520.742188 124.726562 520.742188 120.496094 Z M 520.742188 120.496094 "/>
<path fill-rule="nonzero" fill="rgb(0%, 61.960787%, 45.09804%)" fill-opacity="1" d="M 292.101562 370.84375 C 292.101562 366.613281 285.757812 366.613281 285.757812 370.84375 C 285.757812 375.074219 292.101562 375.074219 292.101562 370.84375 Z M 292.101562 370.84375 "/>
<path fill-rule="nonzero" fill="rgb(0%, 61.960787%, 45.09804%)" fill-opacity="1" d="M 118.855469 257.144531 C 118.855469 252.914062 112.507812 252.914062 112.507812 257.144531 C 112.507812 261.375 118.855469 261.375 118.855469 257.144531 Z M 118.855469 257.144531 "/>
<path fill-rule="nonzero" fill="rgb(0%, 61.960787%, 45.09804%)" fill-opacity="1" d="M 470.820312 328.925781 C 470.820312 324.695312 464.476562 324.695312 464.476562 328.925781 C 464.476562 333.15625 470.820312 333.15625 470.820312 328.925781 Z M 470.820312 328.925781 "/>
<path fill-rule="nonzero" fill="rgb(0%, 61.960787%, 45.09804%)" fill-opacity="1" d="M 215.441406 314.679688 C 215.441406 310.449219 209.097656 310.449219 209.097656 314.679688 C 209.097656 318.910156 215.441406 318.910156 215.441406 314.679688 Z M 215.441406 314.679688 "/>
<path fill-rule="nonzero" fill="rgb(0%, 61.960787%, 45.09804%)" fill-opacity="1" d="M 117.308594 213.9375 C 117.308594 209.707031 110.964844 209.707031 110.964844 213.9375 C 110.964844 218.167969 117.308594 218.167969 117.308594 213.9375 Z M 117.308594 213.9375 "/>
<path fill-rule="nonzero" fill="rgb(0%, 61.960787%, 45.09804%)" fill-opacity="1" d="M 516.824219 302.097656 C 516.824219 297.871094 510.480469 297.871094 510.480469 302.097656 C 510.480469 306.328125 516.824219 306.328125 516.824219 302.097656 Z M 516.824219 302.097656 "/>
<path fill-rule="nonzero" fill="rgb(0%, 61.960787%, 45.09804%)" fill-opacity="1" d="M 539.027344 122.097656 C 539.027344 117.871094 532.683594 117.871094 532.683594 122.097656 C 532.683594 126.328125 539.027344 126.328125 539.027344 122.097656 Z M 539.027344 122.097656 "/>
<path fill-rule="nonzero" fill="rgb(0%, 61.960787%, 45.09804%)" fill-opacity="1" d="M 487.917969 283.984375 C 487.917969 279.753906 481.574219 279.753906 481.574219 283.984375 C 481.574219 288.214844 487.917969 288.214844 487.917969 283.984375 Z M 487.917969 283.984375 "/>
<path fill-rule="nonzero" fill="rgb(0%, 61.960787%, 45.09804%)" fill-opacity="1" d="M 324.1875 326.425781 C 324.1875 322.195312 317.839844 322.195312 317.839844 326.425781 C 317.839844 330.65625 324.1875 330.65625 324.1875 326.425781 Z M 324.1875 326.425781 "/>
<path fill-rule="nonzero" fill="rgb(0%, 61.960787%, 45.09804%)" fill-opacity="1" d="M 563.582031 108.285156 C 563.582031 104.054688 557.238281 104.054688 557.238281 108.285156 C 557.238281 112.515625 563.582031 112.515625 563.582031 108.285156 Z M 563.582031 108.285156 "/>
<path fill-rule="nonzero" fill="rgb(0%, 61.960787%, 45.09804%)" fill-opacity="1" d="M 212.523438 179.976562 C 212.523438 175.746094 206.179688 175.746094 206.179688 179.976562 C 206.179688 184.207031 212.523438 184.207031 212.523438 179.976562 Z M 212.523438 179.976562 "/>
<path fill-rule="nonzero" fill="rgb(0%, 61.960787%, 45.09804%)" fill-opacity="1" d="M 411.933594 114.988281 C 411.933594 110.757812 405.589844 110.757812 405.589844 114.988281 C 405.589844 119.21875 411.933594 119.21875 411.933594 114.988281 Z M 411.933594 114.988281 "/>
<path fill-rule="nonzero" fill="rgb(0%, 61.960787%, 45.09804%)" fill-opacity="1" d="M 137.222656 248.347656 C 137.222656 244.117188 130.878906 244.117188 130.878906 248.347656 C 130.878906 252.578125 137.222656 252.578125 137.222656 248.347656 Z M 137.222656 248.347656 "/>
<path fill-rule="nonzero" fill="rgb(0%, 61.960787%, 45.09804%)" fill-opacity="1" d="M 419.128906 152.699219 C 419.128906 148.472656 412.785156 148.472656 412.785156 152.699219 C 412.785156 156.929688 419.128906 156.929688 419.128906 152.699219 Z M 419.128906 152.699219 "/>
<path fill-rule="nonzero" fill="rgb(0%, 61.960787%, 45.09804%)" fill-opacity="1" d="M 417.324219 183.253906 C 417.324219 179.023438 410.980469 179.023438 410.980469 183.253906 C 410.980469 187.484375 417.324219 187.484375 417.324219 183.253906 Z M 417.324219 183.253906 "/>
<path fill-rule="nonzero" fill="rgb(0%, 61.960787%, 45.09804%)" fill-opacity="1" d="M 395.746094 318.738281 C 395.746094 314.511719 389.402344 314.511719 389.402344 318.738281 C 389.402344 322.96875 395.746094 322.96875 395.746094 318.738281 Z M 395.746094 318.738281 "/>
<path fill-rule="nonzero" fill="rgb(0%, 61.960787%, 45.09804%)" fill-opacity="1" d="M 418.621094 105.605469 C 418.621094 101.375 412.277344 101.375 412.277344 105.605469 C 412.277344 109.835938 418.621094 109.835938 418.621094 105.605469 Z M 418.621094 105.605469 "/>
<path fill-rule="nonzero" fill="rgb(0%, 61.960787%, 45.09804%)" fill-opacity="1" d="M 367.027344 351.648438 C 367.027344 347.417969 360.679688 347.417969 360.679688 351.648438 C 360.679688 355.878906 367.027344 355.878906 367.027344 351.648438 Z M 367.027344 351.648438 "/>
<path fill-rule="nonzero" fill="rgb(0%, 61.960787%, 45.09804%)" fill-opacity="1" d="M 132.074219 206.988281 C 132.074219 202.757812 125.730469 202.757812 125.730469 206.988281 C 125.730469 211.21875 132.074219 211.21875 132.074219 206.988281 Z M 132.074219 206.988281 "/>
<path fill-rule="nonzero" fill="rgb(0%, 61.960787%, 45.09804%)" fill-opacity="1" d="M 355.425781 240.285156 C 355.425781 236.054688 349.078125 236.054688 349.078125 240.285156 C 349.078125 244.515625 355.425781 244.515625 355.425781 240.285156 Z M 355.425781 240.285156 "/>
<path fill-rule="nonzero" fill="rgb(0%, 61.960787%, 45.09804%)" fill-opacity="1" d="M 93.734375 229.757812 C 93.734375 225.527344 87.390625 225.527344 87.390625 229.757812 C 87.390625 233.988281 93.734375 233.988281 93.734375 229.757812 Z M 93.734375 229.757812 "/>
<path fill-rule="nonzero" fill="rgb(0%, 61.960787%, 45.09804%)" fill-opacity="1" d="M 426.617188 85.035156 C 426.617188 80.804688 420.269531 80.804688 420.269531 85.035156 C 420.269531 89.265625 426.617188 89.265625 426.617188 85.035156 Z M 426.617188 85.035156 "/>
<path fill-rule="nonzero" fill="rgb(0%, 61.960787%, 45.09804%)" fill-opacity="1" d="M 197.878906 375.183594 C 197.878906 370.953125 191.535156 370.953125 191.535156 375.183594 C 191.535156 379.410156 197.878906 379.410156 197.878906 375.183594 Z M 197.878906 375.183594 "/>
<path fill-rule="nonzero" fill="rgb(0%, 61.960787%, 45.09804%)" fill-opacity="1" d="M 208.929688 353.597656 C 208.929688 349.371094 202.582031 349.371094 202.582031 353.597656 C 202.582031 357.828125 208.929688 357.828125 208.929688 353.597656 Z M 208.929688 353.597656 "/>
<path fill-rule="nonzero" fill="rgb(100%, 100%, 100%)" fill-opacity="1" stroke-width="1" stroke-linecap="butt" stroke-linejoin="miter" stroke="rgb(0%, 0%, 0%)" stroke-opacity="1" stroke-miterlimit="2" d="M 21 46 L 628 46 L 628 16 L 21 16 Z M 21 46 "/>
<path fill="none" stroke-width="1" stroke-linecap="butt" stroke-linejoin="miter" stroke="rgb(66.274512%, 66.274512%, 66.274512%)" stroke-opacity="1" stroke-miterlimit="1.154701" d="M 84.675781 390.5 L 84.675781 395.5 "/>
<path fill="none" stroke-width="1" stroke-linecap="butt" stroke-linejoin="miter" stroke="rgb(66.274512%, 66.274512%, 66.274512%)" stroke-opacity="1" stroke-miterlimit="1.154701" d="M 326.378906 390.5 L 326.378906 395.5 "/>
<path fill="none" stroke-width="1" stroke-linecap="butt" stroke-linejoin="miter" stroke="rgb(66.274512%, 66.274512%, 66.274512%)" stroke-opacity="1" stroke-miterlimit="1.154701" d="M 568.085938 390.5 L 568.085938 395.5 "/>
<path fill="none" stroke-width="1" stroke-linecap="butt" stroke-linejoin="miter" stroke="rgb(66.274512%, 66.274512%, 66.274512%)" stroke-opacity="1" stroke-miterlimit="1.154701" d="M 64.5 376.242188 L 59.5 376.242188 "/>
<path fill="none" stroke-width="1" stroke-linecap="butt" stroke-linejoin="miter" stroke="rgb(66.274512%, 66.274512%, 66.274512%)" stroke-opacity="1" stroke-miterlimit="1.154701" d="M 64.5 220.5 L 59.5 220.5 "/>
<path fill="none" stroke-width="1" stroke-linecap="butt" stroke-linejoin="miter" stroke="rgb(66.274512%, 66.274512%, 66.274512%)" stroke-opacity="1" stroke-miterlimit="1.154701" d="M 64.5 64.761719 L 59.5 64.761719 "/>
<path fill-rule="nonzero" fill="rgb(0%, 44.705883%, 69.803923%)" fill-opacity="1" d="M 85.082031 31 C 85.082031 26.769531 78.738281 26.769531 78.738281 31 C 78.738281 35.230469 85.082031 35.230469 85.082031 31 Z M 85.082031 31 "/>
<path fill-rule="nonzero" fill="rgb(90.196079%, 62.352943%, 0%)" fill-opacity="1" d="M 247.644531 31 C 247.644531 26.769531 241.296875 26.769531 241.296875 31 C 241.296875 35.230469 247.644531 35.230469 247.644531 31 Z M 247.644531 31 "/>
<path fill-rule="nonzero" fill="rgb(0%, 61.960787%, 45.09804%)" fill-opacity="1" d="M 456.785156 31 C 456.785156 26.769531 450.4375 26.769531 450.4375 31 C 450.4375 35.230469 456.785156 35.230469 456.785156 31 Z M 456.785156 31 "/>
<g fill="rgb(0%, 0%, 0%)" fill-opacity="1">
<use xlink:href="#glyph-13-0-ca1064ab" x="26.277048" y="35.689995"/>
</g>
<g fill="rgb(0%, 0%, 0%)" fill-opacity="1">
<use xlink:href="#glyph-14-0-ca1064ab" x="33.795048" y="35.689995"/>
</g>
<g fill="rgb(0%, 0%, 0%)" fill-opacity="1">
<use xlink:href="#glyph-15-0-ca1064ab" x="39.311047" y="35.689995"/>
</g>
<g fill="rgb(0%, 0%, 0%)" fill-opacity="1">
<use xlink:href="#glyph-15-1-ca1064ab" x="47.487045" y="35.689995"/>
</g>
<g fill="rgb(0%, 0%, 0%)" fill-opacity="1">
<use xlink:href="#glyph-15-2-ca1064ab" x="55.565037" y="35.689995"/>
</g>
<g fill="rgb(0%, 0%, 0%)" fill-opacity="1">
<use xlink:href="#glyph-16-0-ca1064ab" x="96.909035" y="35.689995"/>
</g>
<g fill="rgb(0%, 0%, 0%)" fill-opacity="1">
<use xlink:href="#glyph-16-1-ca1064ab" x="104.413033" y="35.689995"/>
</g>
<g fill="rgb(0%, 0%, 0%)" fill-opacity="1">
<use xlink:href="#glyph-17-0-ca1064ab" x="108.319046" y="35.689995"/>
</g>
<g fill="rgb(0%, 0%, 0%)" fill-opacity="1">
<use xlink:href="#glyph-17-1-ca1064ab" x="112.295044" y="35.689995"/>
</g>
<g fill="rgb(0%, 0%, 0%)" fill-opacity="1">
<use xlink:href="#glyph-17-1-ca1064ab" x="120.289047" y="35.689995"/>
</g>
<g fill="rgb(0%, 0%, 0%)" fill-opacity="1">
<use xlink:href="#glyph-18-0-ca1064ab" x="128.283035" y="35.689995"/>
</g>
<g fill="rgb(0%, 0%, 0%)" fill-opacity="1">
<use xlink:href="#glyph-18-0-ca1064ab" x="136.277039" y="35.689995"/>
</g>
<g fill="rgb(0%, 0%, 0%)" fill-opacity="1">
<use xlink:href="#glyph-19-0-ca1064ab" x="144.271027" y="35.689995"/>
</g>
<g fill="rgb(0%, 0%, 0%)" fill-opacity="1">
<use xlink:href="#glyph-18-0-ca1064ab" x="152.26503" y="35.689995"/>
</g>
<g fill="rgb(0%, 0%, 0%)" fill-opacity="1">
<use xlink:href="#glyph-20-0-ca1064ab" x="160.259018" y="35.689995"/>
</g>
<g fill="rgb(0%, 0%, 0%)" fill-opacity="1">
<use xlink:href="#glyph-17-2-ca1064ab" x="168.253036" y="35.689995"/>
</g>
<g fill="rgb(0%, 0%, 0%)" fill-opacity="1">
<use xlink:href="#glyph-18-1-ca1064ab" x="176.429047" y="35.689995"/>
</g>
<g fill="rgb(0%, 0%, 0%)" fill-opacity="1">
<use xlink:href="#glyph-17-3-ca1064ab" x="183.471039" y="35.689995"/>
</g>
<g fill="rgb(0%, 0%, 0%)" fill-opacity="1">
<use xlink:href="#glyph-18-2-ca1064ab" x="187.377029" y="35.689995"/>
</g>
<g fill="rgb(0%, 0%, 0%)" fill-opacity="1">
<use xlink:href="#glyph-18-3-ca1064ab" x="191.353027" y="35.689995"/>
</g>
<g fill="rgb(0%, 0%, 0%)" fill-opacity="1">
<use xlink:href="#glyph-18-4-ca1064ab" x="198.857025" y="35.689995"/>
</g>
<g fill="rgb(0%, 0%, 0%)" fill-opacity="1">
<use xlink:href="#glyph-17-4-ca1064ab" x="206.991043" y="35.689995"/>
</g>
<g fill="rgb(0%, 0%, 0%)" fill-opacity="1">
<use xlink:href="#glyph-17-0-ca1064ab" x="214.495041" y="35.689995"/>
</g>
<g fill="rgb(0%, 0%, 0%)" fill-opacity="1">
<use xlink:href="#glyph-18-3-ca1064ab" x="259.471008" y="35.689995"/>
</g>
<g fill="rgb(0%, 0%, 0%)" fill-opacity="1">
<use xlink:href="#glyph-18-5-ca1064ab" x="266.975006" y="35.689995"/>
</g>
<g fill="rgb(0%, 0%, 0%)" fill-opacity="1">
<use xlink:href="#glyph-18-6-ca1064ab" x="275.151001" y="35.689995"/>
</g>
<g fill="rgb(0%, 0%, 0%)" fill-opacity="1">
<use xlink:href="#glyph-18-7-ca1064ab" x="279.057007" y="35.689995"/>
</g>
<g fill="rgb(0%, 0%, 0%)" fill-opacity="1">
<use xlink:href="#glyph-18-8-ca1064ab" x="286.561005" y="35.689995"/>
</g>
<g fill="rgb(0%, 0%, 0%)" fill-opacity="1">
<use xlink:href="#glyph-18-7-ca1064ab" x="293.140991" y="35.689995"/>
</g>
<g fill="rgb(0%, 0%, 0%)" fill-opacity="1">
<use xlink:href="#glyph-18-5-ca1064ab" x="300.64502" y="35.689995"/>
</g>
<g fill="rgb(0%, 0%, 0%)" fill-opacity="1">
<use xlink:href="#glyph-20-1-ca1064ab" x="308.820984" y="35.689995"/>
</g>
<g fill="rgb(0%, 0%, 0%)" fill-opacity="1">
<use xlink:href="#glyph-21-0-ca1064ab" x="312.72702" y="35.689995"/>
</g>
<g fill="rgb(0%, 0%, 0%)" fill-opacity="1">
<use xlink:href="#glyph-18-0-ca1064ab" x="316.703003" y="35.689995"/>
</g>
<g fill="rgb(0%, 0%, 0%)" fill-opacity="1">
<use xlink:href="#glyph-20-0-ca1064ab" x="324.696991" y="35.689995"/>
</g>
<g fill="rgb(0%, 0%, 0%)" fill-opacity="1">
<use xlink:href="#glyph-18-0-ca1064ab" x="332.69101" y="35.689995"/>
</g>
<g fill="rgb(0%, 0%, 0%)" fill-opacity="1">
<use xlink:href="#glyph-20-0-ca1064ab" x="340.684998" y="35.689995"/>
</g>
<g fill="rgb(0%, 0%, 0%)" fill-opacity="1">
<use xlink:href="#glyph-18-0-ca1064ab" x="348.679016" y="35.689995"/>
</g>
<g fill="rgb(0%, 0%, 0%)" fill-opacity="1">
<use xlink:href="#glyph-20-0-ca1064ab" x="356.673004" y="35.689995"/>
</g>
<g fill="rgb(0%, 0%, 0%)" fill-opacity="1">
<use xlink:href="#glyph-20-2-ca1064ab" x="364.667023" y="35.689995"/>
</g>
<g fill="rgb(0%, 0%, 0%)" fill-opacity="1">
<use xlink:href="#glyph-21-1-ca1064ab" x="372.843048" y="35.689995"/>
</g>
<g fill="rgb(0%, 0%, 0%)" fill-opacity="1">
<use xlink:href="#glyph-20-3-ca1064ab" x="379.88501" y="35.689995"/>
</g>
<g fill="rgb(0%, 0%, 0%)" fill-opacity="1">
<use xlink:href="#glyph-18-9-ca1064ab" x="387.389008" y="35.689995"/>
</g>
<g fill="rgb(0%, 0%, 0%)" fill-opacity="1">
<use xlink:href="#glyph-18-6-ca1064ab" x="392.611023" y="35.689995"/>
</g>
<g fill="rgb(0%, 0%, 0%)" fill-opacity="1">
<use xlink:href="#glyph-18-2-ca1064ab" x="396.517029" y="35.689995"/>
</g>
<g fill="rgb(0%, 0%, 0%)" fill-opacity="1">
<use xlink:href="#glyph-21-2-ca1064ab" x="400.493042" y="35.689995"/>
</g>
<g fill="rgb(0%, 0%, 0%)" fill-opacity="1">
<use xlink:href="#glyph-21-3-ca1064ab" x="407.99704" y="35.689995"/>
</g>
<g fill="rgb(0%, 0%, 0%)" fill-opacity="1">
<use xlink:href="#glyph-21-4-ca1064ab" x="416.131042" y="35.689995"/>
</g>
<g fill="rgb(0%, 0%, 0%)" fill-opacity="1">
<use xlink:href="#glyph-21-0-ca1064ab" x="423.63504" y="35.689995"/>
</g>
<g fill="rgb(0%, 0%, 0%)" fill-opacity="1">
<use xlink:href="#glyph-18-3-ca1064ab" x="468.611023" y="35.689995"/>
</g>
<g fill="rgb(0%, 0%, 0%)" fill-opacity="1">
<use xlink:href="#glyph-18-5-ca1064ab" x="476.11499" y="35.689995"/>
</g>
<g fill="rgb(0%, 0%, 0%)" fill-opacity="1">
<use xlink:href="#glyph-21-5-ca1064ab" x="484.291016" y="35.689995"/>
</g>
<g fill="rgb(0%, 0%, 0%)" fill-opacity="1">
<use xlink:href="#glyph-21-6-ca1064ab" x="492.481018" y="35.689995"/>
</g>
<g fill="rgb(0%, 0%, 0%)" fill-opacity="1">
<use xlink:href="#glyph-18-0-ca1064ab" x="496.386993" y="35.689995"/>
</g>
<g fill="rgb(0%, 0%, 0%)" fill-opacity="1">
<use xlink:href="#glyph-20-2-ca1064ab" x="504.381012" y="35.689995"/>
</g>
<g fill="rgb(0%, 0%, 0%)" fill-opacity="1">
<use xlink:href="#glyph-22-0-ca1064ab" x="512.557007" y="35.689995"/>
</g>
<g fill="rgb(0%, 0%, 0%)" fill-opacity="1">
<use xlink:href="#glyph-22-1-ca1064ab" x="520.061035" y="35.689995"/>
</g>
<g fill="rgb(0%, 0%, 0%)" fill-opacity="1">
<use xlink:href="#glyph-23-0-ca1064ab" x="523.96698" y="35.689995"/>
</g>
<g fill="rgb(0%, 0%, 0%)" fill-opacity="1">
<use xlink:href="#glyph-18-0-ca1064ab" x="535.908997" y="35.689995"/>
</g>
<g fill="rgb(0%, 0%, 0%)" fill-opacity="1">
<use xlink:href="#glyph-22-2-ca1064ab" x="543.903015" y="35.689995"/>
</g>
<g fill="rgb(0%, 0%, 0%)" fill-opacity="1">
<use xlink:href="#glyph-18-7-ca1064ab" x="549.125" y="35.689995"/>
</g>
<g fill="rgb(0%, 0%, 0%)" fill-opacity="1">
<use xlink:href="#glyph-18-6-ca1064ab" x="556.628967" y="35.689995"/>
</g>
<g fill="rgb(0%, 0%, 0%)" fill-opacity="1">
<use xlink:href="#glyph-18-2-ca1064ab" x="560.534973" y="35.689995"/>
</g>
<g fill="rgb(0%, 0%, 0%)" fill-opacity="1">
<use xlink:href="#glyph-18-0-ca1064ab" x="564.510986" y="35.689995"/>
</g>
<g fill="rgb(0%, 0%, 0%)" fill-opacity="1">
<use xlink:href="#glyph-18-5-ca1064ab" x="572.505005" y="35.689995"/>
</g>
<g fill="rgb(0%, 0%, 0%)" fill-opacity="1">
<use xlink:href="#glyph-23-1-ca1064ab" x="580.680969" y="35.689995"/>
</g>
<g fill="rgb(0%, 0%, 0%)" fill-opacity="1">
<use xlink:href="#glyph-22-1-ca1064ab" x="587.723022" y="35.689995"/>
</g>
<g fill="rgb(0%, 0%, 0%)" fill-opacity="1">
<use xlink:href="#glyph-22-3-ca1064ab" x="591.629028" y="35.689995"/>
</g>
<g fill="rgb(0%, 0%, 0%)" fill-opacity="1">
<use xlink:href="#glyph-23-2-ca1064ab" x="595.60498" y="35.689995"/>
</g>
<path fill="none" stroke-width="1" stroke-linecap="butt" stroke-linejoin="miter" stroke="rgb(66.274512%, 66.274512%, 66.274512%)" stroke-opacity="1" stroke-miterlimit="1.154701" d="M 64.5 390 L 584.5 390 "/>
<path fill="none" stroke-width="1" stroke-linecap="butt" stroke-linejoin="miter" stroke="rgb(66.274512%, 66.274512%, 66.274512%)" stroke-opacity="1" stroke-miterlimit="1.154701" d="M 65 390.5 L 65 63.5 "/>
</svg>
