<?xml version="1.0" encoding="UTF-8"?>
<svg xmlns="http://www.w3.org/2000/svg" xmlns:xlink="http://www.w3.org/1999/xlink" width="600" height="450" viewBox="0 0 600 450">
<defs>
<g>
<g id="glyph-0-0-52b72f9a">
<path d="M 4.5625 -3.96875 L 7.046875 0 L 4.96875 0 L 3.4375 -2.9375 L 1.9375 0 L -0.046875 0 L 2.421875 -3.90625 L 0.203125 -7.40625 L 2.25 -7.40625 L 3.515625 -4.890625 L 4.765625 -7.40625 L 6.703125 -7.40625 Z M 4.5625 -3.96875 "/>
</g>
<g id="glyph-1-0-52b72f9a">
<path d="M 0.96875 -4.28125 L 0.96875 -5 L 5.9375 -5 L 5.9375 -4.28125 Z M 0.96875 -4.28125 "/>
</g>
<g id="glyph-2-0-52b72f9a">
<path d="M 3.15625 -9.46875 C 3.9375 -9.46875 4.554688 -9.238281 5.015625 -8.78125 C 5.484375 -8.320312 5.71875 -7.734375 5.71875 -7.015625 C 5.71875 -6.410156 5.585938 -5.84375 5.328125 -5.3125 C 5.078125 -4.78125 4.679688 -4.195312 4.140625 -3.5625 C 3.609375 -2.925781 2.742188 -1.976562 1.546875 -0.71875 L 5.96875 -0.71875 L 5.859375 0 L 0.609375 0 L 0.609375 -0.6875 C 1.878906 -2.050781 2.789062 -3.0625 3.34375 -3.71875 C 3.90625 -4.375 4.300781 -4.941406 4.53125 -5.421875 C 4.757812 -5.898438 4.875 -6.414062 4.875 -6.96875 C 4.875 -7.519531 4.710938 -7.957031 4.390625 -8.28125 C 4.066406 -8.613281 3.640625 -8.78125 3.109375 -8.78125 C 2.679688 -8.78125 2.300781 -8.691406 1.96875 -8.515625 C 1.632812 -8.335938 1.316406 -8.070312 1.015625 -7.71875 L 0.46875 -8.140625 C 0.832031 -8.585938 1.234375 -8.921875 1.671875 -9.140625 C 2.109375 -9.359375 2.601562 -9.46875 3.15625 -9.46875 Z M 3.15625 -9.46875 "/>
</g>
<g id="glyph-3-0-52b72f9a">
<path d="M 3.84375 -9.46875 C 4.8125 -9.46875 5.539062 -9.054688 6.03125 -8.234375 C 6.53125 -7.421875 6.78125 -6.222656 6.78125 -4.640625 C 6.78125 -3.078125 6.53125 -1.882812 6.03125 -1.0625 C 5.53125 -0.25 4.800781 0.15625 3.84375 0.15625 C 2.882812 0.15625 2.15625 -0.25 1.65625 -1.0625 C 1.164062 -1.882812 0.921875 -3.082031 0.921875 -4.65625 C 0.921875 -6.238281 1.164062 -7.4375 1.65625 -8.25 C 2.15625 -9.0625 2.882812 -9.46875 3.84375 -9.46875 Z M 3.84375 -8.796875 C 2.457031 -8.796875 1.765625 -7.414062 1.765625 -4.65625 C 1.765625 -1.894531 2.457031 -0.515625 3.84375 -0.515625 C 4.53125 -0.515625 5.046875 -0.847656 5.390625 -1.515625 C 5.742188 -2.191406 5.921875 -3.234375 5.921875 -4.640625 C 5.921875 -6.054688 5.742188 -7.101562 5.390625 -7.78125 C 5.046875 -8.457031 4.53125 -8.796875 3.84375 -8.796875 Z M 3.84375 -8.796875 "/>
</g>
<g id="glyph-3-1-52b72f9a">
<path d="M 6.03125 -1.625 C 6.03125 -1.238281 6.078125 -0.960938 6.171875 -0.796875 C 6.273438 -0.628906 6.4375 -0.503906 6.65625 -0.421875 L 6.46875 0.15625 C 6.132812 0.09375 5.875 -0.03125 5.6875 -0.21875 C 5.507812 -0.40625 5.390625 -0.691406 5.328125 -1.078125 C 4.828125 -0.253906 4.066406 0.15625 3.046875 0.15625 C 2.347656 0.15625 1.796875 -0.0390625 1.390625 -0.4375 C 0.984375 -0.832031 0.78125 -1.363281 0.78125 -2.03125 C 0.78125 -2.78125 1.046875 -3.359375 1.578125 -3.765625 C 2.117188 -4.179688 2.867188 -4.390625 3.828125 -4.390625 L 5.21875 -4.390625 L 5.21875 -5.109375 C 5.21875 -5.691406 5.085938 -6.117188 4.828125 -6.390625 C 4.566406 -6.660156 4.132812 -6.796875 3.53125 -6.796875 C 2.96875 -6.796875 2.304688 -6.65625 1.546875 -6.375 L 1.328125 -6.984375 C 2.148438 -7.304688 2.921875 -7.46875 3.640625 -7.46875 C 5.234375 -7.46875 6.03125 -6.695312 6.03125 -5.15625 Z M 3.1875 -0.5 C 4.070312 -0.5 4.75 -0.929688 5.21875 -1.796875 L 5.21875 -3.8125 L 3.953125 -3.8125 C 3.203125 -3.8125 2.628906 -3.664062 2.234375 -3.375 C 1.847656 -3.082031 1.65625 -2.648438 1.65625 -2.078125 C 1.65625 -1.566406 1.789062 -1.175781 2.0625 -0.90625 C 2.332031 -0.632812 2.707031 -0.5 3.1875 -0.5 Z M 3.1875 -0.5 "/>
</g>
<g id="glyph-4-0-52b72f9a">
<path d="M 3.15625 -9.46875 C 3.9375 -9.46875 4.554688 -9.238281 5.015625 -8.78125 C 5.484375 -8.320312 5.71875 -7.734375 5.71875 -7.015625 C 5.71875 -6.410156 5.585938 -5.84375 5.328125 -5.3125 C 5.078125 -4.78125 4.679688 -4.195312 4.140625 -3.5625 C 3.609375 -2.925781 2.742188 -1.976562 1.546875 -0.71875 L 5.96875 -0.71875 L 5.859375 0 L 0.609375 0 L 0.609375 -0.6875 C 1.878906 -2.050781 2.789062 -3.0625 3.34375 -3.71875 C 3.90625 -4.375 4.300781 -4.941406 4.53125 -5.421875 C 4.757812 -5.898438 4.875 -6.414062 4.875 -6.96875 C 4.875 -7.519531 4.710938 -7.957031 4.390625 -8.28125 C 4.066406 -8.613281 3.640625 -8.78125 3.109375 -8.78125 C 2.679688 -8.78125 2.300781 -8.691406 1.96875 -8.515625 C 1.632812 -8.335938 1.316406 -8.070312 1.015625 -7.71875 L 0.46875 -8.140625 C 0.832031 -8.585938 1.234375 -8.921875 1.671875 -9.140625 C 2.109375 -9.359375 2.601562 -9.46875 3.15625 -9.46875 Z M 3.15625 -9.46875 "/>
</g>
<g id="glyph-5-0-52b72f9a">
<path d="M -7.609375 -4.90625 C -7.609375 -5.84375 -7.269531 -6.535156 -6.59375 -6.984375 C -5.914062 -7.429688 -4.957031 -7.65625 -3.71875 -7.65625 C -2.957031 -7.65625 -2.28125 -7.539062 -1.6875 -7.3125 C -1.09375 -7.082031 -0.628906 -6.742188 -0.296875 -6.296875 C 0.0351562 -5.859375 0.203125 -5.335938 0.203125 -4.734375 C 0.203125 -3.953125 -0.0664062 -3.332031 -0.609375 -2.875 L 2.859375 -2.875 L 3.046875 -1.078125 L -7.40625 -1.078125 L -7.40625 -2.640625 L -6.5 -2.75 C -6.875 -3.03125 -7.148438 -3.359375 -7.328125 -3.734375 C -7.515625 -4.109375 -7.609375 -4.5 -7.609375 -4.90625 Z M -1.15625 -4.234375 C -1.15625 -5.265625 -2.003906 -5.78125 -3.703125 -5.78125 C -4.609375 -5.78125 -5.257812 -5.660156 -5.65625 -5.421875 C -6.0625 -5.191406 -6.265625 -4.84375 -6.265625 -4.375 C -6.265625 -4.082031 -6.171875 -3.804688 -5.984375 -3.546875 C -5.804688 -3.285156 -5.566406 -3.0625 -5.265625 -2.875 L -1.9375 -2.875 C -1.414062 -3.21875 -1.15625 -3.671875 -1.15625 -4.234375 Z M -1.15625 -4.234375 "/>
</g>
<g id="glyph-6-0-52b72f9a">
<path d="M -10.375 -7.3125 L 0 -7.3125 L 0 -5.71875 L -0.9375 -5.59375 C -0.582031 -5.363281 -0.300781 -5.066406 -0.09375 -4.703125 C 0.101562 -4.347656 0.203125 -3.941406 0.203125 -3.484375 C 0.203125 -2.578125 -0.144531 -1.878906 -0.84375 -1.390625 C -1.539062 -0.910156 -2.492188 -0.671875 -3.703125 -0.671875 C -4.453125 -0.671875 -5.125 -0.789062 -5.71875 -1.03125 C -6.3125 -1.28125 -6.773438 -1.628906 -7.109375 -2.078125 C -7.441406 -2.535156 -7.609375 -3.0625 -7.609375 -3.65625 C -7.609375 -4.363281 -7.34375 -4.984375 -6.8125 -5.515625 L -10.5625 -5.515625 Z M -1.140625 -3.984375 C -1.140625 -4.304688 -1.21875 -4.585938 -1.375 -4.828125 C -1.53125 -5.066406 -1.769531 -5.296875 -2.09375 -5.515625 L -5.484375 -5.515625 C -5.742188 -5.296875 -5.9375 -5.078125 -6.0625 -4.859375 C -6.195312 -4.640625 -6.265625 -4.390625 -6.265625 -4.109375 C -6.265625 -3.628906 -6.050781 -3.25 -5.625 -2.96875 C -5.207031 -2.695312 -4.566406 -2.5625 -3.703125 -2.5625 C -2.796875 -2.5625 -2.140625 -2.679688 -1.734375 -2.921875 C -1.335938 -3.171875 -1.140625 -3.523438 -1.140625 -3.984375 Z M -1.140625 -3.984375 "/>
</g>
<g id="glyph-6-1-52b72f9a">
<path d="M -9.21875 -4.078125 C -9.21875 -3.722656 -9.132812 -3.46875 -8.96875 -3.3125 C -8.800781 -3.15625 -8.539062 -3.078125 -8.1875 -3.078125 L -7.40625 -3.078125 L -7.40625 -4.859375 L -6.125 -4.65625 L -6.125 -3.078125 L 0 -3.078125 L 0 -1.28125 L -6.125 -1.28125 L -6.125 -0.078125 L -7.40625 -0.078125 L -7.40625 -1.28125 L -8.21875 -1.28125 C -8.914062 -1.28125 -9.476562 -1.503906 -9.90625 -1.953125 C -10.34375 -2.410156 -10.5625 -3.054688 -10.5625 -3.890625 C -10.5625 -4.546875 -10.421875 -5.1875 -10.140625 -5.8125 L -8.9375 -5.296875 C -9.125 -4.890625 -9.21875 -4.484375 -9.21875 -4.078125 Z M -9.21875 -4.078125 "/>
</g>
<g id="glyph-7-0-52b72f9a">
<path d="M 3.84375 -9.46875 C 4.8125 -9.46875 5.539062 -9.054688 6.03125 -8.234375 C 6.53125 -7.421875 6.78125 -6.222656 6.78125 -4.640625 C 6.78125 -3.078125 6.53125 -1.882812 6.03125 -1.0625 C 5.53125 -0.25 4.800781 0.15625 3.84375 0.15625 C 2.882812 0.15625 2.15625 -0.25 1.65625 -1.0625 C 1.164062 -1.882812 0.921875 -3.082031 0.921875 -4.65625 C 0.921875 -6.238281 1.164062 -7.4375 1.65625 -8.25 C 2.15625 -9.0625 2.882812 -9.46875 3.84375 -9.46875 Z M 3.84375 -8.796875 C 2.457031 -8.796875 1.765625 -7.414062 1.765625 -4.65625 C 1.765625 -1.894531 2.457031 -0.515625 3.84375 -0.515625 C 4.53125 -0.515625 5.046875 -0.847656 5.390625 -1.515625 C 5.742188 -2.191406 5.921875 -3.234375 5.921875 -4.640625 C 5.921875 -6.054688 5.742188 -7.101562 5.390625 -7.78125 C 5.046875 -8.457031 4.53125 -8.796875 3.84375 -8.796875 Z M 3.84375 -8.796875 "/>
</g>
<g id="glyph-8-0-52b72f9a">
<path d="M 1.4375 -1.171875 C 1.632812 -1.171875 1.796875 -1.109375 1.921875 -0.984375 C 2.046875 -0.859375 2.109375 -0.703125 2.109375 -0.515625 C 2.109375 -0.316406 2.046875 -0.15625 1.921875 -0.03125 C 1.796875 0.09375 1.632812 0.15625 1.4375 0.15625 C 1.25 0.15625 1.085938 0.09375 0.953125 -0.03125 C 0.828125 -0.164062 0.765625 -0.328125 0.765625 -0.515625 C 0.765625 -0.703125 0.828125 -0.859375 0.953125 -0.984375 C 1.085938 -1.109375 1.25 -1.171875 1.4375 -1.171875 Z M 1.4375 -1.171875 "/>
</g>
<g id="glyph-8-1-52b72f9a">
<path d="M 3.84375 -9.46875 C 4.8125 -9.46875 5.539062 -9.054688 6.03125 -8.234375 C 6.53125 -7.421875 6.78125 -6.222656 6.78125 -4.640625 C 6.78125 -3.078125 6.53125 -1.882812 6.03125 -1.0625 C 5.53125 -0.25 4.800781 0.15625 3.84375 0.15625 C 2.882812 0.15625 2.15625 -0.25 1.65625 -1.0625 C 1.164062 -1.882812 0.921875 -3.082031 0.921875 -4.65625 C 0.921875 -6.238281 1.164062 -7.4375 1.65625 -8.25 C 2.15625 -9.0625 2.882812 -9.46875 3.84375 -9.46875 Z M 3.84375 -8.796875 C 2.457031 -8.796875 1.765625 -7.414062 1.765625 -4.65625 C 1.765625 -1.894531 2.457031 -0.515625 3.84375 -0.515625 C 4.53125 -0.515625 5.046875 -0.847656 5.390625 -1.515625 C 5.742188 -2.191406 5.921875 -3.234375 5.921875 -4.640625 C 5.921875 -6.054688 5.742188 -7.101562 5.390625 -7.78125 C 5.046875 -8.457031 4.53125 -8.796875 3.84375 -8.796875 Z M 3.84375 -8.796875 "/>
</g>
<g id="glyph-8-2-52b72f9a">
<path d="M 3.15625 -9.46875 C 3.9375 -9.46875 4.554688 -9.238281 5.015625 -8.78125 C 5.484375 -8.320312 5.71875 -7.734375 5.71875 -7.015625 C 5.71875 -6.410156 5.585938 -5.84375 5.328125 -5.3125 C 5.078125 -4.78125 4.679688 -4.195312 4.140625 -3.5625 C 3.609375 -2.925781 2.742188 -1.976562 1.546875 -0.71875 L 5.96875 -0.71875 L 5.859375 0 L 0.609375 0 L 0.609375 -0.6875 C 1.878906 -2.050781 2.789062 -3.0625 3.34375 -3.71875 C 3.90625 -4.375 4.300781 -4.941406 4.53125 -5.421875 C 4.757812 -5.898438 4.875 -6.414062 4.875 -6.96875 C 4.875 -7.519531 4.710938 -7.957031 4.390625 -8.28125 C 4.066406 -8.613281 3.640625 -8.78125 3.109375 -8.78125 C 2.679688 -8.78125 2.300781 -8.691406 1.96875 -8.515625 C 1.632812 -8.335938 1.316406 -8.070312 1.015625 -7.71875 L 0.46875 -8.140625 C 0.832031 -8.585938 1.234375 -8.921875 1.671875 -9.140625 C 2.109375 -9.359375 2.601562 -9.46875 3.15625 -9.46875 Z M 3.15625 -9.46875 "/>
</g>
<g id="glyph-9-0-52b72f9a">
<path d="M 3.84375 -9.46875 C 4.8125 -9.46875 5.539062 -9.054688 6.03125 -8.234375 C 6.53125 -7.421875 6.78125 -6.222656 6.78125 -4.640625 C 6.78125 -3.078125 6.53125 -1.882812 6.03125 -1.0625 C 5.53125 -0.25 4.800781 0.15625 3.84375 0.15625 C 2.882812 0.15625 2.15625 -0.25 1.65625 -1.0625 C 1.164062 -1.882812 0.921875 -3.082031 0.921875 -4.65625 C 0.921875 -6.238281 1.164062 -7.4375 1.65625 -8.25 C 2.15625 -9.0625 2.882812 -9.46875 3.84375 -9.46875 Z M 3.84375 -8.796875 C 2.457031 -8.796875 1.765625 -7.414062 1.765625 -4.65625 C 1.765625 -1.894531 2.457031 -0.515625 3.84375 -0.515625 C 4.53125 -0.515625 5.046875 -0.847656 5.390625 -1.515625 C 5.742188 -2.191406 5.921875 -3.234375 5.921875 -4.640625 C 5.921875 -6.054688 5.742188 -7.101562 5.390625 -7.78125 C 5.046875 -8.457031 4.53125 -8.796875 3.84375 -8.796875 Z M 3.84375 -8.796875 "/>
</g>
<g id="glyph-10-0-52b72f9a">
<path d="M 3.84375 -9.46875 C 4.8125 -9.46875 5.539062 -9.054688 6.03125 -8.234375 C 6.53125 -7.421875 6.78125 -6.222656 6.78125 -4.640625 C 6.78125 -3.078125 6.53125 -1.882812 6.03125 -1.0625 C 5.53125 -0.25 4.800781 0.15625 3.84375 0.15625 C 2.882812 0.15625 2.15625 -0.25 1.65625 -1.0625 C 1.164062 -1.882812 0.921875 -3.082031 0.921875 -4.65625 C 0.921875 -6.238281 1.164062 -7.4375 1.65625 -8.25 C 2.15625 -9.0625 2.882812 -9.46875 3.84375 -9.46875 Z M 3.84375 -8.796875 C 2.457031 -8.796875 1.765625 -7.414062 1.765625 -4.65625 C 1.765625 -1.894531 2.457031 -0.515625 3.84375 -0.515625 C 4.53125 -0.515625 5.046875 -0.847656 5.390625 -1.515625 C 5.742188 -2.191406 5.921875 -3.234375 5.921875 -4.640625 C 5.921875 -6.054688 5.742188 -7.101562 5.390625 -7.78125 C 5.046875 -8.457031 4.53125 -8.796875 3.84375 -8.796875 Z M 3.84375 -8.796875 "/>
</g>
<g id="glyph-10-1-52b72f9a">
<path d="M 4.09375 -9.3125 L 4.09375 0 L 3.28125 0 L 3.28125 -8.40625 L 0.984375 -6.984375 L 0.609375 -7.59375 L 3.390625 -9.3125 Z M 4.09375 -9.3125 "/>
</g>
<g id="glyph-11-0-52b72f9a">
<path d="M 1.4375 -1.171875 C 1.632812 -1.171875 1.796875 -1.109375 1.921875 -0.984375 C 2.046875 -0.859375 2.109375 -0.703125 2.109375 -0.515625 C 2.109375 -0.316406 2.046875 -0.15625 1.921875 -0.03125 C 1.796875 0.09375 1.632812 0.15625 1.4375 0.15625 C 1.25 0.15625 1.085938 0.09375 0.953125 -0.03125 C 0.828125 -0.164062 0.765625 -0.328125 0.765625 -0.515625 C 0.765625 -0.703125 0.828125 -0.859375 0.953125 -0.984375 C 1.085938 -1.109375 1.25 -1.171875 1.4375 -1.171875 Z M 1.4375 -1.171875 "/>
</g>
<g id="glyph-12-0-52b72f9a">
<path d="M 3.84375 -9.46875 C 4.8125 -9.46875 5.539062 -9.054688 6.03125 -8.234375 C 6.53125 -7.421875 6.78125 -6.222656 6.78125 -4.640625 C 6.78125 -3.078125 6.53125 -1.882812 6.03125 -1.0625 C 5.53125 -0.25 4.800781 0.15625 3.84375 0.15625 C 2.882812 0.15625 2.15625 -0.25 1.65625 -1.0625 C 1.164062 -1.882812 0.921875 -3.082031 0.921875 -4.65625 C 0.921875 -6.238281 1.164062 -7.4375 1.65625 -8.25 C 2.15625 -9.0625 2.882812 -9.46875 3.84375 -9.46875 Z M 3.84375 -8.796875 C 2.457031 -8.796875 1.765625 -7.414062 1.765625 -4.65625 C 1.765625 -1.894531 2.457031 -0.515625 3.84375 -0.515625 C 4.53125 -0.515625 5.046875 -0.847656 5.390625 -1.515625 C 5.742188 -2.191406 5.921875 -3.234375 5.921875 -4.640625 C 5.921875 -6.054688 5.742188 -7.101562 5.390625 -7.78125 C 5.046875 -8.457031 4.53125 -8.796875 3.84375 -8.796875 Z M 3.84375 -8.796875 "/>
</g>
<g id="glyph-13-0-52b72f9a">
<path d="M 1.4375 -1.171875 C 1.632812 -1.171875 1.796875 -1.109375 1.921875 -0.984375 C 2.046875 -0.859375 2.109375 -0.703125 2.109375 -0.515625 C 2.109375 -0.316406 2.046875 -0.15625 1.921875 -0.03125 C 1.796875 0.09375 1.632812 0.15625 1.4375 0.15625 C 1.25 0.15625 1.085938 0.09375 0.953125 -0.03125 C 0.828125 -0.164062 0.765625 -0.328125 0.765625 -0.515625 C 0.765625 -0.703125 0.828125 -0.859375 0.953125 -0.984375 C 1.085938 -1.109375 1.25 -1.171875 1.4375 -1.171875 Z M 1.4375 -1.171875 "/>
</g>
<g id="glyph-14-0-52b72f9a">
<path d="M 3.09375 -9.46875 C 3.613281 -9.46875 4.066406 -9.363281 4.453125 -9.15625 C 4.847656 -8.945312 5.144531 -8.664062 5.34375 -8.3125 C 5.550781 -7.96875 5.65625 -7.578125 5.65625 -7.140625 C 5.65625 -6.535156 5.484375 -6.039062 5.140625 -5.65625 C 4.804688 -5.28125 4.367188 -5.046875 3.828125 -4.953125 C 4.429688 -4.921875 4.929688 -4.703125 5.328125 -4.296875 C 5.722656 -3.898438 5.921875 -3.34375 5.921875 -2.625 C 5.921875 -2.082031 5.796875 -1.601562 5.546875 -1.1875 C 5.304688 -0.769531 4.960938 -0.441406 4.515625 -0.203125 C 4.066406 0.0351562 3.546875 0.15625 2.953125 0.15625 C 1.867188 0.15625 0.976562 -0.242188 0.28125 -1.046875 L 0.796875 -1.515625 C 1.117188 -1.171875 1.445312 -0.921875 1.78125 -0.765625 C 2.125 -0.609375 2.503906 -0.53125 2.921875 -0.53125 C 3.597656 -0.53125 4.125 -0.722656 4.5 -1.109375 C 4.882812 -1.492188 5.078125 -2 5.078125 -2.625 C 5.078125 -3.925781 4.378906 -4.578125 2.984375 -4.578125 L 2.359375 -4.578125 L 2.484375 -5.234375 L 2.921875 -5.234375 C 3.453125 -5.234375 3.90625 -5.394531 4.28125 -5.71875 C 4.65625 -6.039062 4.84375 -6.5 4.84375 -7.09375 C 4.84375 -7.613281 4.675781 -8.023438 4.34375 -8.328125 C 4.019531 -8.628906 3.585938 -8.78125 3.046875 -8.78125 C 2.660156 -8.78125 2.300781 -8.710938 1.96875 -8.578125 C 1.644531 -8.441406 1.316406 -8.21875 0.984375 -7.90625 L 0.546875 -8.40625 C 0.921875 -8.769531 1.3125 -9.035156 1.71875 -9.203125 C 2.132812 -9.378906 2.59375 -9.46875 3.09375 -9.46875 Z M 3.09375 -9.46875 "/>
</g>
<g id="glyph-15-0-52b72f9a">
<path d="M 4.0625 -7.609375 C 4.539062 -7.609375 4.972656 -7.539062 5.359375 -7.40625 C 5.753906 -7.269531 6.125 -7.050781 6.46875 -6.75 L 5.671875 -5.671875 C 5.421875 -5.859375 5.175781 -5.992188 4.9375 -6.078125 C 4.707031 -6.160156 4.453125 -6.203125 4.171875 -6.203125 C 3.054688 -6.203125 2.5 -5.359375 2.5 -3.671875 C 2.5 -2.804688 2.644531 -2.1875 2.9375 -1.8125 C 3.226562 -1.4375 3.640625 -1.25 4.171875 -1.25 C 4.429688 -1.25 4.671875 -1.289062 4.890625 -1.375 C 5.109375 -1.457031 5.367188 -1.59375 5.671875 -1.78125 L 6.46875 -0.640625 C 5.769531 -0.078125 4.972656 0.203125 4.078125 0.203125 C 3.367188 0.203125 2.75 0.046875 2.21875 -0.265625 C 1.695312 -0.578125 1.296875 -1.019531 1.015625 -1.59375 C 0.742188 -2.175781 0.609375 -2.859375 0.609375 -3.640625 C 0.609375 -4.421875 0.742188 -5.113281 1.015625 -5.71875 C 1.296875 -6.320312 1.695312 -6.785156 2.21875 -7.109375 C 2.75 -7.441406 3.363281 -7.609375 4.0625 -7.609375 Z M 4.0625 -7.609375 "/>
</g>
<g id="glyph-16-0-52b72f9a">
<path d="M 4.5 -7.46875 C 5.34375 -7.46875 6 -7.140625 6.46875 -6.484375 C 6.9375 -5.835938 7.171875 -4.910156 7.171875 -3.703125 C 7.171875 -2.515625 6.925781 -1.570312 6.4375 -0.875 C 5.945312 -0.1875 5.257812 0.15625 4.375 0.15625 C 3.9375 0.15625 3.535156 0.0546875 3.171875 -0.140625 C 2.816406 -0.335938 2.519531 -0.597656 2.28125 -0.921875 L 2.203125 0 L 1.484375 0 L 1.484375 -10.296875 L 2.296875 -10.40625 L 2.296875 -6.296875 C 2.867188 -7.078125 3.601562 -7.46875 4.5 -7.46875 Z M 4.234375 -0.515625 C 4.890625 -0.515625 5.394531 -0.78125 5.75 -1.3125 C 6.113281 -1.851562 6.296875 -2.648438 6.296875 -3.703125 C 6.296875 -5.765625 5.640625 -6.796875 4.328125 -6.796875 C 3.890625 -6.796875 3.507812 -6.6875 3.1875 -6.46875 C 2.875 -6.25 2.578125 -5.941406 2.296875 -5.546875 L 2.296875 -1.6875 C 2.523438 -1.320312 2.800781 -1.035156 3.125 -0.828125 C 3.457031 -0.617188 3.828125 -0.515625 4.234375 -0.515625 Z M 4.234375 -0.515625 "/>
</g>
</g>
</defs>
<rect x="-60" y="-45" width="720" height="540" fill="rgb(100%, 100%, 100%)" fill-opacity="1"/>
<path fill-rule="nonzero" fill="rgb(100%, 100%, 100%)" fill-opacity="1" d="M 65 390 L 533 390 L 533 16 L 65 16 Z M 65 390 "/>
<g fill="rgb(0%, 0%, 0%)" fill-opacity="1">
<use xlink:href="#glyph-0-0-52b72f9a" x="295.5" y="430.890015"/>
</g>
<g fill="rgb(0%, 0%, 0%)" fill-opacity="1">
<use xlink:href="#glyph-1-0-52b72f9a" x="153.263565" y="411.089996"/>
</g>
<g fill="rgb(0%, 0%, 0%)" fill-opacity="1">
<use xlink:href="#glyph-2-0-52b72f9a" x="160.165573" y="411.089996"/>
</g>
<g fill="rgb(0%, 0%, 0%)" fill-opacity="1">
<use xlink:href="#glyph-3-0-52b72f9a" x="295.71936" y="411.089996"/>
</g>
<g fill="rgb(0%, 0%, 0%)" fill-opacity="1">
<use xlink:href="#glyph-4-0-52b72f9a" x="435.71814" y="411.089996"/>
</g>
<g fill="rgb(0%, 0%, 0%)" fill-opacity="1">
<use xlink:href="#glyph-5-0-52b72f9a" x="27.991999" y="213.794006"/>
</g>
<g fill="rgb(0%, 0%, 0%)" fill-opacity="1">
<use xlink:href="#glyph-6-0-52b72f9a" x="27.991999" y="205.449997"/>
</g>
<g fill="rgb(0%, 0%, 0%)" fill-opacity="1">
<use xlink:href="#glyph-6-1-52b72f9a" x="27.991999" y="197.063995"/>
</g>
<g fill="rgb(0%, 0%, 0%)" fill-opacity="1">
<use xlink:href="#glyph-7-0-52b72f9a" x="36.702007" y="377.690002"/>
</g>
<g fill="rgb(0%, 0%, 0%)" fill-opacity="1">
<use xlink:href="#glyph-8-0-52b72f9a" x="44.402004" y="377.690002"/>
</g>
<g fill="rgb(0%, 0%, 0%)" fill-opacity="1">
<use xlink:href="#glyph-9-0-52b72f9a" x="47.300003" y="377.690002"/>
</g>
<g fill="rgb(0%, 0%, 0%)" fill-opacity="1">
<use xlink:href="#glyph-10-0-52b72f9a" x="38.620003" y="281.631378"/>
</g>
<g fill="rgb(0%, 0%, 0%)" fill-opacity="1">
<use xlink:href="#glyph-11-0-52b72f9a" x="46.319996" y="281.631378"/>
</g>
<g fill="rgb(0%, 0%, 0%)" fill-opacity="1">
<use xlink:href="#glyph-10-1-52b72f9a" x="49.217999" y="281.631378"/>
</g>
<g fill="rgb(0%, 0%, 0%)" fill-opacity="1">
<use xlink:href="#glyph-8-1-52b72f9a" x="37.695999" y="185.572754"/>
</g>
<g fill="rgb(0%, 0%, 0%)" fill-opacity="1">
<use xlink:href="#glyph-8-0-52b72f9a" x="45.395996" y="185.572754"/>
</g>
<g fill="rgb(0%, 0%, 0%)" fill-opacity="1">
<use xlink:href="#glyph-8-2-52b72f9a" x="48.293995" y="185.572754"/>
</g>
<g fill="rgb(0%, 0%, 0%)" fill-opacity="1">
<use xlink:href="#glyph-12-0-52b72f9a" x="37.598007" y="89.514099"/>
</g>
<g fill="rgb(0%, 0%, 0%)" fill-opacity="1">
<use xlink:href="#glyph-13-0-52b72f9a" x="45.298004" y="89.514099"/>
</g>
<g fill="rgb(0%, 0%, 0%)" fill-opacity="1">
<use xlink:href="#glyph-14-0-52b72f9a" x="48.196007" y="89.514099"/>
</g>
<path fill="none" stroke-width="1.5" stroke-linecap="butt" stroke-linejoin="miter" stroke="rgb(0%, 44.705883%, 69.803923%)" stroke-opacity="1" stroke-miterlimit="2" d="M 86.273438 364.992188 L 88.410156 364.347656 L 90.546875 363.652344 L 92.6875 362.898438 L 94.824219 362.089844 L 96.960938 361.21875 L 99.101562 360.277344 L 101.238281 359.261719 L 103.375 358.171875 L 105.515625 357 L 107.652344 355.742188 L 109.789062 354.394531 L 111.929688 352.949219 L 114.066406 351.40625 L 116.203125 349.761719 L 118.34375 348.011719 L 120.480469 346.148438 L 122.617188 344.175781 L 124.757812 342.082031 L 126.894531 339.875 L 129.03125 337.546875 L 131.171875 335.09375 L 133.308594 332.523438 L 135.445312 329.824219 L 137.582031 327.007812 L 139.722656 324.066406 L 141.859375 321.003906 L 143.996094 317.820312 L 146.136719 314.523438 L 148.273438 311.109375 L 150.410156 307.582031 L 152.550781 303.949219 L 154.6875 300.214844 L 156.824219 296.378906 L 158.964844 292.449219 L 161.101562 288.429688 L 163.238281 284.328125 L 165.378906 280.148438 L 167.515625 275.894531 L 169.652344 271.578125 L 171.792969 267.203125 L 173.929688 262.777344 L 176.066406 258.304688 L 178.207031 253.789062 L 180.34375 249.242188 L 182.480469 244.667969 L 184.617188 240.070312 L 186.757812 235.457031 L 188.894531 230.832031 L 191.03125 226.203125 L 193.171875 221.570312 L 195.308594 216.9375 L 197.445312 212.3125 L 199.585938 207.695312 L 201.722656 203.089844 L 203.859375 198.5 L 206 193.921875 L 208.136719 189.363281 L 210.273438 184.824219 L 212.414062 180.300781 L 214.550781 175.800781 L 216.6875 171.320312 L 218.828125 166.863281 L 220.964844 162.429688 L 223.101562 158.015625 L 225.242188 153.628906 L 227.378906 149.265625 L 229.515625 144.929688 L 231.652344 140.617188 L 233.792969 136.339844 L 235.929688 132.09375 L 238.066406 127.882812 L 240.207031 123.707031 L 242.34375 119.578125 L 244.480469 115.496094 L 246.621094 111.460938 L 248.757812 107.488281 L 250.894531 103.574219 L 253.035156 99.734375 L 255.171875 95.964844 L 257.308594 92.28125 L 259.449219 88.691406 L 261.585938 85.195312 L 263.722656 81.808594 L 265.863281 78.535156 L 268 75.382812 L 270.136719 72.367188 L 272.277344 69.488281 L 274.414062 66.757812 L 276.550781 64.183594 L 278.6875 61.773438 L 280.828125 59.535156 L 282.964844 57.480469 L 285.101562 55.609375 L 287.242188 53.933594 L 289.378906 52.457031 L 291.515625 51.183594 L 293.65625 50.125 L 295.792969 49.28125 L 297.929688 48.65625 L 300.070312 48.257812 L 302.207031 48.082031 L 304.34375 48.132812 L 306.484375 48.414062 L 308.621094 48.925781 L 310.757812 49.667969 L 312.898438 50.636719 L 315.035156 51.832031 L 317.171875 53.257812 L 319.3125 54.902344 L 321.449219 56.769531 L 323.585938 58.851562 L 325.722656 61.148438 L 327.863281 63.648438 L 330 66.351562 L 332.136719 69.25 L 334.277344 72.339844 L 336.414062 75.613281 L 338.550781 79.0625 L 340.691406 82.679688 L 342.828125 86.460938 L 344.964844 90.394531 L 347.105469 94.476562 L 349.242188 98.695312 L 351.378906 103.042969 L 353.519531 107.511719 L 355.65625 112.09375 L 357.792969 116.777344 L 359.933594 121.554688 L 362.070312 126.414062 L 364.207031 131.351562 L 366.347656 136.351562 L 368.484375 141.410156 L 370.621094 146.515625 L 372.757812 151.65625 L 374.898438 156.824219 L 377.035156 162.011719 L 379.171875 167.210938 L 381.3125 172.410156 L 383.449219 177.605469 L 385.585938 182.785156 L 387.726562 187.941406 L 389.863281 193.074219 L 392 198.167969 L 394.140625 203.222656 L 396.277344 208.234375 L 398.414062 213.195312 L 400.554688 218.101562 L 402.691406 222.953125 L 404.828125 227.746094 L 406.96875 232.476562 L 409.105469 237.140625 L 411.242188 241.742188 L 413.382812 246.277344 L 415.519531 250.746094 L 417.65625 255.148438 L 419.792969 259.480469 L 421.933594 263.746094 L 424.070312 267.941406 L 426.207031 272.066406 L 428.347656 276.125 L 430.484375 280.113281 L 432.621094 284.027344 L 434.761719 287.871094 L 436.898438 291.640625 L 439.035156 295.339844 L 441.175781 298.957031 L 443.3125 302.5 L 445.449219 305.960938 L 447.589844 309.339844 L 449.726562 312.632812 L 451.863281 315.839844 L 454.003906 318.957031 L 456.140625 321.980469 L 458.277344 324.910156 L 460.417969 327.742188 L 462.554688 330.476562 L 464.691406 333.105469 L 466.828125 335.636719 L 468.96875 338.0625 L 471.105469 340.382812 L 473.242188 342.601562 L 475.382812 344.710938 L 477.519531 346.71875 L 479.65625 348.617188 L 481.796875 350.417969 L 483.933594 352.113281 L 486.070312 353.710938 L 488.210938 355.210938 L 490.347656 356.613281 L 492.484375 357.925781 L 494.625 359.152344 L 496.761719 360.289062 L 498.898438 361.347656 L 501.039062 362.324219 L 503.175781 363.230469 L 505.3125 364.066406 L 507.453125 364.835938 L 509.589844 365.542969 L 511.726562 366.195312 "/>
<path fill-rule="nonzero" fill="rgb(0%, 44.705883%, 69.803923%)" fill-opacity="0.15" d="M 86.273438 364.992188 L 88.410156 364.347656 L 90.546875 363.652344 L 92.6875 362.898438 L 94.824219 362.089844 L 96.960938 361.21875 L 99.101562 360.277344 L 101.238281 359.261719 L 103.375 358.171875 L 105.515625 357 L 107.652344 355.742188 L 109.789062 354.394531 L 111.929688 352.949219 L 114.066406 351.40625 L 116.203125 349.761719 L 118.34375 348.011719 L 120.480469 346.148438 L 122.617188 344.175781 L 124.757812 342.082031 L 126.894531 339.875 L 129.03125 337.546875 L 131.171875 335.09375 L 133.308594 332.523438 L 135.445312 329.824219 L 137.582031 327.007812 L 139.722656 324.066406 L 141.859375 321.003906 L 143.996094 317.820312 L 146.136719 314.523438 L 148.273438 311.109375 L 150.410156 307.582031 L 152.550781 303.949219 L 154.6875 300.214844 L 156.824219 296.378906 L 158.964844 292.449219 L 161.101562 288.429688 L 163.238281 284.328125 L 165.378906 280.148438 L 167.515625 275.894531 L 169.652344 271.578125 L 171.792969 267.203125 L 173.929688 262.777344 L 176.066406 258.304688 L 178.207031 253.789062 L 180.34375 249.242188 L 182.480469 244.667969 L 184.617188 240.070312 L 186.757812 235.457031 L 188.894531 230.832031 L 191.03125 226.203125 L 193.171875 221.570312 L 195.308594 216.9375 L 197.445312 212.3125 L 199.585938 207.695312 L 201.722656 203.089844 L 203.859375 198.5 L 206 193.921875 L 208.136719 189.363281 L 210.273438 184.824219 L 212.414062 180.300781 L 214.550781 175.800781 L 216.6875 171.320312 L 218.828125 166.863281 L 220.964844 162.429688 L 223.101562 158.015625 L 225.242188 153.628906 L 227.378906 149.265625 L 229.515625 144.929688 L 231.652344 140.617188 L 233.792969 136.339844 L 235.929688 132.09375 L 238.066406 127.882812 L 240.207031 123.707031 L 242.34375 119.578125 L 244.480469 115.496094 L 246.621094 111.460938 L 248.757812 107.488281 L 250.894531 103.574219 L 253.035156 99.734375 L 255.171875 95.964844 L 257.308594 92.28125 L 259.449219 88.691406 L 261.585938 85.195312 L 263.722656 81.808594 L 265.863281 78.535156 L 268 75.382812 L 270.136719 72.367188 L 272.277344 69.488281 L 274.414062 66.757812 L 276.550781 64.183594 L 278.6875 61.773438 L 280.828125 59.535156 L 282.964844 57.480469 L 285.101562 55.609375 L 287.242188 53.933594 L 289.378906 52.457031 L 291.515625 51.183594 L 293.65625 50.125 L 295.792969 49.28125 L 297.929688 48.65625 L 300.070312 48.257812 L 302.207031 48.082031 L 304.34375 48.132812 L 306.484375 48.414062 L 308.621094 48.925781 L 310.757812 49.667969 L 312.898438 50.636719 L 315.035156 51.832031 L 317.171875 53.257812 L 319.3125 54.902344 L 321.449219 56.769531 L 323.585938 58.851562 L 325.722656 61.148438 L 327.863281 63.648438 L 330 66.351562 L 332.136719 69.25 L 334.277344 72.339844 L 336.414062 75.613281 L 338.550781 79.0625 L 340.691406 82.679688 L 342.828125 86.460938 L 344.964844 90.394531 L 347.105469 94.476562 L 349.242188 98.695312 L 351.378906 103.042969 L 353.519531 107.511719 L 355.65625 112.09375 L 357.792969 116.777344 L 359.933594 121.554688 L 362.070312 126.414062 L 364.207031 131.351562 L 366.347656 136.351562 L 368.484375 141.410156 L 370.621094 146.515625 L 372.757812 151.65625 L 374.898438 156.824219 L 377.035156 162.011719 L 379.171875 167.210938 L 381.3125 172.410156 L 383.449219 177.605469 L 385.585938 182.785156 L 387.726562 187.941406 L 389.863281 193.074219 L 392 198.167969 L 394.140625 203.222656 L 396.277344 208.234375 L 398.414062 213.195312 L 400.554688 218.101562 L 402.691406 222.953125 L 404.828125 227.746094 L 406.96875 232.476562 L 409.105469 237.140625 L 411.242188 241.742188 L 413.382812 246.277344 L 415.519531 250.746094 L 417.65625 255.148438 L 419.792969 259.480469 L 421.933594 263.746094 L 424.070312 267.941406 L 426.207031 272.066406 L 428.347656 276.125 L 430.484375 280.113281 L 432.621094 284.027344 L 434.761719 287.871094 L 436.898438 291.640625 L 439.035156 295.339844 L 441.175781 298.957031 L 443.3125 302.5 L 445.449219 305.960938 L 447.589844 309.339844 L 449.726562 312.632812 L 451.863281 315.839844 L 454.003906 318.957031 L 456.140625 321.980469 L 458.277344 324.910156 L 460.417969 327.742188 L 462.554688 330.476562 L 464.691406 333.105469 L 466.828125 335.636719 L 468.96875 338.0625 L 471.105469 340.382812 L 473.242188 342.601562 L 475.382812 344.710938 L 477.519531 346.71875 L 479.65625 348.617188 L 481.796875 350.417969 L 483.933594 352.113281 L 486.070312 353.710938 L 488.210938 355.210938 L 490.347656 356.613281 L 492.484375 357.925781 L 494.625 359.152344 L 496.761719 360.289062 L 498.898438 361.347656 L 501.039062 362.324219 L 503.175781 363.230469 L 505.3125 364.066406 L 507.453125 364.835938 L 509.589844 365.542969 L 511.726562 366.195312 L 511.726562 373 L 86.273438 373 Z M 86.273438 364.992188 "/>
<path fill="none" stroke-width="1.5" stroke-linecap="butt" stroke-linejoin="miter" stroke="rgb(90.196079%, 62.352943%, 0%)" stroke-opacity="1" stroke-miterlimit="2" d="M 86.273438 364.601562 L 88.410156 363.90625 L 90.546875 363.175781 L 92.6875 362.40625 L 94.824219 361.597656 L 96.960938 360.746094 L 99.101562 359.855469 L 101.238281 358.917969 L 103.375 357.9375 L 105.515625 356.910156 L 107.652344 355.835938 L 109.789062 354.714844 L 111.929688 353.539062 L 114.066406 352.308594 L 116.203125 351.023438 L 118.34375 349.675781 L 120.480469 348.269531 L 122.617188 346.796875 L 124.757812 345.253906 L 126.894531 343.640625 L 129.03125 341.949219 L 131.171875 340.179688 L 133.308594 338.324219 L 135.445312 336.378906 L 137.582031 334.34375 L 139.722656 332.207031 L 141.859375 329.96875 L 143.996094 327.625 L 146.136719 325.167969 L 148.273438 322.597656 L 150.410156 319.90625 L 152.550781 317.09375 L 154.6875 314.148438 L 156.824219 311.078125 L 158.964844 307.871094 L 161.101562 304.527344 L 163.238281 301.042969 L 165.378906 297.421875 L 167.515625 293.65625 L 169.652344 289.75 L 171.792969 285.703125 L 173.929688 281.515625 L 176.066406 277.1875 L 178.207031 272.722656 L 180.34375 268.121094 L 182.480469 263.390625 L 184.617188 258.535156 L 186.757812 253.554688 L 188.894531 248.457031 L 191.03125 243.25 L 193.171875 237.941406 L 195.308594 232.535156 L 197.445312 227.039062 L 199.585938 221.460938 L 201.722656 215.8125 L 203.859375 210.097656 L 206 204.332031 L 208.136719 198.519531 L 210.273438 192.671875 L 212.414062 186.796875 L 214.550781 180.90625 L 216.6875 175.007812 L 218.828125 169.109375 L 220.964844 163.226562 L 223.101562 157.363281 L 225.242188 151.535156 L 227.378906 145.742188 L 229.515625 140 L 231.652344 134.320312 L 233.792969 128.703125 L 235.929688 123.164062 L 238.066406 117.710938 L 240.207031 112.355469 L 242.34375 107.097656 L 244.480469 101.957031 L 246.621094 96.933594 L 248.757812 92.039062 L 250.894531 87.285156 L 253.035156 82.679688 L 255.171875 78.226562 L 257.308594 73.9375 L 259.449219 69.824219 L 261.585938 65.890625 L 263.722656 62.144531 L 265.863281 58.597656 L 268 55.257812 L 270.136719 52.128906 L 272.277344 49.21875 L 274.414062 46.53125 L 276.550781 44.078125 L 278.6875 41.863281 L 280.828125 39.886719 L 282.964844 38.15625 L 285.101562 36.671875 L 287.242188 35.4375 L 289.378906 34.453125 L 291.515625 33.71875 L 293.65625 33.234375 L 295.792969 33 L 297.929688 33.007812 L 300.070312 33.261719 L 302.207031 33.746094 L 304.34375 34.46875 L 306.484375 35.414062 L 308.621094 36.578125 L 310.757812 37.957031 L 312.898438 39.539062 L 315.035156 41.320312 L 317.171875 43.289062 L 319.3125 45.4375 L 321.449219 47.761719 L 323.585938 50.246094 L 325.722656 52.894531 L 327.863281 55.6875 L 330 58.625 L 332.136719 61.699219 L 334.277344 64.90625 L 336.414062 68.238281 L 338.550781 71.691406 L 340.691406 75.261719 L 342.828125 78.945312 L 344.964844 82.742188 L 347.105469 86.648438 L 349.242188 90.664062 L 351.378906 94.785156 L 353.519531 99.011719 L 355.65625 103.347656 L 357.792969 107.785156 L 359.933594 112.332031 L 362.070312 116.984375 L 364.207031 121.742188 L 366.347656 126.601562 L 368.484375 131.566406 L 370.621094 136.632812 L 372.757812 141.800781 L 374.898438 147.0625 L 377.035156 152.414062 L 379.171875 157.859375 L 381.3125 163.382812 L 383.449219 168.984375 L 385.585938 174.652344 L 387.726562 180.382812 L 389.863281 186.167969 L 392 191.988281 L 394.140625 197.84375 L 396.277344 203.722656 L 398.414062 209.605469 L 400.554688 215.488281 L 402.691406 221.351562 L 404.828125 227.191406 L 406.96875 232.988281 L 409.105469 238.730469 L 411.242188 244.410156 L 413.382812 250.007812 L 415.519531 255.523438 L 417.65625 260.933594 L 419.792969 266.234375 L 421.933594 271.417969 L 424.070312 276.46875 L 426.207031 281.386719 L 428.347656 286.15625 L 430.484375 290.78125 L 432.621094 295.25 L 434.761719 299.558594 L 436.898438 303.707031 L 439.035156 307.6875 L 441.175781 311.507812 L 443.3125 315.164062 L 445.449219 318.652344 L 447.589844 321.980469 L 449.726562 325.148438 L 451.863281 328.15625 L 454.003906 331.015625 L 456.140625 333.71875 L 458.277344 336.28125 L 460.417969 338.703125 L 462.554688 340.988281 L 464.691406 343.144531 L 466.828125 345.175781 L 468.96875 347.089844 L 471.105469 348.890625 L 473.242188 350.585938 L 475.382812 352.175781 L 477.519531 353.671875 L 479.65625 355.074219 L 481.796875 356.390625 L 483.933594 357.628906 L 486.070312 358.785156 L 488.210938 359.871094 L 490.347656 360.890625 L 492.484375 361.839844 L 494.625 362.730469 L 496.761719 363.566406 L 498.898438 364.34375 L 501.039062 365.070312 L 503.175781 365.746094 L 505.3125 366.378906 L 507.453125 366.964844 L 509.589844 367.511719 L 511.726562 368.015625 "/>
<path fill-rule="nonzero" fill="rgb(90.196079%, 62.352943%, 0%)" fill-opacity="0.15" d="M 86.273438 364.601562 L 88.410156 363.90625 L 90.546875 363.175781 L 92.6875 362.40625 L 94.824219 361.597656 L 96.960938 360.746094 L 99.101562 359.855469 L 101.238281 358.917969 L 103.375 357.9375 L 105.515625 356.910156 L 107.652344 355.835938 L 109.789062 354.714844 L 111.929688 353.539062 L 114.066406 352.308594 L 116.203125 351.023438 L 118.34375 349.675781 L 120.480469 348.269531 L 122.617188 346.796875 L 124.757812 345.253906 L 126.894531 343.640625 L 129.03125 341.949219 L 131.171875 340.179688 L 133.308594 338.324219 L 135.445312 336.378906 L 137.582031 334.34375 L 139.722656 332.207031 L 141.859375 329.96875 L 143.996094 327.625 L 146.136719 325.167969 L 148.273438 322.597656 L 150.410156 319.90625 L 152.550781 317.09375 L 154.6875 314.148438 L 156.824219 311.078125 L 158.964844 307.871094 L 161.101562 304.527344 L 163.238281 301.042969 L 165.378906 297.421875 L 167.515625 293.65625 L 169.652344 289.75 L 171.792969 285.703125 L 173.929688 281.515625 L 176.066406 277.1875 L 178.207031 272.722656 L 180.34375 268.121094 L 182.480469 263.390625 L 184.617188 258.535156 L 186.757812 253.554688 L 188.894531 248.457031 L 191.03125 243.25 L 193.171875 237.941406 L 195.308594 232.535156 L 197.445312 227.039062 L 199.585938 221.460938 L 201.722656 215.8125 L 203.859375 210.097656 L 206 204.332031 L 208.136719 198.519531 L 210.273438 192.671875 L 212.414062 186.796875 L 214.550781 180.90625 L 216.6875 175.007812 L 218.828125 169.109375 L 220.964844 163.226562 L 223.101562 157.363281 L 225.242188 151.535156 L 227.378906 145.742188 L 229.515625 140 L 231.652344 134.320312 L 233.792969 128.703125 L 235.929688 123.164062 L 238.066406 117.710938 L 240.207031 112.355469 L 242.34375 107.097656 L 244.480469 101.957031 L 246.621094 96.933594 L 248.757812 92.039062 L 250.894531 87.285156 L 253.035156 82.679688 L 255.171875 78.226562 L 257.308594 73.9375 L 259.449219 69.824219 L 261.585938 65.890625 L 263.722656 62.144531 L 265.863281 58.597656 L 268 55.257812 L 270.136719 52.128906 L 272.277344 49.21875 L 274.414062 46.53125 L 276.550781 44.078125 L 278.6875 41.863281 L 280.828125 39.886719 L 282.964844 38.15625 L 285.101562 36.671875 L 287.242188 35.4375 L 289.378906 34.453125 L 291.515625 33.71875 L 293.65625 33.234375 L 295.792969 33 L 297.929688 33.007812 L 300.070312 33.261719 L 302.207031 33.746094 L 304.34375 34.46875 L 306.484375 35.414062 L 308.621094 36.578125 L 310.757812 37.957031 L 312.898438 39.539062 L 315.035156 41.320312 L 317.171875 43.289062 L 319.3125 45.4375 L 321.449219 47.761719 L 323.585938 50.246094 L 325.722656 52.894531 L 327.863281 55.6875 L 330 58.625 L 332.136719 61.699219 L 334.277344 64.90625 L 336.414062 68.238281 L 338.550781 71.691406 L 340.691406 75.261719 L 342.828125 78.945312 L 344.964844 82.742188 L 347.105469 86.648438 L 349.242188 90.664062 L 351.378906 94.785156 L 353.519531 99.011719 L 355.65625 103.347656 L 357.792969 107.785156 L 359.933594 112.332031 L 362.070312 116.984375 L 364.207031 121.742188 L 366.347656 126.601562 L 368.484375 131.566406 L 370.621094 136.632812 L 372.757812 141.800781 L 374.898438 147.0625 L 377.035156 152.414062 L 379.171875 157.859375 L 381.3125 163.382812 L 383.449219 168.984375 L 385.585938 174.652344 L 387.726562 180.382812 L 389.863281 186.167969 L 392 191.988281 L 394.140625 197.84375 L 396.277344 203.722656 L 398.414062 209.605469 L 400.554688 215.488281 L 402.691406 221.351562 L 404.828125 227.191406 L 406.96875 232.988281 L 409.105469 238.730469 L 411.242188 244.410156 L 413.382812 250.007812 L 415.519531 255.523438 L 417.65625 260.933594 L 419.792969 266.234375 L 421.933594 271.417969 L 424.070312 276.46875 L 426.207031 281.386719 L 428.347656 286.15625 L 430.484375 290.78125 L 432.621094 295.25 L 434.761719 299.558594 L 436.898438 303.707031 L 439.035156 307.6875 L 441.175781 311.507812 L 443.3125 315.164062 L 445.449219 318.652344 L 447.589844 321.980469 L 449.726562 325.148438 L 451.863281 328.15625 L 454.003906 331.015625 L 456.140625 333.71875 L 458.277344 336.28125 L 460.417969 338.703125 L 462.554688 340.988281 L 464.691406 343.144531 L 466.828125 345.175781 L 468.96875 347.089844 L 471.105469 348.890625 L 473.242188 350.585938 L 475.382812 352.175781 L 477.519531 353.671875 L 479.65625 355.074219 L 481.796875 356.390625 L 483.933594 357.628906 L 486.070312 358.785156 L 488.210938 359.871094 L 490.347656 360.890625 L 492.484375 361.839844 L 494.625 362.730469 L 496.761719 363.566406 L 498.898438 364.34375 L 501.039062 365.070312 L 503.175781 365.746094 L 505.3125 366.378906 L 507.453125 366.964844 L 509.589844 367.511719 L 511.726562 368.015625 L 511.726562 373 L 86.273438 373 Z M 86.273438 364.601562 "/>
<path fill="none" stroke-width="1" stroke-linecap="butt" stroke-linejoin="miter" stroke="rgb(66.274512%, 66.274512%, 66.274512%)" stroke-opacity="1" stroke-miterlimit="1.154701" d="M 160.066406 390.5 L 160.066406 395.5 "/>
<path fill="none" stroke-width="1" stroke-linecap="butt" stroke-linejoin="miter" stroke="rgb(66.274512%, 66.274512%, 66.274512%)" stroke-opacity="1" stroke-miterlimit="1.154701" d="M 299.570312 390.5 L 299.570312 395.5 "/>
<path fill="none" stroke-width="1" stroke-linecap="butt" stroke-linejoin="miter" stroke="rgb(66.274512%, 66.274512%, 66.274512%)" stroke-opacity="1" stroke-miterlimit="1.154701" d="M 439.070312 390.5 L 439.070312 395.5 "/>
<path fill="none" stroke-width="1" stroke-linecap="butt" stroke-linejoin="miter" stroke="rgb(66.274512%, 66.274512%, 66.274512%)" stroke-opacity="1" stroke-miterlimit="1.154701" d="M 64.5 373 L 59.5 373 "/>
<path fill="none" stroke-width="1" stroke-linecap="butt" stroke-linejoin="miter" stroke="rgb(66.274512%, 66.274512%, 66.274512%)" stroke-opacity="1" stroke-miterlimit="1.154701" d="M 64.5 276.941406 L 59.5 276.941406 "/>
<path fill="none" stroke-width="1" stroke-linecap="butt" stroke-linejoin="miter" stroke="rgb(66.274512%, 66.274512%, 66.274512%)" stroke-opacity="1" stroke-miterlimit="1.154701" d="M 64.5 180.882812 L 59.5 180.882812 "/>
<path fill="none" stroke-width="1" stroke-linecap="butt" stroke-linejoin="miter" stroke="rgb(66.274512%, 66.274512%, 66.274512%)" stroke-opacity="1" stroke-miterlimit="1.154701" d="M 64.5 84.824219 L 59.5 84.824219 "/>
<path fill-rule="nonzero" fill="rgb(0%, 44.705883%, 69.803923%)" fill-opacity="0.15" d="M 550.933594 213.898438 L 570.933594 213.898438 L 570.933594 193.898438 L 550.933594 193.898438 Z M 550.933594 213.898438 "/>
<path fill="none" stroke-width="1.5" stroke-linecap="butt" stroke-linejoin="miter" stroke="rgb(0%, 44.705883%, 69.803923%)" stroke-opacity="1" stroke-miterlimit="2" d="M 550.933594 203.898438 L 570.933594 203.898438 "/>
<path fill-rule="nonzero" fill="rgb(90.196079%, 62.352943%, 0%)" fill-opacity="0.15" d="M 550.933594 236.898438 L 570.933594 236.898438 L 570.933594 216.898438 L 550.933594 216.898438 Z M 550.933594 236.898438 "/>
<path fill="none" stroke-width="1.5" stroke-linecap="butt" stroke-linejoin="miter" stroke="rgb(90.196079%, 62.352943%, 0%)" stroke-opacity="1" stroke-miterlimit="2" d="M 550.933594 226.898438 L 570.933594 226.898438 "/>
<g fill="rgb(0%, 0%, 0%)" fill-opacity="1">
<use xlink:href="#glyph-15-0-52b72f9a" x="564.153992" y="182.189972"/>
</g>
<g fill="rgb(0%, 0%, 0%)" fill-opacity="1">
<use xlink:href="#glyph-3-1-52b72f9a" x="575.932983" y="208.589966"/>
</g>
<g fill="rgb(0%, 0%, 0%)" fill-opacity="1">
<use xlink:href="#glyph-16-0-52b72f9a" x="575.932983" y="231.589966"/>
</g>
<path fill="none" stroke-width="1" stroke-linecap="butt" stroke-linejoin="miter" stroke="rgb(66.274512%, 66.274512%, 66.274512%)" stroke-opacity="1" stroke-miterlimit="1.154701" d="M 64.5 390 L 533.5 390 "/>
<path fill="none" stroke-width="1" stroke-linecap="butt" stroke-linejoin="miter" stroke="rgb(66.274512%, 66.274512%, 66.274512%)" stroke-opacity="1" stroke-miterlimit="1.154701" d="M 65 390.5 L 65 15.5 "/>
</svg>
