<?xml version="1.0" encoding="UTF-8"?>
<svg xmlns="http://www.w3.org/2000/svg" xmlns:xlink="http://www.w3.org/1999/xlink" width="600" height="450" viewBox="0 0 600 450">
<defs>
<g>
<g id="glyph-0-0-b1ed94dc">
<path d="M 4.5625 -3.96875 L 7.046875 0 L 4.96875 0 L 3.4375 -2.9375 L 1.9375 0 L -0.046875 0 L 2.421875 -3.90625 L 0.203125 -7.40625 L 2.25 -7.40625 L 3.515625 -4.890625 L 4.765625 -7.40625 L 6.703125 -7.40625 Z M 4.5625 -3.96875 "/>
</g>
<g id="glyph-1-0-b1ed94dc">
<path d="M 0.96875 -4.28125 L 0.96875 -5 L 5.9375 -5 L 5.9375 -4.28125 Z M 0.96875 -4.28125 "/>
</g>
<g id="glyph-1-1-b1ed94dc">
<path d="M 5.671875 -8.640625 L 1.890625 -8.640625 L 1.890625 -5.453125 C 2.398438 -5.742188 2.929688 -5.890625 3.484375 -5.890625 C 4.285156 -5.890625 4.921875 -5.628906 5.390625 -5.109375 C 5.867188 -4.597656 6.109375 -3.894531 6.109375 -3 C 6.109375 -2.394531 5.984375 -1.847656 5.734375 -1.359375 C 5.484375 -0.878906 5.128906 -0.503906 4.671875 -0.234375 C 4.222656 0.0234375 3.703125 0.15625 3.109375 0.15625 C 2.066406 0.15625 1.1875 -0.21875 0.46875 -0.96875 L 0.984375 -1.453125 C 1.273438 -1.140625 1.585938 -0.90625 1.921875 -0.75 C 2.265625 -0.601562 2.660156 -0.53125 3.109375 -0.53125 C 3.773438 -0.53125 4.296875 -0.75 4.671875 -1.1875 C 5.054688 -1.632812 5.25 -2.242188 5.25 -3.015625 C 5.25 -3.753906 5.070312 -4.304688 4.71875 -4.671875 C 4.375 -5.046875 3.898438 -5.234375 3.296875 -5.234375 C 3.003906 -5.234375 2.742188 -5.195312 2.515625 -5.125 C 2.285156 -5.0625 2.03125 -4.945312 1.75 -4.78125 L 1.109375 -4.78125 L 1.109375 -9.3125 L 5.796875 -9.3125 Z M 5.671875 -8.640625 "/>
</g>
<g id="glyph-1-2-b1ed94dc">
<path d="M 3.84375 -9.46875 C 4.8125 -9.46875 5.539062 -9.054688 6.03125 -8.234375 C 6.53125 -7.421875 6.78125 -6.222656 6.78125 -4.640625 C 6.78125 -3.078125 6.53125 -1.882812 6.03125 -1.0625 C 5.53125 -0.25 4.800781 0.15625 3.84375 0.15625 C 2.882812 0.15625 2.15625 -0.25 1.65625 -1.0625 C 1.164062 -1.882812 0.921875 -3.082031 0.921875 -4.65625 C 0.921875 -6.238281 1.164062 -7.4375 1.65625 -8.25 C 2.15625 -9.0625 2.882812 -9.46875 3.84375 -9.46875 Z M 3.84375 -8.796875 C 2.457031 -8.796875 1.765625 -7.414062 1.765625 -4.65625 C 1.765625 -1.894531 2.457031 -0.515625 3.84375 -0.515625 C 4.53125 -0.515625 5.046875 -0.847656 5.390625 -1.515625 C 5.742188 -2.191406 5.921875 -3.234375 5.921875 -4.640625 C 5.921875 -6.054688 5.742188 -7.101562 5.390625 -7.78125 C 5.046875 -8.457031 4.53125 -8.796875 3.84375 -8.796875 Z M 3.84375 -8.796875 "/>
</g>
<g id="glyph-1-3-b1ed94dc">
<path d="M 1.4375 -1.171875 C 1.632812 -1.171875 1.796875 -1.109375 1.921875 -0.984375 C 2.046875 -0.859375 2.109375 -0.703125 2.109375 -0.515625 C 2.109375 -0.316406 2.046875 -0.15625 1.921875 -0.03125 C 1.796875 0.09375 1.632812 0.15625 1.4375 0.15625 C 1.25 0.15625 1.085938 0.09375 0.953125 -0.03125 C 0.828125 -0.164062 0.765625 -0.328125 0.765625 -0.515625 C 0.765625 -0.703125 0.828125 -0.859375 0.953125 -0.984375 C 1.085938 -1.109375 1.25 -1.171875 1.4375 -1.171875 Z M 1.4375 -1.171875 "/>
</g>
<g id="glyph-1-4-b1ed94dc">
<path d="M 3.15625 -9.46875 C 3.9375 -9.46875 4.554688 -9.238281 5.015625 -8.78125 C 5.484375 -8.320312 5.71875 -7.734375 5.71875 -7.015625 C 5.71875 -6.410156 5.585938 -5.84375 5.328125 -5.3125 C 5.078125 -4.78125 4.679688 -4.195312 4.140625 -3.5625 C 3.609375 -2.925781 2.742188 -1.976562 1.546875 -0.71875 L 5.96875 -0.71875 L 5.859375 0 L 0.609375 0 L 0.609375 -0.6875 C 1.878906 -2.050781 2.789062 -3.0625 3.34375 -3.71875 C 3.90625 -4.375 4.300781 -4.941406 4.53125 -5.421875 C 4.757812 -5.898438 4.875 -6.414062 4.875 -6.96875 C 4.875 -7.519531 4.710938 -7.957031 4.390625 -8.28125 C 4.066406 -8.613281 3.640625 -8.78125 3.109375 -8.78125 C 2.679688 -8.78125 2.300781 -8.691406 1.96875 -8.515625 C 1.632812 -8.335938 1.316406 -8.070312 1.015625 -7.71875 L 0.46875 -8.140625 C 0.832031 -8.585938 1.234375 -8.921875 1.671875 -9.140625 C 2.109375 -9.359375 2.601562 -9.46875 3.15625 -9.46875 Z M 3.15625 -9.46875 "/>
</g>
<g id="glyph-1-5-b1ed94dc">
<path d="M 6.03125 -1.625 C 6.03125 -1.238281 6.078125 -0.960938 6.171875 -0.796875 C 6.273438 -0.628906 6.4375 -0.503906 6.65625 -0.421875 L 6.46875 0.15625 C 6.132812 0.09375 5.875 -0.03125 5.6875 -0.21875 C 5.507812 -0.40625 5.390625 -0.691406 5.328125 -1.078125 C 4.828125 -0.253906 4.066406 0.15625 3.046875 0.15625 C 2.347656 0.15625 1.796875 -0.0390625 1.390625 -0.4375 C 0.984375 -0.832031 0.78125 -1.363281 0.78125 -2.03125 C 0.78125 -2.78125 1.046875 -3.359375 1.578125 -3.765625 C 2.117188 -4.179688 2.867188 -4.390625 3.828125 -4.390625 L 5.21875 -4.390625 L 5.21875 -5.109375 C 5.21875 -5.691406 5.085938 -6.117188 4.828125 -6.390625 C 4.566406 -6.660156 4.132812 -6.796875 3.53125 -6.796875 C 2.96875 -6.796875 2.304688 -6.65625 1.546875 -6.375 L 1.328125 -6.984375 C 2.148438 -7.304688 2.921875 -7.46875 3.640625 -7.46875 C 5.234375 -7.46875 6.03125 -6.695312 6.03125 -5.15625 Z M 3.1875 -0.5 C 4.070312 -0.5 4.75 -0.929688 5.21875 -1.796875 L 5.21875 -3.8125 L 3.953125 -3.8125 C 3.203125 -3.8125 2.628906 -3.664062 2.234375 -3.375 C 1.847656 -3.082031 1.65625 -2.648438 1.65625 -2.078125 C 1.65625 -1.566406 1.789062 -1.175781 2.0625 -0.90625 C 2.332031 -0.632812 2.707031 -0.5 3.1875 -0.5 Z M 3.1875 -0.5 "/>
</g>
<g id="glyph-2-0-b1ed94dc">
<path d="M 3.15625 -9.46875 C 3.9375 -9.46875 4.554688 -9.238281 5.015625 -8.78125 C 5.484375 -8.320312 5.71875 -7.734375 5.71875 -7.015625 C 5.71875 -6.410156 5.585938 -5.84375 5.328125 -5.3125 C 5.078125 -4.78125 4.679688 -4.195312 4.140625 -3.5625 C 3.609375 -2.925781 2.742188 -1.976562 1.546875 -0.71875 L 5.96875 -0.71875 L 5.859375 0 L 0.609375 0 L 0.609375 -0.6875 C 1.878906 -2.050781 2.789062 -3.0625 3.34375 -3.71875 C 3.90625 -4.375 4.300781 -4.941406 4.53125 -5.421875 C 4.757812 -5.898438 4.875 -6.414062 4.875 -6.96875 C 4.875 -7.519531 4.710938 -7.957031 4.390625 -8.28125 C 4.066406 -8.613281 3.640625 -8.78125 3.109375 -8.78125 C 2.679688 -8.78125 2.300781 -8.691406 1.96875 -8.515625 C 1.632812 -8.335938 1.316406 -8.070312 1.015625 -7.71875 L 0.46875 -8.140625 C 0.832031 -8.585938 1.234375 -8.921875 1.671875 -9.140625 C 2.109375 -9.359375 2.601562 -9.46875 3.15625 -9.46875 Z M 3.15625 -9.46875 "/>
</g>
<g id="glyph-2-1-b1ed94dc">
<path d="M 3.84375 -9.46875 C 4.8125 -9.46875 5.539062 -9.054688 6.03125 -8.234375 C 6.53125 -7.421875 6.78125 -6.222656 6.78125 -4.640625 C 6.78125 -3.078125 6.53125 -1.882812 6.03125 -1.0625 C 5.53125 -0.25 4.800781 0.15625 3.84375 0.15625 C 2.882812 0.15625 2.15625 -0.25 1.65625 -1.0625 C 1.164062 -1.882812 0.921875 -3.082031 0.921875 -4.65625 C 0.921875 -6.238281 1.164062 -7.4375 1.65625 -8.25 C 2.15625 -9.0625 2.882812 -9.46875 3.84375 -9.46875 Z M 3.84375 -8.796875 C 2.457031 -8.796875 1.765625 -7.414062 1.765625 -4.65625 C 1.765625 -1.894531 2.457031 -0.515625 3.84375 -0.515625 C 4.53125 -0.515625 5.046875 -0.847656 5.390625 -1.515625 C 5.742188 -2.191406 5.921875 -3.234375 5.921875 -4.640625 C 5.921875 -6.054688 5.742188 -7.101562 5.390625 -7.78125 C 5.046875 -8.457031 4.53125 -8.796875 3.84375 -8.796875 Z M 3.84375 -8.796875 "/>
</g>
<g id="glyph-3-0-b1ed94dc">
<path d="M 1.4375 -1.171875 C 1.632812 -1.171875 1.796875 -1.109375 1.921875 -0.984375 C 2.046875 -0.859375 2.109375 -0.703125 2.109375 -0.515625 C 2.109375 -0.316406 2.046875 -0.15625 1.921875 -0.03125 C 1.796875 0.09375 1.632812 0.15625 1.4375 0.15625 C 1.25 0.15625 1.085938 0.09375 0.953125 -0.03125 C 0.828125 -0.164062 0.765625 -0.328125 0.765625 -0.515625 C 0.765625 -0.703125 0.828125 -0.859375 0.953125 -0.984375 C 1.085938 -1.109375 1.25 -1.171875 1.4375 -1.171875 Z M 1.4375 -1.171875 "/>
</g>
<g id="glyph-4-0-b1ed94dc">
<path d="M 1.4375 -1.171875 C 1.632812 -1.171875 1.796875 -1.109375 1.921875 -0.984375 C 2.046875 -0.859375 2.109375 -0.703125 2.109375 -0.515625 C 2.109375 -0.316406 2.046875 -0.15625 1.921875 -0.03125 C 1.796875 0.09375 1.632812 0.15625 1.4375 0.15625 C 1.25 0.15625 1.085938 0.09375 0.953125 -0.03125 C 0.828125 -0.164062 0.765625 -0.328125 0.765625 -0.515625 C 0.765625 -0.703125 0.828125 -0.859375 0.953125 -0.984375 C 1.085938 -1.109375 1.25 -1.171875 1.4375 -1.171875 Z M 1.4375 -1.171875 "/>
</g>
<g id="glyph-5-0-b1ed94dc">
<path d="M -7.609375 -4.90625 C -7.609375 -5.84375 -7.269531 -6.535156 -6.59375 -6.984375 C -5.914062 -7.429688 -4.957031 -7.65625 -3.71875 -7.65625 C -2.957031 -7.65625 -2.28125 -7.539062 -1.6875 -7.3125 C -1.09375 -7.082031 -0.628906 -6.742188 -0.296875 -6.296875 C 0.0351562 -5.859375 0.203125 -5.335938 0.203125 -4.734375 C 0.203125 -3.953125 -0.0664062 -3.332031 -0.609375 -2.875 L 2.859375 -2.875 L 3.046875 -1.078125 L -7.40625 -1.078125 L -7.40625 -2.640625 L -6.5 -2.75 C -6.875 -3.03125 -7.148438 -3.359375 -7.328125 -3.734375 C -7.515625 -4.109375 -7.609375 -4.5 -7.609375 -4.90625 Z M -1.15625 -4.234375 C -1.15625 -5.265625 -2.003906 -5.78125 -3.703125 -5.78125 C -4.609375 -5.78125 -5.257812 -5.660156 -5.65625 -5.421875 C -6.0625 -5.191406 -6.265625 -4.84375 -6.265625 -4.375 C -6.265625 -4.082031 -6.171875 -3.804688 -5.984375 -3.546875 C -5.804688 -3.285156 -5.566406 -3.0625 -5.265625 -2.875 L -1.9375 -2.875 C -1.414062 -3.21875 -1.15625 -3.671875 -1.15625 -4.234375 Z M -1.15625 -4.234375 "/>
</g>
<g id="glyph-6-0-b1ed94dc">
<path d="M -10.375 -7.3125 L 0 -7.3125 L 0 -5.71875 L -0.9375 -5.59375 C -0.582031 -5.363281 -0.300781 -5.066406 -0.09375 -4.703125 C 0.101562 -4.347656 0.203125 -3.941406 0.203125 -3.484375 C 0.203125 -2.578125 -0.144531 -1.878906 -0.84375 -1.390625 C -1.539062 -0.910156 -2.492188 -0.671875 -3.703125 -0.671875 C -4.453125 -0.671875 -5.125 -0.789062 -5.71875 -1.03125 C -6.3125 -1.28125 -6.773438 -1.628906 -7.109375 -2.078125 C -7.441406 -2.535156 -7.609375 -3.0625 -7.609375 -3.65625 C -7.609375 -4.363281 -7.34375 -4.984375 -6.8125 -5.515625 L -10.5625 -5.515625 Z M -1.140625 -3.984375 C -1.140625 -4.304688 -1.21875 -4.585938 -1.375 -4.828125 C -1.53125 -5.066406 -1.769531 -5.296875 -2.09375 -5.515625 L -5.484375 -5.515625 C -5.742188 -5.296875 -5.9375 -5.078125 -6.0625 -4.859375 C -6.195312 -4.640625 -6.265625 -4.390625 -6.265625 -4.109375 C -6.265625 -3.628906 -6.050781 -3.25 -5.625 -2.96875 C -5.207031 -2.695312 -4.566406 -2.5625 -3.703125 -2.5625 C -2.796875 -2.5625 -2.140625 -2.679688 -1.734375 -2.921875 C -1.335938 -3.171875 -1.140625 -3.523438 -1.140625 -3.984375 Z M -1.140625 -3.984375 "/>
</g>
<g id="glyph-6-1-b1ed94dc">
<path d="M -9.21875 -4.078125 C -9.21875 -3.722656 -9.132812 -3.46875 -8.96875 -3.3125 C -8.800781 -3.15625 -8.539062 -3.078125 -8.1875 -3.078125 L -7.40625 -3.078125 L -7.40625 -4.859375 L -6.125 -4.65625 L -6.125 -3.078125 L 0 -3.078125 L 0 -1.28125 L -6.125 -1.28125 L -6.125 -0.078125 L -7.40625 -0.078125 L -7.40625 -1.28125 L -8.21875 -1.28125 C -8.914062 -1.28125 -9.476562 -1.503906 -9.90625 -1.953125 C -10.34375 -2.410156 -10.5625 -3.054688 -10.5625 -3.890625 C -10.5625 -4.546875 -10.421875 -5.1875 -10.140625 -5.8125 L -8.9375 -5.296875 C -9.125 -4.890625 -9.21875 -4.484375 -9.21875 -4.078125 Z M -9.21875 -4.078125 "/>
</g>
<g id="glyph-7-0-b1ed94dc">
<path d="M 1.4375 -1.171875 C 1.632812 -1.171875 1.796875 -1.109375 1.921875 -0.984375 C 2.046875 -0.859375 2.109375 -0.703125 2.109375 -0.515625 C 2.109375 -0.316406 2.046875 -0.15625 1.921875 -0.03125 C 1.796875 0.09375 1.632812 0.15625 1.4375 0.15625 C 1.25 0.15625 1.085938 0.09375 0.953125 -0.03125 C 0.828125 -0.164062 0.765625 -0.328125 0.765625 -0.515625 C 0.765625 -0.703125 0.828125 -0.859375 0.953125 -0.984375 C 1.085938 -1.109375 1.25 -1.171875 1.4375 -1.171875 Z M 1.4375 -1.171875 "/>
</g>
<g id="glyph-7-1-b1ed94dc">
<path d="M 3.84375 -9.46875 C 4.8125 -9.46875 5.539062 -9.054688 6.03125 -8.234375 C 6.53125 -7.421875 6.78125 -6.222656 6.78125 -4.640625 C 6.78125 -3.078125 6.53125 -1.882812 6.03125 -1.0625 C 5.53125 -0.25 4.800781 0.15625 3.84375 0.15625 C 2.882812 0.15625 2.15625 -0.25 1.65625 -1.0625 C 1.164062 -1.882812 0.921875 -3.082031 0.921875 -4.65625 C 0.921875 -6.238281 1.164062 -7.4375 1.65625 -8.25 C 2.15625 -9.0625 2.882812 -9.46875 3.84375 -9.46875 Z M 3.84375 -8.796875 C 2.457031 -8.796875 1.765625 -7.414062 1.765625 -4.65625 C 1.765625 -1.894531 2.457031 -0.515625 3.84375 -0.515625 C 4.53125 -0.515625 5.046875 -0.847656 5.390625 -1.515625 C 5.742188 -2.191406 5.921875 -3.234375 5.921875 -4.640625 C 5.921875 -6.054688 5.742188 -7.101562 5.390625 -7.78125 C 5.046875 -8.457031 4.53125 -8.796875 3.84375 -8.796875 Z M 3.84375 -8.796875 "/>
</g>
<g id="glyph-7-2-b1ed94dc">
<path d="M 4.09375 -9.3125 L 4.09375 0 L 3.28125 0 L 3.28125 -8.40625 L 0.984375 -6.984375 L 0.609375 -7.59375 L 3.390625 -9.3125 Z M 4.09375 -9.3125 "/>
</g>
<g id="glyph-7-3-b1ed94dc">
<path d="M 3.15625 -9.46875 C 3.9375 -9.46875 4.554688 -9.238281 5.015625 -8.78125 C 5.484375 -8.320312 5.71875 -7.734375 5.71875 -7.015625 C 5.71875 -6.410156 5.585938 -5.84375 5.328125 -5.3125 C 5.078125 -4.78125 4.679688 -4.195312 4.140625 -3.5625 C 3.609375 -2.925781 2.742188 -1.976562 1.546875 -0.71875 L 5.96875 -0.71875 L 5.859375 0 L 0.609375 0 L 0.609375 -0.6875 C 1.878906 -2.050781 2.789062 -3.0625 3.34375 -3.71875 C 3.90625 -4.375 4.300781 -4.941406 4.53125 -5.421875 C 4.757812 -5.898438 4.875 -6.414062 4.875 -6.96875 C 4.875 -7.519531 4.710938 -7.957031 4.390625 -8.28125 C 4.066406 -8.613281 3.640625 -8.78125 3.109375 -8.78125 C 2.679688 -8.78125 2.300781 -8.691406 1.96875 -8.515625 C 1.632812 -8.335938 1.316406 -8.070312 1.015625 -7.71875 L 0.46875 -8.140625 C 0.832031 -8.585938 1.234375 -8.921875 1.671875 -9.140625 C 2.109375 -9.359375 2.601562 -9.46875 3.15625 -9.46875 Z M 3.15625 -9.46875 "/>
</g>
<g id="glyph-8-0-b1ed94dc">
<path d="M 3.84375 -9.46875 C 4.8125 -9.46875 5.539062 -9.054688 6.03125 -8.234375 C 6.53125 -7.421875 6.78125 -6.222656 6.78125 -4.640625 C 6.78125 -3.078125 6.53125 -1.882812 6.03125 -1.0625 C 5.53125 -0.25 4.800781 0.15625 3.84375 0.15625 C 2.882812 0.15625 2.15625 -0.25 1.65625 -1.0625 C 1.164062 -1.882812 0.921875 -3.082031 0.921875 -4.65625 C 0.921875 -6.238281 1.164062 -7.4375 1.65625 -8.25 C 2.15625 -9.0625 2.882812 -9.46875 3.84375 -9.46875 Z M 3.84375 -8.796875 C 2.457031 -8.796875 1.765625 -7.414062 1.765625 -4.65625 C 1.765625 -1.894531 2.457031 -0.515625 3.84375 -0.515625 C 4.53125 -0.515625 5.046875 -0.847656 5.390625 -1.515625 C 5.742188 -2.191406 5.921875 -3.234375 5.921875 -4.640625 C 5.921875 -6.054688 5.742188 -7.101562 5.390625 -7.78125 C 5.046875 -8.457031 4.53125 -8.796875 3.84375 -8.796875 Z M 3.84375 -8.796875 "/>
</g>
<g id="glyph-9-0-b1ed94dc">
<path d="M 3.84375 -9.46875 C 4.8125 -9.46875 5.539062 -9.054688 6.03125 -8.234375 C 6.53125 -7.421875 6.78125 -6.222656 6.78125 -4.640625 C 6.78125 -3.078125 6.53125 -1.882812 6.03125 -1.0625 C 5.53125 -0.25 4.800781 0.15625 3.84375 0.15625 C 2.882812 0.15625 2.15625 -0.25 1.65625 -1.0625 C 1.164062 -1.882812 0.921875 -3.082031 0.921875 -4.65625 C 0.921875 -6.238281 1.164062 -7.4375 1.65625 -8.25 C 2.15625 -9.0625 2.882812 -9.46875 3.84375 -9.46875 Z M 3.84375 -8.796875 C 2.457031 -8.796875 1.765625 -7.414062 1.765625 -4.65625 C 1.765625 -1.894531 2.457031 -0.515625 3.84375 -0.515625 C 4.53125 -0.515625 5.046875 -0.847656 5.390625 -1.515625 C 5.742188 -2.191406 5.921875 -3.234375 5.921875 -4.640625 C 5.921875 -6.054688 5.742188 -7.101562 5.390625 -7.78125 C 5.046875 -8.457031 4.53125 -8.796875 3.84375 -8.796875 Z M 3.84375 -8.796875 "/>
</g>
<g id="glyph-10-0-b1ed94dc">
<path d="M 1.4375 -1.171875 C 1.632812 -1.171875 1.796875 -1.109375 1.921875 -0.984375 C 2.046875 -0.859375 2.109375 -0.703125 2.109375 -0.515625 C 2.109375 -0.316406 2.046875 -0.15625 1.921875 -0.03125 C 1.796875 0.09375 1.632812 0.15625 1.4375 0.15625 C 1.25 0.15625 1.085938 0.09375 0.953125 -0.03125 C 0.828125 -0.164062 0.765625 -0.328125 0.765625 -0.515625 C 0.765625 -0.703125 0.828125 -0.859375 0.953125 -0.984375 C 1.085938 -1.109375 1.25 -1.171875 1.4375 -1.171875 Z M 1.4375 -1.171875 "/>
</g>
<g id="glyph-11-0-b1ed94dc">
<path d="M 3.09375 -9.46875 C 3.613281 -9.46875 4.066406 -9.363281 4.453125 -9.15625 C 4.847656 -8.945312 5.144531 -8.664062 5.34375 -8.3125 C 5.550781 -7.96875 5.65625 -7.578125 5.65625 -7.140625 C 5.65625 -6.535156 5.484375 -6.039062 5.140625 -5.65625 C 4.804688 -5.28125 4.367188 -5.046875 3.828125 -4.953125 C 4.429688 -4.921875 4.929688 -4.703125 5.328125 -4.296875 C 5.722656 -3.898438 5.921875 -3.34375 5.921875 -2.625 C 5.921875 -2.082031 5.796875 -1.601562 5.546875 -1.1875 C 5.304688 -0.769531 4.960938 -0.441406 4.515625 -0.203125 C 4.066406 0.0351562 3.546875 0.15625 2.953125 0.15625 C 1.867188 0.15625 0.976562 -0.242188 0.28125 -1.046875 L 0.796875 -1.515625 C 1.117188 -1.171875 1.445312 -0.921875 1.78125 -0.765625 C 2.125 -0.609375 2.503906 -0.53125 2.921875 -0.53125 C 3.597656 -0.53125 4.125 -0.722656 4.5 -1.109375 C 4.882812 -1.492188 5.078125 -2 5.078125 -2.625 C 5.078125 -3.925781 4.378906 -4.578125 2.984375 -4.578125 L 2.359375 -4.578125 L 2.484375 -5.234375 L 2.921875 -5.234375 C 3.453125 -5.234375 3.90625 -5.394531 4.28125 -5.71875 C 4.65625 -6.039062 4.84375 -6.5 4.84375 -7.09375 C 4.84375 -7.613281 4.675781 -8.023438 4.34375 -8.328125 C 4.019531 -8.628906 3.585938 -8.78125 3.046875 -8.78125 C 2.660156 -8.78125 2.300781 -8.710938 1.96875 -8.578125 C 1.644531 -8.441406 1.316406 -8.21875 0.984375 -7.90625 L 0.546875 -8.40625 C 0.921875 -8.769531 1.3125 -9.035156 1.71875 -9.203125 C 2.132812 -9.378906 2.59375 -9.46875 3.09375 -9.46875 Z M 3.09375 -9.46875 "/>
</g>
<g id="glyph-12-0-b1ed94dc">
<path d="M 4.0625 -7.609375 C 4.539062 -7.609375 4.972656 -7.539062 5.359375 -7.40625 C 5.753906 -7.269531 6.125 -7.050781 6.46875 -6.75 L 5.671875 -5.671875 C 5.421875 -5.859375 5.175781 -5.992188 4.9375 -6.078125 C 4.707031 -6.160156 4.453125 -6.203125 4.171875 -6.203125 C 3.054688 -6.203125 2.5 -5.359375 2.5 -3.671875 C 2.5 -2.804688 2.644531 -2.1875 2.9375 -1.8125 C 3.226562 -1.4375 3.640625 -1.25 4.171875 -1.25 C 4.429688 -1.25 4.671875 -1.289062 4.890625 -1.375 C 5.109375 -1.457031 5.367188 -1.59375 5.671875 -1.78125 L 6.46875 -0.640625 C 5.769531 -0.078125 4.972656 0.203125 4.078125 0.203125 C 3.367188 0.203125 2.75 0.046875 2.21875 -0.265625 C 1.695312 -0.578125 1.296875 -1.019531 1.015625 -1.59375 C 0.742188 -2.175781 0.609375 -2.859375 0.609375 -3.640625 C 0.609375 -4.421875 0.742188 -5.113281 1.015625 -5.71875 C 1.296875 -6.320312 1.695312 -6.785156 2.21875 -7.109375 C 2.75 -7.441406 3.363281 -7.609375 4.0625 -7.609375 Z M 4.0625 -7.609375 "/>
</g>
<g id="glyph-13-0-b1ed94dc">
<path d="M 4.5 -7.46875 C 5.34375 -7.46875 6 -7.140625 6.46875 -6.484375 C 6.9375 -5.835938 7.171875 -4.910156 7.171875 -3.703125 C 7.171875 -2.515625 6.925781 -1.570312 6.4375 -0.875 C 5.945312 -0.1875 5.257812 0.15625 4.375 0.15625 C 3.9375 0.15625 3.535156 0.0546875 3.171875 -0.140625 C 2.816406 -0.335938 2.519531 -0.597656 2.28125 -0.921875 L 2.203125 0 L 1.484375 0 L 1.484375 -10.296875 L 2.296875 -10.40625 L 2.296875 -6.296875 C 2.867188 -7.078125 3.601562 -7.46875 4.5 -7.46875 Z M 4.234375 -0.515625 C 4.890625 -0.515625 5.394531 -0.78125 5.75 -1.3125 C 6.113281 -1.851562 6.296875 -2.648438 6.296875 -3.703125 C 6.296875 -5.765625 5.640625 -6.796875 4.328125 -6.796875 C 3.890625 -6.796875 3.507812 -6.6875 3.1875 -6.46875 C 2.875 -6.25 2.578125 -5.941406 2.296875 -5.546875 L 2.296875 -1.6875 C 2.523438 -1.320312 2.800781 -1.035156 3.125 -0.828125 C 3.457031 -0.617188 3.828125 -0.515625 4.234375 -0.515625 Z M 4.234375 -0.515625 "/>
</g>
</g>
</defs>
<rect x="-60" y="-45" width="720" height="540" fill="rgb(100%, 100%, 100%)" fill-opacity="1"/>
<path fill-rule="nonzero" fill="rgb(100%, 100%, 100%)" fill-opacity="1" d="M 65 390 L 533 390 L 533 16 L 65 16 Z M 65 390 "/>
<g fill="rgb(0%, 0%, 0%)" fill-opacity="1">
<use xlink:href="#glyph-0-0-b1ed94dc" x="295.5" y="430.890015"/>
</g>
<g fill="rgb(0%, 0%, 0%)" fill-opacity="1">
<use xlink:href="#glyph-1-0-b1ed94dc" x="102.471367" y="411.089996"/>
</g>
<g fill="rgb(0%, 0%, 0%)" fill-opacity="1">
<use xlink:href="#glyph-2-0-b1ed94dc" x="109.373367" y="411.089996"/>
</g>
<g fill="rgb(0%, 0%, 0%)" fill-opacity="1">
<use xlink:href="#glyph-3-0-b1ed94dc" x="116.079353" y="411.089996"/>
</g>
<g fill="rgb(0%, 0%, 0%)" fill-opacity="1">
<use xlink:href="#glyph-1-1-b1ed94dc" x="118.977356" y="411.089996"/>
</g>
<g fill="rgb(0%, 0%, 0%)" fill-opacity="1">
<use xlink:href="#glyph-1-2-b1ed94dc" x="263.998505" y="411.089996"/>
</g>
<g fill="rgb(0%, 0%, 0%)" fill-opacity="1">
<use xlink:href="#glyph-1-3-b1ed94dc" x="271.698517" y="411.089996"/>
</g>
<g fill="rgb(0%, 0%, 0%)" fill-opacity="1">
<use xlink:href="#glyph-1-2-b1ed94dc" x="274.596527" y="411.089996"/>
</g>
<g fill="rgb(0%, 0%, 0%)" fill-opacity="1">
<use xlink:href="#glyph-1-4-b1ed94dc" x="423.950684" y="411.089996"/>
</g>
<g fill="rgb(0%, 0%, 0%)" fill-opacity="1">
<use xlink:href="#glyph-4-0-b1ed94dc" x="430.656708" y="411.089996"/>
</g>
<g fill="rgb(0%, 0%, 0%)" fill-opacity="1">
<use xlink:href="#glyph-1-1-b1ed94dc" x="433.554688" y="411.089996"/>
</g>
<g fill="rgb(0%, 0%, 0%)" fill-opacity="1">
<use xlink:href="#glyph-5-0-b1ed94dc" x="27.991999" y="213.794006"/>
</g>
<g fill="rgb(0%, 0%, 0%)" fill-opacity="1">
<use xlink:href="#glyph-6-0-b1ed94dc" x="27.991999" y="205.449997"/>
</g>
<g fill="rgb(0%, 0%, 0%)" fill-opacity="1">
<use xlink:href="#glyph-6-1-b1ed94dc" x="27.991999" y="197.063995"/>
</g>
<g fill="rgb(0%, 0%, 0%)" fill-opacity="1">
<use xlink:href="#glyph-2-1-b1ed94dc" x="36.702007" y="377.690002"/>
</g>
<g fill="rgb(0%, 0%, 0%)" fill-opacity="1">
<use xlink:href="#glyph-7-0-b1ed94dc" x="44.402004" y="377.690002"/>
</g>
<g fill="rgb(0%, 0%, 0%)" fill-opacity="1">
<use xlink:href="#glyph-8-0-b1ed94dc" x="47.300003" y="377.690002"/>
</g>
<g fill="rgb(0%, 0%, 0%)" fill-opacity="1">
<use xlink:href="#glyph-7-1-b1ed94dc" x="38.620003" y="285.395081"/>
</g>
<g fill="rgb(0%, 0%, 0%)" fill-opacity="1">
<use xlink:href="#glyph-3-0-b1ed94dc" x="46.319996" y="285.395081"/>
</g>
<g fill="rgb(0%, 0%, 0%)" fill-opacity="1">
<use xlink:href="#glyph-7-2-b1ed94dc" x="49.217999" y="285.395081"/>
</g>
<g fill="rgb(0%, 0%, 0%)" fill-opacity="1">
<use xlink:href="#glyph-7-1-b1ed94dc" x="37.695999" y="193.100159"/>
</g>
<g fill="rgb(0%, 0%, 0%)" fill-opacity="1">
<use xlink:href="#glyph-7-0-b1ed94dc" x="45.395996" y="193.100159"/>
</g>
<g fill="rgb(0%, 0%, 0%)" fill-opacity="1">
<use xlink:href="#glyph-7-3-b1ed94dc" x="48.293995" y="193.100159"/>
</g>
<g fill="rgb(0%, 0%, 0%)" fill-opacity="1">
<use xlink:href="#glyph-9-0-b1ed94dc" x="37.598007" y="100.805237"/>
</g>
<g fill="rgb(0%, 0%, 0%)" fill-opacity="1">
<use xlink:href="#glyph-10-0-b1ed94dc" x="45.298004" y="100.805237"/>
</g>
<g fill="rgb(0%, 0%, 0%)" fill-opacity="1">
<use xlink:href="#glyph-11-0-b1ed94dc" x="48.196007" y="100.805237"/>
</g>
<path fill="none" stroke-width="1.5" stroke-linecap="butt" stroke-linejoin="miter" stroke="rgb(0%, 44.705883%, 69.803923%)" stroke-opacity="1" stroke-miterlimit="2" d="M 86.273438 363.417969 L 88.410156 362.464844 L 90.546875 361.441406 L 92.6875 360.347656 L 94.824219 359.175781 L 96.960938 357.925781 L 99.101562 356.59375 L 101.238281 355.179688 L 103.375 353.675781 L 105.515625 352.082031 L 107.652344 350.398438 L 109.789062 348.617188 L 111.929688 346.738281 L 114.066406 344.757812 L 116.203125 342.679688 L 118.34375 340.492188 L 120.480469 338.199219 L 122.617188 335.800781 L 124.757812 333.292969 L 126.894531 330.671875 L 129.03125 327.941406 L 131.171875 325.101562 L 133.308594 322.148438 L 135.445312 319.082031 L 137.582031 315.90625 L 139.722656 312.617188 L 141.859375 309.21875 L 143.996094 305.710938 L 146.136719 302.097656 L 148.273438 298.378906 L 150.410156 294.554688 L 152.550781 290.625 L 154.6875 286.597656 L 156.824219 282.472656 L 158.964844 278.25 L 161.101562 273.929688 L 163.238281 269.519531 L 165.378906 265.015625 L 167.515625 260.417969 L 169.652344 255.734375 L 171.792969 250.960938 L 173.929688 246.097656 L 176.066406 241.148438 L 178.207031 236.109375 L 180.34375 230.984375 L 182.480469 225.769531 L 184.617188 220.464844 L 186.757812 215.074219 L 188.894531 209.589844 L 191.03125 204.019531 L 193.171875 198.363281 L 195.308594 192.617188 L 197.445312 186.789062 L 199.585938 180.875 L 201.722656 174.886719 L 203.859375 168.824219 L 206 162.695312 L 208.136719 156.511719 L 210.273438 150.277344 L 212.414062 144.011719 L 214.550781 137.71875 L 216.6875 131.421875 L 218.828125 125.132812 L 220.964844 118.875 L 223.101562 112.664062 L 225.242188 106.527344 L 227.378906 100.480469 L 229.515625 94.554688 L 231.652344 88.773438 L 233.792969 83.15625 L 235.929688 77.734375 L 238.066406 72.53125 L 240.207031 67.570312 L 242.34375 62.878906 L 244.480469 58.46875 L 246.621094 54.371094 L 248.757812 50.597656 L 250.894531 47.167969 L 253.035156 44.089844 L 255.171875 41.382812 L 257.308594 39.046875 L 259.449219 37.089844 L 261.585938 35.519531 L 263.722656 34.328125 L 265.863281 33.515625 L 268 33.074219 L 270.136719 33 L 272.277344 33.28125 L 274.414062 33.90625 L 276.550781 34.859375 L 278.6875 36.128906 L 280.828125 37.699219 L 282.964844 39.554688 L 285.101562 41.679688 L 287.242188 44.0625 L 289.378906 46.679688 L 291.515625 49.527344 L 293.65625 52.582031 L 295.792969 55.839844 L 297.929688 59.289062 L 300.070312 62.917969 L 302.207031 66.71875 L 304.34375 70.683594 L 306.484375 74.8125 L 308.621094 79.097656 L 310.757812 83.539062 L 312.898438 88.132812 L 315.035156 92.878906 L 317.171875 97.777344 L 319.3125 102.824219 L 321.449219 108.023438 L 323.585938 113.371094 L 325.722656 118.867188 L 327.863281 124.507812 L 330 130.292969 L 332.136719 136.214844 L 334.277344 142.273438 L 336.414062 148.453125 L 338.550781 154.75 L 340.691406 161.15625 L 342.828125 167.652344 L 344.964844 174.234375 L 347.105469 180.878906 L 349.242188 187.578125 L 351.378906 194.304688 L 353.519531 201.050781 L 355.65625 207.789062 L 357.792969 214.507812 L 359.933594 221.183594 L 362.070312 227.796875 L 364.207031 234.328125 L 366.347656 240.757812 L 368.484375 247.074219 L 370.621094 253.253906 L 372.757812 259.285156 L 374.898438 265.152344 L 377.035156 270.84375 L 379.171875 276.347656 L 381.3125 281.652344 L 383.449219 286.757812 L 385.585938 291.652344 L 387.726562 296.335938 L 389.863281 300.800781 L 392 305.050781 L 394.140625 309.089844 L 396.277344 312.914062 L 398.414062 316.53125 L 400.554688 319.949219 L 402.691406 323.167969 L 404.828125 326.199219 L 406.96875 329.046875 L 409.105469 331.726562 L 411.242188 334.238281 L 413.382812 336.59375 L 415.519531 338.804688 L 417.65625 340.878906 L 419.792969 342.828125 L 421.933594 344.65625 L 424.070312 346.371094 L 426.207031 347.988281 L 428.347656 349.507812 L 430.484375 350.9375 L 432.621094 352.289062 L 434.761719 353.566406 L 436.898438 354.777344 L 439.035156 355.921875 L 441.175781 357.007812 L 443.3125 358.039062 L 445.449219 359.015625 L 447.589844 359.949219 L 449.726562 360.832031 L 451.863281 361.675781 L 454.003906 362.476562 L 456.140625 363.238281 L 458.277344 363.960938 L 460.417969 364.648438 L 462.554688 365.300781 L 464.691406 365.914062 L 466.828125 366.496094 L 468.96875 367.046875 L 471.105469 367.5625 L 473.242188 368.050781 L 475.382812 368.503906 L 477.519531 368.929688 L 479.65625 369.324219 L 481.796875 369.691406 L 483.933594 370.03125 L 486.070312 370.34375 L 488.210938 370.632812 L 490.347656 370.898438 L 492.484375 371.136719 L 494.625 371.355469 L 496.761719 371.554688 L 498.898438 371.734375 L 501.039062 371.894531 L 503.175781 372.039062 L 505.3125 372.164062 L 507.453125 372.28125 L 509.589844 372.378906 L 511.726562 372.46875 "/>
<path fill-rule="nonzero" fill="rgb(0%, 44.705883%, 69.803923%)" fill-opacity="0.15" d="M 86.273438 363.417969 L 88.410156 362.464844 L 90.546875 361.441406 L 92.6875 360.347656 L 94.824219 359.175781 L 96.960938 357.925781 L 99.101562 356.59375 L 101.238281 355.179688 L 103.375 353.675781 L 105.515625 352.082031 L 107.652344 350.398438 L 109.789062 348.617188 L 111.929688 346.738281 L 114.066406 344.757812 L 116.203125 342.679688 L 118.34375 340.492188 L 120.480469 338.199219 L 122.617188 335.800781 L 124.757812 333.292969 L 126.894531 330.671875 L 129.03125 327.941406 L 131.171875 325.101562 L 133.308594 322.148438 L 135.445312 319.082031 L 137.582031 315.90625 L 139.722656 312.617188 L 141.859375 309.21875 L 143.996094 305.710938 L 146.136719 302.097656 L 148.273438 298.378906 L 150.410156 294.554688 L 152.550781 290.625 L 154.6875 286.597656 L 156.824219 282.472656 L 158.964844 278.25 L 161.101562 273.929688 L 163.238281 269.519531 L 165.378906 265.015625 L 167.515625 260.417969 L 169.652344 255.734375 L 171.792969 250.960938 L 173.929688 246.097656 L 176.066406 241.148438 L 178.207031 236.109375 L 180.34375 230.984375 L 182.480469 225.769531 L 184.617188 220.464844 L 186.757812 215.074219 L 188.894531 209.589844 L 191.03125 204.019531 L 193.171875 198.363281 L 195.308594 192.617188 L 197.445312 186.789062 L 199.585938 180.875 L 201.722656 174.886719 L 203.859375 168.824219 L 206 162.695312 L 208.136719 156.511719 L 210.273438 150.277344 L 212.414062 144.011719 L 214.550781 137.71875 L 216.6875 131.421875 L 218.828125 125.132812 L 220.964844 118.875 L 223.101562 112.664062 L 225.242188 106.527344 L 227.378906 100.480469 L 229.515625 94.554688 L 231.652344 88.773438 L 233.792969 83.15625 L 235.929688 77.734375 L 238.066406 72.53125 L 240.207031 67.570312 L 242.34375 62.878906 L 244.480469 58.46875 L 246.621094 54.371094 L 248.757812 50.597656 L 250.894531 47.167969 L 253.035156 44.089844 L 255.171875 41.382812 L 257.308594 39.046875 L 259.449219 37.089844 L 261.585938 35.519531 L 263.722656 34.328125 L 265.863281 33.515625 L 268 33.074219 L 270.136719 33 L 272.277344 33.28125 L 274.414062 33.90625 L 276.550781 34.859375 L 278.6875 36.128906 L 280.828125 37.699219 L 282.964844 39.554688 L 285.101562 41.679688 L 287.242188 44.0625 L 289.378906 46.679688 L 291.515625 49.527344 L 293.65625 52.582031 L 295.792969 55.839844 L 297.929688 59.289062 L 300.070312 62.917969 L 302.207031 66.71875 L 304.34375 70.683594 L 306.484375 74.8125 L 308.621094 79.097656 L 310.757812 83.539062 L 312.898438 88.132812 L 315.035156 92.878906 L 317.171875 97.777344 L 319.3125 102.824219 L 321.449219 108.023438 L 323.585938 113.371094 L 325.722656 118.867188 L 327.863281 124.507812 L 330 130.292969 L 332.136719 136.214844 L 334.277344 142.273438 L 336.414062 148.453125 L 338.550781 154.75 L 340.691406 161.15625 L 342.828125 167.652344 L 344.964844 174.234375 L 347.105469 180.878906 L 349.242188 187.578125 L 351.378906 194.304688 L 353.519531 201.050781 L 355.65625 207.789062 L 357.792969 214.507812 L 359.933594 221.183594 L 362.070312 227.796875 L 364.207031 234.328125 L 366.347656 240.757812 L 368.484375 247.074219 L 370.621094 253.253906 L 372.757812 259.285156 L 374.898438 265.152344 L 377.035156 270.84375 L 379.171875 276.347656 L 381.3125 281.652344 L 383.449219 286.757812 L 385.585938 291.652344 L 387.726562 296.335938 L 389.863281 300.800781 L 392 305.050781 L 394.140625 309.089844 L 396.277344 312.914062 L 398.414062 316.53125 L 400.554688 319.949219 L 402.691406 323.167969 L 404.828125 326.199219 L 406.96875 329.046875 L 409.105469 331.726562 L 411.242188 334.238281 L 413.382812 336.59375 L 415.519531 338.804688 L 417.65625 340.878906 L 419.792969 342.828125 L 421.933594 344.65625 L 424.070312 346.371094 L 426.207031 347.988281 L 428.347656 349.507812 L 430.484375 350.9375 L 432.621094 352.289062 L 434.761719 353.566406 L 436.898438 354.777344 L 439.035156 355.921875 L 441.175781 357.007812 L 443.3125 358.039062 L 445.449219 359.015625 L 447.589844 359.949219 L 449.726562 360.832031 L 451.863281 361.675781 L 454.003906 362.476562 L 456.140625 363.238281 L 458.277344 363.960938 L 460.417969 364.648438 L 462.554688 365.300781 L 464.691406 365.914062 L 466.828125 366.496094 L 468.96875 367.046875 L 471.105469 367.5625 L 473.242188 368.050781 L 475.382812 368.503906 L 477.519531 368.929688 L 479.65625 369.324219 L 481.796875 369.691406 L 483.933594 370.03125 L 486.070312 370.34375 L 488.210938 370.632812 L 490.347656 370.898438 L 492.484375 371.136719 L 494.625 371.355469 L 496.761719 371.554688 L 498.898438 371.734375 L 501.039062 371.894531 L 503.175781 372.039062 L 505.3125 372.164062 L 507.453125 372.28125 L 509.589844 372.378906 L 511.726562 372.46875 L 511.726562 373 L 86.273438 373 Z M 86.273438 363.417969 "/>
<path fill="none" stroke-width="1.5" stroke-linecap="butt" stroke-linejoin="miter" stroke="rgb(90.196079%, 62.352943%, 0%)" stroke-opacity="1" stroke-miterlimit="2" d="M 86.273438 358.667969 L 88.410156 357.578125 L 90.546875 356.429688 L 92.6875 355.21875 L 94.824219 353.941406 L 96.960938 352.601562 L 99.101562 351.191406 L 101.238281 349.710938 L 103.375 348.15625 L 105.515625 346.523438 L 107.652344 344.8125 L 109.789062 343.023438 L 111.929688 341.144531 L 114.066406 339.183594 L 116.203125 337.128906 L 118.34375 334.984375 L 120.480469 332.742188 L 122.617188 330.40625 L 124.757812 327.96875 L 126.894531 325.429688 L 129.03125 322.789062 L 131.171875 320.039062 L 133.308594 317.179688 L 135.445312 314.214844 L 137.582031 311.132812 L 139.722656 307.941406 L 141.859375 304.632812 L 143.996094 301.207031 L 146.136719 297.664062 L 148.273438 294.003906 L 150.410156 290.222656 L 152.550781 286.324219 L 154.6875 282.308594 L 156.824219 278.171875 L 158.964844 273.917969 L 161.101562 269.550781 L 163.238281 265.066406 L 165.378906 260.472656 L 167.515625 255.769531 L 169.652344 250.960938 L 171.792969 246.046875 L 173.929688 241.039062 L 176.066406 235.941406 L 178.207031 230.753906 L 180.34375 225.484375 L 182.480469 220.144531 L 184.617188 214.734375 L 186.757812 209.265625 L 188.894531 203.746094 L 191.03125 198.183594 L 193.171875 192.582031 L 195.308594 186.960938 L 197.445312 181.320312 L 199.585938 175.675781 L 201.722656 170.03125 L 203.859375 164.40625 L 206 158.804688 L 208.136719 153.242188 L 210.273438 147.726562 L 212.414062 142.273438 L 214.550781 136.894531 L 216.6875 131.597656 L 218.828125 126.398438 L 220.964844 121.3125 L 223.101562 116.347656 L 225.242188 111.515625 L 227.378906 106.835938 L 229.515625 102.316406 L 231.652344 97.972656 L 233.792969 93.8125 L 235.929688 89.847656 L 238.066406 86.09375 L 240.207031 82.554688 L 242.34375 79.246094 L 244.480469 76.175781 L 246.621094 73.347656 L 248.757812 70.773438 L 250.894531 68.449219 L 253.035156 66.390625 L 255.171875 64.59375 L 257.308594 63.058594 L 259.449219 61.789062 L 261.585938 60.785156 L 263.722656 60.039062 L 265.863281 59.550781 L 268 59.3125 L 270.136719 59.320312 L 272.277344 59.570312 L 274.414062 60.050781 L 276.550781 60.753906 L 278.6875 61.675781 L 280.828125 62.804688 L 282.964844 64.132812 L 285.101562 65.652344 L 287.242188 67.355469 L 289.378906 69.230469 L 291.515625 71.273438 L 293.65625 73.480469 L 295.792969 75.84375 L 297.929688 78.359375 L 300.070312 81.023438 L 302.207031 83.828125 L 304.34375 86.78125 L 306.484375 89.871094 L 308.621094 93.105469 L 310.757812 96.480469 L 312.898438 99.996094 L 315.035156 103.65625 L 317.171875 107.460938 L 319.3125 111.410156 L 321.449219 115.507812 L 323.585938 119.753906 L 325.722656 124.148438 L 327.863281 128.691406 L 330 133.386719 L 332.136719 138.222656 L 334.277344 143.207031 L 336.414062 148.332031 L 338.550781 153.589844 L 340.691406 158.980469 L 342.828125 164.488281 L 344.964844 170.113281 L 347.105469 175.839844 L 349.242188 181.660156 L 351.378906 187.558594 L 353.519531 193.527344 L 355.65625 199.546875 L 357.792969 205.601562 L 359.933594 211.679688 L 362.070312 217.765625 L 364.207031 223.839844 L 366.347656 229.890625 L 368.484375 235.898438 L 370.621094 241.847656 L 372.757812 247.722656 L 374.898438 253.511719 L 377.035156 259.195312 L 379.171875 264.765625 L 381.3125 270.203125 L 383.449219 275.503906 L 385.585938 280.652344 L 387.726562 285.640625 L 389.863281 290.460938 L 392 295.105469 L 394.140625 299.566406 L 396.277344 303.847656 L 398.414062 307.933594 L 400.554688 311.832031 L 402.691406 315.539062 L 404.828125 319.050781 L 406.96875 322.375 L 409.105469 325.511719 L 411.242188 328.464844 L 413.382812 331.234375 L 415.519531 333.832031 L 417.65625 336.257812 L 419.792969 338.519531 L 421.933594 340.628906 L 424.070312 342.585938 L 426.207031 344.402344 L 428.347656 346.085938 L 430.484375 347.648438 L 432.621094 349.089844 L 434.761719 350.425781 L 436.898438 351.660156 L 439.035156 352.804688 L 441.175781 353.863281 L 443.3125 354.847656 L 445.449219 355.761719 L 447.589844 356.613281 L 449.726562 357.410156 L 451.863281 358.15625 L 454.003906 358.855469 L 456.140625 359.519531 L 458.277344 360.144531 L 460.417969 360.742188 L 462.554688 361.308594 L 464.691406 361.851562 L 466.828125 362.371094 L 468.96875 362.871094 L 471.105469 363.351562 L 473.242188 363.8125 L 475.382812 364.257812 L 477.519531 364.691406 L 479.65625 365.105469 L 481.796875 365.507812 L 483.933594 365.894531 L 486.070312 366.265625 L 488.210938 366.625 L 490.347656 366.96875 L 492.484375 367.300781 L 494.625 367.617188 L 496.761719 367.921875 L 498.898438 368.210938 L 501.039062 368.488281 L 503.175781 368.75 L 505.3125 369.003906 L 507.453125 369.242188 L 509.589844 369.46875 L 511.726562 369.6875 "/>
<path fill-rule="nonzero" fill="rgb(90.196079%, 62.352943%, 0%)" fill-opacity="0.15" d="M 86.273438 358.667969 L 88.410156 357.578125 L 90.546875 356.429688 L 92.6875 355.21875 L 94.824219 353.941406 L 96.960938 352.601562 L 99.101562 351.191406 L 101.238281 349.710938 L 103.375 348.15625 L 105.515625 346.523438 L 107.652344 344.8125 L 109.789062 343.023438 L 111.929688 341.144531 L 114.066406 339.183594 L 116.203125 337.128906 L 118.34375 334.984375 L 120.480469 332.742188 L 122.617188 330.40625 L 124.757812 327.96875 L 126.894531 325.429688 L 129.03125 322.789062 L 131.171875 320.039062 L 133.308594 317.179688 L 135.445312 314.214844 L 137.582031 311.132812 L 139.722656 307.941406 L 141.859375 304.632812 L 143.996094 301.207031 L 146.136719 297.664062 L 148.273438 294.003906 L 150.410156 290.222656 L 152.550781 286.324219 L 154.6875 282.308594 L 156.824219 278.171875 L 158.964844 273.917969 L 161.101562 269.550781 L 163.238281 265.066406 L 165.378906 260.472656 L 167.515625 255.769531 L 169.652344 250.960938 L 171.792969 246.046875 L 173.929688 241.039062 L 176.066406 235.941406 L 178.207031 230.753906 L 180.34375 225.484375 L 182.480469 220.144531 L 184.617188 214.734375 L 186.757812 209.265625 L 188.894531 203.746094 L 191.03125 198.183594 L 193.171875 192.582031 L 195.308594 186.960938 L 197.445312 181.320312 L 199.585938 175.675781 L 201.722656 170.03125 L 203.859375 164.40625 L 206 158.804688 L 208.136719 153.242188 L 210.273438 147.726562 L 212.414062 142.273438 L 214.550781 136.894531 L 216.6875 131.597656 L 218.828125 126.398438 L 220.964844 121.3125 L 223.101562 116.347656 L 225.242188 111.515625 L 227.378906 106.835938 L 229.515625 102.316406 L 231.652344 97.972656 L 233.792969 93.8125 L 235.929688 89.847656 L 238.066406 86.09375 L 240.207031 82.554688 L 242.34375 79.246094 L 244.480469 76.175781 L 246.621094 73.347656 L 248.757812 70.773438 L 250.894531 68.449219 L 253.035156 66.390625 L 255.171875 64.59375 L 257.308594 63.058594 L 259.449219 61.789062 L 261.585938 60.785156 L 263.722656 60.039062 L 265.863281 59.550781 L 268 59.3125 L 270.136719 59.320312 L 272.277344 59.570312 L 274.414062 60.050781 L 276.550781 60.753906 L 278.6875 61.675781 L 280.828125 62.804688 L 282.964844 64.132812 L 285.101562 65.652344 L 287.242188 67.355469 L 289.378906 69.230469 L 291.515625 71.273438 L 293.65625 73.480469 L 295.792969 75.84375 L 297.929688 78.359375 L 300.070312 81.023438 L 302.207031 83.828125 L 304.34375 86.78125 L 306.484375 89.871094 L 308.621094 93.105469 L 310.757812 96.480469 L 312.898438 99.996094 L 315.035156 103.65625 L 317.171875 107.460938 L 319.3125 111.410156 L 321.449219 115.507812 L 323.585938 119.753906 L 325.722656 124.148438 L 327.863281 128.691406 L 330 133.386719 L 332.136719 138.222656 L 334.277344 143.207031 L 336.414062 148.332031 L 338.550781 153.589844 L 340.691406 158.980469 L 342.828125 164.488281 L 344.964844 170.113281 L 347.105469 175.839844 L 349.242188 181.660156 L 351.378906 187.558594 L 353.519531 193.527344 L 355.65625 199.546875 L 357.792969 205.601562 L 359.933594 211.679688 L 362.070312 217.765625 L 364.207031 223.839844 L 366.347656 229.890625 L 368.484375 235.898438 L 370.621094 241.847656 L 372.757812 247.722656 L 374.898438 253.511719 L 377.035156 259.195312 L 379.171875 264.765625 L 381.3125 270.203125 L 383.449219 275.503906 L 385.585938 280.652344 L 387.726562 285.640625 L 389.863281 290.460938 L 392 295.105469 L 394.140625 299.566406 L 396.277344 303.847656 L 398.414062 307.933594 L 400.554688 311.832031 L 402.691406 315.539062 L 404.828125 319.050781 L 406.96875 322.375 L 409.105469 325.511719 L 411.242188 328.464844 L 413.382812 331.234375 L 415.519531 333.832031 L 417.65625 336.257812 L 419.792969 338.519531 L 421.933594 340.628906 L 424.070312 342.585938 L 426.207031 344.402344 L 428.347656 346.085938 L 430.484375 347.648438 L 432.621094 349.089844 L 434.761719 350.425781 L 436.898438 351.660156 L 439.035156 352.804688 L 441.175781 353.863281 L 443.3125 354.847656 L 445.449219 355.761719 L 447.589844 356.613281 L 449.726562 357.410156 L 451.863281 358.15625 L 454.003906 358.855469 L 456.140625 359.519531 L 458.277344 360.144531 L 460.417969 360.742188 L 462.554688 361.308594 L 464.691406 361.851562 L 466.828125 362.371094 L 468.96875 362.871094 L 471.105469 363.351562 L 473.242188 363.8125 L 475.382812 364.257812 L 477.519531 364.691406 L 479.65625 365.105469 L 481.796875 365.507812 L 483.933594 365.894531 L 486.070312 366.265625 L 488.210938 366.625 L 490.347656 366.96875 L 492.484375 367.300781 L 494.625 367.617188 L 496.761719 367.921875 L 498.898438 368.210938 L 501.039062 368.488281 L 503.175781 368.75 L 505.3125 369.003906 L 507.453125 369.242188 L 509.589844 369.46875 L 511.726562 369.6875 L 511.726562 373 L 86.273438 373 Z M 86.273438 358.667969 "/>
<path fill="none" stroke-width="1" stroke-linecap="butt" stroke-linejoin="miter" stroke="rgb(66.274512%, 66.274512%, 66.274512%)" stroke-opacity="1" stroke-miterlimit="1.154701" d="M 114.132812 390.5 L 114.132812 395.5 "/>
<path fill="none" stroke-width="1" stroke-linecap="butt" stroke-linejoin="miter" stroke="rgb(66.274512%, 66.274512%, 66.274512%)" stroke-opacity="1" stroke-miterlimit="1.154701" d="M 273.148438 390.5 L 273.148438 395.5 "/>
<path fill="none" stroke-width="1" stroke-linecap="butt" stroke-linejoin="miter" stroke="rgb(66.274512%, 66.274512%, 66.274512%)" stroke-opacity="1" stroke-miterlimit="1.154701" d="M 432.160156 390.5 L 432.160156 395.5 "/>
<path fill="none" stroke-width="1" stroke-linecap="butt" stroke-linejoin="miter" stroke="rgb(66.274512%, 66.274512%, 66.274512%)" stroke-opacity="1" stroke-miterlimit="1.154701" d="M 64.5 373 L 59.5 373 "/>
<path fill="none" stroke-width="1" stroke-linecap="butt" stroke-linejoin="miter" stroke="rgb(66.274512%, 66.274512%, 66.274512%)" stroke-opacity="1" stroke-miterlimit="1.154701" d="M 64.5 280.703125 L 59.5 280.703125 "/>
<path fill="none" stroke-width="1" stroke-linecap="butt" stroke-linejoin="miter" stroke="rgb(66.274512%, 66.274512%, 66.274512%)" stroke-opacity="1" stroke-miterlimit="1.154701" d="M 64.5 188.410156 L 59.5 188.410156 "/>
<path fill="none" stroke-width="1" stroke-linecap="butt" stroke-linejoin="miter" stroke="rgb(66.274512%, 66.274512%, 66.274512%)" stroke-opacity="1" stroke-miterlimit="1.154701" d="M 64.5 96.113281 L 59.5 96.113281 "/>
<path fill-rule="nonzero" fill="rgb(0%, 44.705883%, 69.803923%)" fill-opacity="0.15" d="M 550.933594 213.898438 L 570.933594 213.898438 L 570.933594 193.898438 L 550.933594 193.898438 Z M 550.933594 213.898438 "/>
<path fill="none" stroke-width="1.5" stroke-linecap="butt" stroke-linejoin="miter" stroke="rgb(0%, 44.705883%, 69.803923%)" stroke-opacity="1" stroke-miterlimit="2" d="M 550.933594 203.898438 L 570.933594 203.898438 "/>
<path fill-rule="nonzero" fill="rgb(90.196079%, 62.352943%, 0%)" fill-opacity="0.15" d="M 550.933594 236.898438 L 570.933594 236.898438 L 570.933594 216.898438 L 550.933594 216.898438 Z M 550.933594 236.898438 "/>
<path fill="none" stroke-width="1.5" stroke-linecap="butt" stroke-linejoin="miter" stroke="rgb(90.196079%, 62.352943%, 0%)" stroke-opacity="1" stroke-miterlimit="2" d="M 550.933594 226.898438 L 570.933594 226.898438 "/>
<g fill="rgb(0%, 0%, 0%)" fill-opacity="1">
<use xlink:href="#glyph-12-0-b1ed94dc" x="564.153992" y="182.189972"/>
</g>
<g fill="rgb(0%, 0%, 0%)" fill-opacity="1">
<use xlink:href="#glyph-1-5-b1ed94dc" x="575.932983" y="208.589966"/>
</g>
<g fill="rgb(0%, 0%, 0%)" fill-opacity="1">
<use xlink:href="#glyph-13-0-b1ed94dc" x="575.932983" y="231.589966"/>
</g>
<path fill="none" stroke-width="1" stroke-linecap="butt" stroke-linejoin="miter" stroke="rgb(66.274512%, 66.274512%, 66.274512%)" stroke-opacity="1" stroke-miterlimit="1.154701" d="M 64.5 390 L 533.5 390 "/>
<path fill="none" stroke-width="1" stroke-linecap="butt" stroke-linejoin="miter" stroke="rgb(66.274512%, 66.274512%, 66.274512%)" stroke-opacity="1" stroke-miterlimit="1.154701" d="M 65 390.5 L 65 15.5 "/>
</svg>
